<svg width="1920" height="1080" viewBox="0 0 1920 1080" fill="none" xmlns="http://www.w3.org/2000/svg">
<g clip-path="url(#clip0)">
<path fill-rule="evenodd" clip-rule="evenodd" d="M62.45 107.94C111.15 134.8 111.15 134.8 111.15 134.8L159.86 107.94L111.15 85.02L62.45 107.94Z" fill="url(#paint0_linear)"/>
<path fill-rule="evenodd" clip-rule="evenodd" d="M111.16 134.79C127.39 125.84 143.63 116.89 159.87 107.93C126.89 124.16 94.42 124.16 62.46 107.93C78.69 116.89 94.92 125.84 111.16 134.79Z" fill="url(#paint1_linear)"/>
<path fill-rule="evenodd" clip-rule="evenodd" d="M117.26 144.53L163.65 119.44L154.22 163.71L116.32 196.63L117.26 144.53Z" fill="url(#paint2_linear)"/>
<path fill-rule="evenodd" clip-rule="evenodd" d="M119.62 144.92C127.86 140.15 144.74 131.85 162.62 121.34C134.61 142.72 121.01 173.27 118.85 194.43C118.68 179.11 119.47 160.61 119.62 144.92Z" fill="url(#paint3_linear)"/>
<path fill-rule="evenodd" clip-rule="evenodd" d="M105.73 144.53L59.34 119.44L68.77 163.71L106.66 196.63L105.73 144.53Z" fill="url(#paint4_linear)"/>
<path fill-rule="evenodd" clip-rule="evenodd" d="M103.36 144.92C95.12 140.15 78.24 131.85 60.36 121.34C88.36 142.72 102.68 173.89 104.84 195.05C105.01 179.72 103.2 160.25 103.36 144.92Z" fill="url(#paint5_linear)"/>
<path fill-rule="evenodd" clip-rule="evenodd" d="M398.76 124.35V138.57H396.63V125.64C396.63 121.16 394.03 118.22 389.49 118.22C385.08 118.22 381.68 121.46 381.68 125.98V138.56H379.52V107.42H381.68V120.86C383.18 118.3 385.69 116.3 389.8 116.3C395.16 116.29 398.4 119.62 398.76 124.35ZM363.66 139.06H362.3C356.14 138.73 351.48 133.67 351.48 127.77V127.69C351.48 121.59 356.51 116.3 362.95 116.3C367.18 116.3 369.83 118.18 371.95 120.31L370.41 121.85C368.47 119.93 366.26 118.27 362.91 118.27C357.79 118.27 353.83 122.41 353.83 127.61V127.7C353.83 132.95 357.93 137.13 363.09 137.13C366.27 137.13 368.74 135.55 370.63 133.5L372.13 134.78C369.97 137.14 367.41 138.87 363.66 139.06ZM334.56 139.06H333.24C327.96 138.78 324.91 135.12 324.91 130.12V116.81H327.07V129.74C327.07 134.22 329.67 137.16 334.21 137.16C338.62 137.16 342.02 133.92 342.02 129.4V116.81H344.18V138.57H342.02V134.52C340.6 136.93 338.27 138.85 334.56 139.06ZM307.1 139.06H305.77C299.46 138.73 294.93 133.67 294.93 127.77V127.69C294.93 121.59 299.83 116.3 306.53 116.3C313.19 116.3 318.04 121.51 318.04 127.61V127.7C318.03 133.58 313.46 138.72 307.1 139.06ZM228.8 139.06H227.41C221.77 138.75 217.01 134.27 217.01 127.73V127.64C217.01 121.33 221.6 116.29 227.68 116.29C233.99 116.29 238 121.24 238 127.68C238 128.06 238 128.19 237.96 128.53H219.3C219.7 133.95 223.71 137.1 228.12 137.1C231.6 137.1 233.99 135.61 235.84 133.69L237.34 134.97C235.2 137.23 232.69 138.87 228.8 139.06ZM182.03 138.56V108.7H184.18L205.48 134.68V108.7H207.69V138.56H205.97L184.23 112.03V138.56H182.03ZM227.61 118.21C223.15 118.21 219.72 121.84 219.32 126.66H235.68C235.37 122.27 232.77 118.21 227.61 118.21ZM264.25 138.56H261.56L253.62 128.88L245.68 138.56H243.08L252.25 127.47L243.43 116.8H246.12L253.66 126.01L261.29 116.8H263.89L255.02 127.42L264.25 138.56ZM281.66 110.75V138.56H279.37V110.75H268.6V108.7H292.42V110.75H281.66ZM315.7 127.69C315.7 122.44 311.64 118.26 306.44 118.26C301.1 118.26 297.27 122.48 297.27 127.6V127.69C297.27 132.94 301.33 137.12 306.53 137.12C311.87 137.12 315.7 132.9 315.7 127.78V127.69Z" fill="#184692"/>
<path fill-rule="evenodd" clip-rule="evenodd" d="M195.03 161.34V151.54H195.78V161.34H195.03ZM311.14 161.47H309.7C307.04 161.13 305.34 158.93 305.34 156.48V156.45C305.34 153.78 307.38 151.38 310.45 151.38C313.52 151.38 315.53 153.75 315.53 156.42V156.45C315.52 158.9 313.8 161.13 311.14 161.47ZM241.89 161.47H240.45C237.79 161.13 236.09 158.93 236.09 156.48V156.45C236.09 153.78 238.13 151.38 241.2 151.38C244.27 151.38 246.28 153.75 246.28 156.42V156.45C246.28 158.9 244.55 161.13 241.89 161.47ZM211.67 161.34L204.54 152.63V161.34H203.82V151.54H204.53L211.52 160.06V151.54H212.24V161.34H211.67ZM228.04 161.34L220.91 152.63V161.34H220.19V151.54H220.9L227.89 160.06V151.54H228.61V161.34H228.04ZM245.5 156.45C245.5 154.03 243.68 152.04 241.17 152.04C238.67 152.04 236.87 154 236.87 156.42V156.45C236.87 158.87 238.69 160.86 241.2 160.86C243.7 160.86 245.5 158.9 245.5 156.48V156.45ZM257.45 161.42H256.78L252.32 151.55H253.16L257.12 160.56L261.1 151.55H261.9L257.45 161.42ZM275.99 161.34L274.7 158.6H268.72L267.43 161.34H266.65L271.37 151.47H272.09L276.81 161.34H275.99ZM271.72 152.28L269.04 157.95H274.38L271.72 152.28ZM286.15 152.22V161.35H285.4V152.22H281.87V151.55H289.68V152.22H286.15ZM296.99 161.34V151.54H297.74V161.34H296.99ZM314.74 156.45C314.74 154.03 312.92 152.04 310.41 152.04C307.91 152.04 306.11 154 306.11 156.42V156.45C306.11 158.87 307.93 160.86 310.44 160.86C312.94 160.86 314.74 158.9 314.74 156.48V156.45ZM330.87 161.34L323.74 152.63V161.34H323.02V151.54H323.73L330.72 160.06V151.54H331.44V161.34H330.87ZM348.64 161.34V151.54H349.39V160.67H355.34V161.34H348.64V161.34ZM370.42 161.34L369.13 158.6H363.15L361.86 161.34H361.08L365.8 151.47H366.52L371.24 161.34H370.42ZM366.15 152.28L363.47 157.95H368.81L366.15 152.28ZM385.76 158.64V158.67C385.76 160.31 384.31 161.34 382.13 161.34H377.73V151.54H381.91C383.05 151.54 383.98 151.86 384.54 152.41C384.96 152.82 385.19 153.33 385.19 153.95V153.98C385.19 155.31 384.29 155.98 383.47 156.3C384.69 156.61 385.76 157.29 385.76 158.64ZM384.43 154.05V154.02C384.43 152.94 383.52 152.21 381.9 152.21H378.49V156.06H381.83C383.35 156.07 384.43 155.35 384.43 154.05ZM385 158.64C385 157.44 383.91 156.74 381.92 156.74H378.49V160.67H382.16C383.9 160.67 385 159.9 385 158.67V158.64Z" fill="#566085"/>
<path fill-rule="evenodd" clip-rule="evenodd" d="M218.4 189.09L215.49 179.85H217.2L218.74 185.18L219.28 187.17C219.3 187.07 219.47 186.44 219.78 185.26L221.3 179.85H222.97L224.42 185.22L224.89 186.98L225.44 185.2L227.1 179.86H228.69L225.67 189.1H223.98L222.45 183.57L222.06 181.99L220.11 189.1H218.4V189.09ZM231.79 189.09L228.88 179.85H230.59L232.13 185.18L232.67 187.17C232.69 187.07 232.86 186.44 233.17 185.26L234.69 179.85H236.36L237.81 185.22L238.28 186.98L238.83 185.2L240.49 179.86H242.08L239.06 189.1H237.37L235.84 183.57L235.45 181.99L233.5 189.1H231.79V189.09ZM245.19 189.09L242.28 179.85H243.99L245.53 185.18L246.07 187.17C246.09 187.07 246.26 186.44 246.57 185.26L248.09 179.85H249.76L251.21 185.22L251.68 186.98L252.23 185.2L253.89 179.86H255.48L252.46 189.1H250.77L249.24 183.57L248.85 181.99L246.9 189.1H245.19V189.09ZM256.29 189.09V187.31H258.14V189.09H256.29ZM260.98 189.09V179.85H262.44V181.16C263.14 180.15 264.16 179.65 265.5 179.65C266.08 179.65 266.61 179.75 267.1 179.95C267.59 180.15 267.95 180.41 268.19 180.74C268.43 181.06 268.6 181.45 268.7 181.89C268.76 182.18 268.79 182.69 268.79 183.41V189.09H267.16V183.47C267.16 182.83 267.1 182.35 266.97 182.04C266.84 181.73 266.62 181.47 266.3 181.28C265.98 181.09 265.6 181 265.17 181C264.48 181 263.88 181.21 263.38 181.64C262.88 182.06 262.63 182.87 262.63 184.05V189.09H260.98ZM277.86 186.09L279.55 186.3C279.29 187.24 278.8 187.97 278.08 188.49C277.36 189.01 276.45 189.27 275.33 189.27C273.93 189.27 272.81 188.85 271.99 188.02C271.17 187.19 270.76 186.03 270.76 184.53C270.76 182.98 271.17 181.78 272.01 180.92C272.84 180.06 273.92 179.63 275.25 179.63C276.53 179.63 277.58 180.05 278.39 180.89C279.2 181.73 279.61 182.91 279.61 184.43C279.61 184.52 279.61 184.66 279.6 184.85H272.43C272.49 185.86 272.79 186.64 273.33 187.18C273.86 187.72 274.54 187.99 275.34 187.99C275.94 187.99 276.45 187.84 276.87 187.54C277.28 187.24 277.61 186.76 277.86 186.09ZM272.52 183.58H277.88C277.81 182.8 277.6 182.22 277.27 181.83C276.75 181.23 276.08 180.92 275.25 180.92C274.5 180.92 273.87 181.16 273.36 181.64C272.86 182.13 272.57 182.77 272.52 183.58ZM280.5 189.09L284.01 184.3L280.75 179.84H282.76L284.28 182.02C284.56 182.43 284.78 182.76 284.94 183.02C285.22 182.65 285.46 182.31 285.68 182.01L287.28 179.83H289.27L286 184.3L289.49 189.09H287.51L285.52 186.24L285.07 185.55L282.5 189.08H280.5V189.09ZM294.42 187.69L294.64 189.07C294.18 189.16 293.77 189.21 293.41 189.21C292.82 189.21 292.36 189.12 292.04 188.94C291.72 188.76 291.49 188.52 291.35 188.23C291.22 187.94 291.15 187.32 291.15 186.38V181.06H289.94V179.85H291.15V177.56L292.78 176.62V179.85H294.41V181.06H292.78V186.47C292.78 186.92 292.81 187.21 292.87 187.33C292.93 187.46 293.02 187.56 293.15 187.64C293.28 187.71 293.46 187.75 293.71 187.75C293.89 187.75 294.13 187.73 294.42 187.69ZM295.42 184.46C295.42 182.75 295.91 181.49 296.91 180.67C297.74 179.99 298.75 179.65 299.94 179.65C301.26 179.65 302.34 180.07 303.18 180.9C304.02 181.73 304.44 182.88 304.44 184.34C304.44 185.53 304.25 186.46 303.88 187.14C303.51 187.82 302.97 188.35 302.26 188.73C301.55 189.11 300.78 189.29 299.94 189.29C298.59 189.29 297.51 188.88 296.67 188.05C295.84 187.21 295.42 186.02 295.42 184.46ZM297.09 184.47C297.09 185.65 297.36 186.54 297.9 187.12C298.44 187.71 299.12 188 299.94 188C300.75 188 301.42 187.71 301.97 187.11C302.51 186.52 302.78 185.62 302.78 184.41C302.78 183.27 302.51 182.41 301.97 181.82C301.43 181.23 300.76 180.94 299.95 180.94C299.13 180.94 298.45 181.23 297.91 181.82C297.36 182.41 297.09 183.29 297.09 184.47ZM312.64 189.09V187.72C311.89 188.77 310.88 189.29 309.6 189.29C309.03 189.29 308.51 189.19 308.01 188.98C307.52 188.77 307.15 188.51 306.92 188.19C306.68 187.87 306.52 187.49 306.42 187.03C306.36 186.72 306.32 186.23 306.32 185.57V179.85H307.95V184.96C307.95 185.78 307.98 186.33 308.05 186.61C308.15 187.02 308.37 187.34 308.7 187.58C309.03 187.81 309.44 187.93 309.93 187.93C310.42 187.93 310.88 187.81 311.3 187.57C311.73 187.33 312.03 187 312.21 186.59C312.39 186.18 312.48 185.57 312.48 184.79V179.85H314.11V189.09H312.64ZM322.95 185.7L324.54 185.91C324.36 186.96 323.92 187.79 323.2 188.38C322.48 188.98 321.59 189.27 320.54 189.27C319.23 189.27 318.17 188.86 317.37 188.03C316.57 187.2 316.17 186.02 316.17 184.49C316.17 183.49 316.34 182.62 316.69 181.87C317.03 181.13 317.56 180.56 318.26 180.19C318.96 179.82 319.73 179.63 320.55 179.63C321.59 179.63 322.45 179.88 323.11 180.39C323.77 180.9 324.2 181.62 324.39 182.55L322.81 182.78C322.66 182.16 322.39 181.69 322.01 181.38C321.63 181.07 321.16 180.91 320.62 180.91C319.8 180.91 319.13 181.19 318.61 181.76C318.1 182.33 317.84 183.22 317.84 184.44C317.84 185.68 318.09 186.58 318.58 187.14C319.08 187.7 319.72 187.98 320.52 187.98C321.16 187.98 321.7 187.79 322.12 187.42C322.57 187.06 322.84 186.48 322.95 185.7ZM325.94 189.09V176.34H327.57V180.93C328.33 180.08 329.28 179.65 330.44 179.65C331.15 179.65 331.76 179.78 332.29 180.05C332.81 180.32 333.19 180.69 333.41 181.17C333.64 181.64 333.75 182.34 333.75 183.24V189.09H332.12V183.25C332.12 182.47 331.94 181.9 331.59 181.54C331.24 181.18 330.74 181.01 330.1 181.01C329.62 181.01 329.17 181.13 328.75 181.37C328.33 181.61 328.03 181.94 327.84 182.35C327.66 182.76 327.57 183.33 327.57 184.05V189.1H325.94V189.09ZM336.72 189.09V187.31H338.57V189.09H336.72ZM341.39 189.09V179.85H342.86V181.27C343.23 180.61 343.58 180.18 343.9 179.97C344.22 179.76 344.57 179.66 344.95 179.66C345.5 179.66 346.06 179.83 346.63 180.16L346.05 181.61C345.65 181.4 345.26 181.29 344.86 181.29C344.5 181.29 344.19 181.39 343.91 181.6C343.63 181.8 343.43 182.09 343.31 182.45C343.13 183 343.04 183.61 343.04 184.28V189.11H341.39V189.09ZM353.87 189.09V187.72C353.12 188.77 352.11 189.29 350.83 189.29C350.26 189.29 349.74 189.19 349.24 188.98C348.75 188.77 348.38 188.51 348.15 188.19C347.91 187.87 347.75 187.49 347.65 187.03C347.58 186.72 347.55 186.23 347.55 185.57V179.85H349.18V184.96C349.18 185.78 349.21 186.33 349.28 186.61C349.38 187.02 349.6 187.34 349.93 187.58C350.26 187.81 350.67 187.93 351.16 187.93C351.65 187.93 352.11 187.81 352.53 187.57C352.96 187.33 353.26 187 353.44 186.59C353.62 186.18 353.71 185.57 353.71 184.79V179.85H355.34V189.09H353.87ZM215.44 190.7H356.67V191.51H215.44V190.7Z" fill="#1B4893"/>
<path d="M890.9 1103.18L856.08 1073.18V1025.58C857.7 1025.08 858.87 1023.76 858.87 1022.2C858.87 1020.21 857 1018.6 854.69 1018.6C852.38 1018.6 850.51 1020.21 850.51 1022.2C850.51 1023.77 851.68 1025.08 853.3 1025.58V1074.17L888.12 1104.18V1132.7H890.91V1103.18H890.9Z" fill="#40B7E2"/>
<path d="M902.04 1099.2L867.22 1069.2V1025.58C868.84 1025.08 870.01 1023.76 870.01 1022.2C870.01 1020.21 868.14 1018.6 865.83 1018.6C863.52 1018.6 861.65 1020.21 861.65 1022.2C861.65 1023.76 862.82 1025.08 864.43 1025.58V1070.19L899.25 1100.2V1132.7H902.04V1099.2Z" fill="#40B7E2"/>
<path d="M913.19 1095.22L878.37 1065.21V1025.57C879.99 1025.07 881.16 1023.75 881.16 1022.19C881.16 1020.2 879.29 1018.59 876.98 1018.59C874.67 1018.59 872.8 1020.2 872.8 1022.19C872.8 1023.75 873.97 1025.07 875.59 1025.57V1066.21L910.41 1096.22V1132.7H913.19V1095.22Z" fill="#40B7E2"/>
<path d="M198.25 1101.99L240.04 1065.98V1042.46C241.66 1041.96 242.83 1040.64 242.83 1039.08C242.83 1037.09 240.96 1035.48 238.65 1035.48C236.34 1035.48 234.47 1037.09 234.47 1039.08C234.47 1040.65 235.64 1041.96 237.26 1042.46V1065L195.47 1101V1132.48H198.26V1101.99H198.25Z" fill="#40B7E2"/>
<path d="M187.1 1098.02L228.89 1062.01V1023.26C230.51 1022.77 231.67 1021.45 231.67 1019.88C231.67 1017.89 229.8 1016.28 227.49 1016.28C225.18 1016.28 223.31 1017.89 223.31 1019.88C223.31 1021.44 224.48 1022.76 226.1 1023.26V1061.01L184.31 1097.02V1132.48H187.1V1098.02V1098.02Z" fill="#40B7E2"/>
<path d="M175.96 1094.04L217.75 1058.03V1032.86C219.37 1032.37 220.54 1031.05 220.54 1029.48C220.54 1027.49 218.67 1025.88 216.36 1025.88C214.05 1025.88 212.18 1027.49 212.18 1029.48C212.18 1031.05 213.35 1032.36 214.96 1032.86V1057.03L173.17 1093.04V1132.47H175.95V1094.04H175.96Z" fill="#40B7E2"/>
<path d="M164.82 1090.06L206.61 1054.05V1009.55C208.23 1009.05 209.4 1007.73 209.4 1006.17C209.4 1004.18 207.53 1002.57 205.22 1002.57C202.91 1002.57 201.04 1004.18 201.04 1006.17C201.04 1007.74 202.21 1009.05 203.83 1009.55V1053.06L162.04 1089.07V1132.48H164.83V1090.06H164.82Z" fill="#40B7E2"/>
<path d="M119.48 1019.52C117.17 1019.46 115.25 1021.02 115.17 1023.01C115.11 1024.58 116.23 1025.92 117.83 1026.46L117.06 1047.71L73.9 1046.58C73.37 1045.17 71.88 1044.13 70.06 1044.08C67.75 1044.02 65.83 1045.58 65.75 1047.57C65.68 1049.56 67.49 1051.22 69.8 1051.28C71.62 1051.33 73.18 1050.36 73.81 1048.98L119.76 1050.19L120.61 1026.54C122.25 1026.09 123.46 1024.8 123.52 1023.23C123.6 1021.24 121.79 1019.58 119.48 1019.52Z" fill="#40B7E2"/>
<path d="M137.92 1025.27C135.61 1025.21 133.68 1026.77 133.61 1028.76C133.55 1030.33 134.67 1031.67 136.27 1032.21L135.13 1063.73L76.53 1062.19L59.8 1075.74C59.26 1075.5 58.67 1075.35 58.02 1075.33C55.71 1075.27 53.78 1076.83 53.71 1078.82C53.64 1080.81 55.45 1082.47 57.76 1082.53C60.07 1082.59 61.99 1081.03 62.07 1079.04C62.09 1078.48 61.95 1077.96 61.71 1077.49L77.6 1064.62L137.83 1066.2L139.05 1032.28C140.69 1031.83 141.9 1030.54 141.96 1028.97C142.04 1026.99 140.23 1025.33 137.92 1025.27Z" fill="#40B7E2"/>
<path d="M38.34 817.05C38.34 815.06 36.47 813.45 34.16 813.45C31.85 813.45 29.98 815.06 29.98 817.05C29.98 818.62 31.15 819.93 32.77 820.43V946.25L12.37 963.83V1088.84C10.75 1089.34 9.57996 1090.65 9.57996 1092.22C9.57996 1094.21 11.45 1095.82 13.76 1095.82C16.07 1095.82 17.94 1094.21 17.94 1092.22C17.94 1090.65 16.77 1089.34 15.15 1088.84V964.83L35.55 947.25V820.44C37.17 819.94 38.34 818.62 38.34 817.05Z" fill="#F1851B"/>
<path d="M50.5299 827.46C50.5299 825.47 48.6599 823.86 46.3499 823.86C44.0399 823.86 42.1699 825.47 42.1699 827.46C42.1699 829.03 43.3399 830.34 44.9599 830.84V956.66L24.5599 974.24V1099.25C22.9399 1099.75 21.7699 1101.06 21.7699 1102.63C21.7699 1104.62 23.6399 1106.23 25.9499 1106.23C28.2599 1106.23 30.1299 1104.62 30.1299 1102.63C30.1299 1101.06 28.9599 1099.75 27.3399 1099.25V975.23L47.7399 957.65V830.84C49.3599 830.34 50.5299 829.03 50.5299 827.46Z" fill="#F1851B"/>
<path d="M61.87 837.14C61.87 835.15 60 833.54 57.69 833.54C55.38 833.54 53.51 835.15 53.51 837.14C53.51 838.71 54.68 840.02 56.3 840.52V966.34L35.9 983.92V1108.93C34.28 1109.43 33.11 1110.74 33.11 1112.31C33.11 1114.3 34.98 1115.91 37.29 1115.91C39.6 1115.91 41.47 1114.3 41.47 1112.31C41.47 1110.74 40.3 1109.43 38.68 1108.93V984.91L59.08 967.33V840.52C60.7 840.02 61.87 838.7 61.87 837.14Z" fill="#40B7E2"/>
<path d="M967.98 1082.45C966.36 1082.95 965.19 1084.27 965.19 1085.83C965.19 1087.82 967.06 1089.43 969.37 1089.43C971.68 1089.43 973.55 1087.82 973.55 1085.83C973.55 1084.27 972.38 1082.94 970.76 1082.45V1047.61L941.63 1022.51C941.89 1022.04 942.04 1021.52 942.04 1020.97C942.04 1018.98 940.17 1017.37 937.86 1017.37C935.55 1017.37 933.68 1018.98 933.68 1020.97C933.68 1022.96 935.55 1024.57 937.86 1024.57C938.5 1024.57 939.11 1024.43 939.65 1024.21L967.97 1048.61V1082.45H967.98Z" fill="#40B7E2"/>
<path d="M919.62 1034.41C919.62 1032.42 917.75 1030.81 915.44 1030.81C913.13 1030.81 911.26 1032.42 911.26 1034.41C911.26 1036.4 913.13 1038.01 915.44 1038.01C916.08 1038.01 916.69 1037.87 917.23 1037.65L939.39 1056.74C939.13 1057.21 938.97 1057.73 938.97 1058.28C938.97 1060.27 940.84 1061.88 943.15 1061.88C945.46 1061.88 947.33 1060.27 947.33 1058.28C947.33 1056.29 945.46 1054.68 943.15 1054.68C942.51 1054.68 941.9 1054.82 941.36 1055.04L919.2 1035.95C919.46 1035.49 919.62 1034.97 919.62 1034.41Z" fill="#40B7E2"/>
<path d="M715.51 1038.5H556.4V1324.95H559.18V1040.9H715.51C716.08 1042.3 717.61 1043.3 719.43 1043.3C721.74 1043.3 723.61 1041.69 723.61 1039.7C723.61 1037.71 721.74 1036.1 719.43 1036.1C717.62 1036.1 716.08 1037.11 715.51 1038.5Z" fill="#40B7E2"/>
<path d="M570.33 1050.5H687.66C688.24 1051.9 689.77 1052.9 691.58 1052.9C693.89 1052.9 695.76 1051.29 695.76 1049.3C695.76 1047.31 693.89 1045.7 691.58 1045.7C689.76 1045.7 688.23 1046.71 687.66 1048.1H567.54V1324.95H570.33V1050.5V1050.5Z" fill="#40B7E2"/>
<path d="M581.47 1060.11H802.14C802.71 1061.5 804.24 1062.51 806.06 1062.51C808.37 1062.51 810.24 1060.9 810.24 1058.91C810.24 1056.92 808.37 1055.31 806.06 1055.31C804.24 1055.31 802.71 1056.31 802.14 1057.71H578.68V1324.96H581.47V1060.11V1060.11Z" fill="#40B7E2"/>
<path d="M440.52 1038.5H536.05V1324.95H533.27V1040.9H440.53C439.96 1042.3 438.43 1043.3 436.61 1043.3C434.3 1043.3 432.43 1041.69 432.43 1039.7C432.43 1037.71 434.3 1036.1 436.61 1036.1C438.42 1036.1 439.95 1037.11 440.52 1038.5Z" fill="#40B7E2"/>
<path d="M522.12 1050.5H318.17C317.59 1051.9 316.06 1052.9 314.25 1052.9C311.94 1052.9 310.07 1051.29 310.07 1049.3C310.07 1047.31 311.94 1045.7 314.25 1045.7C316.07 1045.7 317.6 1046.71 318.17 1048.1H524.9V1324.95H522.11V1050.5H522.12Z" fill="#40B7E2"/>
<path d="M510.98 1060.11H290.31C289.74 1061.5 288.21 1062.51 286.39 1062.51C284.08 1062.51 282.21 1060.9 282.21 1058.91C282.21 1056.92 284.08 1055.31 286.39 1055.31C288.21 1055.31 289.74 1056.31 290.31 1057.71H513.76V1324.96H510.97V1060.11H510.98Z" fill="#40B7E2"/>
<path d="M1701.39 -27.29L1654.85 11.34V36.57C1653.05 37.1 1651.75 38.52 1651.75 40.2C1651.75 42.33 1653.83 44.06 1656.4 44.06C1658.97 44.06 1661.05 42.33 1661.05 40.2C1661.05 38.52 1659.75 37.11 1657.95 36.57V12.41L1704.49 -26.22V-59.99H1701.39V-27.29V-27.29Z" fill="#40B7E2"/>
<path d="M1713.79 -23.02L1667.25 15.61V57.18C1665.45 57.71 1664.15 59.13 1664.15 60.81C1664.15 62.95 1666.23 64.67 1668.8 64.67C1671.37 64.67 1673.45 62.94 1673.45 60.81C1673.45 59.13 1672.15 57.72 1670.35 57.18V16.68L1716.89 -21.95V-59.99H1713.79V-23.02V-23.02Z" fill="#40B7E2"/>
<path d="M1726.21 -18.75L1679.67 19.88V46.88C1677.87 47.41 1676.57 48.83 1676.57 50.51C1676.57 52.64 1678.65 54.37 1681.22 54.37C1683.79 54.37 1685.87 52.64 1685.87 50.51C1685.87 48.83 1684.57 47.42 1682.77 46.88V20.94L1729.31 -17.69V-60H1726.21V-18.75V-18.75Z" fill="#40B7E2"/>
<path d="M1738.61 -14.48L1692.07 24.15V71.89C1690.27 72.42 1688.97 73.84 1688.97 75.52C1688.97 77.65 1691.05 79.38 1693.62 79.38C1696.19 79.38 1698.27 77.65 1698.27 75.52C1698.27 73.84 1696.97 72.43 1695.17 71.89V25.21L1741.71 -13.42V-60H1738.61V-14.48V-14.48Z" fill="#40B7E2"/>
<path d="M1789.1 61.2C1791.67 61.27 1793.82 59.59 1793.9 57.46C1793.96 55.78 1792.72 54.33 1790.94 53.76L1791.79 30.96L1839.86 32.18C1840.45 33.69 1842.11 34.81 1844.13 34.86C1846.7 34.93 1848.85 33.25 1848.93 31.12C1849.01 28.99 1846.99 27.21 1844.42 27.14C1842.4 27.09 1840.65 28.12 1839.96 29.6L1788.79 28.3L1787.84 53.67C1786.02 54.16 1784.67 55.54 1784.6 57.22C1784.52 59.35 1786.53 61.13 1789.1 61.2Z" fill="#40B7E2"/>
<path d="M1768.57 55.03C1771.14 55.1 1773.29 53.42 1773.37 51.29C1773.43 49.61 1772.19 48.16 1770.4 47.59L1771.67 13.77L1836.93 15.42L1855.56 0.880011C1856.16 1.14001 1856.82 1.30001 1857.54 1.32001C1860.11 1.39001 1862.26 -0.289989 1862.34 -2.41999C1862.42 -4.54999 1860.4 -6.32999 1857.83 -6.39999C1855.26 -6.46999 1853.11 -4.78999 1853.03 -2.65999C1853.01 -2.05999 1853.16 -1.49999 1853.43 -0.989989L1835.74 12.82L1768.66 11.12L1767.3 47.51C1765.48 47.99 1764.13 49.38 1764.06 51.06C1763.98 53.18 1766 54.96 1768.57 55.03Z" fill="#40B7E2"/>
<path d="M1892.19 286.98C1892.19 289.2 1894.28 291 1896.85 291C1899.42 291 1901.5 289.19 1901.5 286.97C1901.5 285.22 1900.2 283.75 1898.39 283.19L1898.19 142.54L1920.88 122.86L1920.69 -16.89C1922.49 -17.45 1923.79 -18.92 1923.79 -20.67C1923.79 -22.89 1921.7 -24.69 1919.13 -24.69C1916.56 -24.69 1914.48 -22.88 1914.48 -20.66C1914.48 -18.91 1915.78 -17.44 1917.59 -16.89L1917.78 121.74L1895.09 141.42L1895.29 283.18C1893.49 283.75 1892.19 285.23 1892.19 286.98Z" fill="#AF246D"/>
<path d="M1874.78 270.69C1874.78 272.82 1876.86 274.55 1879.43 274.55C1882 274.55 1884.09 272.82 1884.09 270.69C1884.09 269.01 1882.79 267.6 1880.99 267.06V132.08L1903.71 113.22V-20.9C1905.51 -21.43 1906.81 -22.85 1906.81 -24.53C1906.81 -26.66 1904.73 -28.39 1902.16 -28.39C1899.59 -28.39 1897.51 -26.66 1897.51 -24.53C1897.51 -22.85 1898.81 -21.44 1900.61 -20.9V112.15L1877.89 131.01V267.06C1876.08 267.6 1874.78 269.01 1874.78 270.69Z" fill="#F1851B"/>
<path d="M1340.71 27.96H1567.84C1568.48 26.46 1570.19 25.38 1572.21 25.38C1574.78 25.38 1576.86 27.11 1576.86 29.24C1576.86 31.38 1574.77 33.1 1572.21 33.1C1570.19 33.1 1568.48 32.02 1567.84 30.52H1337.61V-266.5H1340.71V27.96Z" fill="#40B7E2"/>
<path d="M1353.12 17.65H1598.86C1599.5 16.15 1601.2 15.08 1603.23 15.08C1605.8 15.08 1607.88 16.81 1607.88 18.94C1607.88 21.07 1605.8 22.8 1603.23 22.8C1601.21 22.8 1599.5 21.72 1598.86 20.22H1350.01V-266.5H1353.11V17.65H1353.12Z" fill="#40B7E2"/>
<path d="M1849.21 953.96L1841.84 945.16C1839.85 942.78 1839.18 939.58 1839.99 936.58C1842.02 929.04 1843.15 921.36 1843.42 913.71C1843.53 910.6 1845.1 907.73 1847.71 906.04L1857.35 899.78C1861.41 897.14 1863.36 892.22 1862.19 887.52L1858.7 873.48C1857.53 868.78 1853.51 865.34 1848.68 864.91L1837.23 863.89C1834.13 863.62 1831.4 861.82 1829.85 859.12C1826.03 852.48 1821.44 846.23 1816.12 840.52C1814 838.25 1813.09 835.11 1813.74 832.07L1816.13 820.84C1817.14 816.1 1815.03 811.25 1810.88 808.75L1798.49 801.29C1794.34 798.79 1789.06 799.2 1785.35 802.31L1776.55 809.68C1774.17 811.67 1770.97 812.34 1767.97 811.53C1760.43 809.5 1752.75 808.37 1745.1 808.1C1741.99 807.99 1739.12 806.42 1737.43 803.81L1731.17 794.17C1728.53 790.11 1723.61 788.16 1718.91 789.33L1704.87 792.82C1700.17 793.99 1696.73 798.01 1696.3 802.84L1695.28 814.29C1695.01 817.39 1693.21 820.12 1690.51 821.67C1683.87 825.49 1677.62 830.08 1671.91 835.4C1669.64 837.52 1666.5 838.43 1663.46 837.78L1652.23 835.39C1647.49 834.38 1642.64 836.49 1640.14 840.64L1632.68 853.03C1630.18 857.18 1630.59 862.46 1633.7 866.17L1641.07 874.97C1643.06 877.35 1643.73 880.55 1642.92 883.55C1640.89 891.09 1639.76 898.77 1639.49 906.42C1639.38 909.53 1637.81 912.4 1635.2 914.09L1625.56 920.35C1621.5 922.99 1619.55 927.91 1620.72 932.61L1624.21 946.65C1625.38 951.35 1629.4 954.79 1634.23 955.22L1645.68 956.24C1648.78 956.51 1651.51 958.31 1653.07 961.01C1656.89 967.65 1661.48 973.9 1666.8 979.61C1668.92 981.88 1669.83 985.02 1669.18 988.06L1666.79 999.29C1665.78 1004.03 1667.89 1008.88 1672.04 1011.38L1684.43 1018.84C1688.58 1021.34 1693.86 1020.93 1697.57 1017.82L1706.37 1010.45C1708.75 1008.46 1711.95 1007.79 1714.95 1008.6C1722.49 1010.63 1730.17 1011.76 1737.82 1012.03C1740.93 1012.14 1743.8 1013.71 1745.49 1016.32L1751.75 1025.96C1754.39 1030.02 1759.31 1031.97 1764.01 1030.8L1778.05 1027.31C1782.75 1026.14 1786.19 1022.12 1786.62 1017.29L1787.64 1005.84C1787.91 1002.74 1789.71 1000.01 1792.41 998.46C1799.05 994.64 1805.3 990.05 1811.01 984.73C1813.28 982.61 1816.42 981.7 1819.46 982.35L1830.69 984.74C1835.43 985.75 1840.29 983.64 1842.78 979.49L1850.24 967.1C1852.73 962.95 1852.32 957.67 1849.21 953.96ZM1705.54 986.19C1663.5 966.36 1645.5 916.2 1665.34 874.16C1685.17 832.12 1735.33 814.12 1777.37 833.96C1819.41 853.79 1837.41 903.95 1817.57 945.99C1797.73 988.02 1747.58 1006.02 1705.54 986.19Z" stroke="#9C9FA0" stroke-miterlimit="10"/>
<path d="M1679.46 895.65C1679.46 895.65 1715.57 886.59 1753.72 892.05C1764.45 893.59 1773.96 899.83 1779.76 909C1790.2 925.52 1804.95 954.95 1801.83 985.65L1785.45 989.7C1785.45 989.7 1774.13 953.27 1761.38 938.44C1761.38 938.44 1746.29 972.84 1747.05 991.73C1747.07 992.26 1747.11 992.79 1747.15 993.29C1748.88 1011.77 1674.71 996.74 1674.71 996.74L1679.46 895.65Z" fill="#F1851B"/>
<path d="M1708.59 864.61L1710.24 890.22C1710.39 892.6 1711.94 894.62 1714.1 895.26C1719.08 896.73 1728.48 898.51 1737.7 894.8C1739.39 894.12 1740.25 892.12 1739.69 890.3L1727.5 851.13L1708.59 864.61Z" fill="#E2CBAA"/>
<path d="M1704.47 827.51C1704.47 827.51 1696.68 845.4 1696.16 854.79C1695.64 864.18 1693.61 870.28 1704.47 872.17C1715.33 874.06 1724.48 868.65 1729.43 859.3C1729.43 859.3 1737.19 844.89 1735.45 838.98C1733.72 833.08 1704.47 827.51 1704.47 827.51Z" fill="#E2CBAA"/>
<path d="M1725.72 852.58H1724.35C1724.35 852.58 1730.01 840.98 1725.04 838.94C1720.07 836.9 1700.38 832.89 1696.14 825.9C1692.05 819.17 1695.7 810.47 1701.16 808.03C1701.51 807.88 1701.91 808.04 1702.09 808.37L1702.54 809.23C1702.85 809.82 1703.72 809.73 1703.9 809.09C1704.07 808.49 1704.89 808.35 1705.22 808.89C1706.52 810.98 1710.04 814.38 1719.48 816.12C1732.88 818.59 1741.74 824.02 1741.95 833.28C1741.96 833.87 1742.59 834.19 1743.09 833.88C1744.08 833.28 1745.66 832.99 1747.78 834.77C1751.46 837.86 1749.95 845.89 1741.89 852.49C1741.51 852.8 1741.51 853.4 1741.92 853.67C1743.38 854.62 1745.56 856.89 1739.91 859.91C1734.13 863 1730.71 862.66 1729.42 862.33C1729.07 862.24 1728.84 861.92 1728.86 861.57L1729.37 853.36C1729.4 852.94 1729.06 852.58 1728.63 852.58H1725.72Z" fill="#40B7E2"/>
<path d="M1725.39 854.29C1725.39 854.29 1728.36 842.86 1733.49 846.06C1738.61 849.26 1730.83 858.87 1726.71 859.29L1725.39 854.29Z" fill="#E2CBAA"/>
<path d="M1679.68 969.3C1678.08 958 1689.78 941.4 1694.62 935.1C1696 933.3 1696.78 931.09 1696.8 928.82C1696.94 912.82 1690.22 902.55 1679.46 895.65C1679.46 895.65 1640.4 941.16 1650.35 976.16C1651.42 979.94 1653.09 983.18 1655.19 985.97C1656.75 972.78 1672 969.91 1679.68 969.3Z" fill="#F1851B"/>
<path d="M1680.41 964.93L1678.92 964.76C1680.18 953.68 1689.9 940.01 1694.02 934.64L1695.21 935.55C1691.16 940.82 1681.63 954.23 1680.41 964.93Z" fill="white"/>
<path d="M1679.99 970.86C1679.85 970.35 1679.76 969.83 1679.68 969.3C1672 969.91 1656.75 972.79 1655.19 985.97C1672.62 1009.02 1720.67 1000.71 1720.67 1000.71V991.74C1720.66 991.74 1683.76 984.88 1679.99 970.86Z" fill="#E2CBAA"/>
<path d="M1712.94 1001.63C1712.94 1001.63 1720.03 984.89 1732.53 990.83C1745.03 996.77 1744.05 1000.65 1744.05 1000.65L1712.94 1001.63Z" fill="#E2CBAA"/>
<path d="M1745.43 909.95C1744.06 921.17 1737.88 966.76 1736.11 979.78C1735.86 981.61 1737.32 983.22 1739.16 983.17L1843.95 980.17C1845.32 980.13 1846.49 979.16 1846.79 977.83L1863.09 904.42C1863.52 902.48 1861.98 900.66 1859.99 900.78L1748.22 907.33C1746.78 907.41 1745.61 908.51 1745.43 909.95Z" fill="#40B7E2"/>
<path d="M1787.55 955.99L1772.06 999.95L1808.07 1000.71L1811.07 956.25C1811.21 954.16 1809.48 952.43 1807.39 952.57L1790.57 953.69C1789.2 953.78 1788.01 954.68 1787.55 955.99Z" fill="#40B7E2"/>
<path d="M1757.46 1000.57C1757.06 1001.78 1757.96 1003.02 1759.24 1003.02H1815.64C1816.67 1003.02 1817.51 1002.18 1817.51 1001.15V998.73C1817.51 997.67 1816.62 996.82 1815.56 996.86L1759.16 999.28C1758.38 999.32 1757.71 999.83 1757.46 1000.57Z" fill="#40B7E2"/>
<path d="M1743.99 956.34L1742.96 956.21L1748.11 915.61C1748.44 913.02 1750.57 911.03 1753.17 910.87L1849.76 905.04L1849.82 906.08L1753.23 911.91C1751.12 912.04 1749.4 913.65 1749.14 915.74L1743.99 956.34Z" fill="white"/>
<path d="M1741.52 967.7L1740.42 976.491L1741.45 976.621L1742.55 967.83L1741.52 967.7Z" fill="white"/>
</g>
<defs>
<linearGradient id="paint0_linear" x1="111.158" y1="134.794" x2="111.158" y2="85.0213" gradientUnits="userSpaceOnUse">
<stop stop-color="#E72F84"/>
<stop offset="1" stop-color="#72358B"/>
</linearGradient>
<linearGradient id="paint1_linear" x1="111.158" y1="136.537" x2="111.158" y2="115.091" gradientUnits="userSpaceOnUse">
<stop stop-color="#E72F84"/>
<stop offset="1" stop-color="#72358B"/>
</linearGradient>
<linearGradient id="paint2_linear" x1="135.956" y1="180.383" x2="140.145" y2="135.319" gradientUnits="userSpaceOnUse">
<stop stop-color="#F8AF23"/>
<stop offset="0.95" stop-color="#E14A12"/>
<stop offset="1" stop-color="#E14A12"/>
</linearGradient>
<linearGradient id="paint3_linear" x1="109.709" y1="182.971" x2="154.475" y2="120.512" gradientUnits="userSpaceOnUse">
<stop stop-color="#DF3C14"/>
<stop offset="1" stop-color="#F7A71B"/>
</linearGradient>
<linearGradient id="paint4_linear" x1="74.3155" y1="135.379" x2="101.099" y2="174.194" gradientUnits="userSpaceOnUse">
<stop stop-color="#54C2F0"/>
<stop offset="1" stop-color="#DEF0F7"/>
</linearGradient>
<linearGradient id="paint5_linear" x1="114.005" y1="85.056" x2="49.9548" y2="234.241" gradientUnits="userSpaceOnUse">
<stop stop-color="#B8E1ED"/>
<stop offset="1" stop-color="#43BFEF"/>
</linearGradient>
<clipPath id="clip0">
<rect width="1920" height="1080" fill="white"/>
</clipPath>
</defs>
</svg>
