<svg width="394" height="69" viewBox="0 0 394 69" fill="none" xmlns="http://www.w3.org/2000/svg">
<path d="M332.34 68.36H0V0H332.34C337.16 0 341.07 3.90998 341.07 8.72998V59.63C341.08 64.45 337.17 68.36 332.34 68.36Z" fill="#40B7E2"/>
<path d="M31.38 27.061C32.024 26.9383 32.7293 26.8463 33.496 26.785C34.278 26.7083 35.0523 26.67 35.819 26.67C36.6163 26.67 37.4137 26.739 38.211 26.877C39.0237 26.9997 39.752 27.2603 40.396 27.659C41.04 28.0423 41.5613 28.5867 41.96 29.292C42.374 29.982 42.581 30.8867 42.581 32.006C42.581 33.018 42.4047 33.8767 42.052 34.582C41.6993 35.272 41.2317 35.8393 40.649 36.284C40.0663 36.7287 39.3993 37.0507 38.648 37.25C37.912 37.4493 37.1453 37.549 36.348 37.549C36.2713 37.549 36.1487 37.549 35.98 37.549C35.8113 37.549 35.635 37.549 35.451 37.549C35.267 37.5337 35.083 37.5183 34.899 37.503C34.7303 37.4877 34.6077 37.4723 34.531 37.457V43H31.38V27.061ZM36.072 29.384C35.7653 29.384 35.474 29.3993 35.198 29.43C34.922 29.4453 34.6997 29.4683 34.531 29.499V34.72C34.5923 34.7353 34.6843 34.7507 34.807 34.766C34.9297 34.7813 35.06 34.7967 35.198 34.812C35.336 34.812 35.4663 34.812 35.589 34.812C35.727 34.812 35.8267 34.812 35.888 34.812C36.302 34.812 36.7083 34.7737 37.107 34.697C37.521 34.6203 37.889 34.4823 38.211 34.283C38.533 34.0683 38.786 33.777 38.97 33.409C39.1693 33.041 39.269 32.558 39.269 31.96C39.269 31.454 39.177 31.04 38.993 30.718C38.809 30.3807 38.5637 30.1123 38.257 29.913C37.9657 29.7137 37.6283 29.5757 37.245 29.499C36.8617 29.4223 36.4707 29.384 36.072 29.384ZM44.5421 26.9H54.0871V29.706H47.6931V33.455H53.5121V36.261H47.6931V40.194H54.2021V43H44.5421V26.9ZM57.9387 35.87V33.409H58.4907C58.6287 33.409 58.7974 33.409 58.9967 33.409C59.196 33.409 59.3954 33.409 59.5947 33.409C59.8094 33.3937 60.0164 33.3783 60.2157 33.363C60.415 33.3323 60.576 33.3017 60.6987 33.271C61.2354 33.1483 61.6954 32.9337 62.0787 32.627C62.462 32.305 62.6537 31.8757 62.6537 31.339C62.6537 30.603 62.416 30.1047 61.9407 29.844C61.4807 29.568 60.8674 29.43 60.1007 29.43C59.4107 29.43 58.7667 29.522 58.1687 29.706C57.5707 29.89 57.1184 30.0663 56.8117 30.235L56.0067 27.567C56.1754 27.475 56.413 27.3753 56.7197 27.268C57.0417 27.1607 57.402 27.061 57.8007 26.969C58.2147 26.8617 58.6594 26.7773 59.1347 26.716C59.61 26.6547 60.093 26.624 60.5837 26.624C61.2584 26.624 61.9177 26.6853 62.5617 26.808C63.2057 26.9307 63.7807 27.1453 64.2867 27.452C64.7927 27.7587 65.199 28.1727 65.5057 28.694C65.8124 29.2 65.9657 29.8517 65.9657 30.649C65.9657 31.4463 65.751 32.1823 65.3217 32.857C64.9077 33.5317 64.233 34.0223 63.2977 34.329V34.444C64.2944 34.6433 65.0687 35.0727 65.6207 35.732C66.188 36.3913 66.4717 37.273 66.4717 38.377C66.4717 39.251 66.2954 40.0023 65.9427 40.631C65.59 41.2443 65.1224 41.7503 64.5397 42.149C63.9724 42.5477 63.313 42.839 62.5617 43.023C61.8104 43.2223 61.0437 43.322 60.2617 43.322C59.2497 43.322 58.3297 43.2377 57.5017 43.069C56.6737 42.9003 56.0374 42.701 55.5927 42.471L56.3977 39.734C56.7504 39.9027 57.2564 40.079 57.9157 40.263C58.575 40.4317 59.357 40.516 60.2617 40.516C60.599 40.516 60.9364 40.4777 61.2737 40.401C61.6264 40.309 61.9407 40.171 62.2167 39.987C62.4927 39.7877 62.715 39.5347 62.8837 39.228C63.0524 38.9213 63.1367 38.5533 63.1367 38.124C63.1367 37.4033 62.8684 36.859 62.3317 36.491C61.795 36.123 60.8367 35.9237 59.4567 35.893C59.2727 35.8777 59.1347 35.87 59.0427 35.87C58.9507 35.87 58.7897 35.87 58.5597 35.87H57.9387ZM68.6652 26.9H78.2102V29.706H71.8162V33.455H77.6352V36.261H71.8162V40.194H78.3252V43H68.6652V26.9ZM80.6818 27.061C81.3258 26.9383 82.0311 26.8463 82.7978 26.785C83.5798 26.7083 84.3541 26.67 85.1208 26.67C85.9181 26.67 86.7154 26.739 87.5128 26.877C88.3254 26.9997 89.0538 27.2603 89.6978 27.659C90.3418 28.0423 90.8631 28.5867 91.2618 29.292C91.6758 29.982 91.8828 30.8867 91.8828 32.006C91.8828 33.018 91.7064 33.8767 91.3538 34.582C91.0011 35.272 90.5334 35.8393 89.9508 36.284C89.3681 36.7287 88.7011 37.0507 87.9498 37.25C87.2138 37.4493 86.4471 37.549 85.6498 37.549C85.5731 37.549 85.4504 37.549 85.2818 37.549C85.1131 37.549 84.9368 37.549 84.7528 37.549C84.5688 37.5337 84.3848 37.5183 84.2008 37.503C84.0321 37.4877 83.9094 37.4723 83.8328 37.457V43H80.6818V27.061ZM85.3738 29.384C85.0671 29.384 84.7758 29.3993 84.4998 29.43C84.2238 29.4453 84.0014 29.4683 83.8328 29.499V34.72C83.8941 34.7353 83.9861 34.7507 84.1088 34.766C84.2314 34.7813 84.3618 34.7967 84.4998 34.812C84.6378 34.812 84.7681 34.812 84.8908 34.812C85.0288 34.812 85.1284 34.812 85.1898 34.812C85.6038 34.812 86.0101 34.7737 86.4088 34.697C86.8228 34.6203 87.1908 34.4823 87.5128 34.283C87.8348 34.0683 88.0878 33.777 88.2718 33.409C88.4711 33.041 88.5708 32.558 88.5708 31.96C88.5708 31.454 88.4788 31.04 88.2948 30.718C88.1108 30.3807 87.8654 30.1123 87.5588 29.913C87.2674 29.7137 86.9301 29.5757 86.5468 29.499C86.1634 29.4223 85.7724 29.384 85.3738 29.384ZM104.677 30.649C104.677 31.0477 104.623 31.4463 104.516 31.845C104.424 32.2437 104.263 32.6117 104.033 32.949C103.803 33.271 103.504 33.5623 103.136 33.823C102.768 34.0683 102.323 34.2523 101.802 34.375V34.513C102.262 34.5897 102.699 34.72 103.113 34.904C103.527 35.088 103.887 35.341 104.194 35.663C104.501 35.985 104.738 36.376 104.907 36.836C105.091 37.296 105.183 37.8403 105.183 38.469C105.183 39.297 105.007 40.0177 104.654 40.631C104.301 41.229 103.826 41.7197 103.228 42.103C102.645 42.4863 101.978 42.77 101.227 42.954C100.476 43.138 99.7012 43.23 98.9039 43.23C98.6432 43.23 98.3059 43.23 97.8919 43.23C97.4932 43.23 97.0562 43.2147 96.5809 43.184C96.1209 43.1687 95.6455 43.138 95.1549 43.092C94.6795 43.046 94.2425 42.977 93.8439 42.885V27.015C94.1352 26.969 94.4649 26.923 94.8329 26.877C95.2162 26.831 95.6225 26.7927 96.0519 26.762C96.4812 26.7313 96.9182 26.7083 97.3629 26.693C97.8229 26.6777 98.2752 26.67 98.7199 26.67C99.4712 26.67 100.2 26.7313 100.905 26.854C101.626 26.9613 102.262 27.1607 102.814 27.452C103.381 27.7433 103.834 28.1497 104.171 28.671C104.508 29.1923 104.677 29.8517 104.677 30.649ZM98.9269 40.631C99.3102 40.631 99.6782 40.585 100.031 40.493C100.399 40.401 100.721 40.263 100.997 40.079C101.273 39.8797 101.495 39.6343 101.664 39.343C101.833 39.0517 101.917 38.7067 101.917 38.308C101.917 37.802 101.817 37.4033 101.618 37.112C101.419 36.8207 101.158 36.5983 100.836 36.445C100.514 36.2763 100.154 36.169 99.7549 36.123C99.3562 36.077 98.9575 36.054 98.5589 36.054H96.8799V40.493C96.9565 40.5237 97.0792 40.5467 97.2479 40.562C97.4165 40.5773 97.5929 40.5927 97.7769 40.608C97.9762 40.608 98.1755 40.6157 98.3749 40.631C98.5895 40.631 98.7735 40.631 98.9269 40.631ZM97.8919 33.662C98.1065 33.662 98.3519 33.6543 98.6279 33.639C98.9192 33.6237 99.1569 33.6007 99.3409 33.57C99.9235 33.386 100.422 33.11 100.836 32.742C101.265 32.374 101.48 31.891 101.48 31.293C101.48 30.8943 101.403 30.5647 101.25 30.304C101.097 30.0433 100.89 29.8363 100.629 29.683C100.384 29.5297 100.1 29.4223 99.7779 29.361C99.4559 29.2997 99.1185 29.269 98.7659 29.269C98.3672 29.269 97.9992 29.2767 97.6619 29.292C97.3245 29.3073 97.0639 29.3303 96.8799 29.361V33.662H97.8919ZM116.472 36.261H110.584V43H107.433V26.9H110.584V33.455H116.472V26.9H119.623V43H116.472V36.261ZM121.908 34.95C121.908 32.2667 122.499 30.2043 123.679 28.763C124.86 27.3063 126.547 26.578 128.739 26.578C129.889 26.578 130.894 26.7773 131.752 27.176C132.611 27.5747 133.324 28.142 133.891 28.878C134.459 29.614 134.88 30.4957 135.156 31.523C135.432 32.5503 135.57 33.6927 135.57 34.95C135.57 37.6333 134.972 39.7033 133.776 41.16C132.596 42.6013 130.917 43.322 128.739 43.322C127.574 43.322 126.562 43.1227 125.703 42.724C124.845 42.3253 124.132 41.758 123.564 41.022C123.012 40.286 122.598 39.4043 122.322 38.377C122.046 37.3497 121.908 36.2073 121.908 34.95ZM125.22 34.95C125.22 35.7627 125.289 36.514 125.427 37.204C125.565 37.8787 125.772 38.4613 126.048 38.952C126.34 39.4427 126.708 39.826 127.152 40.102C127.597 40.378 128.126 40.516 128.739 40.516C129.859 40.516 130.725 40.079 131.338 39.205C131.952 38.331 132.258 36.9127 132.258 34.95C132.258 34.168 132.189 33.4397 132.051 32.765C131.929 32.0903 131.729 31.5 131.453 30.994C131.177 30.488 130.817 30.097 130.372 29.821C129.928 29.5297 129.383 29.384 128.739 29.384C127.62 29.384 126.754 29.8363 126.14 30.741C125.527 31.6303 125.22 33.0333 125.22 34.95ZM137.822 26.9H147.367V29.706H140.973V33.455H146.792V36.261H140.973V40.194H147.482V43H137.822V26.9ZM159.635 36.123H158.807V43H155.656V26.9H158.807V34.03L159.543 33.708L163.982 26.9H167.57L162.878 33.662L161.636 34.536L162.924 35.433L168.283 43H164.396L159.635 36.123ZM168.807 34.95C168.807 32.2667 169.397 30.2043 170.578 28.763C171.758 27.3063 173.445 26.578 175.638 26.578C176.788 26.578 177.792 26.7773 178.651 27.176C179.509 27.5747 180.222 28.142 180.79 28.878C181.357 29.614 181.779 30.4957 182.055 31.523C182.331 32.5503 182.469 33.6927 182.469 34.95C182.469 37.6333 181.871 39.7033 180.675 41.16C179.494 42.6013 177.815 43.322 175.638 43.322C174.472 43.322 173.46 43.1227 172.602 42.724C171.743 42.3253 171.03 41.758 170.463 41.022C169.911 40.286 169.497 39.4043 169.221 38.377C168.945 37.3497 168.807 36.2073 168.807 34.95ZM172.119 34.95C172.119 35.7627 172.188 36.514 172.326 37.204C172.464 37.8787 172.671 38.4613 172.947 38.952C173.238 39.4427 173.606 39.826 174.051 40.102C174.495 40.378 175.024 40.516 175.638 40.516C176.757 40.516 177.623 40.079 178.237 39.205C178.85 38.331 179.157 36.9127 179.157 34.95C179.157 34.168 179.088 33.4397 178.95 32.765C178.827 32.0903 178.628 31.5 178.352 30.994C178.076 30.488 177.715 30.097 177.271 29.821C176.826 29.5297 176.282 29.384 175.638 29.384C174.518 29.384 173.652 29.8363 173.039 30.741C172.425 31.6303 172.119 33.0333 172.119 34.95ZM193.507 29.706H187.872V43H184.721V26.9H196.658V43H193.507V29.706ZM208.794 34.076L208.978 31.983H208.863L207.782 34.145L201.779 43H199.41V26.9H202.561V35.663L202.331 37.825H202.469L203.596 35.594L209.599 26.9H211.945V43H208.794V34.076ZM214.729 27.061C215.373 26.9383 216.078 26.8463 216.845 26.785C217.627 26.7083 218.401 26.67 219.168 26.67C219.965 26.67 220.762 26.739 221.56 26.877C222.372 26.9997 223.101 27.2603 223.745 27.659C224.389 28.0423 224.91 28.5867 225.309 29.292C225.723 29.982 225.93 30.8867 225.93 32.006C225.93 33.018 225.753 33.8767 225.401 34.582C225.048 35.272 224.58 35.8393 223.998 36.284C223.415 36.7287 222.748 37.0507 221.997 37.25C221.261 37.4493 220.494 37.549 219.697 37.549C219.62 37.549 219.497 37.549 219.329 37.549C219.16 37.549 218.984 37.549 218.8 37.549C218.616 37.5337 218.432 37.5183 218.248 37.503C218.079 37.4877 217.956 37.4723 217.88 37.457V43H214.729V27.061ZM219.421 29.384C219.114 29.384 218.823 29.3993 218.547 29.43C218.271 29.4453 218.048 29.4683 217.88 29.499V34.72C217.941 34.7353 218.033 34.7507 218.156 34.766C218.278 34.7813 218.409 34.7967 218.547 34.812C218.685 34.812 218.815 34.812 218.938 34.812C219.076 34.812 219.175 34.812 219.237 34.812C219.651 34.812 220.057 34.7737 220.456 34.697C220.87 34.6203 221.238 34.4823 221.56 34.283C221.882 34.0683 222.135 33.777 222.319 33.409C222.518 33.041 222.618 32.558 222.618 31.96C222.618 31.454 222.526 31.04 222.342 30.718C222.158 30.3807 221.912 30.1123 221.606 29.913C221.314 29.7137 220.977 29.5757 220.594 29.499C220.21 29.4223 219.819 29.384 219.421 29.384ZM227.138 34.95C227.138 32.2667 227.728 30.2043 228.909 28.763C230.089 27.3063 231.776 26.578 233.969 26.578C235.119 26.578 236.123 26.7773 236.982 27.176C237.84 27.5747 238.553 28.142 239.121 28.878C239.688 29.614 240.11 30.4957 240.386 31.523C240.662 32.5503 240.8 33.6927 240.8 34.95C240.8 37.6333 240.202 39.7033 239.006 41.16C237.825 42.6013 236.146 43.322 233.969 43.322C232.803 43.322 231.791 43.1227 230.933 42.724C230.074 42.3253 229.361 41.758 228.794 41.022C228.242 40.286 227.828 39.4043 227.552 38.377C227.276 37.3497 227.138 36.2073 227.138 34.95ZM230.45 34.95C230.45 35.7627 230.519 36.514 230.657 37.204C230.795 37.8787 231.002 38.4613 231.278 38.952C231.569 39.4427 231.937 39.826 232.382 40.102C232.826 40.378 233.355 40.516 233.969 40.516C235.088 40.516 235.954 40.079 236.568 39.205C237.181 38.331 237.488 36.9127 237.488 34.95C237.488 34.168 237.419 33.4397 237.281 32.765C237.158 32.0903 236.959 31.5 236.683 30.994C236.407 30.488 236.046 30.097 235.602 29.821C235.157 29.5297 234.613 29.384 233.969 29.384C232.849 29.384 231.983 29.8363 231.37 30.741C230.756 31.6303 230.45 33.0333 230.45 34.95ZM253.885 30.649C253.885 31.0477 253.831 31.4463 253.724 31.845C253.632 32.2437 253.471 32.6117 253.241 32.949C253.011 33.271 252.712 33.5623 252.344 33.823C251.976 34.0683 251.531 34.2523 251.01 34.375V34.513C251.47 34.5897 251.907 34.72 252.321 34.904C252.735 35.088 253.095 35.341 253.402 35.663C253.709 35.985 253.946 36.376 254.115 36.836C254.299 37.296 254.391 37.8403 254.391 38.469C254.391 39.297 254.215 40.0177 253.862 40.631C253.509 41.229 253.034 41.7197 252.436 42.103C251.853 42.4863 251.186 42.77 250.435 42.954C249.684 43.138 248.909 43.23 248.112 43.23C247.851 43.23 247.514 43.23 247.1 43.23C246.701 43.23 246.264 43.2147 245.789 43.184C245.329 43.1687 244.854 43.138 244.363 43.092C243.888 43.046 243.451 42.977 243.052 42.885V27.015C243.343 26.969 243.673 26.923 244.041 26.877C244.424 26.831 244.831 26.7927 245.26 26.762C245.689 26.7313 246.126 26.7083 246.571 26.693C247.031 26.6777 247.483 26.67 247.928 26.67C248.679 26.67 249.408 26.7313 250.113 26.854C250.834 26.9613 251.47 27.1607 252.022 27.452C252.589 27.7433 253.042 28.1497 253.379 28.671C253.716 29.1923 253.885 29.8517 253.885 30.649ZM248.135 40.631C248.518 40.631 248.886 40.585 249.239 40.493C249.607 40.401 249.929 40.263 250.205 40.079C250.481 39.8797 250.703 39.6343 250.872 39.343C251.041 39.0517 251.125 38.7067 251.125 38.308C251.125 37.802 251.025 37.4033 250.826 37.112C250.627 36.8207 250.366 36.5983 250.044 36.445C249.722 36.2763 249.362 36.169 248.963 36.123C248.564 36.077 248.166 36.054 247.767 36.054H246.088V40.493C246.165 40.5237 246.287 40.5467 246.456 40.562C246.625 40.5773 246.801 40.5927 246.985 40.608C247.184 40.608 247.384 40.6157 247.583 40.631C247.798 40.631 247.982 40.631 248.135 40.631ZM247.1 33.662C247.315 33.662 247.56 33.6543 247.836 33.639C248.127 33.6237 248.365 33.6007 248.549 33.57C249.132 33.386 249.63 33.11 250.044 32.742C250.473 32.374 250.688 31.891 250.688 31.293C250.688 30.8943 250.611 30.5647 250.458 30.304C250.305 30.0433 250.098 29.8363 249.837 29.683C249.592 29.5297 249.308 29.4223 248.986 29.361C248.664 29.2997 248.327 29.269 247.974 29.269C247.575 29.269 247.207 29.2767 246.87 29.292C246.533 29.3073 246.272 29.3303 246.088 29.361V33.662H247.1ZM264.576 39.435H259.631L258.412 43H255.261L261.057 26.785H263.38L269.176 43H265.864L264.576 39.435ZM260.436 36.905H263.886L262.69 33.317L262.207 30.787H262.092L261.609 33.34L260.436 36.905ZM279.606 36.261H273.718V43H270.567V26.9H273.718V33.455H279.606V26.9H282.757V43H279.606V36.261ZM294.932 34.076L295.116 31.983H295.001L293.92 34.145L287.917 43H285.548V26.9H288.699V35.663L288.469 37.825H288.607L289.734 35.594L295.737 26.9H298.083V43H294.932V34.076ZM300.866 26.9H310.411V29.706H304.017V33.455H309.836V36.261H304.017V40.194H310.526V43H300.866V26.9Z" fill="white"/>
<g clip-path="url(#clip0)">
<path d="M371.333 15.8665C370.732 15.8665 370.156 16.1053 369.73 16.5303C369.305 16.9554 369.067 17.532 369.067 18.1331C369.067 18.7343 369.305 19.3108 369.73 19.7359C370.156 20.161 370.732 20.3998 371.333 20.3998H375.867C376.468 20.3998 377.044 20.161 377.469 19.7359C377.894 19.3108 378.133 18.7343 378.133 18.1331C378.133 17.532 377.894 16.9554 377.469 16.5303C377.044 16.1053 376.468 15.8665 375.867 15.8665H371.333Z" fill="#40B7E2"/>
<path d="M360 22.6668C360 21.4644 360.478 20.3114 361.328 19.4612C362.178 18.611 363.331 18.1334 364.533 18.1334C364.533 19.9369 365.25 21.6665 366.525 22.9418C367.8 24.217 369.53 24.9334 371.333 24.9334H375.867C377.67 24.9334 379.4 24.217 380.675 22.9418C381.95 21.6665 382.667 19.9369 382.667 18.1334C383.869 18.1334 385.022 18.611 385.872 19.4612C386.722 20.3114 387.2 21.4644 387.2 22.6668V36.2668H376.805L379.736 33.336C380.149 32.9085 380.377 32.3359 380.372 31.7416C380.367 31.1473 380.129 30.5788 379.708 30.1585C379.288 29.7383 378.72 29.4999 378.125 29.4947C377.531 29.4896 376.958 29.718 376.531 30.1309L369.731 36.9309C369.306 37.356 369.067 37.9324 369.067 38.5335C369.067 39.1345 369.306 39.7109 369.731 40.136L376.531 46.936C376.958 47.3489 377.531 47.5774 378.125 47.5722C378.72 47.567 379.288 47.3287 379.708 46.9084C380.129 46.4881 380.367 45.9196 380.372 45.3253C380.377 44.731 380.149 44.1584 379.736 43.7309L376.805 40.8001H387.2V47.6001C387.2 48.8025 386.722 49.9555 385.872 50.8057C385.022 51.6559 383.869 52.1335 382.667 52.1335H364.533C363.331 52.1335 362.178 51.6559 361.328 50.8057C360.478 49.9555 360 48.8025 360 47.6001V22.6668Z" fill="#40B7E2"/>
<path d="M387.2 36.2667H391.733C392.334 36.2667 392.911 36.5055 393.336 36.9306C393.761 37.3557 394 37.9322 394 38.5334C394 39.1346 393.761 39.7111 393.336 40.1362C392.911 40.5613 392.334 40.8001 391.733 40.8001H387.2V36.2667Z" fill="#40B7E2"/>
</g>
<defs>
<clipPath id="clip0">
<rect width="36" height="36" fill="white" transform="translate(358 16)"/>
</clipPath>
</defs>
</svg>
