<svg width="229" height="38" viewBox="0 0 229 38" fill="none" xmlns="http://www.w3.org/2000/svg">
<path d="M17.6201 12.41H19.1001V17.32H24.5501V12.41H26.0501V24.12H24.5501V18.6H19.1001V24.12H17.6201V12.41Z" fill="#616160"/>
<path d="M34.7001 20.55H30.4301L29.3101 24.12H27.79L31.7501 12.41H33.4301L37.3901 24.12H35.8L34.7001 20.55ZM34.3201 19.35L33.7701 17.56C33.3401 16.26 32.9701 14.97 32.5901 13.61H32.5201C32.1601 14.97 31.79 16.25 31.36 17.56L30.8101 19.35H34.3201Z" fill="#616160"/>
<path d="M38.2803 18.2599C38.2803 14.4899 40.4902 12.1899 43.4802 12.1899C44.9102 12.1899 46.0202 12.87 46.6902 13.64L45.8903 14.5999C45.2603 13.9399 44.5002 13.4899 43.5002 13.4899C41.2902 13.4899 39.8203 15.3099 39.8203 18.2199C39.8203 21.1699 41.2302 23.0199 43.4402 23.0199C44.5602 23.0199 45.4003 22.52 46.1503 21.7L46.9702 22.6299C46.0402 23.6999 44.9002 24.3299 43.3802 24.3299C40.4602 24.3299 38.2803 22.0799 38.2803 18.2599Z" fill="#616160"/>
<path d="M51.3503 13.66H47.8203V12.41H56.3903V13.66H52.8503V24.12H51.3503V13.66Z" fill="#616160"/>
<path d="M58.5801 12.41H61.92C64.54 12.41 66.3101 13.29 66.3101 15.86C66.3101 18.32 64.5601 19.49 61.9901 19.49H60.0601V24.13H58.5801V12.41ZM61.8101 18.26C63.8501 18.26 64.8301 17.51 64.8301 15.85C64.8301 14.15 63.7901 13.6 61.7401 13.6H60.0601V18.26H61.8101Z" fill="#616160"/>
<path d="M68.0898 18.2099C68.0898 14.4599 70.1398 12.1899 73.0898 12.1899C76.0398 12.1899 78.1098 14.4799 78.1098 18.2099C78.1098 21.9799 76.0398 24.3299 73.0898 24.3299C70.1398 24.3299 68.0898 21.9799 68.0898 18.2099ZM76.5498 18.2099C76.5498 15.2999 75.1798 13.4999 73.0898 13.4999C70.9998 13.4999 69.6298 15.2999 69.6298 18.2099C69.6298 21.1399 70.9998 23.0299 73.0898 23.0299C75.1798 23.0299 76.5498 21.1399 76.5498 18.2099Z" fill="#616160"/>
<path d="M80.71 12.41H82.1699V18.46C82.1699 19.69 82.0599 21.01 81.9899 22.19H82.0599L83.33 19.8L87.6299 12.41H89.2V24.12H87.7399V18C87.7399 16.77 87.8499 15.52 87.9199 14.34H87.8499L86.58 16.73L82.28 24.12H80.71V12.41ZM82.33 9.09998H83.6199C83.6599 9.93998 84.03 10.64 85.03 10.64C86.03 10.64 86.3999 9.93998 86.4399 9.09998H87.7299C87.6599 10.3 87.02 11.46 85.03 11.46C83.05 11.46 82.4 10.3 82.33 9.09998Z" fill="#616160"/>
<path d="M101.22 24.1199H99.5997L95.9897 18.5699H93.9897V24.1199H92.5098V12.4099H93.9897V17.3599H95.9998L97.6398 14.3799C98.6198 12.6099 99.2298 12.2 100.28 12.2C100.49 12.2 100.74 12.2399 100.92 12.3099L100.67 13.7C100.53 13.65 100.35 13.6299 100.24 13.6299C99.7397 13.6299 99.4197 13.8399 98.7197 15.1099L97.1697 17.8799L101.22 24.1199Z" fill="#616160"/>
<path d="M108.3 20.55H104.03L102.9 24.12H101.38L105.34 12.41H107.02L110.98 24.12H109.39L108.3 20.55ZM107.93 19.35L107.38 17.56C106.95 16.26 106.58 14.97 106.2 13.61H106.13C105.77 14.97 105.4 16.25 104.97 17.56L104.42 19.35H107.93Z" fill="#616160"/>
<path d="M121.76 20.55H117.49L116.37 24.12H114.85L118.81 12.41H120.49L124.45 24.12H122.86L121.76 20.55ZM121.38 19.35L120.83 17.56C120.4 16.26 120.03 14.97 119.65 13.61H119.58C119.22 14.97 118.85 16.25 118.42 17.56L117.87 19.35H121.38Z" fill="#616160"/>
<path d="M126.2 12.41H127.68V17.32H133.12V12.41H134.62V24.12H133.12V18.6H127.68V24.12H126.2V12.41Z" fill="#616160"/>
<path d="M143.28 20.55H139.01L137.89 24.12H136.37L140.33 12.41H142.01L145.97 24.12H144.38L143.28 20.55ZM142.91 19.35L142.36 17.56C141.93 16.26 141.56 14.97 141.18 13.61H141.11C140.75 14.97 140.38 16.25 139.95 17.56L139.4 19.35H142.91Z" fill="#616160"/>
<path d="M146.24 24.17L146.54 22.79C146.72 22.86 146.86 22.9 147.04 22.9C147.67 22.9 148.13 22.52 148.68 19.76C149.16 17.31 149.57 14.97 150.02 12.4H155.88V24.11H154.4V13.65H151.19C150.81 15.79 150.48 17.85 150.08 19.92C149.42 23.51 148.65 24.33 147.24 24.33C146.87 24.33 146.56 24.3 146.24 24.17Z" fill="#616160"/>
<path d="M159.18 12.41H160.64V18.46C160.64 19.69 160.53 21.01 160.46 22.19H160.53L161.8 19.8L166.1 12.41H167.67V24.12H166.21V18C166.21 16.77 166.32 15.52 166.39 14.34H166.32L165.05 16.73L160.75 24.12H159.18V12.41Z" fill="#616160"/>
<path d="M173.4 13.66H169.86V12.41H178.43V13.66H174.89V24.12H173.39V13.66H173.4Z" fill="#616160"/>
<path d="M180.63 12.41H182.09V18.46C182.09 19.69 181.98 21.01 181.91 22.19H181.98L183.25 19.8L187.55 12.41H189.12V24.12H187.66V18C187.66 16.77 187.77 15.52 187.84 14.34H187.77L186.5 16.73L182.2 24.12H180.63V12.41Z" fill="#616160"/>
<path d="M201.14 24.1199H199.51L195.9 18.5699H193.9V24.1199H192.42V12.4099H193.9V17.3599H195.92L197.56 14.3799C198.54 12.6099 199.15 12.2 200.2 12.2C200.41 12.2 200.66 12.2399 200.84 12.3099L200.59 13.7C200.45 13.65 200.27 13.6299 200.16 13.6299C199.66 13.6299 199.34 13.8399 198.64 15.1099L197.09 17.8799L201.14 24.1199Z" fill="#616160"/>
<path d="M202.87 12.41H204.33V18.46C204.33 19.69 204.22 21.01 204.15 22.19H204.22L205.49 19.8L209.79 12.41H211.36V24.12H209.9V18C209.9 16.77 210.01 15.52 210.08 14.34H210.01L208.74 16.73L204.44 24.12H202.87V12.41Z" fill="#616160"/>
<path d="M228.6 37.85H0.389648V13.55C0.389648 6.41999 6.18965 0.609985 13.3297 0.609985H215.67C222.8 0.609985 228.61 6.40999 228.61 13.55V37.85H228.6ZM1.38965 36.85H227.6V13.55C227.6 6.96999 222.25 1.60999 215.66 1.60999H13.3196C6.73964 1.60999 1.37964 6.95999 1.37964 13.55V36.85H1.38965Z" fill="#40B7E2"/>
</svg>
