<svg width="182" height="38" viewBox="0 0 182 38" fill="none" xmlns="http://www.w3.org/2000/svg">
<path d="M9.63086 17.9C9.63086 14.13 11.8409 11.83 14.8309 11.83C16.2609 11.83 17.3708 12.51 18.0408 13.28L17.2408 14.24C16.6108 13.58 15.8508 13.13 14.8508 13.13C12.6408 13.13 11.1709 14.95 11.1709 17.86C11.1709 20.81 12.5808 22.66 14.7908 22.66C15.9108 22.66 16.7509 22.16 17.5009 21.34L18.3209 22.27C17.3909 23.34 16.2508 23.97 14.7308 23.97C11.8108 23.97 9.63086 21.72 9.63086 17.9Z" fill="#616160"/>
<path d="M20.5918 12.04H28.8918V23.75H27.4117V13.29H22.0718V23.75H20.5918V12.04V12.04Z" fill="#616160"/>
<path d="M32.1914 12.04H35.5314C38.1514 12.04 39.9214 12.92 39.9214 15.49C39.9214 17.95 38.1714 19.11 35.6014 19.11H33.6714V23.75H32.1914V12.04ZM35.4214 17.9C37.4614 17.9 38.4414 17.15 38.4414 15.49C38.4414 13.79 37.4014 13.24 35.3514 13.24H33.6714V17.9H35.4214Z" fill="#616160"/>
<path d="M46.8516 20.18H42.5817L41.4517 23.75H39.9316L43.8917 12.04H45.5717L49.5317 23.75H47.9417L46.8516 20.18ZM46.4716 18.99L45.9216 17.2C45.4916 15.9 45.1216 14.61 44.7416 13.25H44.6716C44.3116 14.61 43.9417 15.89 43.5117 17.2L42.9617 18.99H46.4716Z" fill="#616160"/>
<path d="M51.291 12.04H54.7711C57.1511 12.04 58.791 12.84 58.791 14.9C58.791 16.06 58.1811 17.1 57.0811 17.45V17.52C58.4911 17.79 59.471 18.72 59.471 20.32C59.471 22.62 57.6511 23.75 55.0211 23.75H51.291V12.04V12.04ZM54.501 17.02C56.501 17.02 57.321 16.29 57.321 15.09C57.321 13.73 56.391 13.22 54.571 13.22H52.7711V17.02H54.501ZM54.811 22.57C56.831 22.57 58.011 21.84 58.011 20.27C58.011 18.82 56.871 18.16 54.811 18.16H52.7711V22.57H54.811Z" fill="#616160"/>
<path d="M70.5911 23.75H68.9611L65.3511 18.2H63.3511V23.75H61.8711V12.04H63.3511V16.99H65.3711L67.0111 14.01C67.9911 12.24 68.6011 11.83 69.6511 11.83C69.8611 11.83 70.1111 11.87 70.2911 11.94L70.0411 13.33C69.9011 13.28 69.7211 13.26 69.6111 13.26C69.1111 13.26 68.7911 13.47 68.0911 14.74L66.5411 17.51L70.5911 23.75Z" fill="#616160"/>
<path d="M77.67 20.18H73.4L72.27 23.75H70.75L74.71 12.04H76.39L80.35 23.75H78.76L77.67 20.18ZM77.29 18.99L76.74 17.2C76.31 15.9 75.94 14.61 75.56 13.25H75.49C75.13 14.61 74.76 15.89 74.33 17.2L73.78 18.99H77.29Z" fill="#616160"/>
<path d="M85.0918 17.84C85.0918 14.09 87.1418 11.82 90.0918 11.82C93.0418 11.82 95.1118 14.11 95.1118 17.84C95.1118 21.61 93.0418 23.96 90.0918 23.96C87.1418 23.96 85.0918 21.61 85.0918 17.84ZM93.5518 17.84C93.5518 14.93 92.1818 13.13 90.0918 13.13C88.0018 13.13 86.6318 14.93 86.6318 17.84C86.6318 20.77 88.0018 22.66 90.0918 22.66C92.1818 22.66 93.5518 20.77 93.5518 17.84Z" fill="#616160"/>
<path d="M100.691 17.9C100.691 14.13 102.901 11.83 105.881 11.83C107.311 11.83 108.421 12.51 109.091 13.28L108.291 14.24C107.671 13.58 106.901 13.13 105.901 13.13C103.691 13.13 102.221 14.95 102.221 17.86C102.221 20.81 103.631 22.66 105.841 22.66C106.971 22.66 107.801 22.16 108.551 21.34L109.371 22.27C108.441 23.34 107.301 23.97 105.781 23.97C102.871 23.97 100.691 21.72 100.691 17.9Z" fill="#616160"/>
<path d="M111.65 12.04H113.11V18.09C113.11 19.32 113 20.64 112.93 21.82H113L114.27 19.43L118.57 12.04H120.14V23.75H118.68V17.63C118.68 16.4 118.79 15.15 118.86 13.97H118.79L117.52 16.36L113.22 23.75H111.65V12.04Z" fill="#616160"/>
<path d="M122.771 17.9C122.771 14.13 124.981 11.83 127.961 11.83C129.391 11.83 130.501 12.51 131.171 13.28L130.371 14.24C129.751 13.58 128.981 13.13 127.981 13.13C125.771 13.13 124.301 14.95 124.301 17.86C124.301 20.81 125.711 22.66 127.921 22.66C129.051 22.66 129.881 22.16 130.631 21.34L131.451 22.27C130.521 23.34 129.381 23.97 127.861 23.97C124.941 23.97 122.771 21.72 122.771 17.9Z" fill="#616160"/>
<path d="M135.831 13.29H132.291V12.04H140.861V13.29H137.321V23.75H135.821V13.29H135.831Z" fill="#616160"/>
<path d="M143.061 12.04H149.811V13.29H144.541V16.97H148.991V18.24H144.541V22.49H149.981V23.76H143.051V12.04H143.061Z" fill="#616160"/>
<path d="M152.551 12.04H154.341L156.591 18.29C156.881 19.09 157.141 19.93 157.431 20.74H157.501C157.791 19.94 158.021 19.1 158.301 18.29L160.511 12.04H162.311V23.75H160.921V17.3C160.921 16.26 161.051 14.87 161.121 13.84H161.051L160.121 16.5L157.911 22.57H156.931L154.721 16.5L153.791 13.84H153.721C153.791 14.88 153.901 16.27 153.901 17.3V23.75H152.561V12.04H152.551Z" fill="#616160"/>
<path d="M165.621 12.04H172.371V13.29H167.101V16.97H171.551V18.24H167.101V22.49H172.541V23.76H165.611V12.04H165.621Z" fill="#616160"/>
<path d="M181.769 37.58H0.449219V13.28C0.449219 6.14997 5.05922 0.339966 10.7292 0.339966H171.489C177.159 0.339966 181.769 6.13997 181.769 13.28V37.58ZM1.2392 36.58H180.969V13.28C180.969 6.69997 176.719 1.33997 171.489 1.33997H10.7192C5.48921 1.33997 1.2392 6.68997 1.2392 13.28V36.58Z" fill="#F1851B"/>
</svg>
