<svg width="268" height="38" viewBox="0 0 268 38" fill="none" xmlns="http://www.w3.org/2000/svg">
<path d="M43.3 17.84C43.3 14.25 45.4101 12.06 48.2501 12.06C49.6101 12.06 50.6601 12.71 51.3101 13.44L50.54 14.36C49.95 13.73 49.2101 13.31 48.2601 13.31C46.1501 13.31 44.7601 15.04 44.7601 17.81C44.7601 20.61 46.1001 22.38 48.2101 22.38C49.2801 22.38 50.08 21.9 50.79 21.12L51.5701 22C50.6901 23.02 49.6001 23.61 48.1501 23.61C45.3701 23.62 43.3 21.48 43.3 17.84Z" fill="#616160"/>
<path d="M53.74 12.27H61.64V23.42H60.23V13.46H55.15V23.42H53.74V12.27Z" fill="#616160"/>
<path d="M64.79 12.27H66.1801V18.03C66.1801 19.2 66.0801 20.46 66.0101 21.58H66.0801L67.29 19.3L71.3901 12.26H72.8901V23.41H71.5001V17.58C71.5001 16.41 71.6 15.22 71.67 14.1H71.6L70.3901 16.38L66.29 23.42H64.79V12.27Z" fill="#616160"/>
<path d="M75.3801 17.84C75.3801 14.25 77.4901 12.06 80.3301 12.06C81.6901 12.06 82.7401 12.71 83.3901 13.44L82.6201 14.36C82.0301 13.73 81.2901 13.31 80.3401 13.31C78.2301 13.31 76.8401 15.04 76.8401 17.81C76.8401 20.61 78.1801 22.38 80.2901 22.38C81.3601 22.38 82.1601 21.9 82.8701 21.12L83.6501 22C82.7701 23.02 81.6801 23.61 80.2301 23.61C77.4501 23.62 75.3801 21.48 75.3801 17.84Z" fill="#616160"/>
<path d="M84.6802 17.79C84.6802 14.22 86.6402 12.06 89.4402 12.06C92.2402 12.06 94.2202 14.24 94.2202 17.79C94.2202 21.38 92.2502 23.62 89.4402 23.62C86.6302 23.62 84.6802 21.38 84.6802 17.79ZM92.7302 17.79C92.7302 15.02 91.4202 13.3 89.4302 13.3C87.4402 13.3 86.1302 15.02 86.1302 17.79C86.1302 20.58 87.4402 22.38 89.4302 22.38C91.4202 22.38 92.7302 20.58 92.7302 17.79Z" fill="#616160"/>
<path d="M104.99 23.42H103.44L100.01 18.13H98.1102V23.42H96.7002V12.27H98.1102V16.98H100.03L101.59 14.14C102.53 12.46 103.1 12.07 104.11 12.07C104.31 12.07 104.55 12.1 104.72 12.17L104.48 13.5C104.34 13.45 104.17 13.43 104.07 13.43C103.59 13.43 103.29 13.64 102.63 14.84L101.15 17.47L104.99 23.42Z" fill="#616160"/>
<path d="M118.42 23.42H116.87L113.44 18.13H111.54V23.42H110.13V12.27H111.54V16.98H113.46L115.02 14.14C115.95 12.46 116.53 12.07 117.54 12.07C117.74 12.07 117.98 12.1 118.15 12.17L117.91 13.5C117.77 13.45 117.6 13.43 117.5 13.43C117.02 13.43 116.72 13.64 116.05 14.84L114.57 17.47L118.42 23.42Z" fill="#616160"/>
<path d="M125.17 20.02H121.11L120.04 23.42H118.59L122.36 12.27H123.96L127.73 23.42H126.22L125.17 20.02ZM124.81 18.88L124.28 17.18C123.87 15.94 123.52 14.72 123.16 13.42H123.09C122.75 14.71 122.39 15.94 121.98 17.18L121.45 18.88H124.81Z" fill="#616160"/>
<path d="M129.4 12.27H132.58C135.08 12.27 136.76 13.1 136.76 15.55C136.76 17.9 135.09 19 132.65 19H130.81V23.42H129.4V12.27ZM132.48 17.84C134.42 17.84 135.35 17.13 135.35 15.55C135.35 13.94 134.36 13.41 132.41 13.41H130.81V17.85H132.48V17.84Z" fill="#616160"/>
<path d="M141.01 13.46H137.64V12.27H145.8V13.46H142.43V23.42H141V13.46H141.01Z" fill="#616160"/>
<path d="M146.84 17.79C146.84 14.22 148.8 12.06 151.6 12.06C154.4 12.06 156.38 14.24 156.38 17.79C156.38 21.38 154.41 23.62 151.6 23.62C148.79 23.62 146.84 21.38 146.84 17.79ZM154.9 17.79C154.9 15.02 153.59 13.3 151.6 13.3C149.61 13.3 148.3 15.02 148.3 17.79C148.3 20.58 149.61 22.38 151.6 22.38C153.59 22.38 154.9 20.58 154.9 17.79Z" fill="#616160"/>
<path d="M164.56 18.42C164.02 18.52 163.4 18.59 162.52 18.59C160 18.59 158.47 17.64 158.47 14.95V12.26H159.86V14.95C159.86 16.82 160.85 17.41 162.65 17.41C163.48 17.41 164.1 17.34 164.55 17.24V12.26H165.96V23.41H164.55V18.42H164.56Z" fill="#616160"/>
<path d="M169.11 12.27H175.53V13.46H170.52V16.96H174.75V18.17H170.52V22.22H175.7V23.43H169.11V12.27Z" fill="#616160"/>
<path d="M186.45 23.42H184.9L181.47 18.13H179.57V23.42H178.16V12.27H179.57V16.98H181.49L183.05 14.14C183.98 12.46 184.56 12.07 185.57 12.07C185.77 12.07 186.01 12.1 186.18 12.17L185.94 13.5C185.8 13.45 185.63 13.43 185.53 13.43C185.05 13.43 184.75 13.64 184.08 14.84L182.6 17.47L186.45 23.42Z" fill="#616160"/>
<path d="M238.31 37.54C237.99 37.27 237.94 36.92 237.94 36.51C237.95 24.71 237.95 12.91 237.95 1.12003C237.95 0.340026 238.12 0.170044 238.88 0.170044C248.23 0.170044 257.59 0.170044 266.94 0.170044C267.7 0.170044 267.87 0.340026 267.87 1.12003C267.87 12.92 267.87 24.72 267.88 36.51C267.88 36.91 267.83 37.27 267.51 37.54C257.78 37.54 248.04 37.54 238.31 37.54ZM239.22 18.85C239.22 24.52 239.22 30.18 239.21 35.85C239.21 36.18 239.26 36.3 239.63 36.3C248.48 36.29 257.34 36.29 266.19 36.3C266.52 36.3 266.61 36.23 266.61 35.89C266.6 24.53 266.6 13.17 266.61 1.82004C266.61 1.47004 266.5 1.41003 266.19 1.41003C257.34 1.42003 248.48 1.42003 239.63 1.41003C239.3 1.41003 239.21 1.48004 239.21 1.82004C239.22 7.50004 239.22 13.18 239.22 18.85Z" fill="#CA539A"/>
<path d="M257.27 7.62C258.87 7.62 260.48 7.62 262.08 7.62C262.66 7.62 262.98 7.98 262.84 8.44C262.78 8.65 262.64 8.79001 262.42 8.85001C262.27 8.90001 262.11 8.89999 261.95 8.89999C258.83 8.89999 255.71 8.89999 252.58 8.89999C252.41 8.89999 252.24 8.9 252.08 8.84C251.81 8.75 251.67 8.55999 251.66 8.26999C251.65 7.97999 251.8 7.78999 252.06 7.67999C252.22 7.60999 252.39 7.60999 252.56 7.60999C254.13 7.61999 255.7 7.62 257.27 7.62Z" fill="#CA539A"/>
<path d="M257.27 20.7401C255.69 20.7401 254.11 20.7401 252.53 20.7401C252.36 20.7401 252.18 20.7401 252.03 20.6601C251.78 20.5401 251.64 20.34 251.66 20.05C251.68 19.78 251.82 19.6001 252.07 19.5101C252.24 19.4501 252.43 19.4501 252.61 19.4501C255.71 19.4501 258.81 19.4501 261.9 19.4501C261.97 19.4501 262.05 19.4501 262.12 19.4501C262.58 19.4801 262.89 19.7501 262.87 20.1201C262.85 20.4801 262.56 20.7301 262.11 20.7401C261.47 20.7501 260.82 20.7401 260.18 20.7401C259.22 20.7401 258.25 20.7401 257.27 20.7401Z" fill="#CA539A"/>
<path d="M257.22 14.5C255.69 14.5 254.15 14.5 252.62 14.5C252.47 14.5 252.33 14.49 252.18 14.47C251.88 14.42 251.71 14.24 251.67 13.94C251.63 13.64 251.77 13.43 252.04 13.3C252.18 13.23 252.32 13.24 252.47 13.24C255.67 13.24 258.87 13.24 262.07 13.24C262.25 13.24 262.43 13.25 262.59 13.36C262.81 13.51 262.9 13.72 262.86 13.98C262.81 14.24 262.66 14.42 262.4 14.47C262.25 14.5 262.09 14.5 261.93 14.5C260.35 14.5 258.79 14.5 257.22 14.5Z" fill="#CA539A"/>
<path d="M249.57 12.2C249.58 12.42 249.47 12.59 249.32 12.74C248.2 13.86 247.09 14.98 245.96 16.09C245.58 16.46 245.27 16.45 244.89 16.08C244.36 15.56 243.84 15.03 243.32 14.5C243 14.17 242.97 13.8 243.23 13.54C243.5 13.27 243.89 13.3 244.22 13.63C244.57 13.97 244.92 14.31 245.25 14.67C245.39 14.82 245.47 14.81 245.61 14.67C246.53 13.73 247.46 12.81 248.39 11.88C248.74 11.53 249.13 11.51 249.41 11.81C249.52 11.92 249.56 12.05 249.57 12.2Z" fill="#CA539A"/>
<path d="M245.44 22.58C245.21 22.6 245.05 22.48 244.91 22.34C244.37 21.8 243.82 21.26 243.29 20.71C242.98 20.39 242.96 20 243.23 19.74C243.49 19.49 243.86 19.51 244.17 19.8C244.54 20.15 244.9 20.51 245.25 20.88C245.39 21.03 245.47 21.03 245.62 20.88C246.53 19.96 247.44 19.05 248.35 18.14C248.48 18.01 248.6 17.86 248.78 17.82C249.05 17.76 249.29 17.81 249.46 18.05C249.62 18.28 249.63 18.52 249.48 18.76C249.42 18.85 249.34 18.93 249.27 19.01C248.19 20.09 247.1 21.18 246.02 22.26C245.85 22.44 245.69 22.61 245.44 22.58Z" fill="#CA539A"/>
<path d="M258.21 24.64C259.41 24.64 260.62 24.64 261.82 24.64C262.35 24.64 262.65 25 262.52 25.45C262.45 25.69 262.29 25.84 262.04 25.88C261.9 25.9 261.75 25.91 261.6 25.91C259.33 25.91 257.06 25.91 254.78 25.91C254.67 25.91 254.56 25.91 254.45 25.9C254.06 25.86 253.82 25.62 253.82 25.28C253.82 24.93 254.09 24.66 254.48 24.65C254.93 24.64 255.38 24.65 255.83 24.65C256.63 24.64 257.42 24.64 258.21 24.64Z" fill="#CA539A"/>
<path d="M243.68 7.12004C243.89 7.15004 244.07 7.24004 244.22 7.40004C244.56 7.75004 244.92 8.08005 245.25 8.44005C245.41 8.61005 245.49 8.59004 245.64 8.43004C246.55 7.50004 247.48 6.59006 248.4 5.67006C248.58 5.49006 248.77 5.34005 249.04 5.38005C249.52 5.45005 249.74 5.98005 249.46 6.38005C249.4 6.47005 249.32 6.54004 249.24 6.62004C248.18 7.68004 247.13 8.74005 246.07 9.79005C245.59 10.2701 245.32 10.27 244.84 9.80003C244.32 9.29003 243.81 8.77005 243.29 8.25005C243.09 8.04005 243 7.81003 243.12 7.52004C243.21 7.26004 243.43 7.16004 243.68 7.12004Z" fill="#CA539A"/>
<path d="M228.6 37.47H0.390137V13.17C0.390137 6.03998 6.19014 0.22998 13.3301 0.22998H215.67C222.8 0.22998 228.61 6.02998 228.61 13.17V37.47H228.6ZM1.39014 36.47H227.6V13.17C227.6 6.58998 222.25 1.22998 215.66 1.22998H13.3201C6.74013 1.22998 1.38013 6.57998 1.38013 13.17V36.47H1.39014Z" fill="#CA539A"/>
</svg>
