<svg width="230" height="38" viewBox="0 0 230 38" fill="none" xmlns="http://www.w3.org/2000/svg">
<path d="M20.7 17.99C20.7 14.4 22.81 12.21 25.65 12.21C27.01 12.21 28.06 12.86 28.71 13.59L27.94 14.51C27.35 13.88 26.61 13.46 25.66 13.46C23.55 13.46 22.16 15.19 22.16 17.96C22.16 20.76 23.5 22.53 25.61 22.53C26.68 22.53 27.48 22.05 28.19 21.27L28.97 22.15C28.09 23.17 27 23.77 25.55 23.77C22.78 23.77 20.7 21.63 20.7 17.99Z" fill="#616160"/>
<path d="M33.15 13.61H29.78V12.42H37.94V13.61H34.57V23.57H33.14V13.61H33.15Z" fill="#616160"/>
<path d="M44.45 20.17H40.39L39.32 23.57H37.88L41.65 12.42H43.25L47.02 23.57H45.51L44.45 20.17ZM44.1 19.03L43.57 17.33C43.16 16.09 42.8 14.87 42.45 13.57H42.38C42.04 14.86 41.68 16.09 41.28 17.33L40.75 19.03H44.1Z" fill="#616160"/>
<path d="M50.06 13.61H46.69V12.42H54.85V13.61H51.48V23.57H50.05V13.61H50.06Z" fill="#616160"/>
<path d="M56.95 12.42H58.34V18.18C58.34 19.35 58.24 20.61 58.17 21.73H58.24L59.45 19.45L63.55 12.41H65.05V23.56H63.66V17.73C63.66 16.56 63.76 15.37 63.83 14.25H63.76L62.55 16.53L58.45 23.57H56.95V12.42Z" fill="#616160"/>
<path d="M67.54 17.99C67.54 14.4 69.65 12.21 72.49 12.21C73.85 12.21 74.9 12.86 75.55 13.59L74.78 14.51C74.19 13.88 73.45 13.46 72.5 13.46C70.39 13.46 69 15.19 69 17.96C69 20.76 70.34 22.53 72.45 22.53C73.52 22.53 74.32 22.05 75.03 21.27L75.81 22.15C74.93 23.17 73.84 23.77 72.39 23.77C69.61 23.77 67.54 21.63 67.54 17.99Z" fill="#616160"/>
<path d="M79.98 13.61H76.61V12.42H84.77V13.61H81.4V23.57H79.97V13.61H79.98Z" fill="#616160"/>
<path d="M86.87 12.42H88.26V18.18C88.26 19.35 88.16 20.61 88.09 21.73H88.16L89.37 19.45L93.47 12.41H94.97V23.56H93.58V17.73C93.58 16.56 93.68 15.37 93.75 14.25H93.68L92.47 16.53L88.37 23.57H86.87V12.42Z" fill="#616160"/>
<path d="M106.4 23.57H104.85L101.42 18.28H99.52V23.57H98.11V12.42H99.52V17.13H101.44L103 14.29C103.94 12.61 104.51 12.22 105.52 12.22C105.72 12.22 105.96 12.25 106.13 12.32L105.89 13.65C105.75 13.6 105.58 13.58 105.48 13.58C105 13.58 104.7 13.78 104.04 14.99L102.56 17.62L106.4 23.57Z" fill="#616160"/>
<path d="M113.15 20.17H109.09L108.02 23.57H106.58L110.35 12.42H111.95L115.72 23.57H114.21L113.15 20.17ZM112.79 19.03L112.26 17.33C111.85 16.09 111.49 14.87 111.14 13.57H111.07C110.73 14.86 110.37 16.09 109.97 17.33L109.44 19.03H112.79Z" fill="#616160"/>
<path d="M120.22 17.94C120.22 14.37 122.18 12.21 124.98 12.21C127.78 12.21 129.76 14.39 129.76 17.94C129.76 21.53 127.79 23.77 124.98 23.77C122.17 23.77 120.22 21.53 120.22 17.94ZM128.28 17.94C128.28 15.17 126.97 13.45 124.98 13.45C122.99 13.45 121.68 15.17 121.68 17.94C121.68 20.73 122.99 22.53 124.98 22.53C126.97 22.53 128.28 20.73 128.28 17.94Z" fill="#616160"/>
<path d="M132.24 12.42H139.12V13.61H133.65V17.11H135.79C138.15 17.11 139.87 17.96 139.87 20.19C139.87 22.52 138.31 23.57 135.86 23.57H132.24V12.42ZM135.62 22.45C137.52 22.45 138.48 21.75 138.48 20.22C138.48 18.79 137.49 18.2 135.59 18.2H133.65V22.45H135.62Z" fill="#616160"/>
<path d="M142.19 12.42H145.37C147.87 12.42 149.55 13.25 149.55 15.7C149.55 18.05 147.88 19.15 145.44 19.15H143.6V23.57H142.19V12.42ZM145.26 17.99C147.2 17.99 148.13 17.28 148.13 15.7C148.13 14.08 147.14 13.56 145.19 13.56H143.59V18H145.26V17.99Z" fill="#616160"/>
<path d="M156.14 20.17H152.08L151.01 23.57H149.56L153.33 12.42H154.93L158.7 23.57H157.19L156.14 20.17ZM155.79 19.03L155.26 17.33C154.85 16.09 154.5 14.87 154.14 13.57H154.07C153.73 14.86 153.37 16.09 152.96 17.33L152.43 19.03H155.79Z" fill="#616160"/>
<path d="M160.38 12.42H167.26V13.61H161.79V17.11H163.93C166.29 17.11 168.01 17.96 168.01 20.19C168.01 22.52 166.45 23.57 164 23.57H160.38V12.42ZM163.76 22.45C165.66 22.45 166.62 21.75 166.62 20.22C166.62 18.79 165.63 18.2 163.73 18.2H161.79V22.45H163.76Z" fill="#616160"/>
<path d="M169.67 17.94C169.67 14.37 171.63 12.21 174.43 12.21C177.23 12.21 179.21 14.39 179.21 17.94C179.21 21.53 177.24 23.77 174.43 23.77C171.62 23.77 169.67 21.53 169.67 17.94ZM177.73 17.94C177.73 15.17 176.42 13.45 174.43 13.45C172.44 13.45 171.13 15.17 171.13 17.94C171.13 20.73 172.44 22.53 174.43 22.53C176.42 22.53 177.73 20.73 177.73 17.94Z" fill="#616160"/>
<path d="M183.6 13.61H180.23V12.42H188.39V13.61H185.02V23.57H183.59V13.61H183.6Z" fill="#616160"/>
<path d="M198.78 23.57H197.23L193.8 18.28H191.9V23.57H190.49V12.42H191.9V17.13H193.82L195.38 14.29C196.31 12.61 196.89 12.22 197.9 12.22C198.1 12.22 198.34 12.25 198.51 12.32L198.27 13.65C198.13 13.6 197.96 13.58 197.86 13.58C197.38 13.58 197.08 13.78 196.41 14.99L194.93 17.62L198.78 23.57Z" fill="#616160"/>
<path d="M200.43 12.42H201.82V18.18C201.82 19.35 201.72 20.61 201.65 21.73H201.72L202.93 19.45L207.03 12.41H208.53V23.56H207.14V17.73C207.14 16.56 207.24 15.37 207.31 14.25H207.24L206.03 16.53L201.93 23.57H200.43V12.42Z" fill="#616160"/>
<path d="M228.59 13.32V37.12H1.37V13.32C1.37 6.45001 6.94 0.880005 13.81 0.880005H216.15C223.02 0.890005 228.59 6.45001 228.59 13.32Z" stroke="#F1851B" stroke-miterlimit="10"/>
</svg>
