<svg width="400" height="69" viewBox="0 0 400 69" fill="none" xmlns="http://www.w3.org/2000/svg">
<path opacity="0.6" d="M331.95 68.47H0.310059V0.109985H331.95C337.16 0.109985 341.39 4.33999 341.39 9.54999V59.03C341.39 64.24 337.16 68.47 331.95 68.47Z" fill="#40B7E2"/>
<path d="M64.3901 37.33V39.44L64.0901 44.48H61.0901V40.18H52.9401V44.48H49.9401L49.6401 39.44V37.33H50.3301C50.9901 37.1 51.7701 35.8 52.4601 32.18C52.9601 29.55 53.2101 28.11 53.7001 25.25H62.5601V37.33H64.3901ZM56.3101 28.08C55.9901 29.87 55.8501 30.78 55.4901 32.61C55.1001 34.6 54.6201 36.18 53.9301 37.32H59.1901V28.07H56.3101V28.08Z" fill="white"/>
<path d="M65.6201 32.64C65.6201 27.76 68.3701 24.97 72.4001 24.97C76.4301 24.97 79.1701 27.78 79.1701 32.64C79.1701 37.52 76.4201 40.44 72.4001 40.44C68.3801 40.44 65.6201 37.51 65.6201 32.64ZM75.7101 32.64C75.7101 29.66 74.4301 27.88 72.3901 27.88C70.3501 27.88 69.0701 29.67 69.0701 32.64C69.0701 35.64 70.3501 37.54 72.3901 37.54C74.4301 37.54 75.7101 35.63 75.7101 32.64Z" fill="white"/>
<path d="M82.0901 25.24H85.7701L88.1701 31.88C88.4701 32.75 88.7401 33.71 89.0401 34.63H89.1301C89.4301 33.71 89.6801 32.75 89.9801 31.88L92.3401 25.24H96.0001V40.16H92.9301V34.69C92.9301 33.23 93.2001 31.05 93.3601 29.61H93.2701L92.0601 33.16L89.9301 38.86H88.0801L85.9501 33.16L84.7601 29.61H84.6701C84.8301 31.05 85.1001 33.23 85.1001 34.69V40.16H82.0801V25.24H82.0901Z" fill="white"/>
<path d="M106.65 36.62H102.1L101.18 40.17H97.7502L102.42 25.25H106.47L111.14 40.17H107.57L106.65 36.62ZM105.96 33.99L105.62 32.62C105.21 31.13 104.8 29.37 104.41 27.81H104.32C103.95 29.39 103.57 31.13 103.15 32.62L102.78 33.99H105.96Z" fill="white"/>
<path d="M112.87 25.24H116.17V37.32H119.92V25.24H123.15V37.32H126.88V25.24H130.18V40.16H112.88V25.24H112.87Z" fill="white"/>
<path d="M133.81 25.24H137.17V30.99H142.32V25.24H145.71V40.16H142.32V33.93H137.17V40.16H133.81V25.24Z" fill="white"/>
<path d="M159.94 25.24V40.16H156.55V34.78H154.88L151.7 40.16H147.85L151.67 34.28C149.98 33.62 148.79 32.2 148.79 29.89C148.79 26.34 151.4 25.24 154.56 25.24H159.94V25.24ZM156.55 27.92H154.83C153.04 27.92 152.11 28.42 152.11 29.89C152.11 31.36 153.05 32.11 154.83 32.11H156.55V27.92Z" fill="white"/>
<path d="M174.17 25.24V40.16H170.78V34.78H169.11L165.93 40.16H162.08L165.9 34.28C164.21 33.62 163.02 32.2 163.02 29.89C163.02 26.34 165.63 25.24 168.79 25.24H174.17V25.24ZM170.78 27.92H169.06C167.27 27.92 166.34 28.42 166.34 29.89C166.34 31.36 167.28 32.11 169.06 32.11H170.78V27.92Z" fill="white"/>
<path d="M181.79 32.8C181.79 27.86 185.06 24.97 188.84 24.97C190.76 24.97 192.32 25.89 193.33 26.92L191.54 29.07C190.79 28.38 189.98 27.88 188.91 27.88C186.87 27.88 185.25 29.69 185.25 32.69C185.25 35.76 186.67 37.54 188.87 37.54C190.08 37.54 191.04 36.92 191.78 36.14L193.57 38.25C192.33 39.69 190.69 40.45 188.74 40.45C184.95 40.44 181.79 37.81 181.79 32.8Z" fill="white"/>
<path d="M198.56 28.08H194.46V25.24H206.04V28.08H201.94V40.16H198.55V28.08H198.56Z" fill="white"/>
<path d="M208.49 25.24H213.62C216.89 25.24 219.55 26.43 219.55 30.05C219.55 33.55 216.87 35.11 213.71 35.11H211.86V40.17H208.5V25.24H208.49ZM213.5 32.43C215.35 32.43 216.25 31.61 216.25 30.05C216.25 28.49 215.24 27.92 213.41 27.92H211.85V32.43H213.5Z" fill="white"/>
<path d="M228.1 36.62H223.54L222.62 40.17H219.19L223.86 25.25H227.91L232.58 40.17H229.01L228.1 36.62ZM227.42 33.99L227.08 32.62C226.67 31.13 226.26 29.37 225.87 27.81H225.78C225.41 29.39 225.02 31.13 224.61 32.62L224.24 33.99H227.42Z" fill="white"/>
<path d="M234.32 25.24H237.68V30.99H242.83V25.24H246.22V40.16H242.83V33.93H237.68V40.16H234.32V25.24Z" fill="white"/>
<path d="M249.86 25.24H253.2V30.5C253.2 32.26 252.92 34.37 252.76 35.95H252.85L254.31 32.68L258.22 25.24H261.79V40.16H258.47V34.87C258.47 33.11 258.74 31.12 258.88 29.47H258.79L257.33 32.72L253.42 40.16H249.85V25.24H249.86Z" fill="white"/>
<path d="M278.72 37.33V39.44L278.42 44.48H275.4V40.18H265.44V25.26H268.8V37.34H273.51V25.26H276.87V37.34H278.72V37.33Z" fill="white"/>
<path d="M287.87 36.62H283.32L282.4 40.17H278.97L283.64 25.25H287.69L292.36 40.17H288.79L287.87 36.62ZM287.18 33.99L286.84 32.62C286.43 31.13 286.02 29.37 285.63 27.81H285.54C285.17 29.39 284.79 31.13 284.37 32.62L284 33.99H287.18Z" fill="white"/>
<g opacity="0.6">
<path opacity="0.6" d="M352.92 34.19C353.6 33.35 354.5 32.75 355.32 32.06C361.47 26.92 367.63 21.8001 373.78 16.6701C375.38 15.3301 377.21 15.34 378.81 16.69C380.93 18.47 383.05 20.24 385.18 22.02C385.27 22.1 385.37 22.17 385.46 22.24C385.6 22.12 385.54 21.98 385.54 21.85C385.55 20.25 385.54 18.65 385.54 17.06C385.54 16.06 385.85 15.76 386.84 15.75C388.5 15.75 390.16 15.75 391.82 15.75C392.68 15.75 392.99 16.07 392.99 16.94C392.99 20.67 392.99 24.4 392.98 28.12C392.98 28.41 393.07 28.59 393.29 28.77C395.18 30.33 397.06 31.89 398.95 33.46C399.06 33.55 399.16 33.64 399.26 33.73C399.75 34.17 399.81 34.67 399.41 35.18C398.86 35.87 398.29 36.55 397.71 37.21C397.26 37.71 396.74 37.72 396.19 37.26C392.88 34.51 389.58 31.75 386.28 28.99C383.04 26.29 379.81 23.6 376.58 20.9C376.37 20.72 376.25 20.7001 376.02 20.8901C370.72 25.3201 365.42 29.74 360.12 34.16C358.88 35.19 357.64 36.23 356.4 37.25C355.8 37.75 355.29 37.72 354.79 37.12C354.16 36.37 353.54 35.6 352.92 34.84C352.92 34.61 352.92 34.4 352.92 34.19Z" fill="#40B7E2"/>
<path opacity="0.6" d="M393.01 44.18C393.01 46.4 393.01 48.62 393.01 50.84C393.01 52.1 392.23 52.8901 390.97 52.8901C387.46 52.8901 383.94 52.88 380.43 52.9C380.05 52.9 379.99 52.77 379.99 52.44C380 49.03 379.99 45.62 380.01 42.22C380.01 41.84 379.92 41.75 379.54 41.75C377.38 41.77 375.22 41.77 373.06 41.75C372.66 41.75 372.6 41.8601 372.6 42.2301C372.61 45.6201 372.6 49.02 372.62 52.41C372.62 52.8 372.54 52.92 372.12 52.91C368.65 52.89 365.18 52.9 361.71 52.9C360.35 52.9 359.59 52.14 359.59 50.8C359.59 46.33 359.59 41.85 359.58 37.38C359.58 37.08 359.66 36.88 359.89 36.68C365.26 32.27 370.62 27.8501 375.97 23.4201C376.22 23.2101 376.37 23.22 376.61 23.43C381.96 27.86 387.33 32.27 392.69 36.69C392.91 36.87 393 37.05 393 37.34C393 39.62 393.01 41.9 393.01 44.18Z" fill="#40B7E2"/>
</g>
</svg>
