<svg width="400" height="69" viewBox="0 0 400 69" fill="none" xmlns="http://www.w3.org/2000/svg">
<path d="M331.64 68.36H0V0H331.64C336.85 0 341.08 4.23 341.08 9.44V58.92C341.08 64.13 336.85 68.36 331.64 68.36Z" fill="#40B7E2"/>
<path d="M64.08 37.22V39.33L63.78 44.37H60.78V40.07H52.63V44.37H49.63L49.33 39.33V37.22H50.02C50.68 36.99 51.46 35.69 52.15 32.07C52.65 29.44 52.9 28 53.39 25.14H62.25V37.22H64.08ZM56 27.97C55.68 29.76 55.54 30.67 55.18 32.5C54.79 34.49 54.31 36.07 53.62 37.21H58.88V27.96H56V27.97Z" fill="white"/>
<path d="M65.3099 32.53C65.3099 27.65 68.0599 24.86 72.0899 24.86C76.1199 24.86 78.8599 27.67 78.8599 32.53C78.8599 37.41 76.1099 40.33 72.0899 40.33C68.0699 40.33 65.3099 37.4 65.3099 32.53ZM75.3999 32.53C75.3999 29.55 74.1199 27.77 72.0799 27.77C70.0399 27.77 68.7599 29.56 68.7599 32.53C68.7599 35.53 70.0399 37.43 72.0799 37.43C74.1199 37.43 75.3999 35.52 75.3999 32.53Z" fill="white"/>
<path d="M81.78 25.13H85.46L87.86 31.77C88.16 32.64 88.43 33.6 88.73 34.52H88.82C89.12 33.6 89.37 32.64 89.67 31.77L92.03 25.13H95.69V40.05H92.62V34.58C92.62 33.12 92.89 30.94 93.05 29.5H92.96L91.75 33.05L89.62 38.75H87.77L85.64 33.05L84.45 29.5H84.36C84.52 30.94 84.79 33.12 84.79 34.58V40.05H81.77V25.13H81.78Z" fill="white"/>
<path d="M106.34 36.51H101.79L100.87 40.06H97.4399L102.11 25.14H106.16L110.83 40.06H107.26L106.34 36.51ZM105.65 33.88L105.31 32.51C104.9 31.02 104.49 29.26 104.1 27.7H104.01C103.64 29.28 103.26 31.02 102.84 32.51L102.47 33.88H105.65Z" fill="white"/>
<path d="M112.56 25.13H115.86V37.21H119.61V25.13H122.84V37.21H126.57V25.13H129.87V40.05H112.57V25.13H112.56Z" fill="white"/>
<path d="M133.5 25.13H136.86V30.88H142.01V25.13H145.4V40.05H142.01V33.82H136.86V40.05H133.5V25.13Z" fill="white"/>
<path d="M159.63 25.13V40.05H156.24V34.67H154.57L151.39 40.05H147.54L151.36 34.17C149.67 33.51 148.48 32.09 148.48 29.78C148.48 26.23 151.09 25.13 154.25 25.13H159.63V25.13ZM156.24 27.81H154.52C152.73 27.81 151.8 28.31 151.8 29.78C151.8 31.25 152.74 32 154.52 32H156.24V27.81Z" fill="white"/>
<path d="M173.86 25.13V40.05H170.47V34.67H168.8L165.62 40.05H161.77L165.59 34.17C163.9 33.51 162.71 32.09 162.71 29.78C162.71 26.23 165.32 25.13 168.48 25.13H173.86V25.13ZM170.47 27.81H168.75C166.96 27.81 166.03 28.31 166.03 29.78C166.03 31.25 166.97 32 168.75 32H170.47V27.81Z" fill="white"/>
<path d="M181.48 32.69C181.48 27.75 184.75 24.86 188.53 24.86C190.45 24.86 192.01 25.78 193.02 26.81L191.23 28.96C190.48 28.27 189.67 27.77 188.6 27.77C186.56 27.77 184.94 29.58 184.94 32.58C184.94 35.65 186.36 37.43 188.56 37.43C189.77 37.43 190.73 36.81 191.47 36.03L193.26 38.14C192.02 39.58 190.38 40.34 188.43 40.34C184.64 40.33 181.48 37.7 181.48 32.69Z" fill="white"/>
<path d="M198.25 27.97H194.15V25.13H205.73V27.97H201.63V40.05H198.24V27.97H198.25Z" fill="white"/>
<path d="M208.18 25.13H213.31C216.58 25.13 219.24 26.32 219.24 29.94C219.24 33.44 216.56 35 213.4 35H211.55V40.06H208.19V25.13H208.18ZM213.19 32.32C215.04 32.32 215.94 31.5 215.94 29.94C215.94 28.38 214.93 27.81 213.1 27.81H211.54V32.32H213.19Z" fill="white"/>
<path d="M227.79 36.51H223.23L222.31 40.06H218.88L223.55 25.14H227.6L232.27 40.06H228.7L227.79 36.51ZM227.11 33.88L226.77 32.51C226.36 31.02 225.95 29.26 225.56 27.7H225.47C225.1 29.28 224.71 31.02 224.3 32.51L223.93 33.88H227.11Z" fill="white"/>
<path d="M234.01 25.13H237.37V30.88H242.52V25.13H245.91V40.05H242.52V33.82H237.37V40.05H234.01V25.13Z" fill="white"/>
<path d="M249.55 25.13H252.89V30.39C252.89 32.15 252.61 34.26 252.45 35.84H252.54L254 32.57L257.91 25.13H261.48V40.05H258.16V34.76C258.16 33 258.43 31.01 258.57 29.36H258.48L257.02 32.61L253.11 40.05H249.54V25.13H249.55Z" fill="white"/>
<path d="M278.41 37.22V39.33L278.11 44.37H275.09V40.07H265.13V25.15H268.49V37.23H273.2V25.15H276.56V37.23H278.41V37.22Z" fill="white"/>
<path d="M287.56 36.51H283.01L282.09 40.06H278.66L283.33 25.14H287.38L292.05 40.06H288.48L287.56 36.51ZM286.87 33.88L286.53 32.51C286.12 31.02 285.71 29.26 285.32 27.7H285.23C284.86 29.28 284.48 31.02 284.06 32.51L283.69 33.88H286.87Z" fill="white"/>
<path d="M352.61 34.0801C353.29 33.2401 354.19 32.6401 355.01 31.9501C361.16 26.8101 367.32 21.6901 373.47 16.5601C375.07 15.2201 376.9 15.2301 378.5 16.5801C380.62 18.3601 382.74 20.13 384.87 21.91C384.96 21.99 385.06 22.06 385.15 22.13C385.29 22.01 385.23 21.8701 385.23 21.7401C385.24 20.1401 385.23 18.5401 385.23 16.9501C385.23 15.9501 385.54 15.6501 386.53 15.6401C388.19 15.6401 389.85 15.6401 391.51 15.6401C392.37 15.6401 392.68 15.9601 392.68 16.8301C392.68 20.5601 392.68 24.29 392.67 28.01C392.67 28.3 392.76 28.48 392.98 28.66C394.87 30.22 396.75 31.78 398.64 33.35C398.75 33.44 398.85 33.5301 398.95 33.6201C399.44 34.0601 399.5 34.56 399.1 35.07C398.55 35.76 397.98 36.44 397.4 37.1C396.95 37.6 396.43 37.6101 395.88 37.1501C392.57 34.4001 389.27 31.64 385.97 28.88C382.73 26.18 379.5 23.49 376.27 20.79C376.06 20.61 375.94 20.5901 375.71 20.7801C370.41 25.2101 365.11 29.6301 359.81 34.0501C358.57 35.0801 357.33 36.1201 356.09 37.1401C355.49 37.6401 354.98 37.61 354.48 37.01C353.85 36.26 353.23 35.49 352.61 34.73C352.61 34.5 352.61 34.2901 352.61 34.0801Z" fill="#40B7E2"/>
<path d="M392.7 44.07C392.7 46.29 392.7 48.5101 392.7 50.7301C392.7 51.9901 391.92 52.7801 390.66 52.7801C387.15 52.7801 383.63 52.7701 380.12 52.7901C379.74 52.7901 379.68 52.6601 379.68 52.3301C379.69 48.9201 379.68 45.5101 379.7 42.1101C379.7 41.7301 379.61 41.6401 379.23 41.6401C377.07 41.6601 374.91 41.6601 372.75 41.6401C372.35 41.6401 372.29 41.7501 372.29 42.1201C372.3 45.5101 372.29 48.9101 372.31 52.3001C372.31 52.6901 372.23 52.8101 371.81 52.8001C368.34 52.7801 364.87 52.7901 361.4 52.7901C360.04 52.7901 359.28 52.03 359.28 50.69C359.28 46.22 359.28 41.7401 359.27 37.2701C359.27 36.9701 359.35 36.77 359.58 36.57C364.95 32.16 370.31 27.7401 375.66 23.3101C375.91 23.1001 376.06 23.11 376.3 23.32C381.65 27.75 387.02 32.1601 392.38 36.5801C392.6 36.7601 392.69 36.9401 392.69 37.2301C392.69 39.5101 392.7 41.79 392.7 44.07Z" fill="#40B7E2"/>
</svg>
