<svg width="396" height="69" viewBox="0 0 396 69" fill="none" xmlns="http://www.w3.org/2000/svg">
<g opacity="0.6">
<path opacity="0.6" d="M394.31 53.45C393.13 53.45 391.96 53.45 390.78 53.45C390.75 53.35 390.67 53.38 390.6 53.38C390.05 53.32 389.5 53.29 388.96 53.21C386.36 52.83 383.88 52.06 381.55 50.85C381.34 50.74 381.14 50.7 380.92 50.74C380.33 50.86 379.75 50.95 379.15 51.04C376.63 51.41 374.12 51.31 371.65 50.69C367.53 49.67 364.06 47.57 361.37 44.26C358.25 40.41 356.96 36.01 357.66 31.09C358.2 27.29 359.93 24.06 362.66 21.37C365.81 18.26 369.61 16.48 374 15.95C376.34 15.67 378.67 15.8 380.95 16.36C385.02 17.37 388.44 19.44 391.13 22.68C393.13 25.08 394.4 27.83 394.9 30.92C394.97 31.37 394.95 31.83 395.1 32.27C395.1 33.13 395.1 33.98 395.1 34.84C395.02 34.86 395.03 34.93 395.03 34.99C395 35.6 394.9 36.2 394.78 36.8C394.05 40.34 392.38 43.37 389.79 45.89C389.6 46.07 389.6 46.19 389.72 46.41C390.82 48.45 392.37 50.05 394.34 51.25C394.68 51.46 394.93 51.7 395.1 52.04C395.1 52.26 395.1 52.48 395.1 52.7C394.93 53.04 394.71 53.34 394.31 53.45ZM378.51 37.99C378.51 36.58 378.51 35.17 378.51 33.77C378.51 33.49 378.48 33.21 378.4 32.94C378.11 31.95 377.11 31.24 376.17 31.35C374.96 31.49 374.13 32.32 374.12 33.53C374.09 36.49 374.09 39.46 374.12 42.42C374.14 43.99 375.6 44.98 377.06 44.49C377.95 44.19 378.51 43.33 378.52 42.26C378.51 40.83 378.51 39.41 378.51 37.99ZM376.3 27.95C377.48 27.96 378.5 26.95 378.5 25.76C378.51 24.58 377.49 23.56 376.31 23.55C375.14 23.54 374.11 24.56 374.1 25.74C374.1 26.92 375.12 27.94 376.3 27.95Z" fill="#40B7E2"/>
</g>
<path opacity="0.6" d="M332.34 68.66H0V0.300049H332.34C337.16 0.300049 341.07 4.21009 341.07 9.03009V59.9301C341.08 64.7601 337.17 68.66 332.34 68.66Z" fill="#40B7E2"/>
<path d="M62.0391 32.9899C62.0391 28.0499 65.3091 25.1599 69.0891 25.1599C71.0091 25.1599 72.5691 26.0799 73.5791 27.1099L71.7891 29.2599C71.0291 28.5699 70.2291 28.0699 69.1591 28.0699C67.1191 28.0699 65.4991 29.8799 65.4991 32.8799C65.4991 35.9499 66.9191 37.7299 69.1191 37.7299C70.3291 37.7299 71.2991 37.11 72.0291 36.33L73.8191 38.4399C72.5791 39.8799 70.9391 40.64 68.9891 40.64C65.1991 40.64 62.0391 38.0099 62.0391 32.9899Z" fill="white"/>
<path d="M76.1895 25.4399H87.8394V40.3599H84.4795V28.28H79.5594V40.3599H76.1994V25.4399H76.1895Z" fill="white"/>
<path d="M91.4688 25.4399H96.5987C99.8687 25.4399 102.529 26.6299 102.529 30.2499C102.529 33.7499 99.8488 35.3099 96.6888 35.3099H94.8387V40.3699H91.4688V25.4399ZM96.4788 32.6299C98.3288 32.6299 99.2288 31.8099 99.2288 30.2499C99.2288 28.6899 98.2187 28.1199 96.3887 28.1199H94.8288V32.6299H96.4788Z" fill="white"/>
<path d="M111.08 36.8199H106.53L105.61 40.3699H102.18L106.85 25.45H110.9L115.57 40.3699H112L111.08 36.8199ZM110.39 34.1799L110.05 32.8099C109.64 31.3199 109.23 29.5599 108.84 27.9999H108.75C108.38 29.5799 108 31.3199 107.58 32.8099L107.21 34.1799H110.39Z" fill="white"/>
<path d="M117.299 25.4399H122.399C125.489 25.4399 127.889 26.29 127.889 29.15C127.889 30.48 127.159 31.9199 125.939 32.3799V32.4699C127.449 32.8599 128.619 33.9799 128.619 35.9699C128.619 39.0099 126.059 40.3599 122.829 40.3599H117.289V25.4399H117.299ZM122.249 31.4199C123.899 31.4199 124.609 30.7299 124.609 29.6599C124.609 28.4899 123.859 28.0599 122.279 28.0599H120.679V31.4199H122.249ZM122.569 37.7599C124.399 37.7599 125.339 37.1199 125.339 35.7499C125.339 34.4499 124.429 33.9199 122.569 33.9199H120.669V37.7599H122.569Z" fill="white"/>
<path d="M143.78 40.3599H140.23L136.27 34.02H134.62V40.3599H131.26V25.4399H134.62V31.2999H136.27L138.22 27.8699C139.36 25.8599 140.46 25.1699 142.16 25.1699C142.57 25.1699 143.07 25.2199 143.4 25.3799L142.85 28.4199C142.6 28.3299 142.32 28.33 142.19 28.33C141.53 28.33 141.14 28.6299 140.52 29.6799L138.94 32.4299L143.78 40.3599Z" fill="white"/>
<path d="M152.609 36.8199H148.059L147.139 40.3699H143.709L148.379 25.45H152.429L157.099 40.3699H153.529L152.609 36.8199ZM151.919 34.1799L151.579 32.8099C151.169 31.3199 150.759 29.5599 150.369 27.9999H150.279C149.909 29.5799 149.519 31.3199 149.109 32.8099L148.739 34.1799H151.919Z" fill="white"/>
<path d="M162.809 32.83C162.809 27.95 165.559 25.1599 169.589 25.1599C173.619 25.1599 176.359 27.98 176.359 32.83C176.359 37.71 173.609 40.6299 169.589 40.6299C165.559 40.6399 162.809 37.71 162.809 32.83ZM172.909 32.83C172.909 29.85 171.629 28.0699 169.589 28.0699C167.549 28.0699 166.269 29.86 166.269 32.83C166.269 35.83 167.549 37.7299 169.589 37.7299C171.629 37.7299 172.909 35.83 172.909 32.83Z" fill="white"/>
<path d="M183.27 32.9899C183.27 28.0499 186.54 25.1599 190.32 25.1599C192.24 25.1599 193.8 26.0799 194.81 27.1099L193.02 29.2599C192.26 28.5699 191.46 28.0699 190.39 28.0699C188.35 28.0699 186.73 29.8799 186.73 32.8799C186.73 35.9499 188.15 37.7299 190.35 37.7299C191.56 37.7299 192.53 37.11 193.26 36.33L195.05 38.4399C193.81 39.8799 192.17 40.64 190.22 40.64C186.43 40.64 183.27 38.0099 183.27 32.9899Z" fill="white"/>
<path d="M197.408 25.4399H200.748V30.7C200.748 32.46 200.468 34.57 200.308 36.15H200.398L201.858 32.8799L205.768 25.4399H209.338V40.3599H206.018V35.0699C206.018 33.3099 206.288 31.3199 206.428 29.6699H206.338L204.878 32.9199L200.968 40.3599H197.398V25.4399H197.408Z" fill="white"/>
<path d="M212.289 32.9899C212.289 28.0499 215.559 25.1599 219.339 25.1599C221.259 25.1599 222.819 26.0799 223.829 27.1099L222.039 29.2599C221.279 28.5699 220.479 28.0699 219.409 28.0699C217.369 28.0699 215.749 29.8799 215.749 32.8799C215.749 35.9499 217.169 37.7299 219.369 37.7299C220.579 37.7299 221.539 37.11 222.279 36.33L224.069 38.4399C222.829 39.8799 221.189 40.64 219.239 40.64C215.439 40.64 212.289 38.0099 212.289 32.9899Z" fill="white"/>
<path d="M229.059 28.28H224.959V25.4399H236.539V28.28H232.439V40.3599H229.049V28.28H229.059Z" fill="white"/>
<path d="M238.988 25.4399H248.328V28.28H242.358V31.28H247.438V34.0999H242.358V37.53H248.558V40.3699H238.988V25.4399Z" fill="white"/>
<path d="M251.639 25.4399H255.329L257.729 32.08C258.029 32.95 258.299 33.91 258.599 34.83H258.689C258.989 33.91 259.239 32.95 259.539 32.08L261.899 25.4399H265.559V40.3599H262.489V34.89C262.489 33.43 262.759 31.2499 262.919 29.8099H262.829L261.619 33.3599L259.489 39.0599H257.629L255.499 33.3599L254.309 29.8099H254.219C254.379 31.2499 254.659 33.43 254.659 34.89V40.3599H251.639V25.4399V25.4399Z" fill="white"/>
<path d="M269.189 25.4399H278.529V28.28H272.559V31.28H277.639V34.0999H272.559V37.53H278.759V40.3699H269.189V25.4399V25.4399Z" fill="white"/>
</svg>
