<svg width="396" height="69" viewBox="0 0 396 69" fill="none" xmlns="http://www.w3.org/2000/svg">
<path d="M394.31 53.34C393.13 53.34 391.96 53.34 390.78 53.34C390.75 53.24 390.67 53.27 390.6 53.27C390.05 53.21 389.5 53.18 388.96 53.1C386.36 52.72 383.88 51.95 381.55 50.74C381.34 50.63 381.14 50.59 380.92 50.63C380.33 50.75 379.75 50.84 379.15 50.93C376.63 51.3 374.12 51.2 371.65 50.58C367.53 49.56 364.06 47.46 361.37 44.15C358.25 40.3 356.96 35.9 357.66 30.98C358.2 27.18 359.93 23.95 362.66 21.26C365.81 18.15 369.61 16.37 374 15.84C376.34 15.56 378.67 15.69 380.95 16.25C385.02 17.26 388.44 19.33 391.13 22.57C393.13 24.97 394.4 27.72 394.9 30.81C394.97 31.26 394.95 31.72 395.1 32.16C395.1 33.02 395.1 33.87 395.1 34.73C395.02 34.75 395.03 34.82 395.03 34.88C395 35.49 394.9 36.09 394.78 36.69C394.05 40.23 392.38 43.26 389.79 45.78C389.6 45.96 389.6 46.08 389.72 46.3C390.82 48.34 392.37 49.94 394.34 51.14C394.68 51.35 394.93 51.59 395.1 51.93C395.1 52.15 395.1 52.37 395.1 52.59C394.93 52.93 394.71 53.23 394.31 53.34ZM378.51 37.88C378.51 36.47 378.51 35.06 378.51 33.66C378.51 33.38 378.48 33.1 378.4 32.83C378.11 31.84 377.11 31.13 376.17 31.24C374.96 31.38 374.13 32.21 374.12 33.42C374.09 36.38 374.09 39.35 374.12 42.31C374.14 43.88 375.6 44.87 377.06 44.38C377.95 44.08 378.51 43.22 378.52 42.15C378.51 40.72 378.51 39.3 378.51 37.88ZM376.3 27.84C377.48 27.85 378.5 26.84 378.5 25.65C378.51 24.47 377.49 23.45 376.31 23.44C375.14 23.43 374.11 24.45 374.1 25.63C374.1 26.81 375.12 27.83 376.3 27.84Z" fill="#40B7E2"/>
<path d="M332.34 68.5499H0V0.189941H332.34C337.16 0.189941 341.07 4.09998 341.07 8.91998V59.8199C341.08 64.6499 337.17 68.5499 332.34 68.5499Z" fill="#40B7E2"/>
<path d="M62.04 32.8801C62.04 27.9401 65.31 25.05 69.09 25.05C71.01 25.05 72.57 25.9701 73.58 27.0001L71.79 29.1501C71.03 28.4601 70.23 27.9601 69.16 27.9601C67.12 27.9601 65.5 29.7701 65.5 32.7701C65.5 35.8401 66.92 37.6201 69.12 37.6201C70.33 37.6201 71.29 37.0001 72.03 36.2201L73.82 38.3301C72.58 39.7701 70.94 40.5301 68.99 40.5301C65.2 40.5301 62.04 37.9001 62.04 32.8801Z" fill="white"/>
<path d="M76.1901 25.3301H87.8401V40.2501H84.4801V28.1701H79.5601V40.2501H76.2001V25.3301H76.1901Z" fill="white"/>
<path d="M91.47 25.3301H96.6C99.87 25.3301 102.53 26.5201 102.53 30.1401C102.53 33.6401 99.85 35.2001 96.69 35.2001H94.84V40.2601H91.48V25.3301H91.47ZM96.48 32.5201C98.33 32.5201 99.23 31.7001 99.23 30.1401C99.23 28.5801 98.22 28.0101 96.39 28.0101H94.83V32.5201H96.48Z" fill="white"/>
<path d="M111.08 36.7101H106.53L105.61 40.2601H102.18L106.85 25.3401H110.9L115.57 40.2601H112L111.08 36.7101ZM110.39 34.0701L110.05 32.7001C109.64 31.2101 109.23 29.4501 108.84 27.8901H108.75C108.38 29.4701 108 31.2101 107.58 32.7001L107.21 34.0701H110.39Z" fill="white"/>
<path d="M117.3 25.3301H122.4C125.49 25.3301 127.89 26.1801 127.89 29.0401C127.89 30.3701 127.16 31.8101 125.94 32.2701V32.36C127.45 32.75 128.62 33.87 128.62 35.86C128.62 38.9 126.06 40.2501 122.83 40.2501H117.29V25.3301H117.3ZM122.25 31.3101C123.9 31.3101 124.61 30.62 124.61 29.55C124.61 28.38 123.86 27.9501 122.28 27.9501H120.68V31.3101H122.25ZM122.57 37.6501C124.4 37.6501 125.34 37.0101 125.34 35.6401C125.34 34.3401 124.42 33.8101 122.57 33.8101H120.67V37.6501H122.57Z" fill="white"/>
<path d="M143.78 40.2501H140.23L136.27 33.9101H134.62V40.2501H131.26V25.3301H134.62V31.1901H136.27L138.22 27.7601C139.36 25.7501 140.46 25.0601 142.16 25.0601C142.57 25.0601 143.08 25.1101 143.4 25.2701L142.85 28.3101C142.6 28.2201 142.32 28.2201 142.19 28.2201C141.53 28.2201 141.14 28.5201 140.52 29.5701L138.94 32.3201L143.78 40.2501Z" fill="white"/>
<path d="M152.61 36.7101H148.05L147.13 40.2601H143.7L148.37 25.3401H152.42L157.09 40.2601H153.52L152.61 36.7101ZM151.92 34.0701L151.58 32.7001C151.17 31.2101 150.76 29.4501 150.37 27.8901H150.28C149.91 29.4701 149.52 31.2101 149.11 32.7001L148.74 34.0701H151.92Z" fill="white"/>
<path d="M162.81 32.7201C162.81 27.8401 165.56 25.05 169.59 25.05C173.62 25.05 176.36 27.8701 176.36 32.7201C176.36 37.6001 173.61 40.5201 169.59 40.5201C165.57 40.5201 162.81 37.6001 162.81 32.7201ZM172.91 32.7201C172.91 29.7401 171.63 27.9601 169.59 27.9601C167.55 27.9601 166.27 29.7501 166.27 32.7201C166.27 35.7201 167.55 37.6201 169.59 37.6201C171.63 37.6201 172.91 35.7201 172.91 32.7201Z" fill="white"/>
<path d="M183.27 32.8801C183.27 27.9401 186.54 25.05 190.32 25.05C192.24 25.05 193.8 25.9701 194.81 27.0001L193.02 29.1501C192.26 28.4601 191.46 27.9601 190.39 27.9601C188.35 27.9601 186.73 29.7701 186.73 32.7701C186.73 35.8401 188.15 37.6201 190.35 37.6201C191.56 37.6201 192.52 37.0001 193.26 36.2201L195.05 38.3301C193.81 39.7701 192.17 40.5301 190.22 40.5301C186.43 40.5301 183.27 37.9001 183.27 32.8801Z" fill="white"/>
<path d="M197.41 25.3301H200.75V30.5901C200.75 32.3501 200.47 34.4601 200.31 36.0401H200.4L201.86 32.7701L205.77 25.3301H209.34V40.2501H206.02V34.9601C206.02 33.2001 206.29 31.2101 206.43 29.5601H206.34L204.88 32.8101L200.97 40.2501H197.4V25.3301H197.41Z" fill="white"/>
<path d="M212.28 32.8801C212.28 27.9401 215.55 25.05 219.33 25.05C221.25 25.05 222.81 25.9701 223.82 27.0001L222.03 29.1501C221.28 28.4601 220.47 27.9601 219.4 27.9601C217.36 27.9601 215.74 29.7701 215.74 32.7701C215.74 35.8401 217.16 37.6201 219.36 37.6201C220.57 37.6201 221.53 37.0001 222.27 36.2201L224.06 38.3301C222.82 39.7701 221.18 40.5301 219.23 40.5301C215.44 40.5301 212.28 37.9001 212.28 32.8801Z" fill="white"/>
<path d="M229.06 28.1701H224.96V25.3301H236.54V28.1701H232.44V40.2501H229.05V28.1701H229.06Z" fill="white"/>
<path d="M238.99 25.3301H248.33V28.1701H242.36V31.1701H247.44V33.9901H242.36V37.4201H248.56V40.2601H238.99V25.3301Z" fill="white"/>
<path d="M251.64 25.3301H255.32L257.72 31.9701C258.02 32.8401 258.29 33.8001 258.59 34.7201H258.68C258.98 33.8001 259.23 32.8401 259.53 31.9701L261.89 25.3301H265.55V40.2501H262.48V34.7801C262.48 33.3201 262.75 31.1401 262.91 29.7001H262.82L261.61 33.2501L259.48 38.9501H257.63L255.5 33.2501L254.31 29.7001H254.22C254.38 31.1401 254.65 33.3201 254.65 34.7801V40.2501H251.63V25.3301H251.64Z" fill="white"/>
<path d="M269.19 25.3301H278.53V28.1701H272.56V31.1701H277.64V33.9901H272.56V37.4201H278.76V40.2601H269.19V25.3301V25.3301Z" fill="white"/>
</svg>
