<svg width="254" height="258" viewBox="0 0 254 258" fill="none" xmlns="http://www.w3.org/2000/svg">
<path d="M158.15 86.36C157.82 89.99 156.77 93.3801 155.64 96.8401C155.47 97.3601 155.32 97.8701 155.2 98.4001C155.17 98.5401 155.17 98.86 155.19 98.39C155.19 98.48 155.16 98.58 155.16 98.67C155.16 98.76 155.16 98.85 155.15 98.93C155.13 99.28 155.09 98.84 155.13 98.91C155.17 98.97 155.16 99.06 155.19 99.13C155.34 99.42 155.01 98.81 155.16 99.06C155.32 99.33 155.06 98.96 155.08 98.99C155.13 99.05 155.42 99.2901 155.17 99.0901C154.94 98.9001 155.2 99.1 155.26 99.13C155.39 99.2 155.73 99.2701 155.26 99.1501C155.52 99.2201 155.77 99.31 156.04 99.36C156.2 99.39 156.36 99.41 156.52 99.44C156.74 99.47 156.21 99.41 156.45 99.43C156.58 99.44 156.7 99.4501 156.83 99.4601C157.29 99.5001 157.75 99.51 158.21 99.5201C159.51 99.5401 160.82 99.49 162.12 99.42C164.17 99.32 164.16 102.21 162.12 102.31C159.97 102.42 157.77 102.52 155.63 102.21C154.39 102.03 153.04 101.55 152.41 100.49C151.79 99.44 151.95 98.24 152.25 97.13C152.61 95.76 153.14 94.4401 153.56 93.0901C154.26 90.8701 154.76 88.62 154.96 86.35C155.03 85.57 155.64 84.91 156.55 84.91C157.36 84.91 158.22 85.57 158.15 86.36Z" fill="#9C9FA0"/>
<path d="M192.67 84.86C195.52 76.94 197.83 68.94 197.37 60.52C197.21 57.65 196.71 54.83 195.18 52.24C192.72 48.06 188.94 46.42 183.79 47.48C182.68 47.71 182.3 47.53 181.99 46.59C180.23 41.17 175.74 38.15 170.01 36.58C161.95 34.38 153.79 34.98 145.82 37.03C142.42 37.91 139.75 40.18 137.19 42.34C134.28 44.79 131.71 47.58 130.01 50.77C127.74 55.03 125.97 59.49 123.97 63.86C123.71 64.43 124.14 64.63 124.49 64.93C125.21 65.55 126.08 66.11 126.84 66.56C128.14 67.33 127.9 68.13 127.87 69.13C127.67 75.55 128.27 81.9 130.23 88.12C130.48 89.02 130.73 89.92 130.97 90.81C132 91.96 132.02 93.6 133.4 94.83C133.7 92.97 134.03 91.32 134.22 89.6501C134.99 82.91 135.75 76.16 136.45 69.42C136.54 68.58 136.85 68.41 137.73 68.4C141.61 68.34 145.45 67.88 149.29 67.42C159.12 66.23 168.4 63.9 175.89 57.68C176.89 56.85 176.97 57.56 177.13 58.23C179.73 69.38 183.79 80.15 187.83 90.92C187.94 91.22 187.91 91.69 188.4 91.67C188.64 91.66 188.92 91.34 189.07 91.1C189.89 89.85 190.68 88.58 191.48 87.32C191.89 86.48 192.28 85.67 192.67 84.86ZM129.4 58.25C129.38 59.45 129.49 60.7 128.78 62.18C128.5 60.57 128.86 59.41 129.4 58.25Z" fill="#40B7E2"/>
<path d="M144.36 131.91C144.57 133.08 145.75 133.82 146.03 134.96C146.06 134.9 146.12 134.87 146.2 134.89C146.53 132.47 146.7 130.03 147.55 127.67C147.78 127.02 147.94 126.9 148.62 127.2C149.78 127.72 150.94 128.24 152.23 128.51C157.45 129.58 162.5 129.03 167.39 127.19C168.56 126.75 168.86 126.98 168.95 128.05C169.13 130.17 169.45 132.28 169.72 134.39C170.64 133.65 171.25 132.73 171.74 131.73C171.33 129.81 171.61 127.8 170.71 125.83C172.34 125.19 172.16 125.34 172.84 124.91C182.74 118.75 188.29 110.23 190.19 99.74C190.45 98.32 190.92 97.51 192.76 97.46C194.15 97.42 195.49 96.87 196.76 96.27C200.57 94.5 201.99 91.01 200.24 87.52C199.26 85.58 197.3 85.06 195.14 84.91C194.33 84.85 193.5 84.88 192.69 84.86C192.3 85.67 191.91 86.48 191.52 87.3C192.61 87.29 193.7 87.22 194.78 87.27C195.94 87.32 196.87 87.75 197.34 88.78C198.52 91.35 197.37 93.7 194.44 94.67C193.47 94.99 192.48 95.26 191.43 95.31C189.91 95.38 188.38 95.46 186.86 95.54C186 95.59 185.39 95.96 185.28 96.75C185.2 97.3 185.57 97.8 186.17 97.77C188.18 97.66 187.67 98.73 187.42 99.71C187.25 100.37 187.08 101.03 186.92 101.69C184.39 111.57 178.87 119.59 168.43 124.28C158.26 128.85 148.58 127.21 141.5 119.12C137.59 114.66 135.22 109.62 134.28 104.06C134.06 102.75 132.68 101.18 134.95 100.09C135.35 99.9 135.24 99.18 134.95 98.73C134.64 98.25 134.15 98.35 133.65 98.42C132 98.67 130.17 99.31 128.81 98.1C127.04 96.53 127.31 94.44 127.76 92.47C128.11 90.93 129.68 90.98 131.01 90.8C130.76 89.9 130.51 89 130.27 88.11C130.13 88.32 130 88.53 129.7 88.58C127.04 88.96 126.2 90.65 126.02 92.74C125.86 94.67 125.8 96.61 126.69 98.45C127.46 100.04 128.69 101.15 130.75 101.09C132.01 101.06 132 101.82 132.11 102.5C132.66 106 133.56 109.43 135.02 112.73C137.04 117.31 139.87 121.43 144.18 124.54C145.75 125.67 145.97 126.88 145.36 128.16C144.75 129.4 144.77 130.68 144.36 131.91Z" fill="#9C9FA0"/>
<path d="M129.511 57.66C128.811 59.15 128.341 60.65 128.711 62.73C129.621 60.82 129.491 59.21 129.511 57.66Z" fill="#40B7E2"/>
<path d="M159.541 113C162.811 112.54 165.801 111.62 167.811 109.02C168.411 108.25 168.981 107.47 169.151 106.53C169.301 105.71 168.931 105.07 168.011 104.86C167.061 104.64 166.611 105.2 166.391 105.94C165.971 107.37 164.871 108.31 163.471 108.96C161.011 110.11 158.401 110.46 155.691 110.03C154.171 109.79 152.971 109.13 152.201 107.92C151.811 107.3 151.331 106.69 150.421 107.17C149.581 107.62 149.551 108.39 149.911 109.11C150.911 111.08 152.721 112.24 155.001 112.82C156.471 113.2 158.011 113.19 159.541 113Z" fill="#9C9FA0"/>
<path d="M160.67 81.88C160.66 82.98 161.68 83.58 162.77 83.01C165.32 81.68 167.88 81.56 170.55 82.7C171.53 83.12 172.24 82.7 172.7 81.93C173.17 81.14 172.8 80.54 172.04 80.07C169.54 78.53 163.84 78.78 161.47 80.51C160.98 80.88 160.7 81.32 160.67 81.88Z" fill="#9C9FA0"/>
<path d="M139.25 82.84C139.4 83.42 139.53 83.89 140.1 84.1C140.7 84.33 141.11 84.04 141.55 83.71C143.38 82.3 145.44 82.08 147.63 82.77C148.33 82.99 148.99 83.27 149.45 82.49C149.85 81.83 149.75 81.18 149.19 80.62C147.15 78.61 140.79 79.48 139.48 81.95C139.33 82.26 139.31 82.61 139.25 82.84Z" fill="#9C9FA0"/>
<path d="M163.59 88.67C163.55 89.77 164.37 90.66 165.47 90.6C166.85 90.52 167.46 89.72 167.48 88.58C167.5 87.59 167.12 86.75 165.81 86.65C164.64 86.55 163.63 87.49 163.59 88.67Z" fill="#9C9FA0"/>
<path d="M144 89.24C144.12 90.15 144.28 91.16 145.64 91.19C147.1 91.22 147.37 90.22 147.36 89.18C147.35 88.18 146.95 87.26 145.66 87.26C144.33 87.26 144.06 88.22 144 89.24Z" fill="#9C9FA0"/>
<path d="M143.22 103.05C149.52 102.77 149.06 92.51 142.77 92.79C136.47 93.07 136.92 103.33 143.22 103.05Z" fill="#FAD6E7"/>
<path d="M172.229 101.77C178.529 101.49 178.069 91.23 171.779 91.51C165.479 91.79 165.929 102.05 172.229 101.77Z" fill="#FAD6E7"/>
<path d="M120.53 88.71C101.25 85.41 83.5801 84.57 68.5801 87.85L78.7101 81.75" stroke="#CC1417" stroke-miterlimit="10"/>
<path d="M81.9901 92.77C79.3301 90.73 74.8601 89.09 68.5801 87.85" stroke="#CC1417" stroke-miterlimit="10"/>
<path d="M144.98 139.58C106.91 141.58 94.8297 163.18 97.4297 195.84L221.9 195.19C226.86 156.77 205.73 140.8 172.94 140.45" stroke="#F1851B" stroke-width="3" stroke-miterlimit="10"/>
<path d="M116.07 206.86V223.04H113.98V208.62H106.47V223.04H104.38V206.86H116.07Z" fill="#616160"/>
<path d="M130.161 217.14C130.161 221.44 127.18 223.31 124.38 223.31C121.24 223.31 118.811 221.01 118.811 217.33C118.811 213.44 121.35 211.16 124.57 211.16C127.9 211.16 130.161 213.58 130.161 217.14ZM120.94 217.26C120.94 219.8 122.4 221.72 124.47 221.72C126.49 221.72 128 219.82 128 217.21C128 215.24 127.021 212.75 124.521 212.75C122.021 212.74 120.94 215.05 120.94 217.26Z" fill="#616160"/>
<path d="M132.771 211.57C133.591 211.43 135.1 211.31 136.47 211.31C138.41 211.31 141.63 211.62 141.63 214.21C141.63 215.65 140.53 216.54 139.21 216.83V216.88C140.91 217.12 142.161 218.08 142.161 219.76C142.161 222.81 138.321 223.19 136.041 223.19C134.741 223.19 133.401 223.09 132.781 223.05V211.57H132.771ZM134.76 221.65C135.36 221.72 135.79 221.75 136.46 221.75C137.88 221.75 139.99 221.41 139.99 219.73C139.99 218.05 138.311 217.69 136.291 217.69H134.75V221.65H134.76ZM134.791 216.3H136.37C137.93 216.3 139.541 215.84 139.541 214.48C139.541 213.33 138.531 212.78 136.421 212.78C135.721 212.78 135.291 212.83 134.791 212.88V216.3Z" fill="#616160"/>
<path d="M146 217.62C146.05 220.48 147.87 221.65 149.98 221.65C151.49 221.65 152.4 221.39 153.2 221.05L153.56 222.56C152.82 222.9 151.54 223.28 149.7 223.28C146.12 223.28 143.99 220.93 143.99 217.42C143.99 213.92 146.05 211.16 149.44 211.16C153.23 211.16 154.24 214.5 154.24 216.63C154.24 217.06 154.19 217.4 154.17 217.61H146V217.62ZM152.19 216.1C152.21 214.76 151.64 212.67 149.26 212.67C147.12 212.67 146.19 214.64 146.02 216.1H152.19Z" fill="#616160"/>
<path d="M156.84 215.22C156.84 213.73 156.79 212.53 156.74 211.43H158.64L158.74 213.42H158.79C159.65 212 161.02 211.16 162.92 211.16C165.73 211.16 167.84 213.54 167.84 217.06C167.84 221.24 165.3 223.3 162.56 223.3C161.02 223.3 159.68 222.63 158.98 221.48H158.93V227.79H156.84V215.22ZM158.93 218.31C158.93 218.62 158.98 218.91 159.03 219.17C159.41 220.63 160.69 221.64 162.2 221.64C164.43 221.64 165.73 219.82 165.73 217.15C165.73 214.82 164.51 212.83 162.27 212.83C160.83 212.83 159.49 213.86 159.08 215.45C159.01 215.71 158.94 216.03 158.94 216.31V218.31H158.93Z" fill="#616160"/>
<path d="M172.54 211.42V216.1H178.06V211.42H180.15V223.04H178.06V217.78H172.54V223.04H170.45V211.42H172.54Z" fill="#616160"/>
<path d="M185.55 211.42V216.32C185.55 218.17 185.53 219.32 185.43 220.98L185.5 221C186.2 219.58 186.6 218.77 187.37 217.42L190.99 211.42H193.46V223.04H191.44V218.12C191.44 216.22 191.49 215.24 191.58 213.37H191.51C190.77 214.86 190.26 215.79 189.59 216.97C188.49 218.77 187.21 221 185.96 223.04H183.54V211.42H185.55Z" fill="#616160"/>
<path d="M204.68 211.42V213.1H201.06V223.04H198.97V213.1H195.34V211.42H204.68Z" fill="#616160"/>
<path d="M207.39 217.62C207.44 220.48 209.26 221.65 211.37 221.65C212.88 221.65 213.79 221.39 214.59 221.05L214.95 222.56C214.21 222.9 212.93 223.28 211.09 223.28C207.51 223.28 205.38 220.93 205.38 217.42C205.38 213.92 207.44 211.16 210.83 211.16C214.62 211.16 215.63 214.5 215.63 216.63C215.63 217.06 215.58 217.4 215.56 217.61H207.39V217.62ZM213.58 216.1C213.6 214.76 213.03 212.67 210.65 212.67C208.51 212.67 207.58 214.64 207.41 216.1H213.58Z" fill="#616160"/>
<path d="M99.8302 240.22V241.92H94.7903V251.83H92.7002V240.21H99.8302V240.22Z" fill="#616160"/>
<path d="M112.02 245.94C112.02 250.24 109.04 252.11 106.24 252.11C103.1 252.11 100.67 249.81 100.67 246.13C100.67 242.24 103.21 239.96 106.43 239.96C109.77 239.96 112.02 242.38 112.02 245.94ZM102.81 246.06C102.81 248.6 104.27 250.52 106.34 250.52C108.36 250.52 109.87 248.62 109.87 246.01C109.87 244.04 108.89 241.55 106.39 241.55C103.89 241.54 102.81 243.85 102.81 246.06Z" fill="#616160"/>
<path d="M123.5 240.22V251.84H121.41V241.88H117.43V244.9C117.43 248.16 117.12 250.35 115.61 251.33C115.03 251.79 114.39 252.05 113.31 252.05L113.09 250.39C113.5 250.32 113.95 250.15 114.24 249.91C115.32 249.12 115.44 247.49 115.44 244.89V240.21H123.5V240.22Z" fill="#616160"/>
<path d="M137.47 245.94C137.47 250.24 134.49 252.11 131.69 252.11C128.55 252.11 126.12 249.81 126.12 246.13C126.12 242.24 128.66 239.96 131.88 239.96C135.21 239.96 137.47 242.38 137.47 245.94ZM128.25 246.06C128.25 248.6 129.71 250.52 131.78 250.52C133.8 250.52 135.31 248.62 135.31 246.01C135.31 244.04 134.33 241.55 131.83 241.55C129.33 241.54 128.25 243.85 128.25 246.06Z" fill="#616160"/>
<path d="M140.08 240.37C140.9 240.23 142.41 240.11 143.78 240.11C145.72 240.11 148.94 240.42 148.94 243.01C148.94 244.45 147.84 245.34 146.52 245.63V245.68C148.22 245.92 149.47 246.88 149.47 248.56C149.47 251.61 145.63 251.99 143.35 251.99C142.05 251.99 140.71 251.89 140.09 251.85V240.37H140.08ZM142.07 250.45C142.67 250.52 143.1 250.55 143.77 250.55C145.19 250.55 147.3 250.21 147.3 248.53C147.3 246.85 145.62 246.49 143.6 246.49H142.06V250.45H142.07ZM142.1 245.1H143.68C145.24 245.1 146.85 244.64 146.85 243.28C146.85 242.13 145.84 241.58 143.73 241.58C143.03 241.58 142.6 241.63 142.1 241.68V245.1Z" fill="#616160"/>
<path d="M152.63 240.22L155.17 247.09C155.43 247.86 155.72 248.77 155.91 249.47H155.96C156.18 248.77 156.42 247.89 156.7 247.05L159 240.23H161.23L158.06 248.51C156.55 252.49 155.52 254.53 154.08 255.78C153.05 256.69 152.02 257.05 151.49 257.15L150.96 255.37C151.49 255.2 152.18 254.87 152.81 254.34C153.39 253.88 154.11 253.07 154.59 251.99C154.69 251.77 154.76 251.61 154.76 251.49C154.76 251.37 154.71 251.2 154.62 250.94L150.32 240.23H152.63V240.22Z" fill="#616160"/>
<path d="M168.21 240.37C169.03 240.23 170.54 240.11 171.91 240.11C173.85 240.11 177.07 240.42 177.07 243.01C177.07 244.45 175.97 245.34 174.65 245.63V245.68C176.35 245.92 177.6 246.88 177.6 248.56C177.6 251.61 173.76 251.99 171.48 251.99C170.18 251.99 168.84 251.89 168.22 251.85V240.37H168.21ZM170.2 250.45C170.8 250.52 171.23 250.55 171.9 250.55C173.32 250.55 175.43 250.21 175.43 248.53C175.43 246.85 173.75 246.49 171.73 246.49H170.19V250.45H170.2ZM170.22 245.1H171.8C173.36 245.1 174.97 244.64 174.97 243.28C174.97 242.13 173.96 241.58 171.85 241.58C171.15 241.58 170.72 241.63 170.22 241.68V245.1Z" fill="#616160"/>
<path d="M189.141 240.22V251.84H187.051V241.88H183.07V244.9C183.07 248.16 182.76 250.35 181.25 251.33C180.67 251.79 180.03 252.05 178.95 252.05L178.73 250.39C179.14 250.32 179.59 250.15 179.88 249.91C180.96 249.12 181.08 247.49 181.08 244.89V240.21H189.141V240.22Z" fill="#616160"/>
<path d="M193.77 246.42C193.82 249.28 195.64 250.45 197.75 250.45C199.26 250.45 200.17 250.19 200.97 249.85L201.33 251.36C200.59 251.7 199.31 252.08 197.47 252.08C193.89 252.08 191.76 249.73 191.76 246.22C191.76 242.72 193.82 239.96 197.21 239.96C201 239.96 202.01 243.3 202.01 245.43C202.01 245.86 201.96 246.2 201.94 246.41H193.77V246.42ZM199.96 244.9C199.98 243.56 199.41 241.47 197.03 241.47C194.89 241.47 193.96 243.44 193.79 244.9H199.96Z" fill="#616160"/>
<path d="M204.57 240.37C205.39 240.23 206.9 240.11 208.27 240.11C210.21 240.11 213.43 240.42 213.43 243.01C213.43 244.45 212.33 245.34 211.01 245.63V245.68C212.71 245.92 213.96 246.88 213.96 248.56C213.96 251.61 210.12 251.99 207.84 251.99C206.54 251.99 205.2 251.89 204.58 251.85V240.37H204.57ZM206.56 250.45C207.16 250.52 207.59 250.55 208.26 250.55C209.68 250.55 211.79 250.21 211.79 248.53C211.79 246.85 210.11 246.49 208.09 246.49H206.55V250.45H206.56ZM206.58 245.1H208.16C209.72 245.1 211.33 244.64 211.33 243.28C211.33 242.13 210.32 241.58 208.21 241.58C207.51 241.58 207.08 241.63 206.58 241.68V245.1Z" fill="#616160"/>
<path d="M227.13 245.94C227.13 250.24 224.15 252.11 221.35 252.11C218.21 252.11 215.78 249.81 215.78 246.13C215.78 242.24 218.32 239.96 221.54 239.96C224.87 239.96 227.13 242.38 227.13 245.94ZM217.91 246.06C217.91 248.6 219.37 250.52 221.44 250.52C223.46 250.52 224.97 248.62 224.97 246.01C224.97 244.04 223.99 241.55 221.49 241.55C218.99 241.54 217.91 243.85 217.91 246.06Z" fill="#616160"/>
<path d="M57.7604 181.67C58.5904 188.52 63.4304 194.2 70.1104 196.14C72.0204 196.69 73.9304 196.77 75.5504 196.77H75.5604C96.9104 196.76 118.27 196.76 139.62 196.76H208.03C217.07 196.76 226.43 196.76 235.62 196.74C237.04 196.74 238.26 196.62 239.33 196.4C247.35 194.7 252.96 187.76 252.96 179.52C252.97 131.6 252.96 79.05 252.96 18.87C252.96 18.21 252.91 17.52 252.82 16.82C252.07 10.94 249.02 6.48996 243.75 3.57996C241.32 2.23996 238.53 1.58997 235.23 1.58997C235.23 1.58997 235.23 1.58997 235.22 1.58997C191.41 1.59997 147.59 1.59998 103.78 1.59998H75.1604C75.0904 1.59998 75.0303 1.59998 74.9603 1.59998C74.8703 1.59998 74.7704 1.59998 74.6804 1.59998C68.7304 1.77998 63.9903 4.31997 60.6003 9.15997C58.6403 11.96 57.6504 15.26 57.6504 18.97C57.6704 39.39 57.6604 60.16 57.6604 80.24V110.18C57.6604 133.06 57.6604 155.94 57.6604 178.82V179.29C57.6704 180.08 57.6604 180.89 57.7604 181.67ZM65.9703 6.66998C68.4603 4.78998 71.3804 3.81996 74.6304 3.76996C74.8004 3.76996 74.9804 3.76996 75.1504 3.76996H75.3203H97.6504C143.46 3.76996 189.26 3.76998 235.07 3.75998C235.07 3.75998 235.07 3.75998 235.08 3.75998C237.23 3.75998 238.98 4.00996 240.57 4.54996C246.63 6.59996 250.74 12.26 250.78 18.65C250.79 20.02 250.79 21.39 250.78 22.76C250.78 23.37 250.78 23.98 250.78 24.59V53.74C250.78 94.82 250.78 137.3 250.79 179.09C250.79 182.71 249.88 185.72 248.01 188.28C245.02 192.37 240.92 194.5 235.82 194.62C235.39 194.63 234.96 194.63 234.54 194.62C234.34 194.62 234.14 194.62 233.94 194.62H136.58C116.18 194.62 95.7804 194.62 75.3804 194.63H75.3704C72.0704 194.63 69.3404 193.9 67.0104 192.41C62.3304 189.41 59.9103 185.06 59.8203 179.49C59.8103 179.07 59.8203 178.64 59.8203 178.22C59.8203 178.02 59.8203 177.81 59.8203 177.61V142.79C59.8203 102.33 59.8204 60.49 59.8104 19.35C59.8004 14.02 61.8703 9.75998 65.9703 6.66998Z" fill="#9C9FA0" stroke="#9C9FA0" stroke-width="2" stroke-miterlimit="10"/>
<path d="M1.65985 197.79H47.9299C48.6299 197.79 49.2098 197.22 49.2098 196.51V150.24C49.2098 149.53 48.6399 148.96 47.9299 148.96H1.65985C0.949851 148.96 0.379883 149.53 0.379883 150.24V196.51C0.379883 197.22 0.959851 197.79 1.65985 197.79Z" fill="#9C9FA0"/>
<path d="M15.7197 180.02L18.2498 176.57C19.6598 177.94 21.4097 178.95 23.4097 178.95C25.7097 178.95 27.2297 177.95 27.2297 176.17C27.2297 174.09 26.0098 172.79 20.8798 172.79V168.93C25.1098 168.93 26.4498 167.67 26.4498 165.77C26.4498 164.14 25.4097 163.17 23.5497 163.17C21.8797 163.17 20.6198 163.95 19.1298 165.25L16.3798 161.91C18.5298 160.05 20.9097 158.9 23.7997 158.9C28.6597 158.9 31.9298 161.24 31.9298 165.36C31.9298 167.81 30.5197 169.52 27.9897 170.59V170.74C30.6997 171.52 32.6698 173.45 32.6698 176.49C32.6698 180.87 28.6597 183.36 23.9097 183.36C20.0997 183.36 17.4297 182.03 15.7197 180.02Z" fill="white"/>
<path d="M143.31 127.95C154.53 142.43 163.47 142.77 153.29 161.84C146.98 144.73 128.6 147.25 143.31 127.95Z" fill="#F1851B"/>
<path d="M146.52 127.95L143.06 161.84H137.17L128.6 161.12V127.95H146.52Z" fill="#F1851B"/>
<path d="M147.089 127.95L143.64 161.84H143.06L146.52 127.95H147.089Z" fill="#F1851B"/>
<path d="M147.67 127.95L144.21 161.84H143.64L147.09 127.95H147.67Z" fill="#F1851B"/>
<path d="M148.24 127.95L144.79 161.84H144.21L147.67 127.95H148.24Z" fill="#F1851B"/>
<path d="M148.81 127.95L145.36 161.84H144.79L148.24 127.95H148.81Z" fill="#F1851B"/>
<path d="M149.389 127.95L145.939 161.84H145.359L148.809 127.95H149.389Z" fill="#F1851B"/>
<path d="M149.959 127.95L146.51 161.84H145.939L149.39 127.95H149.959Z" fill="#F1851B"/>
<path d="M150.54 127.95L147.08 161.84H146.51L149.96 127.95H150.54Z" fill="#F1851B"/>
<path d="M151.11 127.95L147.66 161.84H147.08L150.54 127.95H151.11Z" fill="#F1851B"/>
<path d="M151.69 127.95L148.23 161.84H147.66L151.11 127.95H151.69Z" fill="#F1851B"/>
<path d="M152.26 127.95L148.81 161.84H148.229L151.689 127.95H152.26Z" fill="#F1851B"/>
<path d="M152.829 127.95L149.38 161.84H148.81L152.26 127.95H152.829Z" fill="#F1851B"/>
<path d="M153.41 127.95L149.96 161.84H149.38L152.83 127.95H153.41Z" fill="#F1851B"/>
<path d="M153.98 127.95L150.53 161.84H149.96L153.41 127.95H153.98Z" fill="#F1851B"/>
<path d="M154.559 127.95L151.099 161.84H150.529L153.979 127.95H154.559Z" fill="#F1851B"/>
<path d="M155.13 127.95L151.68 161.84H151.1L154.56 127.95H155.13Z" fill="#F1851B"/>
<path d="M155.7 127.95L152.25 161.84H151.68L155.13 127.95H155.7Z" fill="#F1851B"/>
<path d="M156.28 127.95L152.83 161.84H152.25L155.7 127.95H156.28Z" fill="#F1851B"/>
<path d="M156.85 127.95L153.4 161.84H152.83L156.28 127.95H156.85Z" fill="#F1851B"/>
<path d="M157.429 127.95L153.979 161.84H153.399L156.849 127.95H157.429Z" fill="#F1851B"/>
<path d="M158 127.95L154.55 161.84H153.979L157.43 127.95H158Z" fill="#F1851B"/>
<path d="M158.58 127.95L155.12 161.84H154.55L158 127.95H158.58Z" fill="#F1851B"/>
<path d="M159.149 127.95L155.699 161.84H155.119L158.579 127.95H159.149Z" fill="#F1851B"/>
<path d="M159.429 127.95L159.719 127.97L156.269 161.84H155.699L159.149 127.95H159.429Z" fill="#F1851B"/>
<path d="M159.719 127.97L160.29 128.02L156.849 161.84H156.27L159.719 127.97Z" fill="#F1851B"/>
<path d="M160.29 128.02L160.86 128.07L157.42 161.84H156.85L160.29 128.02Z" fill="#F1851B"/>
<path d="M160.86 128.07L161.43 128.12L158 161.84H157.42L160.86 128.07Z" fill="#F1851B"/>
<path d="M161.43 128.12L162 128.17L158.57 161.84H158L161.43 128.12Z" fill="#F1851B"/>
<path d="M161.999 128.17L162.569 128.21L159.139 161.84H158.569L161.999 128.17Z" fill="#F1851B"/>
<path d="M162.57 128.21L163.14 128.26L159.72 161.84H159.14L162.57 128.21Z" fill="#F1851B"/>
<path d="M163.14 128.26L163.47 128.29V130.68L160.29 161.84H159.72L163.14 128.26Z" fill="#F1851B"/>
<path d="M163.47 136.31L160.87 161.84H160.29L163.47 130.68V136.31Z" fill="#F1851B"/>
<path d="M163.469 141.95L161.439 161.84H160.869L163.469 136.31V141.95Z" fill="#F1851B"/>
<path d="M163.469 147.59L162.02 161.84H161.439L163.469 141.95V147.59Z" fill="#F1851B"/>
<path d="M163.469 153.22L162.589 161.84H162.02L163.469 147.59V153.22Z" fill="#F1851B"/>
<path d="M163.47 158.86L163.16 161.84H162.59L163.47 153.22V158.86Z" fill="#F1851B"/>
<path d="M163.16 161.84L163.47 158.86V161.84H163.16Z" fill="#F1851B"/>
<path d="M172.83 127.95C161.61 142.43 152.67 142.77 162.85 161.84C169.16 144.73 187.54 147.25 172.83 127.95Z" fill="#F1851B"/>
<path d="M152.83 127.95L152.67 129.53V127.95H152.83Z" fill="#F1851B"/>
<path d="M153.41 127.95L152.67 135.16V129.53L152.83 127.95H153.41Z" fill="#F1851B"/>
<path d="M153.98 127.95L152.67 140.8V135.16L153.41 127.95H153.98Z" fill="#F1851B"/>
<path d="M154.56 127.95L152.67 146.44V140.8L153.98 127.95H154.56Z" fill="#F1851B"/>
<path d="M155.13 127.95L152.67 152.07V146.44L154.56 127.95H155.13Z" fill="#F1851B"/>
<path d="M155.7 127.95L152.67 157.71V152.07L155.13 127.95H155.7Z" fill="#F1851B"/>
<path d="M156.28 127.95L152.83 161.84H152.67V157.71L155.7 127.95H156.28Z" fill="#F1851B"/>
<path d="M156.85 127.95L153.4 161.84H152.83L156.28 127.95H156.85Z" fill="#F1851B"/>
<path d="M157.43 127.95L153.98 161.84H153.4L156.85 127.95H157.43Z" fill="#F1851B"/>
<path d="M158 127.95L154.55 161.84H153.979L157.43 127.95H158Z" fill="#F1851B"/>
<path d="M158.58 127.95L155.12 161.84H154.55L158 127.95H158.58Z" fill="#F1851B"/>
<path d="M159.15 127.95L155.7 161.84H155.12L158.58 127.95H159.15Z" fill="#F1851B"/>
<path d="M159.72 127.95L156.27 161.84H155.7L159.15 127.95H159.72Z" fill="#F1851B"/>
<path d="M160.3 127.95L156.849 161.84H156.27L159.719 127.95H160.3Z" fill="#F1851B"/>
<path d="M160.87 127.95L157.42 161.84H156.85L160.3 127.95H160.87Z" fill="#F1851B"/>
<path d="M161.45 127.95L158 161.84H157.42L160.87 127.95H161.45Z" fill="#F1851B"/>
<path d="M162.02 127.95L158.57 161.84H158L161.45 127.95H162.02Z" fill="#F1851B"/>
<path d="M162.6 127.95L159.14 161.84H158.57L162.02 127.95H162.6Z" fill="#F1851B"/>
<path d="M163.17 127.95L159.72 161.84H159.14L162.6 127.95H163.17Z" fill="#F1851B"/>
<path d="M163.74 127.95L160.29 161.84H159.72L163.17 127.95H163.74Z" fill="#F1851B"/>
<path d="M164.32 127.95L160.87 161.84H160.29L163.74 127.95H164.32Z" fill="#F1851B"/>
<path d="M164.89 127.95L161.44 161.84H160.87L164.32 127.95H164.89Z" fill="#F1851B"/>
<path d="M165.469 127.95L162.02 161.84H161.439L164.89 127.95H165.469Z" fill="#F1851B"/>
<path d="M166.04 127.95L162.589 161.84H162.02L165.469 127.95H166.04Z" fill="#F1851B"/>
<path d="M166.62 127.95L163.16 161.84H162.59L166.04 127.95H166.62Z" fill="#F1851B"/>
<path d="M167.19 127.95L163.74 161.84H163.16L166.62 127.95H167.19Z" fill="#F1851B"/>
<path d="M167.76 127.95L164.31 161.84H163.74L167.19 127.95H167.76Z" fill="#F1851B"/>
<path d="M168.339 127.95L164.89 161.84H164.31L167.76 127.95H168.339Z" fill="#F1851B"/>
<path d="M168.91 127.95L165.46 161.84H164.89L168.34 127.95H168.91Z" fill="#F1851B"/>
<path d="M169.49 127.95L166.04 161.84H165.46L168.91 127.95H169.49Z" fill="#F1851B"/>
<path d="M170.06 127.95L166.61 161.84H166.04L169.49 127.95H170.06Z" fill="#F1851B"/>
<path d="M170.639 127.95L167.179 161.84H166.609L170.059 127.95H170.639Z" fill="#F1851B"/>
<path d="M171.21 127.95L167.76 161.84H167.18L170.64 127.95H171.21Z" fill="#F1851B"/>
<path d="M171.78 127.95L168.33 161.84H167.76L171.21 127.95H171.78Z" fill="#F1851B"/>
<path d="M172.36 127.95L168.91 161.84H168.33L171.78 127.95H172.36Z" fill="#F1851B"/>
<path d="M172.93 127.95L169.48 161.84H168.91L172.36 127.95H172.93Z" fill="#F1851B"/>
<path d="M173.51 127.95L170.06 161.84H169.479L172.93 127.95H173.51Z" fill="#F1851B"/>
<path d="M174.079 127.95L170.63 161.84H170.06L173.51 127.95H174.079Z" fill="#F1851B"/>
<path d="M174.66 127.95L171.2 161.84H170.63L174.08 127.95H174.66Z" fill="#F1851B"/>
<path d="M175.23 127.95L171.78 161.84H171.2L174.66 127.95H175.23Z" fill="#F1851B"/>
<path d="M175.8 127.95L172.35 161.84H171.78L175.23 127.95H175.8Z" fill="#F1851B"/>
<path d="M176.38 127.95L172.93 161.84H172.35L175.8 127.95H176.38Z" fill="#F1851B"/>
<path d="M176.95 127.95L173.5 161.84H172.93L176.38 127.95H176.95Z" fill="#F1851B"/>
<path d="M177.53 127.95L174.07 161.84H173.5L176.95 127.95H177.53Z" fill="#F1851B"/>
<path d="M178.1 127.95L174.65 161.84H174.07L177.53 127.95H178.1Z" fill="#F1851B"/>
<path d="M178.68 127.95L175.22 161.84H174.65L178.1 127.95H178.68Z" fill="#F1851B"/>
<path d="M179.25 127.95L175.8 161.84H175.22L178.68 127.95H179.25Z" fill="#F1851B"/>
<path d="M179.82 127.95L176.37 161.84H175.8L179.25 127.95H179.82Z" fill="#F1851B"/>
<path d="M180.4 127.95L176.95 161.84H176.37L179.82 127.95H180.4Z" fill="#F1851B"/>
<path d="M180.97 127.95L177.52 161.84H176.95L180.4 127.95H180.97Z" fill="#F1851B"/>
<path d="M181.55 127.95L178.089 161.84H177.52L180.969 127.95H181.55Z" fill="#F1851B"/>
<path d="M182.12 127.95L178.67 161.84H178.09L181.55 127.95H182.12Z" fill="#F1851B"/>
<path d="M182.7 127.95L179.24 161.84H178.67L182.12 127.95H182.7Z" fill="#F1851B"/>
<path d="M183.27 127.95L179.82 161.84H179.24L182.7 127.95H183.27Z" fill="#F1851B"/>
<path d="M183.84 127.95L180.39 161.84H179.82L183.27 127.95H183.84Z" fill="#F1851B"/>
<path d="M184.42 127.95L180.97 161.84H180.39L183.84 127.95H184.42Z" fill="#F1851B"/>
<path d="M184.99 127.95L181.54 161.84H180.97L184.42 127.95H184.99Z" fill="#F1851B"/>
<path d="M185.57 127.95L182.11 161.84H181.54L184.99 127.95H185.57Z" fill="#F1851B"/>
<path d="M186.139 127.95L182.689 161.84H182.109L185.569 127.95H186.139Z" fill="#F1851B"/>
<path d="M186.719 127.95L183.26 161.84H182.689L186.14 127.95H186.719Z" fill="#F1851B"/>
<path d="M187.29 127.95L183.84 161.84H183.26L186.72 127.95H187.29Z" fill="#F1851B"/>
<path d="M187.54 131.17L184.41 161.84H183.84L187.29 127.95H187.54V131.17Z" fill="#F1851B"/>
<path d="M187.54 136.81L184.99 161.84H184.41L187.54 131.17V136.81Z" fill="#F1851B"/>
<path d="M187.54 142.45L185.56 161.84H184.99L187.54 136.81V142.45Z" fill="#F1851B"/>
<path d="M187.54 148.08L186.13 161.84H185.56L187.54 142.45V148.08Z" fill="#F1851B"/>
<path d="M186.13 161.84L187.54 148.08V161.84H186.13Z" fill="#F1851B"/>
</svg>
