<svg width="254" height="258" viewBox="0 0 254 258" fill="none" xmlns="http://www.w3.org/2000/svg">
<path d="M144.98 139.58C106.91 141.58 94.8297 163.18 97.4297 195.84L221.9 195.19C226.86 156.77 205.73 140.8 172.94 140.45" stroke="#F1851B" stroke-width="3" stroke-miterlimit="10"/>
<path d="M116.071 206.86V223.04H113.981V208.61H106.471V223.04H104.381V206.86H116.071Z" fill="#616160"/>
<path d="M130.161 217.14C130.161 221.43 127.18 223.31 124.38 223.31C121.24 223.31 118.811 221.01 118.811 217.33C118.811 213.44 121.35 211.16 124.57 211.16C127.9 211.16 130.161 213.58 130.161 217.14ZM120.94 217.26C120.94 219.8 122.4 221.72 124.47 221.72C126.49 221.72 128 219.82 128 217.21C128 215.24 127.021 212.75 124.521 212.75C122.021 212.74 120.94 215.05 120.94 217.26Z" fill="#616160"/>
<path d="M132.77 211.57C133.59 211.43 135.099 211.3 136.469 211.3C138.409 211.3 141.63 211.61 141.63 214.2C141.63 215.64 140.529 216.53 139.209 216.82V216.87C140.909 217.11 142.16 218.07 142.16 219.75C142.16 222.8 138.32 223.18 136.04 223.18C134.74 223.18 133.4 223.08 132.78 223.04V211.57H132.77ZM134.76 221.65C135.36 221.72 135.789 221.75 136.459 221.75C137.879 221.75 139.99 221.41 139.99 219.73C139.99 218.05 138.31 217.69 136.29 217.69H134.75V221.65H134.76ZM134.79 216.3H136.37C137.93 216.3 139.54 215.84 139.54 214.48C139.54 213.33 138.53 212.77 136.42 212.77C135.72 212.77 135.29 212.82 134.79 212.87V216.3Z" fill="#616160"/>
<path d="M146 217.62C146.05 220.48 147.87 221.65 149.98 221.65C151.49 221.65 152.4 221.39 153.2 221.05L153.56 222.56C152.82 222.9 151.54 223.28 149.7 223.28C146.12 223.28 143.99 220.93 143.99 217.42C143.99 213.91 146.05 211.16 149.44 211.16C153.23 211.16 154.24 214.5 154.24 216.63C154.24 217.06 154.19 217.4 154.17 217.61H146V217.62ZM152.19 216.1C152.21 214.76 151.64 212.67 149.26 212.67C147.12 212.67 146.19 214.64 146.02 216.1H152.19Z" fill="#616160"/>
<path d="M156.84 215.22C156.84 213.73 156.79 212.53 156.74 211.43H158.64L158.74 213.42H158.79C159.65 212 161.02 211.16 162.92 211.16C165.73 211.16 167.84 213.54 167.84 217.06C167.84 221.24 165.3 223.3 162.56 223.3C161.02 223.3 159.68 222.63 158.98 221.48H158.93V227.79H156.84V215.22ZM158.93 218.31C158.93 218.62 158.98 218.91 159.03 219.17C159.41 220.63 160.69 221.64 162.2 221.64C164.43 221.64 165.73 219.82 165.73 217.15C165.73 214.82 164.51 212.83 162.27 212.83C160.83 212.83 159.49 213.86 159.08 215.45C159.01 215.72 158.94 216.03 158.94 216.32V218.31H158.93Z" fill="#616160"/>
<path d="M172.541 211.42V216.1H178.061V211.42H180.151V223.04H178.061V217.78H172.541V223.04H170.451V211.42H172.541Z" fill="#616160"/>
<path d="M185.551 211.42V216.32C185.551 218.17 185.531 219.32 185.431 220.98L185.501 221C186.201 219.58 186.601 218.77 187.371 217.42L190.991 211.42H193.461V223.04H191.441V218.12C191.441 216.23 191.491 215.24 191.581 213.37H191.511C190.771 214.86 190.261 215.79 189.591 216.97C188.491 218.77 187.211 221 185.961 223.04H183.541V211.42H185.551Z" fill="#616160"/>
<path d="M204.68 211.42V213.1H201.06V223.04H198.97V213.1H195.34V211.42H204.68Z" fill="#616160"/>
<path d="M207.391 217.62C207.441 220.48 209.261 221.65 211.371 221.65C212.881 221.65 213.791 221.39 214.591 221.05L214.951 222.56C214.211 222.9 212.931 223.28 211.091 223.28C207.511 223.28 205.381 220.93 205.381 217.42C205.381 213.91 207.441 211.16 210.831 211.16C214.621 211.16 215.631 214.5 215.631 216.63C215.631 217.06 215.581 217.4 215.561 217.61H207.391V217.62ZM213.581 216.1C213.601 214.76 213.031 212.67 210.651 212.67C208.511 212.67 207.581 214.64 207.411 216.1H213.581Z" fill="#616160"/>
<path d="M100.36 240.22V241.93H95.3204V251.84H93.2305V240.22H100.36Z" fill="#616160"/>
<path d="M112.551 245.94C112.551 250.24 109.571 252.11 106.771 252.11C103.631 252.11 101.201 249.81 101.201 246.13C101.201 242.24 103.741 239.96 106.961 239.96C110.301 239.96 112.551 242.38 112.551 245.94ZM103.341 246.06C103.341 248.6 104.801 250.52 106.871 250.52C108.891 250.52 110.401 248.63 110.401 246.01C110.401 244.04 109.421 241.55 106.921 241.55C104.421 241.54 103.341 243.85 103.341 246.06Z" fill="#616160"/>
<path d="M124.031 240.22V251.84H121.941V241.88H117.961V244.91C117.961 248.17 117.651 250.36 116.141 251.34C115.561 251.8 114.921 252.06 113.841 252.06L113.621 250.4C114.031 250.33 114.481 250.16 114.771 249.92C115.851 249.13 115.971 247.5 115.971 244.9V240.22H124.031Z" fill="#616160"/>
<path d="M137.991 245.94C137.991 250.24 135.011 252.11 132.211 252.11C129.071 252.11 126.641 249.81 126.641 246.13C126.641 242.24 129.181 239.96 132.401 239.96C135.741 239.96 137.991 242.38 137.991 245.94ZM128.781 246.06C128.781 248.6 130.241 250.52 132.311 250.52C134.331 250.52 135.841 248.63 135.841 246.01C135.841 244.04 134.861 241.55 132.361 241.55C129.861 241.54 128.781 243.85 128.781 246.06Z" fill="#616160"/>
<path d="M140.611 240.37C141.431 240.23 142.941 240.11 144.311 240.11C146.251 240.11 149.471 240.42 149.471 243.01C149.471 244.45 148.371 245.34 147.051 245.63V245.68C148.751 245.92 150.001 246.88 150.001 248.56C150.001 251.61 146.161 251.99 143.881 251.99C142.581 251.99 141.241 251.89 140.621 251.85V240.37H140.611ZM142.601 250.45C143.201 250.52 143.631 250.55 144.301 250.55C145.721 250.55 147.831 250.21 147.831 248.53C147.831 246.85 146.151 246.49 144.131 246.49H142.591V250.45H142.601ZM142.631 245.1H144.211C145.771 245.1 147.381 244.64 147.381 243.28C147.381 242.13 146.371 241.58 144.261 241.58C143.561 241.58 143.131 241.63 142.631 241.68V245.1Z" fill="#616160"/>
<path d="M153.16 240.22L155.7 247.09C155.96 247.86 156.25 248.77 156.44 249.47H156.49C156.71 248.77 156.95 247.89 157.23 247.04L159.53 240.22H161.76L158.59 248.5C157.08 252.48 156.05 254.53 154.61 255.77C153.58 256.68 152.55 257.04 152.02 257.14L151.49 255.36C152.02 255.19 152.71 254.86 153.34 254.33C153.92 253.87 154.64 253.06 155.12 251.98C155.22 251.76 155.29 251.6 155.29 251.48C155.29 251.36 155.24 251.19 155.15 250.93L150.85 240.22H153.16Z" fill="#616160"/>
<path d="M168.74 240.37C169.56 240.23 171.07 240.11 172.44 240.11C174.38 240.11 177.6 240.42 177.6 243.01C177.6 244.45 176.5 245.34 175.18 245.63V245.68C176.88 245.92 178.13 246.88 178.13 248.56C178.13 251.61 174.29 251.99 172.01 251.99C170.71 251.99 169.37 251.89 168.75 251.85V240.37H168.74ZM170.73 250.45C171.33 250.52 171.76 250.55 172.43 250.55C173.85 250.55 175.96 250.21 175.96 248.53C175.96 246.85 174.28 246.49 172.26 246.49H170.72V250.45H170.73ZM170.75 245.1H172.33C173.89 245.1 175.5 244.64 175.5 243.28C175.5 242.13 174.49 241.58 172.38 241.58C171.68 241.58 171.25 241.63 170.75 241.68V245.1Z" fill="#616160"/>
<path d="M180.74 240.37C181.56 240.23 183.07 240.11 184.44 240.11C186.38 240.11 189.6 240.42 189.6 243.01C189.6 244.45 188.5 245.34 187.18 245.63V245.68C188.88 245.92 190.13 246.88 190.13 248.56C190.13 251.61 186.29 251.99 184.01 251.99C182.71 251.99 181.37 251.89 180.75 251.85V240.37H180.74ZM182.73 250.45C183.33 250.52 183.76 250.55 184.43 250.55C185.85 250.55 187.96 250.21 187.96 248.53C187.96 246.85 186.28 246.49 184.26 246.49H182.72V250.45H182.73ZM182.75 245.1H184.33C185.89 245.1 187.5 244.64 187.5 243.28C187.5 242.13 186.49 241.58 184.38 241.58C183.68 241.58 183.25 241.63 182.75 241.68V245.1Z" fill="#616160"/>
<path d="M193.961 246.42C194.011 249.28 195.831 250.45 197.941 250.45C199.451 250.45 200.361 250.19 201.161 249.85L201.521 251.36C200.781 251.7 199.501 252.08 197.661 252.08C194.081 252.08 191.951 249.73 191.951 246.22C191.951 242.71 194.011 239.95 197.401 239.95C201.191 239.95 202.201 243.29 202.201 245.42C202.201 245.85 202.151 246.19 202.131 246.4H193.961V246.42ZM200.151 244.9C200.171 243.56 199.601 241.47 197.221 241.47C195.081 241.47 194.151 243.44 193.981 244.9H200.151Z" fill="#616160"/>
<path d="M204.811 244.02C204.811 242.53 204.761 241.33 204.711 240.23H206.611L206.711 242.22H206.761C207.621 240.8 208.991 239.96 210.891 239.96C213.701 239.96 215.811 242.34 215.811 245.86C215.811 250.04 213.271 252.1 210.531 252.1C208.991 252.1 207.651 251.43 206.951 250.28H206.901V256.59H204.811V244.02ZM206.901 247.11C206.901 247.42 206.951 247.71 207.001 247.98C207.381 249.44 208.661 250.45 210.171 250.45C212.401 250.45 213.701 248.63 213.701 245.96C213.701 243.63 212.481 241.64 210.241 241.64C208.801 241.64 207.461 242.67 207.051 244.26C206.981 244.52 206.911 244.84 206.911 245.12V247.11H206.901Z" fill="#616160"/>
<path d="M219.14 240.22L220.8 242.72C221.23 243.37 221.59 243.97 221.98 244.62H222.05C222.43 243.92 222.82 243.33 223.2 242.7L224.83 240.23H227.11L223.15 245.85L227.23 251.85H224.83L223.13 249.23C222.67 248.56 222.29 247.91 221.88 247.21H221.83C221.45 247.91 221.04 248.53 220.61 249.23L218.93 251.85H216.6L220.73 245.92L216.79 240.23H219.14V240.22Z" fill="#616160"/>
<path d="M57.7604 181.67C58.5904 188.52 63.4304 194.2 70.1104 196.14C72.0204 196.69 73.9304 196.77 75.5504 196.77H75.5604C96.9104 196.76 118.27 196.76 139.62 196.76H208.03C217.07 196.76 226.43 196.76 235.62 196.74C237.04 196.74 238.26 196.62 239.33 196.4C247.35 194.7 252.96 187.76 252.96 179.52C252.97 131.6 252.96 79.05 252.96 18.87C252.96 18.21 252.91 17.52 252.82 16.82C252.07 10.94 249.02 6.48996 243.75 3.57996C241.32 2.23996 238.53 1.58997 235.23 1.58997C235.23 1.58997 235.23 1.58997 235.22 1.58997C191.41 1.59997 147.59 1.59998 103.78 1.59998H75.1604C75.0904 1.59998 75.0303 1.59998 74.9603 1.59998C74.8703 1.59998 74.7704 1.59998 74.6804 1.59998C68.7304 1.77998 63.9903 4.31997 60.6003 9.15997C58.6403 11.96 57.6504 15.26 57.6504 18.97C57.6704 39.39 57.6604 60.16 57.6604 80.24V110.18C57.6604 133.06 57.6604 155.94 57.6604 178.82V179.29C57.6704 180.08 57.6604 180.89 57.7604 181.67ZM65.9703 6.66998C68.4603 4.78998 71.3804 3.81996 74.6304 3.76996C74.8004 3.76996 74.9804 3.76996 75.1504 3.76996H75.3203H97.6504C143.46 3.76996 189.26 3.76998 235.07 3.75998C235.07 3.75998 235.07 3.75998 235.08 3.75998C237.23 3.75998 238.98 4.00996 240.57 4.54996C246.63 6.59996 250.74 12.26 250.78 18.65C250.79 20.02 250.79 21.39 250.78 22.76C250.78 23.37 250.78 23.98 250.78 24.59V53.74C250.78 94.82 250.78 137.3 250.79 179.09C250.79 182.71 249.88 185.72 248.01 188.28C245.02 192.37 240.92 194.5 235.82 194.62C235.39 194.63 234.96 194.63 234.54 194.62C234.34 194.62 234.14 194.62 233.94 194.62H136.58C116.18 194.62 95.7804 194.62 75.3804 194.63H75.3704C72.0704 194.63 69.3404 193.9 67.0104 192.41C62.3304 189.41 59.9103 185.06 59.8203 179.49C59.8103 179.07 59.8203 178.64 59.8203 178.22C59.8203 178.02 59.8203 177.81 59.8203 177.61V142.79C59.8203 102.33 59.8204 60.49 59.8104 19.35C59.8004 14.02 61.8703 9.75998 65.9703 6.66998Z" fill="#9C9FA0" stroke="#9C9FA0" stroke-width="2" stroke-miterlimit="10"/>
<path d="M1.66083 197.79H47.9309C48.6309 197.79 49.2108 197.22 49.2108 196.51V150.24C49.2108 149.53 48.6409 148.96 47.9309 148.96H1.66083C0.950828 148.96 0.380859 149.53 0.380859 150.24V196.51C0.380859 197.22 0.960828 197.79 1.66083 197.79Z" fill="#9C9FA0"/>
<path d="M33.6096 177.28H30.8997V182.92H25.8096V177.28H15.5996V173.53L24.2097 159.35H30.8896V173.12H33.5996V177.28H33.6096ZM25.8196 173.12V169.3C25.8196 167.78 25.9696 165.51 26.0396 164.03H25.8896C25.2896 165.33 24.6297 166.67 23.9597 168L20.8397 173.12H25.8196Z" fill="white"/>
<path d="M174.39 134.81L171.31 112.9C171.14 111.07 170.77 109.37 170.24 107.82C169.81 108.48 169.22 109.03 168.47 109.39C168.78 110.5 168.99 111.7 169.09 112.97C169.09 113.03 169.1 113.07 169.1 113.13L172.18 135.03C172.13 141.73 164.99 146.73 158.61 146.73C152.23 146.73 145.09 141.73 145.04 135.03L148.12 113.13C148.13 113.08 148.12 113.03 148.13 112.97C148.39 111.75 148.7 110.59 149.06 109.5C148.18 109.41 147.43 109.12 146.83 108.69C146.29 110.14 145.97 111.59 145.91 112.89L142.83 134.8C142.82 134.85 142.82 134.9 142.82 134.95C142.82 142.96 151.16 148.95 158.61 148.95C166.07 148.95 174.4 142.96 174.4 134.95C174.4 134.92 174.4 134.87 174.39 134.81Z" fill="#9C9FA0"/>
<path d="M158.58 111.27C148.74 111.27 140.34 107.13 134.27 99.31C129.28 92.87 126.85 83.11 126.85 69.47C126.85 59.25 128.13 51.27 134.41 45.59C140.61 39.97 149.2 36.88 158.59 36.88C167.98 36.88 176.57 39.97 182.77 45.59C189.04 51.27 190.33 59.24 190.33 69.47C190.33 83.11 187.9 92.87 182.91 99.31C176.83 107.13 168.42 111.27 158.58 111.27ZM158.58 39.1C149.74 39.1 141.69 41.99 135.9 47.24C130.24 52.37 129.08 59.84 129.08 69.47C129.08 82.6 131.36 91.91 136.04 97.95C141.67 105.21 149.47 109.05 158.59 109.05C167.72 109.05 175.51 105.21 181.14 97.95C185.82 91.91 188.1 82.6 188.1 69.47C188.1 59.84 186.94 52.37 181.28 47.24C175.47 41.99 167.42 39.1 158.58 39.1Z" fill="#9C9FA0"/>
<path d="M130.84 80.95C124.63 80.95 121.65 80.9499 121.66 86.0999C121.67 91.8999 127.88 91.2499 131.73 90.6099" fill="white"/>
<path d="M127.641 92.12C125.661 92.12 123.761 91.76 122.401 90.61C121.171 89.57 120.551 88.06 120.551 86.1C120.551 83.99 121.011 82.54 122.001 81.54C123.711 79.83 126.541 79.83 130.841 79.83C131.451 79.83 131.951 80.33 131.951 80.94C131.951 81.55 131.451 82.05 130.841 82.05C127.241 82.05 124.631 82.05 123.581 83.11C123.231 83.46 122.771 84.14 122.781 86.09C122.781 87.38 123.131 88.3 123.841 88.9C125.701 90.48 129.951 89.77 131.551 89.5C132.161 89.4 132.731 89.8099 132.831 90.4099C132.931 91.0199 132.521 91.59 131.921 91.69C130.571 91.93 129.081 92.12 127.641 92.12Z" fill="#9C9FA0"/>
<path d="M186.312 80.95C192.522 80.95 195.502 80.9499 195.492 86.0999C195.482 91.8999 189.272 91.2499 185.422 90.6099" fill="white"/>
<path d="M189.512 92.12C188.072 92.12 186.582 91.93 185.242 91.7C184.632 91.6 184.232 91.03 184.332 90.42C184.432 89.81 185.012 89.41 185.612 89.51C187.212 89.78 191.452 90.4899 193.322 88.9099C194.032 88.3099 194.382 87.39 194.382 86.1C194.382 84.15 193.922 83.47 193.582 83.12C192.522 82.06 189.922 82.06 186.322 82.06C185.712 82.06 185.212 81.56 185.212 80.95C185.212 80.34 185.712 79.84 186.322 79.84C190.612 79.84 193.452 79.84 195.162 81.55C196.162 82.55 196.622 83.99 196.612 86.11C196.612 88.07 195.982 89.58 194.762 90.62C193.392 91.76 191.492 92.12 189.512 92.12Z" fill="#9C9FA0"/>
<path d="M149.779 84.64C152.439 90.27 165.579 89.6 167.389 84.64H149.779Z" fill="white"/>
<path d="M148.57 85.34C149.94 88.14 153.16 89.41 156.08 89.82C159.25 90.26 162.74 89.94 165.6 88.41C167.02 87.65 168.15 86.52 168.73 85.01C169 84.31 168.43 83.48 167.76 83.3C166.97 83.08 166.32 83.57 166.05 84.27C166.15 84.02 165.94 84.48 165.91 84.53C165.84 84.64 165.77 84.76 165.69 84.86C165.83 84.67 165.5 85.06 165.47 85.1C165.37 85.2 165.27 85.3 165.16 85.39C164.89 85.62 164.07 86.11 163.65 86.29C162.14 86.95 160.44 87.2 158.81 87.23C155.91 87.28 152.27 86.57 150.98 83.95C150.19 82.33 147.79 83.74 148.57 85.34Z" fill="#9C9FA0"/>
<path d="M145.891 56.09C147.831 56.09 147.831 53.08 145.891 53.08C143.961 53.07 143.951 56.09 145.891 56.09Z" fill="#9C9FA0"/>
<path d="M170.711 55.66C172.651 55.66 172.651 52.65 170.711 52.65C168.771 52.64 168.761 55.66 170.711 55.66Z" fill="#9C9FA0"/>
<path d="M157.24 55.14C157 56.13 156.71 57.11 156.43 58.08C156.23 58.76 156.03 59.44 155.81 60.11C155.72 60.37 155.63 60.63 155.53 60.89C155.69 60.47 155.59 60.8 155.53 60.87C155.35 61.1 155.76 60.64 155.64 60.74C155.84 60.62 156.05 60.5 156.25 60.38C155.25 60.79 155.07 61.9 154.73 62.83C154.49 63.49 154.25 64.15 154.02 64.81C153.68 65.8 153.34 66.83 153.27 67.88C153.21 68.76 153.48 69.65 154.13 70.26C154.89 70.98 155.97 71.16 156.97 71.25C158.64 71.41 160.35 71.27 162.02 71.17C162.94 71.11 163.58 70.33 163.36 69.41C162.35 65.23 161.35 61.06 160.34 56.88C160.2 56.29 160.06 55.71 159.92 55.12C159.5 53.38 156.82 54.12 157.24 55.86C158.25 60.04 159.25 64.21 160.26 68.39C160.4 68.98 160.54 69.56 160.68 70.15C161.13 69.56 161.57 68.98 162.02 68.39C160.39 68.49 158.72 68.62 157.09 68.48C157.01 68.47 156.52 68.4 156.92 68.47C156.79 68.45 156.67 68.43 156.54 68.4C156.35 68.36 156.17 68.3 155.99 68.24C156.4 68.39 156.11 68.29 156.01 68.23C155.75 68.06 156.13 68.34 156.07 68.28C155.84 68.04 156.21 68.57 155.99 68.16C156.2 68.55 156.07 68.34 156.03 68.21C155.96 67.97 156.05 68.21 156.04 68.32C156.06 68.13 156.05 67.91 156.06 67.72C156.04 68.18 156.11 67.51 156.14 67.37C156.21 67.09 156.29 66.8 156.37 66.53C156.83 65.03 157.41 63.57 157.94 62.09C157.62 62.41 157.29 62.74 156.97 63.06C158.32 62.51 158.59 60.54 158.96 59.29C159.29 58.15 159.63 57.01 159.91 55.86C160.34 54.14 157.66 53.4 157.24 55.14Z" fill="#9C9FA0"/>
<path d="M142.039 50.71C144.279 49.03 148.749 49.03 150.989 50.43L142.039 50.71Z" fill="white"/>
<path d="M142.74 51.91C143.02 51.71 143.31 51.54 143.61 51.39C143.74 51.33 143.81 51.3 143.64 51.37C143.73 51.33 143.82 51.3 143.91 51.27C144.07 51.21 144.24 51.16 144.41 51.11C144.8 51 145.189 50.92 145.589 50.86C145.459 50.88 145.449 50.88 145.589 50.86C145.689 50.85 145.8 50.84 145.9 50.83C146.11 50.81 146.31 50.8 146.52 50.8C146.91 50.79 147.299 50.8 147.689 50.84C147.769 50.85 147.85 50.86 147.93 50.86C148.32 50.9 147.76 50.83 147.98 50.87C148.17 50.91 148.37 50.94 148.56 50.98C148.91 51.06 149.259 51.15 149.589 51.28C149.629 51.29 149.909 51.41 149.719 51.33C149.529 51.25 149.829 51.39 149.839 51.39C149.989 51.46 150.14 51.55 150.28 51.63C150.9 52.01 151.84 51.79 152.18 51.13C152.54 50.45 152.34 49.63 151.68 49.23C150.16 48.3 148.26 47.99 146.5 48.03C144.73 48.07 142.779 48.45 141.319 49.51C140.709 49.95 140.409 50.72 140.819 51.41C141.179 52.01 142.13 52.36 142.74 51.91Z" fill="#9C9FA0"/>
<path d="M174.469 50.71C172.229 49.03 167.76 49.03 165.52 50.43L174.469 50.71Z" fill="white"/>
<path d="M175.18 49.51C173.72 48.44 171.78 48.06 170 48.03C168.24 47.99 166.34 48.31 164.82 49.23C164.18 49.62 163.94 50.48 164.32 51.13C164.69 51.77 165.58 52.02 166.22 51.63C166.36 51.54 166.51 51.46 166.66 51.39C166.72 51.36 166.79 51.33 166.85 51.3C166.57 51.44 166.79 51.32 166.86 51.3C167.2 51.18 167.54 51.08 167.89 51C168.08 50.96 168.28 50.92 168.47 50.89C168.74 50.84 168.35 50.9 168.52 50.88C168.62 50.87 168.72 50.86 168.82 50.85C169.21 50.82 169.6 50.8 169.99 50.81C170.18 50.81 170.36 50.82 170.55 50.84C170.65 50.85 170.76 50.86 170.86 50.87C170.92 50.88 171.21 50.92 170.92 50.87C171.3 50.93 171.67 51 172.04 51.1C172.21 51.15 172.38 51.2 172.54 51.26C172.63 51.29 172.72 51.33 172.81 51.36C172.97 51.41 172.61 51.26 172.84 51.37C173.16 51.53 173.47 51.7 173.76 51.92C174.35 52.35 175.34 52.04 175.66 51.42C176.06 50.69 175.81 49.97 175.18 49.51Z" fill="#9C9FA0"/>
<path d="M132.65 37.45C140.82 45.9 153.73 47.41 167.07 48.32C175.67 48.92 189.44 49.53 196.33 45.91C190.31 38.36 177.83 28.71 165.35 27.2C155.45 25.98 134.27 24.43 132.65 37.45Z" fill="#40B7E2"/>
<path d="M137.81 41.9801C136.09 49.8301 131.359 58.4101 128.349 67.0301C120.769 61.3501 113.179 27.7101 138.239 37.1501" fill="#40B7E2"/>
<path d="M179.109 46.51C180.829 52.55 182.549 61.3 184.699 67.04C190.559 61.75 193.729 48.93 187.709 44.1" fill="#40B7E2"/>
<path d="M210.09 97.99C216.39 79.47 220.02 62.15 219.15 46.83L223.57 57.8" stroke="#CC1417" stroke-miterlimit="10"/>
<path d="M212.17 59.29C214.6 56.99 216.93 52.83 219.15 46.83" stroke="#CC1417" stroke-miterlimit="10"/>
<path d="M141.641 69.02C149.001 69.02 149.001 58.75 141.641 58.75C134.271 58.75 134.271 69.02 141.641 69.02Z" fill="#FAD6E7"/>
<path d="M175.571 69.02C182.931 69.02 182.931 58.75 175.571 58.75C168.211 58.75 168.201 69.02 175.571 69.02Z" fill="#FAD6E7"/>
<path d="M143.31 127.95C154.53 142.43 163.47 142.77 153.29 161.84C146.98 144.73 128.6 147.25 143.31 127.95Z" fill="#F1851B"/>
<path d="M146.52 127.95L143.06 161.84H137.17L128.6 161.12V127.95H146.52Z" fill="#F1851B"/>
<path d="M147.09 127.95L143.641 161.84H143.061L146.521 127.95H147.09Z" fill="#F1851B"/>
<path d="M147.671 127.95L144.211 161.84H143.641L147.091 127.95H147.671Z" fill="#F1851B"/>
<path d="M148.239 127.95L144.789 161.84H144.209L147.669 127.95H148.239Z" fill="#F1851B"/>
<path d="M148.809 127.95L145.359 161.84H144.789L148.239 127.95H148.809Z" fill="#F1851B"/>
<path d="M149.389 127.95L145.939 161.84H145.359L148.809 127.95H149.389Z" fill="#F1851B"/>
<path d="M149.959 127.95L146.51 161.84H145.939L149.39 127.95H149.959Z" fill="#F1851B"/>
<path d="M150.54 127.95L147.08 161.84H146.51L149.96 127.95H150.54Z" fill="#F1851B"/>
<path d="M151.11 127.95L147.66 161.84H147.08L150.54 127.95H151.11Z" fill="#F1851B"/>
<path d="M151.69 127.95L148.23 161.84H147.66L151.11 127.95H151.69Z" fill="#F1851B"/>
<path d="M152.26 127.95L148.811 161.84H148.23L151.69 127.95H152.26Z" fill="#F1851B"/>
<path d="M152.83 127.95L149.38 161.84H148.811L152.26 127.95H152.83Z" fill="#F1851B"/>
<path d="M153.409 127.95L149.959 161.84H149.379L152.829 127.95H153.409Z" fill="#F1851B"/>
<path d="M153.979 127.95L150.529 161.84H149.959L153.409 127.95H153.979Z" fill="#F1851B"/>
<path d="M154.559 127.95L151.099 161.84H150.529L153.979 127.95H154.559Z" fill="#F1851B"/>
<path d="M155.13 127.95L151.68 161.84H151.1L154.56 127.95H155.13Z" fill="#F1851B"/>
<path d="M155.7 127.95L152.25 161.84H151.68L155.13 127.95H155.7Z" fill="#F1851B"/>
<path d="M156.28 127.95L152.83 161.84H152.25L155.7 127.95H156.28Z" fill="#F1851B"/>
<path d="M156.85 127.95L153.4 161.84H152.83L156.28 127.95H156.85Z" fill="#F1851B"/>
<path d="M157.43 127.95L153.98 161.84H153.4L156.85 127.95H157.43Z" fill="#F1851B"/>
<path d="M158 127.95L154.551 161.84H153.98L157.431 127.95H158Z" fill="#F1851B"/>
<path d="M158.579 127.95L155.119 161.84H154.549L157.999 127.95H158.579Z" fill="#F1851B"/>
<path d="M159.149 127.95L155.699 161.84H155.119L158.579 127.95H159.149Z" fill="#F1851B"/>
<path d="M159.429 127.95L159.719 127.97L156.269 161.84H155.699L159.149 127.95H159.429Z" fill="#F1851B"/>
<path d="M159.719 127.97L160.29 128.02L156.849 161.84H156.27L159.719 127.97Z" fill="#F1851B"/>
<path d="M160.29 128.02L160.86 128.07L157.42 161.84H156.85L160.29 128.02Z" fill="#F1851B"/>
<path d="M160.86 128.07L161.43 128.12L158 161.84H157.42L160.86 128.07Z" fill="#F1851B"/>
<path d="M161.43 128.12L162 128.17L158.57 161.84H158L161.43 128.12Z" fill="#F1851B"/>
<path d="M162 128.17L162.57 128.21L159.14 161.84H158.57L162 128.17Z" fill="#F1851B"/>
<path d="M162.571 128.21L163.141 128.26L159.721 161.84H159.141L162.571 128.21Z" fill="#F1851B"/>
<path d="M163.139 128.26L163.469 128.29V130.68L160.289 161.84H159.719L163.139 128.26Z" fill="#F1851B"/>
<path d="M163.469 136.31L160.869 161.84H160.289L163.469 130.68V136.31Z" fill="#F1851B"/>
<path d="M163.469 141.95L161.439 161.84H160.869L163.469 136.31V141.95Z" fill="#F1851B"/>
<path d="M163.469 147.59L162.02 161.84H161.439L163.469 141.95V147.59Z" fill="#F1851B"/>
<path d="M163.469 153.22L162.589 161.84H162.02L163.469 147.59V153.22Z" fill="#F1851B"/>
<path d="M163.47 158.86L163.16 161.84H162.59L163.47 153.22V158.86Z" fill="#F1851B"/>
<path d="M163.16 161.84L163.47 158.86V161.84H163.16Z" fill="#F1851B"/>
<path d="M172.83 127.95C161.61 142.43 152.67 142.77 162.85 161.84C169.16 144.73 187.54 147.25 172.83 127.95Z" fill="#F1851B"/>
<path d="M152.83 127.95L152.67 129.53V127.95H152.83Z" fill="#F1851B"/>
<path d="M153.41 127.95L152.67 135.16V129.53L152.83 127.95H153.41Z" fill="#F1851B"/>
<path d="M153.98 127.95L152.67 140.8V135.16L153.41 127.95H153.98Z" fill="#F1851B"/>
<path d="M154.56 127.95L152.67 146.44V140.8L153.98 127.95H154.56Z" fill="#F1851B"/>
<path d="M155.13 127.95L152.67 152.07V146.44L154.56 127.95H155.13Z" fill="#F1851B"/>
<path d="M155.7 127.95L152.67 157.71V152.07L155.13 127.95H155.7Z" fill="#F1851B"/>
<path d="M156.28 127.95L152.83 161.84H152.67V157.71L155.7 127.95H156.28Z" fill="#F1851B"/>
<path d="M156.85 127.95L153.4 161.84H152.83L156.28 127.95H156.85Z" fill="#F1851B"/>
<path d="M157.43 127.95L153.98 161.84H153.4L156.85 127.95H157.43Z" fill="#F1851B"/>
<path d="M158 127.95L154.551 161.84H153.98L157.431 127.95H158Z" fill="#F1851B"/>
<path d="M158.581 127.95L155.121 161.84H154.551L158.001 127.95H158.581Z" fill="#F1851B"/>
<path d="M159.149 127.95L155.699 161.84H155.119L158.579 127.95H159.149Z" fill="#F1851B"/>
<path d="M159.719 127.95L156.269 161.84H155.699L159.149 127.95H159.719Z" fill="#F1851B"/>
<path d="M160.3 127.95L156.849 161.84H156.27L159.719 127.95H160.3Z" fill="#F1851B"/>
<path d="M160.87 127.95L157.42 161.84H156.85L160.3 127.95H160.87Z" fill="#F1851B"/>
<path d="M161.45 127.95L158 161.84H157.42L160.87 127.95H161.45Z" fill="#F1851B"/>
<path d="M162.02 127.95L158.57 161.84H158L161.45 127.95H162.02Z" fill="#F1851B"/>
<path d="M162.6 127.95L159.14 161.84H158.57L162.02 127.95H162.6Z" fill="#F1851B"/>
<path d="M163.171 127.95L159.721 161.84H159.141L162.601 127.95H163.171Z" fill="#F1851B"/>
<path d="M163.741 127.95L160.291 161.84H159.721L163.171 127.95H163.741Z" fill="#F1851B"/>
<path d="M164.319 127.95L160.869 161.84H160.289L163.739 127.95H164.319Z" fill="#F1851B"/>
<path d="M164.889 127.95L161.439 161.84H160.869L164.319 127.95H164.889Z" fill="#F1851B"/>
<path d="M165.469 127.95L162.02 161.84H161.439L164.89 127.95H165.469Z" fill="#F1851B"/>
<path d="M166.04 127.95L162.589 161.84H162.02L165.469 127.95H166.04Z" fill="#F1851B"/>
<path d="M166.62 127.95L163.16 161.84H162.59L166.04 127.95H166.62Z" fill="#F1851B"/>
<path d="M167.19 127.95L163.74 161.84H163.16L166.62 127.95H167.19Z" fill="#F1851B"/>
<path d="M167.76 127.95L164.31 161.84H163.74L167.19 127.95H167.76Z" fill="#F1851B"/>
<path d="M168.34 127.95L164.891 161.84H164.311L167.76 127.95H168.34Z" fill="#F1851B"/>
<path d="M168.911 127.95L165.461 161.84H164.891L168.341 127.95H168.911Z" fill="#F1851B"/>
<path d="M169.489 127.95L166.039 161.84H165.459L168.909 127.95H169.489Z" fill="#F1851B"/>
<path d="M170.059 127.95L166.609 161.84H166.039L169.489 127.95H170.059Z" fill="#F1851B"/>
<path d="M170.639 127.95L167.179 161.84H166.609L170.059 127.95H170.639Z" fill="#F1851B"/>
<path d="M171.21 127.95L167.76 161.84H167.18L170.64 127.95H171.21Z" fill="#F1851B"/>
<path d="M171.78 127.95L168.33 161.84H167.76L171.21 127.95H171.78Z" fill="#F1851B"/>
<path d="M172.36 127.95L168.91 161.84H168.33L171.78 127.95H172.36Z" fill="#F1851B"/>
<path d="M172.93 127.95L169.48 161.84H168.91L172.36 127.95H172.93Z" fill="#F1851B"/>
<path d="M173.51 127.95L170.061 161.84H169.48L172.931 127.95H173.51Z" fill="#F1851B"/>
<path d="M174.08 127.95L170.63 161.84H170.061L173.51 127.95H174.08Z" fill="#F1851B"/>
<path d="M174.659 127.95L171.199 161.84H170.629L174.079 127.95H174.659Z" fill="#F1851B"/>
<path d="M175.229 127.95L171.779 161.84H171.199L174.659 127.95H175.229Z" fill="#F1851B"/>
<path d="M175.799 127.95L172.349 161.84H171.779L175.229 127.95H175.799Z" fill="#F1851B"/>
<path d="M176.38 127.95L172.93 161.84H172.35L175.8 127.95H176.38Z" fill="#F1851B"/>
<path d="M176.95 127.95L173.5 161.84H172.93L176.38 127.95H176.95Z" fill="#F1851B"/>
<path d="M177.53 127.95L174.07 161.84H173.5L176.95 127.95H177.53Z" fill="#F1851B"/>
<path d="M178.1 127.95L174.65 161.84H174.07L177.53 127.95H178.1Z" fill="#F1851B"/>
<path d="M178.68 127.95L175.22 161.84H174.65L178.1 127.95H178.68Z" fill="#F1851B"/>
<path d="M179.251 127.95L175.801 161.84H175.221L178.681 127.95H179.251Z" fill="#F1851B"/>
<path d="M179.821 127.95L176.371 161.84H175.801L179.251 127.95H179.821Z" fill="#F1851B"/>
<path d="M180.399 127.95L176.949 161.84H176.369L179.819 127.95H180.399Z" fill="#F1851B"/>
<path d="M180.969 127.95L177.519 161.84H176.949L180.399 127.95H180.969Z" fill="#F1851B"/>
<path d="M181.55 127.95L178.089 161.84H177.52L180.969 127.95H181.55Z" fill="#F1851B"/>
<path d="M182.12 127.95L178.67 161.84H178.09L181.55 127.95H182.12Z" fill="#F1851B"/>
<path d="M182.7 127.95L179.24 161.84H178.67L182.12 127.95H182.7Z" fill="#F1851B"/>
<path d="M183.27 127.95L179.82 161.84H179.24L182.7 127.95H183.27Z" fill="#F1851B"/>
<path d="M183.84 127.95L180.39 161.84H179.82L183.27 127.95H183.84Z" fill="#F1851B"/>
<path d="M184.421 127.95L180.971 161.84H180.391L183.841 127.95H184.421Z" fill="#F1851B"/>
<path d="M184.991 127.95L181.541 161.84H180.971L184.421 127.95H184.991Z" fill="#F1851B"/>
<path d="M185.569 127.95L182.109 161.84H181.539L184.989 127.95H185.569Z" fill="#F1851B"/>
<path d="M186.139 127.95L182.689 161.84H182.109L185.569 127.95H186.139Z" fill="#F1851B"/>
<path d="M186.719 127.95L183.26 161.84H182.689L186.14 127.95H186.719Z" fill="#F1851B"/>
<path d="M187.29 127.95L183.84 161.84H183.26L186.72 127.95H187.29Z" fill="#F1851B"/>
<path d="M187.54 131.17L184.41 161.84H183.84L187.29 127.95H187.54V131.17Z" fill="#F1851B"/>
<path d="M187.54 136.81L184.99 161.84H184.41L187.54 131.17V136.81Z" fill="#F1851B"/>
<path d="M187.54 142.45L185.56 161.84H184.99L187.54 136.81V142.45Z" fill="#F1851B"/>
<path d="M187.541 148.08L186.13 161.84H185.561L187.541 142.45V148.08Z" fill="#F1851B"/>
<path d="M186.129 161.84L187.539 148.08V161.84H186.129Z" fill="#F1851B"/>
</svg>
