<svg width="254" height="258" viewBox="0 0 254 258" fill="none" xmlns="http://www.w3.org/2000/svg">
<path d="M144.98 139.58C106.91 141.58 94.8297 163.18 97.4297 195.84L221.9 195.19C226.86 156.77 205.73 140.8 172.94 140.45" stroke="#F1851B" stroke-width="3" stroke-miterlimit="10"/>
<path d="M116.069 206.86V223.04H113.979V208.61H106.469V223.04H104.379V206.86H116.069Z" fill="#616160"/>
<path d="M130.161 217.14C130.161 221.43 127.18 223.31 124.38 223.31C121.24 223.31 118.811 221.01 118.811 217.33C118.811 213.44 121.35 211.16 124.57 211.16C127.9 211.16 130.161 213.58 130.161 217.14ZM120.94 217.26C120.94 219.8 122.4 221.72 124.47 221.72C126.49 221.72 128 219.82 128 217.21C128 215.24 127.021 212.75 124.521 212.75C122.021 212.74 120.94 215.05 120.94 217.26Z" fill="#616160"/>
<path d="M132.77 211.57C133.59 211.43 135.099 211.3 136.469 211.3C138.409 211.3 141.63 211.61 141.63 214.2C141.63 215.64 140.529 216.53 139.209 216.82V216.87C140.909 217.11 142.16 218.07 142.16 219.75C142.16 222.8 138.32 223.18 136.04 223.18C134.74 223.18 133.4 223.08 132.78 223.04V211.57H132.77ZM134.76 221.65C135.36 221.72 135.789 221.75 136.459 221.75C137.879 221.75 139.99 221.41 139.99 219.73C139.99 218.05 138.31 217.69 136.29 217.69H134.75V221.65H134.76ZM134.79 216.3H136.37C137.93 216.3 139.54 215.84 139.54 214.48C139.54 213.33 138.53 212.77 136.42 212.77C135.72 212.77 135.29 212.82 134.79 212.87V216.3Z" fill="#616160"/>
<path d="M146 217.62C146.05 220.48 147.87 221.65 149.98 221.65C151.49 221.65 152.4 221.39 153.2 221.05L153.56 222.56C152.82 222.9 151.54 223.28 149.7 223.28C146.12 223.28 143.99 220.93 143.99 217.42C143.99 213.91 146.05 211.16 149.44 211.16C153.23 211.16 154.24 214.5 154.24 216.63C154.24 217.06 154.19 217.4 154.17 217.61H146V217.62ZM152.19 216.1C152.21 214.76 151.64 212.67 149.26 212.67C147.12 212.67 146.19 214.64 146.02 216.1H152.19Z" fill="#616160"/>
<path d="M156.84 215.22C156.84 213.73 156.79 212.53 156.74 211.43H158.64L158.74 213.42H158.79C159.65 212 161.02 211.16 162.92 211.16C165.73 211.16 167.84 213.54 167.84 217.06C167.84 221.24 165.3 223.3 162.56 223.3C161.02 223.3 159.68 222.63 158.98 221.48H158.93V227.79H156.84V215.22ZM158.93 218.31C158.93 218.62 158.98 218.91 159.03 219.17C159.41 220.63 160.69 221.64 162.2 221.64C164.43 221.64 165.73 219.82 165.73 217.15C165.73 214.82 164.51 212.83 162.27 212.83C160.83 212.83 159.49 213.86 159.08 215.45C159.01 215.72 158.94 216.03 158.94 216.32V218.31H158.93Z" fill="#616160"/>
<path d="M172.539 211.42V216.1H178.059V211.42H180.149V223.04H178.059V217.78H172.539V223.04H170.449V211.42H172.539Z" fill="#616160"/>
<path d="M185.549 211.42V216.32C185.549 218.17 185.529 219.32 185.429 220.98L185.499 221C186.199 219.58 186.599 218.77 187.369 217.42L190.989 211.42H193.459V223.04H191.439V218.12C191.439 216.23 191.489 215.24 191.579 213.37H191.509C190.769 214.86 190.259 215.79 189.589 216.97C188.489 218.77 187.209 221 185.959 223.04H183.539V211.42H185.549Z" fill="#616160"/>
<path d="M204.68 211.42V213.1H201.06V223.04H198.97V213.1H195.34V211.42H204.68Z" fill="#616160"/>
<path d="M207.389 217.62C207.439 220.48 209.259 221.65 211.369 221.65C212.879 221.65 213.789 221.39 214.589 221.05L214.949 222.56C214.209 222.9 212.929 223.28 211.089 223.28C207.509 223.28 205.379 220.93 205.379 217.42C205.379 213.91 207.439 211.16 210.829 211.16C214.619 211.16 215.629 214.5 215.629 216.63C215.629 217.06 215.579 217.4 215.559 217.61H207.389V217.62ZM213.579 216.1C213.599 214.76 213.029 212.67 210.649 212.67C208.509 212.67 207.579 214.64 207.409 216.1H213.579Z" fill="#616160"/>
<path d="M106.23 240.22V241.93H101.19V251.84H99.0996V240.22H106.23Z" fill="#616160"/>
<path d="M118.42 245.94C118.42 250.24 115.44 252.11 112.64 252.11C109.5 252.11 107.07 249.81 107.07 246.13C107.07 242.24 109.61 239.96 112.83 239.96C116.17 239.96 118.42 242.38 118.42 245.94ZM109.2 246.06C109.2 248.6 110.66 250.52 112.73 250.52C114.75 250.52 116.26 248.63 116.26 246.01C116.26 244.04 115.28 241.55 112.78 241.55C110.28 241.54 109.2 243.85 109.2 246.06Z" fill="#616160"/>
<path d="M129.891 240.22V251.84H127.801V241.88H123.82V244.91C123.82 248.17 123.51 250.36 122 251.34C121.42 251.8 120.78 252.06 119.7 252.06L119.48 250.4C119.89 250.33 120.34 250.16 120.63 249.92C121.71 249.13 121.83 247.5 121.83 244.9V240.22H129.891Z" fill="#616160"/>
<path d="M143.86 245.94C143.86 250.24 140.88 252.11 138.08 252.11C134.94 252.11 132.51 249.81 132.51 246.13C132.51 242.24 135.05 239.96 138.27 239.96C141.61 239.96 143.86 242.38 143.86 245.94ZM134.64 246.06C134.64 248.6 136.1 250.52 138.17 250.52C140.19 250.52 141.7 248.63 141.7 246.01C141.7 244.04 140.72 241.55 138.22 241.55C135.72 241.54 134.64 243.85 134.64 246.06Z" fill="#616160"/>
<path d="M146.48 240.37C147.3 240.23 148.811 240.11 150.181 240.11C152.121 240.11 155.34 240.42 155.34 243.01C155.34 244.45 154.241 245.34 152.921 245.63V245.68C154.621 245.92 155.87 246.88 155.87 248.56C155.87 251.61 152.03 251.99 149.75 251.99C148.45 251.99 147.11 251.89 146.49 251.85V240.37H146.48ZM148.47 250.45C149.07 250.52 149.501 250.55 150.171 250.55C151.591 250.55 153.7 250.21 153.7 248.53C153.7 246.85 152.02 246.49 150 246.49H148.46V250.45H148.47ZM148.49 245.1H150.07C151.63 245.1 153.24 244.64 153.24 243.28C153.24 242.13 152.23 241.58 150.12 241.58C149.42 241.58 148.99 241.63 148.49 241.68V245.1Z" fill="#616160"/>
<path d="M159.029 240.22L161.569 247.09C161.829 247.86 162.119 248.77 162.309 249.47H162.359C162.579 248.77 162.819 247.89 163.099 247.04L165.399 240.22H167.629L164.459 248.5C162.949 252.48 161.919 254.53 160.479 255.77C159.449 256.68 158.419 257.04 157.889 257.14L157.359 255.36C157.889 255.19 158.579 254.86 159.209 254.33C159.789 253.87 160.509 253.06 160.989 251.98C161.089 251.76 161.159 251.6 161.159 251.48C161.159 251.36 161.109 251.19 161.019 250.93L156.719 240.22H159.029Z" fill="#616160"/>
<path d="M174.6 240.37C175.42 240.23 176.93 240.11 178.3 240.11C180.24 240.11 183.46 240.42 183.46 243.01C183.46 244.45 182.36 245.34 181.04 245.63V245.68C182.74 245.92 183.99 246.88 183.99 248.56C183.99 251.61 180.15 251.99 177.87 251.99C176.57 251.99 175.23 251.89 174.61 251.85V240.37H174.6ZM176.6 250.45C177.2 250.52 177.63 250.55 178.3 250.55C179.72 250.55 181.83 250.21 181.83 248.53C181.83 246.85 180.15 246.49 178.13 246.49H176.59V250.45H176.6ZM176.62 245.1H178.2C179.76 245.1 181.37 244.64 181.37 243.28C181.37 242.13 180.36 241.58 178.25 241.58C177.55 241.58 177.12 241.63 176.62 241.68V245.1Z" fill="#616160"/>
<path d="M188.69 240.22V244.9H194.21V240.22H196.3V251.84H194.21V246.58H188.69V251.84H186.6V240.22H188.69Z" fill="#616160"/>
<path d="M201.699 240.22V245.12C201.699 246.97 201.679 248.12 201.579 249.78L201.65 249.81C202.35 248.39 202.75 247.58 203.52 246.23L207.14 240.23H209.609V251.85H207.589V246.93C207.589 245.03 207.639 244.05 207.729 242.18H207.66C206.92 243.67 206.41 244.6 205.74 245.78C204.64 247.58 203.359 249.81 202.109 251.85H199.689V240.23H201.699V240.22Z" fill="#616160"/>
<path d="M214.009 245.1H215.019C216.799 245.1 217.999 244.28 217.999 243.2C217.999 242.17 217.059 241.52 215.739 241.52C214.799 241.52 213.749 241.83 212.929 242.34L212.399 241.04C213.579 240.32 214.919 239.98 216.259 239.98C218.039 239.98 220.199 240.77 220.199 243.03C220.199 244.47 218.879 245.41 217.579 245.67V245.72C219.309 245.86 220.749 246.92 220.749 248.62C220.749 251.14 218.179 252.08 215.729 252.08C214.359 252.08 212.989 251.72 211.959 251.14L212.509 249.72C213.349 250.18 214.479 250.51 215.579 250.51C217.329 250.51 218.439 249.67 218.439 248.52C218.439 246.96 216.809 246.53 215.059 246.53H213.999V245.1H214.009Z" fill="#616160"/>
<path d="M57.7604 181.67C58.5904 188.52 63.4304 194.2 70.1104 196.14C72.0204 196.69 73.9304 196.77 75.5504 196.77H75.5604C96.9104 196.76 118.27 196.76 139.62 196.76H208.03C217.07 196.76 226.43 196.76 235.62 196.74C237.04 196.74 238.26 196.62 239.33 196.4C247.35 194.7 252.96 187.76 252.96 179.52C252.97 131.6 252.96 79.05 252.96 18.87C252.96 18.21 252.91 17.52 252.82 16.82C252.07 10.94 249.02 6.48996 243.75 3.57996C241.32 2.23996 238.53 1.58997 235.23 1.58997C235.23 1.58997 235.23 1.58997 235.22 1.58997C191.41 1.59997 147.59 1.59998 103.78 1.59998H75.1604C75.0904 1.59998 75.0303 1.59998 74.9603 1.59998C74.8703 1.59998 74.7704 1.59998 74.6804 1.59998C68.7304 1.77998 63.9903 4.31997 60.6003 9.15997C58.6403 11.96 57.6504 15.26 57.6504 18.97C57.6704 39.39 57.6604 60.16 57.6604 80.24V110.18C57.6604 133.06 57.6604 155.94 57.6604 178.82V179.29C57.6704 180.08 57.6604 180.89 57.7604 181.67ZM65.9703 6.66998C68.4603 4.78998 71.3804 3.81996 74.6304 3.76996C74.8004 3.76996 74.9804 3.76996 75.1504 3.76996H75.3203H97.6504C143.46 3.76996 189.26 3.76998 235.07 3.75998C235.07 3.75998 235.07 3.75998 235.08 3.75998C237.23 3.75998 238.98 4.00996 240.57 4.54996C246.63 6.59996 250.74 12.26 250.78 18.65C250.79 20.02 250.79 21.39 250.78 22.76C250.78 23.37 250.78 23.98 250.78 24.59V53.74C250.78 94.82 250.78 137.3 250.79 179.09C250.79 182.71 249.88 185.72 248.01 188.28C245.02 192.37 240.92 194.5 235.82 194.62C235.39 194.63 234.96 194.63 234.54 194.62C234.34 194.62 234.14 194.62 233.94 194.62H136.58C116.18 194.62 95.7804 194.62 75.3804 194.63H75.3704C72.0704 194.63 69.3404 193.9 67.0104 192.41C62.3304 189.41 59.9103 185.06 59.8203 179.49C59.8103 179.07 59.8203 178.64 59.8203 178.22C59.8203 178.02 59.8203 177.81 59.8203 177.61V142.79C59.8203 102.33 59.8204 60.49 59.8104 19.35C59.8004 14.02 61.8703 9.75998 65.9703 6.66998Z" fill="#9C9FA0" stroke="#9C9FA0" stroke-width="2" stroke-miterlimit="10"/>
<path d="M127.039 86.5C125.189 80.67 123.979 74.7 123.269 68.64C122.529 62.29 122.229 55.93 123.389 49.6C123.799 47.35 124.429 45.16 125.639 43.18C127.499 40.14 130.139 39.17 133.549 40.3C134.089 40.48 134.249 40.37 134.329 39.8C134.879 35.98 135.959 32.33 138.079 29.07C141.179 24.3 145.599 21.61 151.209 20.77C155.399 20.14 159.519 20.68 163.669 21.23C170.369 22.12 175.379 25.91 179.949 30.42C187.019 37.41 192.719 45.43 197.389 54.2C197.869 55.09 197.769 55.63 197.069 56.33C195.689 57.72 194.239 59.01 192.599 60.08C192.169 60.36 191.999 60.61 192.089 61.14C192.739 65.48 192.549 69.82 191.989 74.16C191.499 77.99 190.559 81.71 189.459 85.4C189.129 86.33 188.799 87.26 188.469 88.2C187.559 89.91 186.939 91.77 185.719 93.46C185.079 90.55 184.599 87.76 184.219 84.95C183.349 78.37 182.459 71.79 181.609 65.21C181.529 64.58 181.409 64.37 180.689 64.51C178.919 64.87 177.139 65.23 175.329 65.33C170.859 65.58 166.389 65.57 161.929 65.03C153.129 63.96 145.669 60.37 139.909 53.52C139.789 53.38 139.719 53.13 139.419 53.18C139.149 55.5 138.949 57.82 138.539 60.12C138.119 62.42 137.749 64.73 137.289 67.03C136.829 69.32 136.319 71.61 135.779 73.88C135.249 76.16 134.669 78.43 134.089 80.7C133.509 82.97 132.729 85.2 132.379 87.5C132.039 89.79 130.919 91.82 130.699 94.32C129.869 93.28 129.459 92.3299 128.979 91.4199C128.579 90.6599 128.419 89.79 127.859 89.12C127.739 88.19 127.249 87.39 127.039 86.5Z" fill="#40B7E2"/>
<path d="M146.1 132.12C145.44 131.44 144.85 130.7 144.34 129.9C144.6 128.44 144.85 126.98 145.12 125.53C145.2 125.13 145.13 124.89 144.75 124.66C137.41 120.1 133.051 113.34 130.541 105.25C130.061 103.7 129.661 102.11 129.301 100.52C129.171 99.95 128.96 99.69 128.37 99.56C123.05 98.37 121.171 94.15 121.291 90.72C121.311 90.16 121.37 89.59 121.48 89.04C121.88 87.05 122.99 86.23 125.01 86.37C125.69 86.42 126.361 86.45 127.041 86.49C127.251 87.38 127.74 88.17 127.86 89.09C126.95 89.03 126.05 88.82 125.12 88.88C124.52 88.92 124.04 89.12 123.77 89.72C122.83 91.8 123.741 95.01 125.661 96.24C126.521 96.79 127.48 97.1 128.46 97.33C129.59 97.59 130.73 97.73 131.88 97.85C132.7 97.93 133.31 98.6 133.25 99.32C133.17 100.23 132.52 100.2 131.87 100.1C131.36 100.02 131.331 100.24 131.421 100.65C132.801 107.03 135.25 112.87 139.58 117.88C148.87 128.63 164.74 129.21 174.89 119.5C180.48 114.15 183.58 107.47 185.25 100.03C185.39 99.4 185.101 99.4 184.651 99.46C184.201 99.52 183.721 99.54 183.531 99C183.351 98.49 183.48 98.01 183.85 97.6C184.15 97.28 184.51 97.13 184.95 97.1C186.4 96.98 187.84 96.79 189.22 96.33C192.4 95.27 193.81 92.89 193.22 89.56C192.98 88.21 192.55 87.86 191.2 87.84C190.27 87.82 189.39 88.11 188.48 88.2C188.81 87.27 189.14 86.34 189.47 85.4C190.24 85.55 190.99 85.29 191.76 85.26C193.75 85.19 194.9 85.95 195.271 87.9C196.201 92.79 194.11 97.51 188.51 98.87C187.8 99.04 187.52 99.33 187.35 100.03C186.2 104.79 184.71 109.45 182.08 113.63C179.23 118.14 175.781 122.08 171.061 124.74C170.681 124.95 170.611 125.2 170.671 125.6C170.891 127.09 171.081 128.59 171.281 130.09C170.761 130.95 170.08 131.69 169.36 132.39C169.11 130.54 168.82 128.7 168.62 126.85C168.55 126.19 168.41 126.09 167.771 126.34C161.181 128.98 154.57 128.94 147.99 126.29C147.33 126.02 147.22 126.2 147.11 126.8C146.8 128.58 146.44 130.35 146.1 132.12Z" fill="#9C9FA0"/>
<path d="M158.32 105.54C157.39 105.51 156.48 105.44 155.58 105.25C153.75 104.87 152.87 103.73 153.18 102.16C153.5 100.52 154.2 98.96 154.93 97.43C155.9 95.42 156.5 93.33 157.15 91.25C157.29 90.79 157.5 90.4 158.08 90.24C158.99 90 159.65 90.35 159.87 91.23C160.59 94.1 161.29 96.97 162.01 99.83C162.32 101.05 162.65 102.28 162.95 103.5C163.19 104.47 162.73 105.08 161.58 105.22C160.5 105.37 159.41 105.44 158.32 105.54ZM158.37 96.7C157.23 98.56 156.62 100.38 155.97 102.18C155.77 102.74 156.02 103.01 156.71 103.06C157.62 103.13 158.53 103.12 159.45 103.08C159.94 103.06 159.95 102.89 159.87 102.57C159.38 100.67 158.9 98.77 158.37 96.7Z" fill="#9C9FA0"/>
<path d="M174.45 110.3C172.45 110.36 171.04 109.67 170.23 108.07C169.31 106.27 169.76 104.5 170.88 102.98C172.63 100.61 175.13 99.81 177.97 100.18C180.27 100.48 181.58 102.67 181.13 104.96C180.45 108.38 177.44 110.27 174.45 110.3Z" fill="#F8D7E8"/>
<path d="M141.099 110.49C138.469 110.52 135.409 108.46 134.869 105.64C134.389 103.15 135.699 101.04 138.219 100.69C141.059 100.3 143.509 101.09 145.229 103.46C146.269 104.9 146.53 106.56 145.67 108.23C144.79 109.93 143.299 110.53 141.099 110.49Z" fill="#F8D7E8"/>
<path d="M157.889 113.37C155.639 113.28 153.489 112.94 151.489 111.93C150.069 111.21 148.949 110.2 148.259 108.75C147.869 107.93 148.09 107.19 148.8 106.85C149.49 106.52 150.149 106.74 150.569 107.52C151.259 108.8 152.35 109.58 153.67 110.03C156.51 111.01 159.369 111.02 162.189 109.93C163.509 109.42 164.699 108.71 165.339 107.35C165.439 107.15 165.61 106.95 165.79 106.82C166.29 106.48 166.849 106.39 167.359 106.76C167.889 107.14 167.959 107.67 167.719 108.27C167.149 109.63 166.219 110.67 164.959 111.42C162.769 112.73 160.379 113.31 157.889 113.37Z" fill="#9C9FA0"/>
<path d="M175.819 84.14C175.839 85.77 174.649 86.46 173.359 85.83C171.039 84.7 168.799 85.22 166.669 86.41C165.619 87 164.969 87.03 164.499 86.34C164.029 85.65 164.179 84.48 164.959 83.95C167.779 82.05 170.829 81.31 174.139 82.49C174.979 82.8 175.769 83.26 175.819 84.14Z" fill="#9C9FA0"/>
<path d="M145.951 82.61C147.951 82.57 149.811 83.07 151.541 84.07C152.051 84.37 152.431 84.77 152.521 85.37C152.621 86.01 152.521 86.62 151.941 87.03C151.381 87.42 150.841 87.31 150.291 86.95C148.761 85.95 147.061 85.7 145.271 85.91C144.591 85.99 143.951 86.19 143.351 86.56C142.421 87.13 141.761 87.01 141.231 86.2C140.701 85.39 140.871 84.42 141.671 83.85C142.951 82.95 144.411 82.63 145.951 82.61Z" fill="#9C9FA0"/>
<path d="M145.93 93.24C145.94 92.46 146.45 91.95 147.23 91.95C148.09 91.96 148.75 92.62 148.74 93.47C148.73 94.25 148.2 94.77 147.44 94.75C146.54 94.73 145.92 94.11 145.93 93.24Z" fill="#9C9FA0"/>
<path d="M169.01 91.56C169.72 91.55 170.18 92 170.21 92.74C170.24 93.65 169.55 94.37 168.63 94.38C167.89 94.39 167.46 93.96 167.44 93.2C167.41 92.29 168.09 91.57 169.01 91.56Z" fill="#9C9FA0"/>
<path d="M231.58 73.86C225.28 92.38 221.65 109.7 222.52 125.02L218.1 114.05" stroke="#CC1417" stroke-miterlimit="10"/>
<path d="M229.5 112.56C227.07 114.86 224.74 119.02 222.52 125.02" stroke="#CC1417" stroke-miterlimit="10"/>
<path d="M1.66083 197.79H47.9309C48.6309 197.79 49.2108 197.22 49.2108 196.51V150.24C49.2108 149.53 48.6409 148.96 47.9309 148.96H1.66083C0.950828 148.96 0.380859 149.53 0.380859 150.24V196.51C0.380859 197.22 0.960828 197.79 1.66083 197.79Z" fill="#9C9FA0"/>
<path d="M15.75 180.06L18.2 176.61C19.61 177.91 21.28 178.95 23.29 178.95C25.7 178.95 27.26 177.69 27.26 175.27C27.26 172.89 25.74 171.63 23.55 171.63C22.18 171.63 21.47 171.93 20.06 172.82L17.61 171.26L18.28 159.34H31.65V163.94H23L22.59 168.36C23.48 167.95 24.26 167.8 25.22 167.8C29.27 167.8 32.72 170.1 32.72 175.11C32.72 180.34 28.67 183.35 24.07 183.35C20.21 183.36 17.61 181.92 15.75 180.06Z" fill="white"/>
<path d="M143.31 127.95C154.53 142.43 163.47 142.77 153.29 161.84C146.98 144.73 128.6 147.25 143.31 127.95Z" fill="#F1851B"/>
<path d="M146.52 127.95L143.06 161.84H137.17L128.6 161.12V127.95H146.52Z" fill="#F1851B"/>
<path d="M147.09 127.95L143.641 161.84H143.061L146.521 127.95H147.09Z" fill="#F1851B"/>
<path d="M147.671 127.95L144.211 161.84H143.641L147.091 127.95H147.671Z" fill="#F1851B"/>
<path d="M148.239 127.95L144.789 161.84H144.209L147.669 127.95H148.239Z" fill="#F1851B"/>
<path d="M148.809 127.95L145.359 161.84H144.789L148.239 127.95H148.809Z" fill="#F1851B"/>
<path d="M149.389 127.95L145.939 161.84H145.359L148.809 127.95H149.389Z" fill="#F1851B"/>
<path d="M149.959 127.95L146.51 161.84H145.939L149.39 127.95H149.959Z" fill="#F1851B"/>
<path d="M150.54 127.95L147.08 161.84H146.51L149.96 127.95H150.54Z" fill="#F1851B"/>
<path d="M151.11 127.95L147.66 161.84H147.08L150.54 127.95H151.11Z" fill="#F1851B"/>
<path d="M151.69 127.95L148.23 161.84H147.66L151.11 127.95H151.69Z" fill="#F1851B"/>
<path d="M152.26 127.95L148.811 161.84H148.23L151.69 127.95H152.26Z" fill="#F1851B"/>
<path d="M152.83 127.95L149.38 161.84H148.811L152.26 127.95H152.83Z" fill="#F1851B"/>
<path d="M153.409 127.95L149.959 161.84H149.379L152.829 127.95H153.409Z" fill="#F1851B"/>
<path d="M153.979 127.95L150.529 161.84H149.959L153.409 127.95H153.979Z" fill="#F1851B"/>
<path d="M154.559 127.95L151.099 161.84H150.529L153.979 127.95H154.559Z" fill="#F1851B"/>
<path d="M155.13 127.95L151.68 161.84H151.1L154.56 127.95H155.13Z" fill="#F1851B"/>
<path d="M155.7 127.95L152.25 161.84H151.68L155.13 127.95H155.7Z" fill="#F1851B"/>
<path d="M156.28 127.95L152.83 161.84H152.25L155.7 127.95H156.28Z" fill="#F1851B"/>
<path d="M156.85 127.95L153.4 161.84H152.83L156.28 127.95H156.85Z" fill="#F1851B"/>
<path d="M157.43 127.95L153.98 161.84H153.4L156.85 127.95H157.43Z" fill="#F1851B"/>
<path d="M158 127.95L154.551 161.84H153.98L157.431 127.95H158Z" fill="#F1851B"/>
<path d="M158.579 127.95L155.119 161.84H154.549L157.999 127.95H158.579Z" fill="#F1851B"/>
<path d="M159.149 127.95L155.699 161.84H155.119L158.579 127.95H159.149Z" fill="#F1851B"/>
<path d="M159.429 127.95L159.719 127.97L156.269 161.84H155.699L159.149 127.95H159.429Z" fill="#F1851B"/>
<path d="M159.719 127.97L160.29 128.02L156.849 161.84H156.27L159.719 127.97Z" fill="#F1851B"/>
<path d="M160.29 128.02L160.86 128.07L157.42 161.84H156.85L160.29 128.02Z" fill="#F1851B"/>
<path d="M160.86 128.07L161.43 128.12L158 161.84H157.42L160.86 128.07Z" fill="#F1851B"/>
<path d="M161.43 128.12L162 128.17L158.57 161.84H158L161.43 128.12Z" fill="#F1851B"/>
<path d="M162 128.17L162.57 128.21L159.14 161.84H158.57L162 128.17Z" fill="#F1851B"/>
<path d="M162.571 128.21L163.141 128.26L159.721 161.84H159.141L162.571 128.21Z" fill="#F1851B"/>
<path d="M163.139 128.26L163.469 128.29V130.68L160.289 161.84H159.719L163.139 128.26Z" fill="#F1851B"/>
<path d="M163.469 136.31L160.869 161.84H160.289L163.469 130.68V136.31Z" fill="#F1851B"/>
<path d="M163.469 141.95L161.439 161.84H160.869L163.469 136.31V141.95Z" fill="#F1851B"/>
<path d="M163.469 147.59L162.02 161.84H161.439L163.469 141.95V147.59Z" fill="#F1851B"/>
<path d="M163.469 153.22L162.589 161.84H162.02L163.469 147.59V153.22Z" fill="#F1851B"/>
<path d="M163.47 158.86L163.16 161.84H162.59L163.47 153.22V158.86Z" fill="#F1851B"/>
<path d="M163.16 161.84L163.47 158.86V161.84H163.16Z" fill="#F1851B"/>
<path d="M172.83 127.95C161.61 142.43 152.67 142.77 162.85 161.84C169.16 144.73 187.54 147.25 172.83 127.95Z" fill="#F1851B"/>
<path d="M152.83 127.95L152.67 129.53V127.95H152.83Z" fill="#F1851B"/>
<path d="M153.41 127.95L152.67 135.16V129.53L152.83 127.95H153.41Z" fill="#F1851B"/>
<path d="M153.98 127.95L152.67 140.8V135.16L153.41 127.95H153.98Z" fill="#F1851B"/>
<path d="M154.56 127.95L152.67 146.44V140.8L153.98 127.95H154.56Z" fill="#F1851B"/>
<path d="M155.13 127.95L152.67 152.07V146.44L154.56 127.95H155.13Z" fill="#F1851B"/>
<path d="M155.7 127.95L152.67 157.71V152.07L155.13 127.95H155.7Z" fill="#F1851B"/>
<path d="M156.28 127.95L152.83 161.84H152.67V157.71L155.7 127.95H156.28Z" fill="#F1851B"/>
<path d="M156.85 127.95L153.4 161.84H152.83L156.28 127.95H156.85Z" fill="#F1851B"/>
<path d="M157.43 127.95L153.98 161.84H153.4L156.85 127.95H157.43Z" fill="#F1851B"/>
<path d="M158 127.95L154.551 161.84H153.98L157.431 127.95H158Z" fill="#F1851B"/>
<path d="M158.581 127.95L155.121 161.84H154.551L158.001 127.95H158.581Z" fill="#F1851B"/>
<path d="M159.149 127.95L155.699 161.84H155.119L158.579 127.95H159.149Z" fill="#F1851B"/>
<path d="M159.719 127.95L156.269 161.84H155.699L159.149 127.95H159.719Z" fill="#F1851B"/>
<path d="M160.3 127.95L156.849 161.84H156.27L159.719 127.95H160.3Z" fill="#F1851B"/>
<path d="M160.87 127.95L157.42 161.84H156.85L160.3 127.95H160.87Z" fill="#F1851B"/>
<path d="M161.45 127.95L158 161.84H157.42L160.87 127.95H161.45Z" fill="#F1851B"/>
<path d="M162.02 127.95L158.57 161.84H158L161.45 127.95H162.02Z" fill="#F1851B"/>
<path d="M162.6 127.95L159.14 161.84H158.57L162.02 127.95H162.6Z" fill="#F1851B"/>
<path d="M163.171 127.95L159.721 161.84H159.141L162.601 127.95H163.171Z" fill="#F1851B"/>
<path d="M163.741 127.95L160.291 161.84H159.721L163.171 127.95H163.741Z" fill="#F1851B"/>
<path d="M164.319 127.95L160.869 161.84H160.289L163.739 127.95H164.319Z" fill="#F1851B"/>
<path d="M164.889 127.95L161.439 161.84H160.869L164.319 127.95H164.889Z" fill="#F1851B"/>
<path d="M165.469 127.95L162.02 161.84H161.439L164.89 127.95H165.469Z" fill="#F1851B"/>
<path d="M166.04 127.95L162.589 161.84H162.02L165.469 127.95H166.04Z" fill="#F1851B"/>
<path d="M166.62 127.95L163.16 161.84H162.59L166.04 127.95H166.62Z" fill="#F1851B"/>
<path d="M167.19 127.95L163.74 161.84H163.16L166.62 127.95H167.19Z" fill="#F1851B"/>
<path d="M167.76 127.95L164.31 161.84H163.74L167.19 127.95H167.76Z" fill="#F1851B"/>
<path d="M168.34 127.95L164.891 161.84H164.311L167.76 127.95H168.34Z" fill="#F1851B"/>
<path d="M168.911 127.95L165.461 161.84H164.891L168.341 127.95H168.911Z" fill="#F1851B"/>
<path d="M169.489 127.95L166.039 161.84H165.459L168.909 127.95H169.489Z" fill="#F1851B"/>
<path d="M170.059 127.95L166.609 161.84H166.039L169.489 127.95H170.059Z" fill="#F1851B"/>
<path d="M170.639 127.95L167.179 161.84H166.609L170.059 127.95H170.639Z" fill="#F1851B"/>
<path d="M171.21 127.95L167.76 161.84H167.18L170.64 127.95H171.21Z" fill="#F1851B"/>
<path d="M171.78 127.95L168.33 161.84H167.76L171.21 127.95H171.78Z" fill="#F1851B"/>
<path d="M172.36 127.95L168.91 161.84H168.33L171.78 127.95H172.36Z" fill="#F1851B"/>
<path d="M172.93 127.95L169.48 161.84H168.91L172.36 127.95H172.93Z" fill="#F1851B"/>
<path d="M173.51 127.95L170.061 161.84H169.48L172.931 127.95H173.51Z" fill="#F1851B"/>
<path d="M174.08 127.95L170.63 161.84H170.061L173.51 127.95H174.08Z" fill="#F1851B"/>
<path d="M174.659 127.95L171.199 161.84H170.629L174.079 127.95H174.659Z" fill="#F1851B"/>
<path d="M175.229 127.95L171.779 161.84H171.199L174.659 127.95H175.229Z" fill="#F1851B"/>
<path d="M175.799 127.95L172.349 161.84H171.779L175.229 127.95H175.799Z" fill="#F1851B"/>
<path d="M176.38 127.95L172.93 161.84H172.35L175.8 127.95H176.38Z" fill="#F1851B"/>
<path d="M176.95 127.95L173.5 161.84H172.93L176.38 127.95H176.95Z" fill="#F1851B"/>
<path d="M177.53 127.95L174.07 161.84H173.5L176.95 127.95H177.53Z" fill="#F1851B"/>
<path d="M178.1 127.95L174.65 161.84H174.07L177.53 127.95H178.1Z" fill="#F1851B"/>
<path d="M178.68 127.95L175.22 161.84H174.65L178.1 127.95H178.68Z" fill="#F1851B"/>
<path d="M179.251 127.95L175.801 161.84H175.221L178.681 127.95H179.251Z" fill="#F1851B"/>
<path d="M179.821 127.95L176.371 161.84H175.801L179.251 127.95H179.821Z" fill="#F1851B"/>
<path d="M180.399 127.95L176.949 161.84H176.369L179.819 127.95H180.399Z" fill="#F1851B"/>
<path d="M180.969 127.95L177.519 161.84H176.949L180.399 127.95H180.969Z" fill="#F1851B"/>
<path d="M181.55 127.95L178.089 161.84H177.52L180.969 127.95H181.55Z" fill="#F1851B"/>
<path d="M182.12 127.95L178.67 161.84H178.09L181.55 127.95H182.12Z" fill="#F1851B"/>
<path d="M182.7 127.95L179.24 161.84H178.67L182.12 127.95H182.7Z" fill="#F1851B"/>
<path d="M183.27 127.95L179.82 161.84H179.24L182.7 127.95H183.27Z" fill="#F1851B"/>
<path d="M183.84 127.95L180.39 161.84H179.82L183.27 127.95H183.84Z" fill="#F1851B"/>
<path d="M184.421 127.95L180.971 161.84H180.391L183.841 127.95H184.421Z" fill="#F1851B"/>
<path d="M184.991 127.95L181.541 161.84H180.971L184.421 127.95H184.991Z" fill="#F1851B"/>
<path d="M185.569 127.95L182.109 161.84H181.539L184.989 127.95H185.569Z" fill="#F1851B"/>
<path d="M186.139 127.95L182.689 161.84H182.109L185.569 127.95H186.139Z" fill="#F1851B"/>
<path d="M186.719 127.95L183.26 161.84H182.689L186.14 127.95H186.719Z" fill="#F1851B"/>
<path d="M187.29 127.95L183.84 161.84H183.26L186.72 127.95H187.29Z" fill="#F1851B"/>
<path d="M187.54 131.17L184.41 161.84H183.84L187.29 127.95H187.54V131.17Z" fill="#F1851B"/>
<path d="M187.54 136.81L184.99 161.84H184.41L187.54 131.17V136.81Z" fill="#F1851B"/>
<path d="M187.54 142.45L185.56 161.84H184.99L187.54 136.81V142.45Z" fill="#F1851B"/>
<path d="M187.541 148.08L186.13 161.84H185.561L187.541 142.45V148.08Z" fill="#F1851B"/>
<path d="M186.129 161.84L187.539 148.08V161.84H186.129Z" fill="#F1851B"/>
</svg>
