<svg width="255" height="287" viewBox="0 0 255 287" fill="none" xmlns="http://www.w3.org/2000/svg">
<path d="M85.7103 207.25V221.72L87.1304 221.77L86.9904 227.31H85.3604L85.2203 223.42H75.0204L74.8804 227.31H73.2504L73.1104 221.77L74.3303 221.72C74.9303 220.62 75.5304 219.44 75.9104 218.17C76.4604 216.3 76.6804 214.14 76.6804 211.35V207.25H85.7103ZM78.6104 212.02C78.6104 214.61 78.3704 216.8 77.8004 218.62C77.4604 219.75 76.9603 220.83 76.4803 221.69H83.6304V208.97H78.6104V212.02Z" fill="#616160"/>
<path d="M90.7302 218C90.7802 220.86 92.6002 222.03 94.7102 222.03C96.2202 222.03 97.1303 221.77 97.9203 221.43L98.2803 222.94C97.5403 223.28 96.2603 223.66 94.4103 223.66C90.8303 223.66 88.7002 221.31 88.7002 217.8C88.7002 214.3 90.7603 211.54 94.1503 211.54C97.9403 211.54 98.9502 214.88 98.9502 217.01C98.9502 217.44 98.9002 217.78 98.8802 217.99H90.7302V218ZM96.9203 216.49C96.9403 215.15 96.3702 213.06 93.9902 213.06C91.8502 213.06 90.9202 215.03 90.7502 216.49H96.9203Z" fill="#616160"/>
<path d="M101.571 215.6C101.571 214.11 101.521 212.91 101.471 211.81H103.371L103.471 213.8H103.521C104.391 212.38 105.751 211.54 107.651 211.54C110.461 211.54 112.571 213.92 112.571 217.44C112.571 221.62 110.031 223.68 107.291 223.68C105.751 223.68 104.411 223.01 103.711 221.86H103.661V228.17H101.571V215.6ZM103.661 218.7C103.661 219.01 103.711 219.3 103.761 219.56C104.141 221.02 105.421 222.03 106.931 222.03C109.161 222.03 110.461 220.21 110.461 217.54C110.461 215.21 109.241 213.22 107.001 213.22C105.561 213.22 104.221 214.25 103.811 215.84C103.741 216.1 103.671 216.42 103.671 216.7V218.7H103.661Z" fill="#616160"/>
<path d="M116.021 211.81L119.86 216.87H120.291V211.81H122.311V216.87H122.72L126.561 211.81H128.98L124.401 217.09C126.151 217.28 127.18 218.31 127.88 220.16C128.29 221.29 128.671 222.51 129.151 223.42H127.041C126.661 222.72 126.32 221.76 125.99 220.76C125.27 218.86 124.191 218.29 122.681 218.29H122.32V223.43H120.301V218.29H119.921C118.291 218.29 117.3 218.89 116.58 220.79C116.2 221.8 115.88 222.71 115.48 223.43H113.44C113.92 222.49 114.31 221.27 114.71 220.19C115.43 218.32 116.46 217.29 118.21 217.09L113.6 211.81H116.021Z" fill="#616160"/>
<path d="M132.99 211.81V216.71C132.99 218.56 132.97 219.71 132.87 221.37L132.94 221.39C133.64 219.97 134.04 219.16 134.81 217.81L138.44 211.81H140.91V223.43H138.89V218.51C138.89 216.61 138.94 215.63 139.03 213.76H138.96C138.22 215.25 137.71 216.18 137.04 217.36C135.94 219.16 134.66 221.39 133.41 223.43H131V211.81H132.99Z" fill="#616160"/>
<path d="M152.12 211.81V213.49H148.5V223.43H146.41V213.49H142.78V211.81H152.12Z" fill="#616160"/>
<path d="M154.831 218C154.881 220.86 156.701 222.03 158.811 222.03C160.321 222.03 161.231 221.77 162.021 221.43L162.381 222.94C161.641 223.28 160.361 223.66 158.511 223.66C154.931 223.66 152.801 221.31 152.801 217.8C152.801 214.3 154.861 211.54 158.251 211.54C162.041 211.54 163.051 214.88 163.051 217.01C163.051 217.44 163.001 217.78 162.981 217.99H154.831V218ZM161.021 216.49C161.041 215.15 160.471 213.06 158.091 213.06C155.951 213.06 155.021 215.03 154.851 216.49H161.021Z" fill="#616160"/>
<path d="M177.851 211.81V213.51H172.811V223.42H170.721V211.8H177.851V211.81Z" fill="#616160"/>
<path d="M190.041 217.52C190.041 221.82 187.07 223.69 184.26 223.69C181.12 223.69 178.69 221.39 178.69 217.71C178.69 213.82 181.23 211.54 184.45 211.54C187.78 211.54 190.041 213.97 190.041 217.52ZM180.82 217.64C180.82 220.18 182.28 222.1 184.35 222.1C186.37 222.1 187.88 220.2 187.88 217.59C187.88 215.62 186.901 213.13 184.401 213.13C181.901 213.13 180.82 215.43 180.82 217.64Z" fill="#616160"/>
<path d="M201.511 211.81V223.43H199.421V213.47H195.441V216.49C195.441 219.75 195.131 221.94 193.621 222.92C193.041 223.38 192.401 223.64 191.321 223.64L191.101 221.98C191.511 221.91 191.971 221.74 192.251 221.5C193.331 220.71 193.451 219.08 193.451 216.48V211.8H201.511V211.81Z" fill="#616160"/>
<path d="M215.481 217.52C215.481 221.82 212.511 223.69 209.701 223.69C206.561 223.69 204.131 221.39 204.131 217.71C204.131 213.82 206.671 211.54 209.891 211.54C213.221 211.54 215.481 213.97 215.481 217.52ZM206.261 217.64C206.261 220.18 207.721 222.1 209.791 222.1C211.811 222.1 213.321 220.2 213.321 217.59C213.321 215.62 212.341 213.13 209.841 213.13C207.341 213.13 206.261 215.43 206.261 217.64Z" fill="#616160"/>
<path d="M218.091 211.95C218.911 211.81 220.421 211.69 221.791 211.69C223.731 211.69 226.951 212 226.951 214.59C226.951 216.03 225.851 216.92 224.531 217.21V217.26C226.231 217.5 227.481 218.46 227.481 220.14C227.481 223.19 223.641 223.57 221.361 223.57C220.061 223.57 218.721 223.47 218.091 223.43V211.95ZM220.081 222.03C220.681 222.1 221.111 222.13 221.791 222.13C223.211 222.13 225.321 221.79 225.321 220.11C225.321 218.43 223.641 218.07 221.621 218.07H220.081V222.03ZM220.111 216.68H221.691C223.251 216.68 224.861 216.22 224.861 214.86C224.861 213.71 223.851 213.16 221.741 213.16C221.041 213.16 220.611 213.21 220.111 213.26V216.68Z" fill="#616160"/>
<path d="M230.651 211.81L233.191 218.68C233.451 219.45 233.741 220.36 233.931 221.06H233.981C234.201 220.36 234.441 219.48 234.721 218.64L237.021 211.82H239.251L236.081 220.1C234.571 224.08 233.541 226.12 232.101 227.37C231.071 228.28 230.041 228.64 229.511 228.74L228.981 226.96C229.511 226.79 230.201 226.46 230.831 225.93C231.411 225.47 232.131 224.66 232.611 223.58C232.711 223.36 232.781 223.2 232.781 223.08C232.781 222.96 232.731 222.79 232.641 222.53L228.341 211.82H230.651V211.81Z" fill="#616160"/>
<path d="M65.3304 244.4C65.3304 242.91 65.2805 241.71 65.2305 240.61H67.1305L67.2305 242.6H67.2805C68.1505 241.18 69.5105 240.34 71.4105 240.34C74.2205 240.34 76.3304 242.72 76.3304 246.24C76.3304 250.42 73.7905 252.48 71.0505 252.48C69.5105 252.48 68.1705 251.81 67.4705 250.66H67.4205V256.97H65.3304V244.4ZM67.4205 247.49C67.4205 247.8 67.4705 248.09 67.5205 248.35C67.9005 249.81 69.1804 250.82 70.6904 250.82C72.9204 250.82 74.2205 249 74.2205 246.33C74.2205 244 73.0005 242.01 70.7605 242.01C69.3205 242.01 67.9804 243.04 67.5704 244.63C67.5004 244.89 67.4305 245.21 67.4305 245.49V247.49H67.4205Z" fill="#616160"/>
<path d="M89.5006 246.32C89.5006 250.62 86.5206 252.49 83.7106 252.49C80.5706 252.49 78.1406 250.19 78.1406 246.51C78.1406 242.62 80.6806 240.34 83.9006 240.34C87.2506 240.34 89.5006 242.77 89.5006 246.32ZM80.2906 246.44C80.2906 248.98 81.7506 250.9 83.8206 250.9C85.8406 250.9 87.3506 249 87.3506 246.39C87.3506 244.42 86.3706 241.93 83.8706 241.93C81.3706 241.93 80.2906 244.23 80.2906 246.44Z" fill="#616160"/>
<path d="M92.1201 240.75C92.9401 240.61 94.4501 240.49 95.8201 240.49C97.7601 240.49 100.98 240.8 100.98 243.39C100.98 244.83 99.8802 245.72 98.5602 246.01V246.06C100.26 246.3 101.51 247.26 101.51 248.94C101.51 251.99 97.6701 252.37 95.3901 252.37C94.0901 252.37 92.7501 252.27 92.1201 252.23V240.75ZM94.1101 250.83C94.7101 250.9 95.1401 250.93 95.8201 250.93C97.2401 250.93 99.3501 250.59 99.3501 248.91C99.3501 247.23 97.6701 246.87 95.6501 246.87H94.1101V250.83ZM94.1401 245.48H95.7201C97.2801 245.48 98.8901 245.02 98.8901 243.66C98.8901 242.51 97.8801 241.96 95.7701 241.96C95.0701 241.96 94.6401 242.01 94.1401 242.06V245.48Z" fill="#616160"/>
<path d="M106.21 240.61V245.29H111.73V240.61H113.82V252.23H111.73V246.97H106.21V252.23H104.12V240.61H106.21Z" fill="#616160"/>
<path d="M127.781 246.32C127.781 250.62 124.811 252.49 122.001 252.49C118.861 252.49 116.431 250.19 116.431 246.51C116.431 242.62 118.971 240.34 122.191 240.34C125.531 240.34 127.781 242.77 127.781 246.32ZM118.561 246.44C118.561 248.98 120.021 250.9 122.091 250.9C124.111 250.9 125.621 249 125.621 246.39C125.621 244.42 124.641 241.93 122.141 241.93C119.651 241.93 118.561 244.23 118.561 246.44Z" fill="#616160"/>
<path d="M129.08 255.18C129.61 253.76 130.26 251.2 130.52 249.44L132.87 249.2C132.32 251.24 131.26 253.9 130.59 255.03L129.08 255.18Z" fill="#616160"/>
<path d="M148.78 251.79C148.23 252.08 147 252.46 145.44 252.46C141.94 252.46 139.65 250.08 139.65 246.53C139.65 242.95 142.1 240.36 145.89 240.36C147.14 240.36 148.24 240.67 148.82 240.96L148.34 242.59C147.84 242.3 147.04 242.04 145.89 242.04C143.23 242.04 141.79 244.01 141.79 246.43C141.79 249.12 143.52 250.77 145.82 250.77C147.02 250.77 147.81 250.46 148.41 250.19L148.78 251.79Z" fill="#616160"/>
<path d="M151.371 240.61H153.961L156.071 246.47C156.361 247.33 156.861 248.75 157.131 249.66H157.181C157.441 248.8 158.091 246.95 158.551 245.68L160.421 240.62H163.041L163.861 252.24H161.841L161.581 246.7C161.511 245.45 161.411 243.96 161.361 242.55H161.291C160.981 243.61 160.671 244.54 160.021 246.32L157.791 252.18H156.251L154.191 246.44C153.831 245.34 153.321 243.66 153.041 242.58H152.941C152.891 243.95 152.821 245.48 152.751 246.76L152.461 252.26H150.511L151.371 240.61Z" fill="#616160"/>
<path d="M177.1 246.32C177.1 250.62 174.13 252.49 171.32 252.49C168.18 252.49 165.75 250.19 165.75 246.51C165.75 242.62 168.29 240.34 171.51 240.34C174.84 240.34 177.1 242.77 177.1 246.32ZM167.88 246.44C167.88 248.98 169.34 250.9 171.41 250.9C173.43 250.9 174.94 249 174.94 246.39C174.94 244.42 173.96 241.93 171.46 241.93C168.96 241.93 167.88 244.23 167.88 246.44Z" fill="#616160"/>
<path d="M187.42 240.61V242.29H183.8V252.23H181.71V242.29H178.08V240.61H187.42Z" fill="#616160"/>
<path d="M199.47 246.32C199.47 250.62 196.5 252.49 193.69 252.49C190.55 252.49 188.12 250.19 188.12 246.51C188.12 242.62 190.66 240.34 193.88 240.34C197.21 240.34 199.47 242.77 199.47 246.32ZM190.25 246.44C190.25 248.98 191.71 250.9 193.78 250.9C195.8 250.9 197.31 249 197.31 246.39C197.31 244.42 196.33 241.93 193.83 241.93C191.33 241.93 190.25 244.23 190.25 246.44Z" fill="#616160"/>
<path d="M202.13 244.4C202.13 242.91 202.08 241.71 202.03 240.61H203.93L204.03 242.6H204.08C204.95 241.18 206.31 240.34 208.21 240.34C211.02 240.34 213.13 242.72 213.13 246.24C213.13 250.42 210.59 252.48 207.85 252.48C206.31 252.48 204.97 251.81 204.27 250.66H204.22V256.97H202.13V244.4ZM204.22 247.49C204.22 247.8 204.27 248.09 204.32 248.35C204.7 249.81 205.98 250.82 207.49 250.82C209.72 250.82 211.02 249 211.02 246.33C211.02 244 209.8 242.01 207.56 242.01C206.12 242.01 204.78 243.04 204.37 244.63C204.3 244.89 204.23 245.21 204.23 245.49V247.49H204.22Z" fill="#616160"/>
<path d="M217.731 240.61V245.51C217.731 247.36 217.701 248.51 217.611 250.17L217.681 250.19C218.381 248.77 218.781 247.96 219.551 246.61L223.171 240.61H225.641V252.23H223.621V247.31C223.621 245.41 223.671 244.43 223.761 242.56H223.691C222.951 244.05 222.441 244.98 221.771 246.16C220.661 247.96 219.391 250.19 218.141 252.23H215.721V240.61H217.731Z" fill="#616160"/>
<path d="M236.86 240.61V242.29H233.24V252.23H231.151V242.29H227.521V240.61H236.86Z" fill="#616160"/>
<path d="M239.57 246.8C239.62 249.66 241.441 250.83 243.551 250.83C245.061 250.83 245.971 250.57 246.771 250.23L247.13 251.74C246.39 252.08 245.111 252.46 243.271 252.46C239.691 252.46 237.561 250.11 237.561 246.6C237.561 243.1 239.62 240.34 243.01 240.34C246.8 240.34 247.811 243.68 247.811 245.81C247.811 246.24 247.76 246.58 247.74 246.79H239.57V246.8ZM245.771 245.29C245.791 243.95 245.22 241.86 242.84 241.86C240.71 241.86 239.77 243.83 239.6 245.29H245.771Z" fill="#616160"/>
<path d="M85.1205 269.41V281.03H83.0105V271.09H77.6105V281.03H75.5205V269.41H85.1205Z" fill="#616160"/>
<path d="M88.5503 273.2C88.5503 271.71 88.5002 270.51 88.4502 269.41H90.3502L90.4502 271.4H90.5002C91.3602 269.98 92.7302 269.14 94.6302 269.14C97.4402 269.14 99.5503 271.52 99.5503 275.04C99.5503 279.22 97.0103 281.28 94.2703 281.28C92.7303 281.28 91.3902 280.61 90.6902 279.46H90.6403V285.77H88.5503V273.2ZM90.6403 276.29C90.6403 276.6 90.6902 276.89 90.7402 277.15C91.1202 278.61 92.4003 279.62 93.9103 279.62C96.1403 279.62 97.4402 277.8 97.4402 275.13C97.4402 272.8 96.2202 270.81 93.9802 270.81C92.5402 270.81 91.1903 271.84 90.7903 273.43C90.7203 273.69 90.6503 274.01 90.6503 274.29V276.29H90.6403Z" fill="#616160"/>
<path d="M110.681 281.02H108.591V276.15H107.031C106.141 276.15 105.541 276.39 105.091 276.8C104.231 277.5 103.911 278.94 103.461 280.06C103.321 280.42 103.151 280.73 102.981 281.02H100.721C100.991 280.64 101.231 280.2 101.441 279.7C101.941 278.57 102.231 277.06 103.261 276.2C103.621 275.89 104.051 275.62 104.581 275.53V275.46C103.071 275.29 101.511 274.36 101.511 272.58C101.511 271.38 102.161 270.56 103.051 270.06C104.011 269.51 105.431 269.27 106.941 269.27C108.331 269.27 109.681 269.39 110.681 269.51V281.02ZM108.591 270.8C108.061 270.73 107.581 270.68 106.841 270.68C105.401 270.68 103.701 271.09 103.701 272.7C103.701 274.19 105.551 274.72 106.801 274.72C107.661 274.72 108.121 274.72 108.601 274.72V270.8H108.591Z" fill="#616160"/>
<path d="M114.231 269.41H116.821L118.931 275.27C119.221 276.13 119.721 277.55 119.991 278.46H120.041C120.301 277.6 120.951 275.75 121.411 274.48L123.281 269.42H125.901L126.721 281.04H124.701L124.441 275.5C124.371 274.25 124.271 272.76 124.231 271.35H124.161C123.851 272.41 123.531 273.34 122.891 275.12L120.661 280.98H119.121L117.061 275.24C116.701 274.14 116.201 272.46 115.911 271.38H115.811C115.761 272.75 115.691 274.28 115.621 275.56L115.331 281.06H113.391L114.231 269.41Z" fill="#616160"/>
<path d="M139.96 275.12C139.96 279.42 136.99 281.29 134.18 281.29C131.04 281.29 128.61 278.99 128.61 275.31C128.61 271.42 131.15 269.14 134.37 269.14C137.71 269.14 139.96 271.57 139.96 275.12ZM130.74 275.24C130.74 277.78 132.2 279.7 134.27 279.7C136.29 279.7 137.8 277.8 137.8 275.19C137.8 273.22 136.82 270.73 134.32 270.73C131.82 270.73 130.74 273.03 130.74 275.24Z" fill="#616160"/>
<path d="M147.66 269.55C148.48 269.41 149.99 269.29 151.36 269.29C153.3 269.29 156.52 269.6 156.52 272.19C156.52 273.63 155.42 274.52 154.1 274.81V274.86C155.8 275.1 157.05 276.06 157.05 277.74C157.05 280.79 153.21 281.17 150.93 281.17C149.63 281.17 148.29 281.07 147.66 281.03V269.55ZM149.66 279.63C150.26 279.7 150.69 279.73 151.37 279.73C152.79 279.73 154.9 279.39 154.9 277.71C154.9 276.03 153.22 275.67 151.2 275.67H149.66V279.63ZM149.68 274.28H151.26C152.82 274.28 154.43 273.82 154.43 272.46C154.43 271.31 153.42 270.76 151.31 270.76C150.61 270.76 150.18 270.81 149.68 270.86V274.28Z" fill="#616160"/>
<path d="M166.891 269.41V274.45H167.391L171.761 269.41H174.331L169.271 274.67C171.141 274.86 172.271 276.11 173.181 278.2C173.491 278.97 173.901 280.1 174.431 281.03H172.221C171.911 280.53 171.501 279.61 171.141 278.65C170.351 276.78 169.271 275.91 167.301 275.91H166.891V281.02H164.801V269.4H166.891V269.41Z" fill="#616160"/>
<path d="M182.971 281.02L182.801 279.56H182.731C182.081 280.47 180.831 281.29 179.181 281.29C176.831 281.29 175.631 279.63 175.631 277.95C175.631 275.14 178.131 273.61 182.611 273.63V273.39C182.611 272.43 182.351 270.7 179.971 270.7C178.891 270.7 177.761 271.04 176.941 271.56L176.461 270.17C177.421 269.55 178.811 269.14 180.281 269.14C183.831 269.14 184.701 271.56 184.701 273.89V278.23C184.701 279.24 184.751 280.22 184.891 281.01H182.971V281.02ZM182.661 275.09C180.361 275.04 177.741 275.45 177.741 277.71C177.741 279.08 178.651 279.73 179.731 279.73C181.241 279.73 182.201 278.77 182.541 277.79C182.611 277.57 182.661 277.33 182.661 277.12V275.09Z" fill="#616160"/>
<path d="M188.221 269.41H190.811L192.921 275.27C193.211 276.13 193.711 277.55 193.981 278.46H194.031C194.291 277.6 194.941 275.75 195.401 274.48L197.271 269.42H199.891L200.711 281.04H198.691L198.431 275.5C198.361 274.25 198.261 272.76 198.221 271.35H198.151C197.841 272.41 197.521 273.34 196.881 275.12L194.651 280.98H193.111L191.051 275.24C190.691 274.14 190.191 272.46 189.901 271.38H189.801C189.751 272.75 189.681 274.28 189.611 275.56L189.321 281.06H187.381L188.221 269.41Z" fill="#616160"/>
<path d="M204.62 275.6C204.67 278.46 206.49 279.63 208.6 279.63C210.11 279.63 211.02 279.37 211.82 279.03L212.18 280.54C211.44 280.88 210.16 281.26 208.32 281.26C204.74 281.26 202.61 278.91 202.61 275.4C202.61 271.9 204.67 269.14 208.06 269.14C211.85 269.14 212.86 272.48 212.86 274.61C212.86 275.04 212.81 275.38 212.79 275.59H204.62V275.6ZM210.81 274.09C210.83 272.75 210.26 270.66 207.88 270.66C205.75 270.66 204.81 272.63 204.64 274.09H210.81Z" fill="#616160"/>
<path d="M215.46 273.2C215.46 271.71 215.41 270.51 215.36 269.41H217.26L217.36 271.4H217.41C218.27 269.98 219.64 269.14 221.54 269.14C224.35 269.14 226.46 271.52 226.46 275.04C226.46 279.22 223.92 281.28 221.18 281.28C219.64 281.28 218.3 280.61 217.6 279.46H217.55V285.77H215.46V273.2ZM217.55 276.29C217.55 276.6 217.6 276.89 217.65 277.15C218.03 278.61 219.31 279.62 220.82 279.62C223.05 279.62 224.35 277.8 224.35 275.13C224.35 272.8 223.13 270.81 220.89 270.81C219.45 270.81 218.1 271.84 217.7 273.43C217.63 273.69 217.56 274.01 217.56 274.29V276.29H217.55Z" fill="#616160"/>
<path d="M229.651 269.41L232.191 276.28C232.451 277.05 232.741 277.96 232.931 278.66H232.981C233.201 277.96 233.441 277.08 233.721 276.24L236.021 269.42H238.251L235.081 277.7C233.571 281.68 232.541 283.72 231.101 284.97C230.071 285.88 229.041 286.24 228.511 286.34L227.981 284.56C228.511 284.39 229.201 284.06 229.831 283.53C230.411 283.07 231.131 282.26 231.611 281.18C231.711 280.96 231.781 280.8 231.781 280.68C231.781 280.56 231.731 280.39 231.641 280.13L227.341 269.42H229.651V269.41Z" fill="#616160"/>
<path d="M159.13 154.92C151.52 154.92 143.02 148.81 143.02 140.64C143.02 140.59 143.02 140.53 143.03 140.48L146.17 118.13C146.2 109.76 151.52 103.93 159.13 103.93C166.74 103.93 172.059 109.76 172.089 118.13L175.229 140.48C175.239 140.53 175.24 140.59 175.24 140.64C175.24 148.81 166.73 154.92 159.13 154.92ZM145.28 140.72C145.33 147.56 152.61 152.65 159.12 152.65C165.63 152.65 172.909 147.55 172.959 140.72L169.819 118.37C169.809 118.32 169.81 118.26 169.81 118.21C169.81 111.14 165.41 106.2 159.12 106.2C152.83 106.2 148.43 111.14 148.43 118.21C148.43 118.26 148.43 118.32 148.42 118.37L145.28 140.72Z" fill="#9C9FA0"/>
<path d="M190.681 77.83C190.681 88.93 189.461 102.23 183.341 111.04C177.221 119.85 168.771 124.17 159.431 124.17C150.091 124.17 141.641 119.85 135.521 111.04C129.401 102.23 128.181 88.94 128.181 77.83C128.181 66.72 129.401 57.77 135.521 51.58C141.641 45.4 150.091 41.99 159.431 41.99C168.771 41.99 177.221 45.4 183.341 51.58C189.461 57.76 190.681 66.72 190.681 77.83Z" fill="white"/>
<path d="M159.44 125.29C149.38 125.29 140.79 120.58 134.6 111.68C129.53 104.38 127.061 93.31 127.061 77.83C127.061 66.24 128.36 57.21 134.72 50.78C141.05 44.38 149.831 40.85 159.431 40.85C169.031 40.85 177.811 44.38 184.141 50.78C190.501 57.21 191.801 66.24 191.801 77.83C191.801 93.31 189.33 104.38 184.26 111.68C178.09 120.59 169.5 125.29 159.44 125.29ZM159.44 43.12C150.45 43.12 142.25 46.41 136.34 52.38C130.52 58.26 129.33 66.8 129.33 77.83C129.33 92.83 131.66 103.48 136.46 110.39C142.2 118.66 150.151 123.03 159.431 123.03C168.721 123.03 176.661 118.66 182.401 110.39C187.201 103.48 189.531 92.83 189.531 77.83C189.531 66.81 188.341 58.26 182.521 52.38C176.631 46.41 168.43 43.12 159.44 43.12Z" fill="#9C9FA0"/>
<path d="M131.139 85.9301C124.799 85.9301 121.769 85.9301 121.779 91.1901C121.789 97.1101 128.129 96.44 132.049 95.79" fill="white"/>
<path d="M127.87 97.3401C125.85 97.3401 123.92 96.97 122.53 95.8C121.28 94.74 120.64 93.2001 120.64 91.2001C120.64 89.0501 121.11 87.57 122.12 86.55C123.86 84.81 126.76 84.8101 131.14 84.8101C131.77 84.8101 132.27 85.3201 132.27 85.9401C132.27 86.5601 131.76 87.0701 131.14 87.0701C127.46 87.0701 124.81 87.0701 123.73 88.1501C123.38 88.5001 122.91 89.2001 122.91 91.1901C122.91 92.5101 123.27 93.4401 124 94.0601C125.9 95.6701 130.23 94.94 131.86 94.67C132.47 94.57 133.06 94.98 133.17 95.6C133.27 96.22 132.86 96.8 132.24 96.91C130.86 97.14 129.35 97.3401 127.87 97.3401Z" fill="#9C9FA0"/>
<path d="M187.74 85.53C194.08 85.53 197.11 85.53 197.1 90.79C197.09 96.71 190.76 96.04 186.83 95.39" fill="white"/>
<path d="M191 96.93C189.53 96.93 188.01 96.73 186.64 96.5C186.02 96.4 185.6 95.81 185.71 95.19C185.81 94.57 186.4 94.15 187.02 94.26C188.65 94.53 192.98 95.2601 194.88 93.6501C195.61 93.0401 195.96 92.1001 195.97 90.7801C195.97 88.7901 195.5 88.09 195.15 87.74C194.07 86.66 191.42 86.66 187.74 86.66C187.11 86.66 186.61 86.15 186.61 85.53C186.61 84.9 187.12 84.4 187.74 84.4C192.12 84.4 195.01 84.4 196.76 86.14C197.78 87.16 198.25 88.63 198.24 90.79C198.24 92.78 197.6 94.33 196.35 95.39C194.96 96.56 193.02 96.93 191 96.93Z" fill="#9C9FA0"/>
<path d="M146.38 86.04C149.01 86.04 149.01 81.95 146.38 81.95C143.75 81.95 143.75 86.04 146.38 86.04Z" fill="#9C9FA0"/>
<path d="M171.2 86.47C173.83 86.47 173.83 82.38 171.2 82.38C168.57 82.38 168.57 86.47 171.2 86.47Z" fill="#9C9FA0"/>
<path d="M157.76 82.69C157.52 83.7 157.22 84.7 156.93 85.69C156.73 86.38 156.52 87.08 156.3 87.77C156.21 88.04 156.12 88.3 156.02 88.56C156.18 88.14 156.08 88.47 156.02 88.54C155.83 88.78 156.25 88.31 156.13 88.4C156.34 88.28 156.55 88.16 156.76 88.04C155.74 88.46 155.56 89.59 155.21 90.54C154.97 91.21 154.72 91.89 154.48 92.56C154.13 93.57 153.78 94.62 153.71 95.7C153.65 96.6 153.92 97.5 154.59 98.13C155.37 98.86 156.47 99.05 157.49 99.14C159.19 99.3 160.94 99.16 162.64 99.06C163.57 99 164.23 98.2 164.01 97.26C162.98 93 161.96 88.74 160.93 84.47C160.79 83.87 160.64 83.27 160.5 82.67C160.07 80.9 157.34 81.65 157.76 83.42C158.79 87.68 159.81 91.94 160.84 96.21C160.98 96.81 161.13 97.41 161.27 98.01C161.73 97.41 162.18 96.81 162.64 96.21C160.97 96.31 159.28 96.45 157.61 96.3C157.53 96.29 157.03 96.22 157.44 96.29C157.31 96.27 157.18 96.25 157.06 96.22C156.87 96.18 156.68 96.12 156.5 96.05C156.92 96.2 156.62 96.1 156.52 96.03C156.25 95.86 156.64 96.14 156.58 96.08C156.34 95.83 156.72 96.38 156.5 95.96C156.71 96.36 156.58 96.15 156.54 96.01C156.47 95.76 156.56 96.01 156.55 96.12C156.57 95.93 156.56 95.71 156.57 95.51C156.55 95.98 156.62 95.3 156.65 95.15C156.72 94.86 156.8 94.57 156.89 94.29C157.36 92.76 157.95 91.27 158.49 89.76C158.16 90.09 157.83 90.42 157.5 90.75C158.87 90.19 159.16 88.18 159.53 86.9C159.87 85.74 160.22 84.58 160.5 83.4C160.92 81.68 158.19 80.92 157.76 82.69Z" fill="#9C9FA0"/>
<path d="M148.58 102.47C149.98 105.32 153.27 106.63 156.24 107.04C159.47 107.49 163.04 107.17 165.95 105.6C167.4 104.82 168.55 103.68 169.14 102.13C169.42 101.42 168.84 100.57 168.15 100.39C167.35 100.17 166.68 100.66 166.41 101.38C166.51 101.12 166.3 101.59 166.27 101.64C166.2 101.76 166.13 101.87 166.05 101.98C166.2 101.79 165.86 102.18 165.82 102.22C165.72 102.32 165.61 102.42 165.5 102.51C165.22 102.75 164.39 103.24 163.96 103.43C162.42 104.1 160.69 104.36 159.02 104.39C156.06 104.44 152.35 103.72 151.03 101.04C150.22 99.4 147.77 100.83 148.58 102.47Z" fill="#9C9FA0"/>
<path d="M142.24 78.1C144.52 76.39 149.09 76.39 151.37 77.81L142.24 78.1Z" fill="#9C9FA0"/>
<path d="M142.961 79.33C143.241 79.12 143.541 78.95 143.851 78.8C143.981 78.74 144.061 78.71 143.881 78.78C143.971 78.74 144.061 78.71 144.151 78.68C144.321 78.62 144.491 78.57 144.661 78.52C145.061 78.41 145.461 78.33 145.861 78.27C145.721 78.29 145.721 78.29 145.861 78.27C145.961 78.26 146.071 78.25 146.171 78.24C146.381 78.22 146.591 78.21 146.801 78.21C147.201 78.2 147.601 78.21 148.001 78.25C148.081 78.26 148.171 78.27 148.251 78.27C148.641 78.31 148.081 78.23 148.301 78.28C148.501 78.32 148.701 78.35 148.891 78.39C149.251 78.47 149.6 78.57 149.94 78.69C149.98 78.7 150.271 78.82 150.081 78.74C149.891 78.65 150.19 78.8 150.2 78.8C150.35 78.88 150.501 78.96 150.651 79.05C151.281 79.44 152.241 79.21 152.591 78.54C152.951 77.85 152.761 77.01 152.081 76.6C150.531 75.65 148.591 75.34 146.801 75.37C144.991 75.41 143.011 75.79 141.521 76.88C140.901 77.33 140.601 78.11 141.011 78.82C141.371 79.43 142.341 79.78 142.961 79.33Z" fill="#9C9FA0"/>
<path d="M175.34 78.1C173.06 76.39 168.49 76.39 166.21 77.81L175.34 78.1Z" fill="white"/>
<path d="M176.05 76.88C174.56 75.79 172.58 75.4 170.77 75.37C168.98 75.33 167.04 75.65 165.49 76.6C164.84 77 164.59 77.87 164.98 78.54C165.36 79.19 166.26 79.45 166.92 79.05C167.07 78.96 167.21 78.88 167.37 78.8C167.43 78.77 167.5 78.74 167.56 78.71C167.27 78.85 167.5 78.73 167.57 78.71C167.91 78.59 168.26 78.48 168.62 78.4C168.82 78.36 169.01 78.32 169.21 78.29C169.48 78.24 169.08 78.3 169.26 78.28C169.36 78.27 169.47 78.26 169.57 78.25C169.97 78.22 170.37 78.2 170.77 78.21C170.96 78.21 171.15 78.22 171.34 78.24C171.45 78.25 171.55 78.26 171.65 78.27C171.71 78.28 172.01 78.32 171.71 78.27C172.1 78.33 172.48 78.4 172.86 78.51C173.03 78.56 173.2 78.61 173.37 78.67C173.46 78.7 173.55 78.74 173.64 78.77C173.8 78.82 173.43 78.66 173.67 78.79C174 78.96 174.31 79.13 174.61 79.35C175.21 79.79 176.22 79.47 176.55 78.84C176.95 78.08 176.7 77.35 176.05 76.88Z" fill="#9C9FA0"/>
<path d="M140.39 105.35C148.38 105.35 148.38 95.08 140.39 95.08C132.4 95.08 132.4 105.35 140.39 105.35Z" fill="#FAD6E7"/>
<path d="M177.19 105.35C185.18 105.35 185.18 95.08 177.19 95.08C169.2 95.08 169.21 105.35 177.19 105.35Z" fill="#FAD6E7"/>
<path d="M134.54 47.62C142.88 59.91 156.05 62.11 169.66 63.42C178.44 64.3 192.48 65.18 199.51 59.91C193.36 48.94 180.63 34.89 167.91 32.69C157.81 30.94 136.19 28.68 134.54 47.62Z" fill="#40B7E2"/>
<path d="M139.81 54.21C138.05 65.62 133.22 78.11 130.15 90.64C122.42 82.38 114.68 33.46 140.24 47.18" fill="#40B7E2"/>
<path d="M181.949 60.79C183.709 69.57 185.459 82.3 187.659 90.64C193.639 82.95 196.879 64.3 190.729 57.28" fill="#40B7E2"/>
<path d="M145.2 139.97C107.13 141.97 95.0504 163.57 97.6504 196.23L222.12 195.58C227.08 157.16 205.95 141.19 173.16 140.84" stroke="#F1851B" stroke-width="3" stroke-miterlimit="10"/>
<path d="M57.9801 182.06C58.8001 188.91 63.6501 194.59 70.3301 196.53C72.2401 197.08 74.1501 197.16 75.7701 197.16H75.7802C97.1301 197.15 118.49 197.15 139.84 197.15H208.25C217.29 197.15 226.65 197.15 235.84 197.13C237.26 197.13 238.48 197.01 239.55 196.79C247.57 195.09 253.18 188.15 253.18 179.91C253.19 131.99 253.18 79.44 253.18 19.26C253.18 18.6 253.13 17.91 253.04 17.21C252.29 11.33 249.24 6.87997 243.97 3.96997C241.54 2.62997 238.75 1.97998 235.45 1.97998C235.45 1.97998 235.45 1.97998 235.44 1.97998C191.63 1.98998 147.81 1.98996 104 1.98996H75.3801C75.3101 1.98996 75.2502 1.98996 75.1802 1.98996C75.0902 1.98996 74.9901 1.98996 74.9001 1.98996C68.9501 2.16996 64.2101 4.70996 60.8201 9.54996C58.8601 12.35 57.8701 15.65 57.8701 19.36C57.8901 39.78 57.8801 60.55 57.8801 80.63V110.57C57.8801 133.45 57.8801 156.33 57.8801 179.21V179.68C57.8901 180.46 57.8901 181.27 57.9801 182.06ZM66.1901 7.04996C68.6801 5.16996 71.6001 4.19996 74.8501 4.14996C75.0201 4.14996 75.2001 4.14996 75.3701 4.14996H75.5402H97.8701C143.68 4.14996 189.48 4.14998 235.29 4.13998C235.29 4.13998 235.29 4.13998 235.3 4.13998C237.45 4.13998 239.2 4.38996 240.79 4.92996C246.85 6.97996 250.96 12.64 251 19.03C251.01 20.4 251.01 21.77 251 23.14C251 23.75 251 24.36 251 24.97V54.12C251 95.2 251 137.68 251.01 179.47C251.01 183.09 250.1 186.1 248.23 188.66C245.24 192.75 241.14 194.88 236.04 195C235.61 195.01 235.18 195.01 234.76 195C234.56 195 234.36 195 234.16 195H136.8C116.4 195 96.0001 195 75.6001 195.01H75.5901C72.2901 195.01 69.5601 194.28 67.2301 192.79C62.5501 189.79 60.1302 185.44 60.0402 179.87C60.0302 179.45 60.0402 179.02 60.0402 178.6C60.0402 178.4 60.0402 178.19 60.0402 177.99V143.17C60.0402 102.71 60.0402 60.87 60.0302 19.73C60.0202 14.4 62.1001 10.14 66.1901 7.04996Z" fill="#9C9FA0" stroke="#9C9FA0" stroke-width="2" stroke-miterlimit="10"/>
<path d="M1.87964 198.17H48.1497C48.8497 198.17 49.4297 197.6 49.4297 196.89V150.62C49.4297 149.91 48.8597 149.34 48.1497 149.34H1.87964C1.16964 149.34 0.599609 149.91 0.599609 150.62V196.89C0.609609 197.6 1.17964 198.17 1.87964 198.17Z" fill="#9C9FA0"/>
<path d="M17.7197 178.88H22.8398V165.25H18.4197V161.87C20.9797 161.39 22.6197 160.72 24.2897 159.72H28.2998V178.88H32.7197V183.3H17.7197V178.88Z" fill="white"/>
<path d="M143.53 128.33C154.75 142.81 163.69 143.15 153.51 162.22C147.2 145.11 128.83 147.63 143.53 128.33Z" fill="#F1851B"/>
<path d="M146.74 128.33L143.29 162.22H137.39L128.83 161.5V128.33H146.74Z" fill="#F1851B"/>
<path d="M147.31 128.33L143.86 162.22H143.29L146.74 128.33H147.31Z" fill="#F1851B"/>
<path d="M147.89 128.33L144.44 162.22H143.86L147.31 128.33H147.89Z" fill="#F1851B"/>
<path d="M148.46 128.33L145.01 162.22H144.44L147.891 128.33H148.46Z" fill="#F1851B"/>
<path d="M149.04 128.33L145.58 162.22H145.01L148.46 128.33H149.04Z" fill="#F1851B"/>
<path d="M149.61 128.33L146.16 162.22H145.58L149.04 128.33H149.61Z" fill="#F1851B"/>
<path d="M150.19 128.33L146.73 162.22H146.16L149.61 128.33H150.19Z" fill="#F1851B"/>
<path d="M150.76 128.33L147.311 162.22H146.73L150.19 128.33H150.76Z" fill="#F1851B"/>
<path d="M151.33 128.33L147.88 162.22H147.311L150.76 128.33H151.33Z" fill="#F1851B"/>
<path d="M151.91 128.33L148.46 162.22H147.88L151.33 128.33H151.91Z" fill="#F1851B"/>
<path d="M152.48 128.33L149.03 162.22H148.46L151.91 128.33H152.48Z" fill="#F1851B"/>
<path d="M153.06 128.33L149.6 162.22H149.03L152.48 128.33H153.06Z" fill="#F1851B"/>
<path d="M153.63 128.33L150.18 162.22H149.6L153.06 128.33H153.63Z" fill="#F1851B"/>
<path d="M154.21 128.33L150.75 162.22H150.18L153.63 128.33H154.21Z" fill="#F1851B"/>
<path d="M154.78 128.33L151.33 162.22H150.75L154.21 128.33H154.78Z" fill="#F1851B"/>
<path d="M155.35 128.33L151.9 162.22H151.33L154.78 128.33H155.35Z" fill="#F1851B"/>
<path d="M155.93 128.33L152.48 162.22H151.9L155.35 128.33H155.93Z" fill="#F1851B"/>
<path d="M156.5 128.33L153.051 162.22H152.48L155.931 128.33H156.5Z" fill="#F1851B"/>
<path d="M157.08 128.33L153.62 162.22H153.05L156.5 128.33H157.08Z" fill="#F1851B"/>
<path d="M157.65 128.33L154.2 162.22H153.62L157.08 128.33H157.65Z" fill="#F1851B"/>
<path d="M158.23 128.33L154.77 162.22H154.2L157.65 128.33H158.23Z" fill="#F1851B"/>
<path d="M158.801 128.33L155.35 162.22H154.771L158.23 128.33H158.801Z" fill="#F1851B"/>
<path d="M159.37 128.33L155.92 162.22H155.35L158.8 128.33H159.37Z" fill="#F1851B"/>
<path d="M159.66 128.33L159.95 128.36L156.5 162.22H155.92L159.37 128.33H159.66Z" fill="#F1851B"/>
<path d="M159.95 128.36L160.52 128.4L157.07 162.22H156.5L159.95 128.36Z" fill="#F1851B"/>
<path d="M160.52 128.4L161.08 128.45L157.64 162.22H157.07L160.52 128.4Z" fill="#F1851B"/>
<path d="M161.081 128.45L161.651 128.5L158.221 162.22H157.641L161.081 128.45Z" fill="#F1851B"/>
<path d="M161.65 128.5L162.22 128.55L158.79 162.22H158.22L161.65 128.5Z" fill="#F1851B"/>
<path d="M162.22 128.55L162.79 128.59L159.37 162.22H158.79L162.22 128.55Z" fill="#F1851B"/>
<path d="M162.79 128.59L163.36 128.64L159.94 162.22H159.37L162.79 128.59Z" fill="#F1851B"/>
<path d="M163.36 128.64L163.69 128.67V131.06L160.521 162.22H159.94L163.36 128.64Z" fill="#F1851B"/>
<path d="M163.69 136.69L161.09 162.22H160.521L163.69 131.06V136.69Z" fill="#F1851B"/>
<path d="M163.69 142.33L161.66 162.22H161.09L163.69 136.69V142.33Z" fill="#F1851B"/>
<path d="M163.69 147.97L162.24 162.22H161.66L163.69 142.33V147.97Z" fill="#F1851B"/>
<path d="M163.69 153.61L162.81 162.22H162.24L163.69 147.97V153.61Z" fill="#F1851B"/>
<path d="M163.69 159.24L163.391 162.22H162.811L163.69 153.61V159.24Z" fill="#F1851B"/>
<path d="M163.391 162.22L163.691 159.24V162.22H163.391Z" fill="#F1851B"/>
<path d="M173.05 128.33C161.83 142.81 152.89 143.15 163.07 162.22C169.39 145.11 187.76 147.63 173.05 128.33Z" fill="#F1851B"/>
<path d="M153.06 128.33L152.9 129.91V128.33H153.06Z" fill="#F1851B"/>
<path d="M153.63 128.33L152.9 135.55V129.91L153.06 128.33H153.63Z" fill="#F1851B"/>
<path d="M154.21 128.33L152.9 141.18V135.55L153.63 128.33H154.21Z" fill="#F1851B"/>
<path d="M154.78 128.33L152.9 146.82V141.18L154.21 128.33H154.78Z" fill="#F1851B"/>
<path d="M155.35 128.33L152.9 152.46V146.82L154.78 128.33H155.35Z" fill="#F1851B"/>
<path d="M155.93 128.33L152.9 158.09V152.46L155.35 128.33H155.93Z" fill="#F1851B"/>
<path d="M156.5 128.33L153.05 162.22H152.9V158.09L155.93 128.33H156.5Z" fill="#F1851B"/>
<path d="M157.081 128.33L153.621 162.22H153.051L156.501 128.33H157.081Z" fill="#F1851B"/>
<path d="M157.65 128.33L154.2 162.22H153.62L157.08 128.33H157.65Z" fill="#F1851B"/>
<path d="M158.23 128.33L154.77 162.22H154.2L157.65 128.33H158.23Z" fill="#F1851B"/>
<path d="M158.801 128.33L155.35 162.22H154.771L158.23 128.33H158.801Z" fill="#F1851B"/>
<path d="M159.371 128.33L155.921 162.22H155.351L158.801 128.33H159.371Z" fill="#F1851B"/>
<path d="M159.95 128.33L156.5 162.22H155.92L159.37 128.33H159.95Z" fill="#F1851B"/>
<path d="M160.52 128.33L157.07 162.22H156.5L159.95 128.33H160.52Z" fill="#F1851B"/>
<path d="M161.1 128.33L157.64 162.22H157.07L160.52 128.33H161.1Z" fill="#F1851B"/>
<path d="M161.671 128.33L158.221 162.22H157.641L161.101 128.33H161.671Z" fill="#F1851B"/>
<path d="M162.251 128.33L158.791 162.22H158.221L161.671 128.33H162.251Z" fill="#F1851B"/>
<path d="M162.82 128.33L159.37 162.22H158.79L162.25 128.33H162.82Z" fill="#F1851B"/>
<path d="M163.39 128.33L159.94 162.22H159.37L162.82 128.33H163.39Z" fill="#F1851B"/>
<path d="M163.97 128.33L160.521 162.22H159.94L163.391 128.33H163.97Z" fill="#F1851B"/>
<path d="M164.541 128.33L161.09 162.22H160.521L163.97 128.33H164.541Z" fill="#F1851B"/>
<path d="M165.12 128.33L161.66 162.22H161.09L164.54 128.33H165.12Z" fill="#F1851B"/>
<path d="M165.69 128.33L162.24 162.22H161.66L165.12 128.33H165.69Z" fill="#F1851B"/>
<path d="M166.27 128.33L162.81 162.22H162.24L165.69 128.33H166.27Z" fill="#F1851B"/>
<path d="M166.84 128.33L163.391 162.22H162.811L166.271 128.33H166.84Z" fill="#F1851B"/>
<path d="M167.411 128.33L163.961 162.22H163.391L166.841 128.33H167.411Z" fill="#F1851B"/>
<path d="M167.99 128.33L164.54 162.22H163.96L167.41 128.33H167.99Z" fill="#F1851B"/>
<path d="M168.56 128.33L165.11 162.22H164.54L167.99 128.33H168.56Z" fill="#F1851B"/>
<path d="M169.14 128.33L165.68 162.22H165.11L168.56 128.33H169.14Z" fill="#F1851B"/>
<path d="M169.711 128.33L166.261 162.22H165.681L169.141 128.33H169.711Z" fill="#F1851B"/>
<path d="M170.291 128.33L166.831 162.22H166.261L169.711 128.33H170.291Z" fill="#F1851B"/>
<path d="M170.86 128.33L167.41 162.22H166.83L170.29 128.33H170.86Z" fill="#F1851B"/>
<path d="M171.43 128.33L167.98 162.22H167.41L170.86 128.33H171.43Z" fill="#F1851B"/>
<path d="M172.01 128.33L168.561 162.22H167.98L171.431 128.33H172.01Z" fill="#F1851B"/>
<path d="M172.58 128.33L169.13 162.22H168.561L172.01 128.33H172.58Z" fill="#F1851B"/>
<path d="M173.161 128.33L169.701 162.22H169.131L172.581 128.33H173.161Z" fill="#F1851B"/>
<path d="M173.73 128.33L170.28 162.22H169.7L173.16 128.33H173.73Z" fill="#F1851B"/>
<path d="M174.31 128.33L170.85 162.22H170.28L173.73 128.33H174.31Z" fill="#F1851B"/>
<path d="M174.881 128.33L171.431 162.22H170.851L174.311 128.33H174.881Z" fill="#F1851B"/>
<path d="M175.451 128.33L172.001 162.22H171.431L174.881 128.33H175.451Z" fill="#F1851B"/>
<path d="M176.03 128.33L172.58 162.22H172L175.45 128.33H176.03Z" fill="#F1851B"/>
<path d="M176.6 128.33L173.15 162.22H172.58L176.03 128.33H176.6Z" fill="#F1851B"/>
<path d="M177.18 128.33L173.72 162.22H173.15L176.6 128.33H177.18Z" fill="#F1851B"/>
<path d="M177.751 128.33L174.301 162.22H173.721L177.181 128.33H177.751Z" fill="#F1851B"/>
<path d="M178.331 128.33L174.871 162.22H174.301L177.751 128.33H178.331Z" fill="#F1851B"/>
<path d="M178.9 128.33L175.45 162.22H174.87L178.33 128.33H178.9Z" fill="#F1851B"/>
<path d="M179.47 128.33L176.02 162.22H175.45L178.9 128.33H179.47Z" fill="#F1851B"/>
<path d="M180.051 128.33L176.6 162.22H176.021L179.47 128.33H180.051Z" fill="#F1851B"/>
<path d="M180.621 128.33L177.171 162.22H176.601L180.051 128.33H180.621Z" fill="#F1851B"/>
<path d="M181.2 128.33L177.74 162.22H177.17L180.62 128.33H181.2Z" fill="#F1851B"/>
<path d="M181.77 128.33L178.32 162.22H177.74L181.2 128.33H181.77Z" fill="#F1851B"/>
<path d="M182.35 128.33L178.89 162.22H178.32L181.77 128.33H182.35Z" fill="#F1851B"/>
<path d="M182.921 128.33L179.471 162.22H178.891L182.351 128.33H182.921Z" fill="#F1851B"/>
<path d="M183.491 128.33L180.041 162.22H179.471L182.921 128.33H183.491Z" fill="#F1851B"/>
<path d="M184.07 128.33L180.62 162.22H180.04L183.49 128.33H184.07Z" fill="#F1851B"/>
<path d="M184.64 128.33L181.19 162.22H180.62L184.07 128.33H184.64Z" fill="#F1851B"/>
<path d="M185.22 128.33L181.76 162.22H181.19L184.641 128.33H185.22Z" fill="#F1851B"/>
<path d="M185.791 128.33L182.341 162.22H181.761L185.221 128.33H185.791Z" fill="#F1851B"/>
<path d="M186.37 128.33L182.91 162.22H182.34L185.79 128.33H186.37Z" fill="#F1851B"/>
<path d="M186.94 128.33L183.49 162.22H182.91L186.37 128.33H186.94Z" fill="#F1851B"/>
<path d="M187.51 128.33L184.06 162.22H183.49L186.94 128.33H187.51Z" fill="#F1851B"/>
<path d="M187.76 131.55L184.641 162.22H184.061L187.51 128.33H187.76V131.55Z" fill="#F1851B"/>
<path d="M187.761 137.19L185.211 162.22H184.641L187.761 131.55V137.19Z" fill="#F1851B"/>
<path d="M187.76 142.83L185.78 162.22H185.21L187.76 137.19V142.83Z" fill="#F1851B"/>
<path d="M187.76 148.46L186.36 162.22H185.78L187.76 142.83V148.46Z" fill="#F1851B"/>
<path d="M186.36 162.22L187.76 148.46V162.22H186.36Z" fill="#F1851B"/>
</svg>
