<svg width="254" height="258" viewBox="0 0 254 258" fill="none" xmlns="http://www.w3.org/2000/svg">
<path d="M158.771 87.21C159.101 90.79 160.141 94.14 161.261 97.57C161.431 98.08 161.571 98.59 161.701 99.11C161.731 99.25 161.731 99.56 161.711 99.1C161.711 99.19 161.741 99.29 161.741 99.38C161.741 99.47 161.741 99.55 161.751 99.64C161.771 99.98 161.811 99.55 161.771 99.62C161.731 99.68 161.741 99.7701 161.711 99.8401C161.561 100.13 161.891 99.5201 161.741 99.7701C161.581 100.04 161.841 99.67 161.821 99.7C161.771 99.75 161.491 99.99 161.731 99.8C161.961 99.62 161.701 99.8101 161.641 99.8401C161.511 99.9101 161.181 99.98 161.641 99.86C161.381 99.93 161.131 100.01 160.861 100.07C160.701 100.1 160.551 100.12 160.391 100.15C160.171 100.18 160.691 100.12 160.461 100.14C160.341 100.15 160.211 100.16 160.091 100.17C159.641 100.21 159.181 100.22 158.721 100.23C157.431 100.25 156.131 100.2 154.841 100.14C152.811 100.04 152.811 102.89 154.841 102.99C156.981 103.1 159.161 103.2 161.281 102.89C162.511 102.71 163.851 102.24 164.471 101.19C165.091 100.15 164.921 98.97 164.631 97.87C164.271 96.52 163.751 95.21 163.331 93.87C162.641 91.68 162.141 89.45 161.941 87.21C161.871 86.44 161.261 85.78 160.361 85.78C159.551 85.78 158.701 86.44 158.771 87.21Z" fill="#9C9FA0"/>
<path d="M124.081 83.69C121.251 75.7 118.951 67.62 119.421 59.12C119.581 56.22 120.071 53.38 121.591 50.76C124.031 46.54 127.791 44.89 132.891 45.95C133.991 46.18 134.371 46 134.681 45.05C136.431 39.58 140.891 36.53 146.571 34.95C154.581 32.72 162.671 33.34 170.581 35.41C173.961 36.3 176.601 38.59 179.141 40.77C182.031 43.24 184.581 46.06 186.271 49.28C188.521 53.58 190.281 58.09 192.271 62.5C192.531 63.08 192.101 63.27 191.751 63.58C191.041 64.21 190.171 64.77 189.421 65.22C188.131 66 188.371 66.8 188.401 67.82C188.601 74.3 188.001 80.71 186.061 86.99C185.811 87.9 185.571 88.8 185.321 89.71C184.291 90.87 184.281 92.52 182.911 93.76C182.611 91.88 182.291 90.21 182.101 88.53C181.331 81.72 180.581 74.92 179.891 68.1C179.801 67.25 179.491 67.08 178.621 67.07C174.771 67.01 170.961 66.55 167.151 66.08C157.391 64.88 148.181 62.53 140.741 56.24C139.741 55.4 139.671 56.11 139.511 56.79C136.921 68.04 132.901 78.91 128.881 89.79C128.771 90.09 128.801 90.57 128.321 90.55C128.081 90.54 127.811 90.21 127.651 89.97C126.831 88.71 126.051 87.43 125.251 86.15C124.851 85.33 124.461 84.51 124.081 83.69ZM186.891 56.83C186.911 58.05 186.801 59.3 187.511 60.79C187.781 59.17 187.421 57.99 186.891 56.83Z" fill="#40B7E2"/>
<path d="M172.041 131.18C171.831 132.36 170.661 133.11 170.391 134.26C170.361 134.19 170.3 134.17 170.22 134.18C169.9 131.73 169.72 129.27 168.88 126.89C168.65 126.23 168.49 126.11 167.82 126.42C166.67 126.94 165.52 127.47 164.24 127.74C159.06 128.82 154.04 128.26 149.19 126.41C148.03 125.97 147.741 126.2 147.641 127.27C147.461 129.41 147.14 131.54 146.88 133.67C145.97 132.93 145.37 131.99 144.87 130.99C145.27 129.06 145.001 127.03 145.901 125.03C144.471 124.45 144.461 124.53 143.791 124.11C133.961 117.89 128.451 109.29 126.561 98.7C126.301 97.26 125.841 96.45 124.011 96.4C122.631 96.36 121.301 95.8 120.031 95.2C116.251 93.41 114.83 89.89 116.58 86.37C117.55 84.41 119.501 83.89 121.641 83.73C122.451 83.67 123.26 83.69 124.08 83.68C124.47 84.5 124.85 85.32 125.24 86.14C124.16 86.13 123.08 86.06 122 86.11C120.85 86.16 119.92 86.6 119.45 87.64C118.28 90.23 119.42 92.61 122.33 93.59C123.29 93.91 124.28 94.18 125.32 94.24C126.83 94.31 128.34 94.39 129.85 94.48C130.71 94.53 131.311 94.9 131.421 95.7C131.501 96.26 131.131 96.76 130.531 96.73C128.531 96.62 129.041 97.7 129.291 98.69C129.461 99.36 129.621 100.02 129.791 100.69C132.301 110.66 137.781 118.76 148.151 123.49C158.241 128.1 167.851 126.44 174.891 118.28C178.771 113.78 181.121 108.69 182.061 103.07C182.281 101.75 183.651 100.16 181.391 99.06C180.991 98.87 181.101 98.15 181.391 97.69C181.701 97.21 182.191 97.3 182.681 97.38C184.321 97.63 186.13 98.28 187.49 97.06C189.25 95.48 188.981 93.37 188.531 91.38C188.181 89.82 186.631 89.87 185.301 89.7C185.551 88.79 185.791 87.89 186.041 86.98C186.181 87.19 186.3 87.4 186.61 87.45C189.25 87.84 190.09 89.54 190.26 91.65C190.421 93.6 190.48 95.56 189.6 97.42C188.84 99.02 187.61 100.14 185.57 100.09C184.32 100.06 184.33 100.83 184.22 101.52C183.67 105.06 182.78 108.51 181.34 111.85C179.34 116.47 176.52 120.63 172.24 123.77C170.68 124.91 170.47 126.13 171.07 127.42C171.65 128.65 171.631 129.95 172.041 131.18Z" fill="#9C9FA0"/>
<path d="M186.891 56.83C187.431 57.99 187.791 59.17 187.511 60.79C186.801 59.3 186.901 58.04 186.891 56.83Z" fill="#40B7E2"/>
<path d="M157.481 112.25C154.261 111.65 151.341 110.58 149.451 107.87C148.891 107.06 148.361 106.25 148.231 105.3C148.121 104.47 148.511 103.84 149.431 103.66C150.391 103.48 150.801 104.06 150.991 104.82C151.341 106.28 152.401 107.28 153.751 108C156.141 109.27 158.711 109.74 161.421 109.43C162.941 109.26 164.161 108.64 164.981 107.45C165.401 106.84 165.901 106.25 166.781 106.78C167.601 107.27 167.591 108.05 167.201 108.76C166.121 110.71 164.271 111.79 161.991 112.27C160.511 112.59 158.991 112.51 157.481 112.25Z" fill="#9C9FA0"/>
<path d="M152.701 79.5199C152.711 80.6299 151.701 81.24 150.611 80.66C148.071 79.32 145.541 79.2 142.891 80.35C141.921 80.77 141.211 80.35 140.751 79.57C140.281 78.77 140.661 78.16 141.401 77.7C143.881 76.15 149.541 76.3999 151.891 78.1499C152.391 78.5099 152.671 78.9499 152.701 79.5199Z" fill="#9C9FA0"/>
<path d="M175.071 81.54C174.981 82.13 174.901 82.62 174.361 82.89C173.791 83.18 173.361 82.93 172.891 82.64C170.941 81.41 168.881 81.38 166.791 82.29C166.121 82.58 165.501 82.92 164.961 82.19C164.501 81.56 164.531 80.9 165.031 80.29C166.841 78.07 173.211 78.32 174.751 80.68C174.931 80.96 174.981 81.31 175.071 81.54Z" fill="#9C9FA0"/>
<path d="M151.241 87.53C151.281 88.64 150.461 89.5399 149.371 89.4799C148.001 89.3999 147.391 88.59 147.371 87.44C147.351 86.44 147.731 85.6 149.031 85.49C150.201 85.39 151.191 86.35 151.241 87.53Z" fill="#9C9FA0"/>
<path d="M171.18 87.59C171.06 88.51 170.9 89.53 169.55 89.55C168.11 89.58 167.83 88.57 167.84 87.52C167.85 86.51 168.24 85.58 169.53 85.58C170.85 85.59 171.12 86.56 171.18 87.59Z" fill="#9C9FA0"/>
<path d="M144.23 103.1C150.68 103.1 150.68 92.83 144.23 92.83C137.78 92.83 137.78 103.1 144.23 103.1Z" fill="#FAD6E7"/>
<path d="M173.961 103.1C180.411 103.1 180.411 92.83 173.961 92.83C167.511 92.83 167.511 103.1 173.961 103.1Z" fill="#FAD6E7"/>
<path d="M192.34 82.74C210.06 77.05 226.54 74.01 240.95 75.38L230.8 70.6" stroke="#CC1417" stroke-miterlimit="10"/>
<path d="M228.91 81.94C231.18 79.58 235.2 77.4 240.95 75.38" stroke="#CC1417" stroke-miterlimit="10"/>
<path d="M144.98 139.58C106.91 141.58 94.8297 163.18 97.4297 195.84L221.9 195.19C226.86 156.77 205.73 140.8 172.94 140.45" stroke="#F1851B" stroke-width="3" stroke-miterlimit="10"/>
<path d="M114.38 206.86V223.04H112.29V208.62H104.78V223.04H102.689V206.86H114.38Z" fill="#616160"/>
<path d="M128.47 217.14C128.47 221.44 125.49 223.31 122.69 223.31C119.55 223.31 117.12 221.01 117.12 217.33C117.12 213.44 119.66 211.16 122.88 211.16C126.21 211.16 128.47 213.58 128.47 217.14ZM119.25 217.26C119.25 219.8 120.71 221.72 122.78 221.72C124.8 221.72 126.31 219.82 126.31 217.21C126.31 215.24 125.33 212.75 122.83 212.75C120.33 212.74 119.25 215.05 119.25 217.26Z" fill="#616160"/>
<path d="M131.08 211.57C131.9 211.43 133.41 211.31 134.78 211.31C136.72 211.31 139.94 211.62 139.94 214.21C139.94 215.65 138.84 216.54 137.52 216.83V216.88C139.22 217.12 140.47 218.08 140.47 219.76C140.47 222.81 136.63 223.19 134.35 223.19C133.05 223.19 131.71 223.09 131.09 223.05V211.57H131.08ZM133.07 221.65C133.67 221.72 134.1 221.75 134.77 221.75C136.19 221.75 138.3 221.41 138.3 219.73C138.3 218.05 136.62 217.69 134.6 217.69H133.06V221.65H133.07ZM133.1 216.3H134.68C136.24 216.3 137.85 215.84 137.85 214.48C137.85 213.33 136.84 212.78 134.73 212.78C134.03 212.78 133.6 212.83 133.1 212.88V216.3Z" fill="#616160"/>
<path d="M144.31 217.62C144.36 220.48 146.18 221.65 148.29 221.65C149.8 221.65 150.71 221.39 151.51 221.05L151.87 222.56C151.13 222.9 149.85 223.28 148.01 223.28C144.43 223.28 142.3 220.93 142.3 217.42C142.3 213.92 144.36 211.16 147.75 211.16C151.54 211.16 152.55 214.5 152.55 216.63C152.55 217.06 152.5 217.4 152.48 217.61H144.31V217.62ZM150.5 216.11C150.52 214.77 149.95 212.68 147.57 212.68C145.43 212.68 144.5 214.65 144.33 216.11H150.5Z" fill="#616160"/>
<path d="M155.15 215.22C155.15 213.73 155.1 212.53 155.05 211.43H156.95L157.05 213.42H157.1C157.96 212 159.33 211.16 161.23 211.16C164.04 211.16 166.15 213.54 166.15 217.06C166.15 221.24 163.61 223.3 160.87 223.3C159.33 223.3 157.99 222.63 157.29 221.48H157.24V227.79H155.15V215.22ZM157.24 218.31C157.24 218.62 157.29 218.91 157.34 219.17C157.72 220.63 159 221.64 160.51 221.64C162.74 221.64 164.04 219.82 164.04 217.15C164.04 214.82 162.82 212.83 160.58 212.83C159.14 212.83 157.8 213.86 157.39 215.45C157.32 215.71 157.25 216.03 157.25 216.31V218.31H157.24Z" fill="#616160"/>
<path d="M170.85 211.42V216.1H176.37V211.42H178.46V223.04H176.37V217.78H170.85V223.04H168.76V211.42H170.85Z" fill="#616160"/>
<path d="M183.86 211.42V216.32C183.86 218.17 183.84 219.32 183.74 220.98L183.81 221C184.51 219.58 184.91 218.77 185.68 217.42L189.3 211.42H191.77V223.04H189.75V218.12C189.75 216.22 189.8 215.24 189.89 213.37H189.82C189.08 214.86 188.57 215.79 187.9 216.97C186.8 218.77 185.52 221 184.27 223.04H181.85V211.42H183.86Z" fill="#616160"/>
<path d="M202.98 211.42V213.1H199.36V223.04H197.27V213.1H193.64V211.42H202.98Z" fill="#616160"/>
<path d="M205.699 217.62C205.749 220.48 207.57 221.65 209.68 221.65C211.19 221.65 212.1 221.39 212.9 221.05L213.26 222.56C212.52 222.9 211.24 223.28 209.4 223.28C205.82 223.28 203.689 220.93 203.689 217.42C203.689 213.92 205.75 211.16 209.14 211.16C212.93 211.16 213.939 214.5 213.939 216.63C213.939 217.06 213.89 217.4 213.87 217.61H205.699V217.62ZM211.89 216.11C211.91 214.77 211.339 212.68 208.959 212.68C206.819 212.68 205.889 214.65 205.719 216.11H211.89Z" fill="#616160"/>
<path d="M91.2198 240.22V241.92H86.1799V251.83H84.0898V240.21H91.2198V240.22Z" fill="#616160"/>
<path d="M103.41 245.94C103.41 250.24 100.43 252.11 97.6295 252.11C94.4895 252.11 92.0596 249.81 92.0596 246.13C92.0596 242.24 94.5995 239.96 97.8195 239.96C101.149 239.96 103.41 242.38 103.41 245.94ZM94.1895 246.06C94.1895 248.6 95.6495 250.52 97.7195 250.52C99.7395 250.52 101.25 248.62 101.25 246.01C101.25 244.04 100.27 241.55 97.7695 241.55C95.2695 241.54 94.1895 243.85 94.1895 246.06Z" fill="#616160"/>
<path d="M114.88 240.22V251.84H112.79V241.88H108.81V244.9C108.81 248.16 108.5 250.35 106.99 251.33C106.41 251.79 105.77 252.05 104.69 252.05L104.47 250.39C104.88 250.32 105.33 250.15 105.62 249.91C106.7 249.12 106.82 247.49 106.82 244.89V240.21H114.88V240.22Z" fill="#616160"/>
<path d="M128.85 245.94C128.85 250.24 125.87 252.11 123.07 252.11C119.93 252.11 117.5 249.81 117.5 246.13C117.5 242.24 120.04 239.96 123.26 239.96C126.59 239.96 128.85 242.38 128.85 245.94ZM119.63 246.06C119.63 248.6 121.09 250.52 123.16 250.52C125.18 250.52 126.69 248.62 126.69 246.01C126.69 244.04 125.71 241.55 123.21 241.55C120.71 241.54 119.63 243.85 119.63 246.06Z" fill="#616160"/>
<path d="M131.47 240.37C132.29 240.23 133.8 240.11 135.17 240.11C137.11 240.11 140.33 240.42 140.33 243.01C140.33 244.45 139.23 245.34 137.91 245.63V245.68C139.61 245.92 140.86 246.88 140.86 248.56C140.86 251.61 137.02 251.99 134.74 251.99C133.44 251.99 132.1 251.89 131.48 251.85V240.37H131.47ZM133.46 250.45C134.06 250.52 134.49 250.55 135.16 250.55C136.58 250.55 138.69 250.21 138.69 248.53C138.69 246.85 137.01 246.49 134.99 246.49H133.45V250.45H133.46ZM133.48 245.1H135.06C136.62 245.1 138.23 244.64 138.23 243.28C138.23 242.13 137.22 241.58 135.11 241.58C134.41 241.58 133.98 241.63 133.48 241.68V245.1Z" fill="#616160"/>
<path d="M144.02 240.22L146.56 247.09C146.82 247.86 147.11 248.77 147.3 249.47H147.35C147.57 248.77 147.81 247.89 148.09 247.05L150.39 240.23H152.62L149.45 248.51C147.94 252.49 146.91 254.53 145.47 255.78C144.44 256.69 143.41 257.05 142.88 257.15L142.35 255.37C142.88 255.2 143.57 254.87 144.2 254.34C144.78 253.88 145.5 253.07 145.98 251.99C146.08 251.77 146.15 251.61 146.15 251.49C146.15 251.37 146.1 251.2 146.01 250.94L141.71 240.23H144.02V240.22Z" fill="#616160"/>
<path d="M159.59 240.37C160.41 240.23 161.92 240.11 163.29 240.11C165.23 240.11 168.45 240.42 168.45 243.01C168.45 244.45 167.35 245.34 166.03 245.63V245.68C167.73 245.92 168.98 246.88 168.98 248.56C168.98 251.61 165.14 251.99 162.86 251.99C161.56 251.99 160.22 251.89 159.6 251.85V240.37H159.59ZM161.59 250.45C162.19 250.52 162.62 250.55 163.29 250.55C164.71 250.55 166.82 250.21 166.82 248.53C166.82 246.85 165.14 246.49 163.12 246.49H161.58V250.45H161.59ZM161.61 245.1H163.19C164.75 245.1 166.36 244.64 166.36 243.28C166.36 242.13 165.35 241.58 163.24 241.58C162.54 241.58 162.11 241.63 161.61 241.68V245.1Z" fill="#616160"/>
<path d="M181.19 240.22V251.84H179.08V241.9H173.68V251.84H171.59V240.22H181.19Z" fill="#616160"/>
<path d="M184.63 244.02C184.63 242.53 184.58 241.33 184.53 240.23H186.43L186.53 242.22H186.58C187.44 240.8 188.81 239.96 190.71 239.96C193.52 239.96 195.63 242.34 195.63 245.86C195.63 250.04 193.09 252.1 190.35 252.1C188.81 252.1 187.47 251.43 186.77 250.28H186.72V256.59H184.63V244.02ZM186.71 247.11C186.71 247.42 186.76 247.71 186.81 247.97C187.19 249.43 188.47 250.44 189.98 250.44C192.21 250.44 193.51 248.62 193.51 245.95C193.51 243.62 192.29 241.63 190.05 241.63C188.61 241.63 187.27 242.66 186.86 244.25C186.79 244.51 186.72 244.83 186.72 245.11V247.11H186.71Z" fill="#616160"/>
<path d="M204.71 251.84L204.54 250.38H204.47C203.82 251.29 202.57 252.11 200.92 252.11C198.57 252.11 197.37 250.45 197.37 248.77C197.37 245.96 199.87 244.43 204.35 244.45V244.21C204.35 243.25 204.09 241.52 201.71 241.52C200.63 241.52 199.5 241.86 198.69 242.38L198.21 240.99C199.17 240.37 200.56 239.96 202.03 239.96C205.58 239.96 206.45 242.38 206.45 244.71V249.05C206.45 250.06 206.5 251.04 206.64 251.83H204.71V251.84ZM204.4 245.91C202.1 245.86 199.48 246.27 199.48 248.53C199.48 249.9 200.39 250.55 201.47 250.55C202.98 250.55 203.94 249.59 204.28 248.61C204.35 248.39 204.4 248.15 204.4 247.94V245.91Z" fill="#616160"/>
<path d="M209.8 240.37C210.62 240.23 212.13 240.11 213.5 240.11C215.44 240.11 218.66 240.42 218.66 243.01C218.66 244.45 217.56 245.34 216.24 245.63V245.68C217.94 245.92 219.19 246.88 219.19 248.56C219.19 251.61 215.35 251.99 213.07 251.99C211.77 251.99 210.43 251.89 209.81 251.85V240.37H209.8ZM211.79 250.45C212.39 250.52 212.82 250.55 213.49 250.55C214.91 250.55 217.02 250.21 217.02 248.53C217.02 246.85 215.34 246.49 213.32 246.49H211.78V250.45H211.79ZM211.82 245.1H213.4C214.96 245.1 216.57 244.64 216.57 243.28C216.57 242.13 215.56 241.58 213.45 241.58C212.75 241.58 212.32 241.63 211.82 241.68V245.1Z" fill="#616160"/>
<path d="M232.36 245.94C232.36 250.24 229.38 252.11 226.58 252.11C223.44 252.11 221.01 249.81 221.01 246.13C221.01 242.24 223.55 239.96 226.77 239.96C230.11 239.96 232.36 242.38 232.36 245.94ZM223.14 246.06C223.14 248.6 224.6 250.52 226.67 250.52C228.69 250.52 230.2 248.62 230.2 246.01C230.2 244.04 229.22 241.55 226.72 241.55C224.22 241.54 223.14 243.85 223.14 246.06Z" fill="#616160"/>
<path d="M57.7604 181.67C58.5904 188.52 63.4304 194.2 70.1104 196.14C72.0204 196.69 73.9304 196.77 75.5504 196.77H75.5604C96.9104 196.76 118.27 196.76 139.62 196.76H208.03C217.07 196.76 226.43 196.76 235.62 196.74C237.04 196.74 238.26 196.62 239.33 196.4C247.35 194.7 252.96 187.76 252.96 179.52C252.97 131.6 252.96 79.05 252.96 18.87C252.96 18.21 252.91 17.52 252.82 16.82C252.07 10.94 249.02 6.48996 243.75 3.57996C241.32 2.23996 238.53 1.58997 235.23 1.58997C235.23 1.58997 235.23 1.58997 235.22 1.58997C191.41 1.59997 147.59 1.59998 103.78 1.59998H75.1604C75.0904 1.59998 75.0303 1.59998 74.9603 1.59998C74.8703 1.59998 74.7704 1.59998 74.6804 1.59998C68.7304 1.77998 63.9903 4.31997 60.6003 9.15997C58.6403 11.96 57.6504 15.26 57.6504 18.97C57.6704 39.39 57.6604 60.16 57.6604 80.24V110.18C57.6604 133.06 57.6604 155.94 57.6604 178.82V179.29C57.6704 180.08 57.6604 180.89 57.7604 181.67ZM65.9703 6.66998C68.4603 4.78998 71.3804 3.81996 74.6304 3.76996C74.8004 3.76996 74.9804 3.76996 75.1504 3.76996H75.3203H97.6504C143.46 3.76996 189.26 3.76998 235.07 3.75998C235.07 3.75998 235.07 3.75998 235.08 3.75998C237.23 3.75998 238.98 4.00996 240.57 4.54996C246.63 6.59996 250.74 12.26 250.78 18.65C250.79 20.02 250.79 21.39 250.78 22.76C250.78 23.37 250.78 23.98 250.78 24.59V53.74C250.78 94.82 250.78 137.3 250.79 179.09C250.79 182.71 249.88 185.72 248.01 188.28C245.02 192.37 240.92 194.5 235.82 194.62C235.39 194.63 234.96 194.63 234.54 194.62C234.34 194.62 234.14 194.62 233.94 194.62H136.58C116.18 194.62 95.7804 194.62 75.3804 194.63H75.3704C72.0704 194.63 69.3404 193.9 67.0104 192.41C62.3304 189.41 59.9103 185.06 59.8203 179.49C59.8103 179.07 59.8203 178.64 59.8203 178.22C59.8203 178.02 59.8203 177.81 59.8203 177.61V142.79C59.8203 102.33 59.8204 60.49 59.8104 19.35C59.8004 14.02 61.8703 9.75998 65.9703 6.66998Z" fill="#9C9FA0" stroke="#9C9FA0" stroke-width="2" stroke-miterlimit="10"/>
<path d="M1.65985 197.79H47.9299C48.6299 197.79 49.2098 197.22 49.2098 196.51V150.24C49.2098 149.53 48.6399 148.96 47.9299 148.96H1.65985C0.949851 148.96 0.379883 149.53 0.379883 150.24V196.51C0.379883 197.22 0.959851 197.79 1.65985 197.79Z" fill="#9C9FA0"/>
<path d="M16.2795 179.8C22.2895 174.12 26.5295 170.07 26.5295 166.73C26.5295 164.43 25.2295 163.17 23.1895 163.17C21.4795 163.17 20.1795 164.32 18.9895 165.58L16.0195 162.65C18.3595 160.16 20.5495 158.9 23.9295 158.9C28.5695 158.9 31.7295 161.87 31.7295 166.4C31.7295 170.37 28.0195 174.61 24.1895 178.61C25.3795 178.46 27.0095 178.31 28.1295 178.31H32.8795V182.91H16.2895V179.8H16.2795Z" fill="white"/>
<path d="M143.31 127.95C154.53 142.43 163.47 142.77 153.29 161.84C146.98 144.73 128.6 147.25 143.31 127.95Z" fill="#F1851B"/>
<path d="M146.52 127.95L143.06 161.84H137.17L128.6 161.12V127.95H146.52Z" fill="#F1851B"/>
<path d="M147.089 127.95L143.64 161.84H143.06L146.52 127.95H147.089Z" fill="#F1851B"/>
<path d="M147.67 127.95L144.21 161.84H143.64L147.09 127.95H147.67Z" fill="#F1851B"/>
<path d="M148.24 127.95L144.79 161.84H144.21L147.67 127.95H148.24Z" fill="#F1851B"/>
<path d="M148.81 127.95L145.36 161.84H144.79L148.24 127.95H148.81Z" fill="#F1851B"/>
<path d="M149.389 127.95L145.939 161.84H145.359L148.809 127.95H149.389Z" fill="#F1851B"/>
<path d="M149.959 127.95L146.51 161.84H145.939L149.39 127.95H149.959Z" fill="#F1851B"/>
<path d="M150.54 127.95L147.08 161.84H146.51L149.96 127.95H150.54Z" fill="#F1851B"/>
<path d="M151.11 127.95L147.66 161.84H147.08L150.54 127.95H151.11Z" fill="#F1851B"/>
<path d="M151.69 127.95L148.23 161.84H147.66L151.11 127.95H151.69Z" fill="#F1851B"/>
<path d="M152.26 127.95L148.81 161.84H148.229L151.689 127.95H152.26Z" fill="#F1851B"/>
<path d="M152.829 127.95L149.38 161.84H148.81L152.26 127.95H152.829Z" fill="#F1851B"/>
<path d="M153.41 127.95L149.96 161.84H149.38L152.83 127.95H153.41Z" fill="#F1851B"/>
<path d="M153.98 127.95L150.53 161.84H149.96L153.41 127.95H153.98Z" fill="#F1851B"/>
<path d="M154.559 127.95L151.099 161.84H150.529L153.979 127.95H154.559Z" fill="#F1851B"/>
<path d="M155.13 127.95L151.68 161.84H151.1L154.56 127.95H155.13Z" fill="#F1851B"/>
<path d="M155.7 127.95L152.25 161.84H151.68L155.13 127.95H155.7Z" fill="#F1851B"/>
<path d="M156.28 127.95L152.83 161.84H152.25L155.7 127.95H156.28Z" fill="#F1851B"/>
<path d="M156.85 127.95L153.4 161.84H152.83L156.28 127.95H156.85Z" fill="#F1851B"/>
<path d="M157.429 127.95L153.979 161.84H153.399L156.849 127.95H157.429Z" fill="#F1851B"/>
<path d="M158 127.95L154.55 161.84H153.979L157.43 127.95H158Z" fill="#F1851B"/>
<path d="M158.58 127.95L155.12 161.84H154.55L158 127.95H158.58Z" fill="#F1851B"/>
<path d="M159.149 127.95L155.699 161.84H155.119L158.579 127.95H159.149Z" fill="#F1851B"/>
<path d="M159.429 127.95L159.719 127.97L156.269 161.84H155.699L159.149 127.95H159.429Z" fill="#F1851B"/>
<path d="M159.719 127.97L160.29 128.02L156.849 161.84H156.27L159.719 127.97Z" fill="#F1851B"/>
<path d="M160.29 128.02L160.86 128.07L157.42 161.84H156.85L160.29 128.02Z" fill="#F1851B"/>
<path d="M160.86 128.07L161.43 128.12L158 161.84H157.42L160.86 128.07Z" fill="#F1851B"/>
<path d="M161.43 128.12L162 128.17L158.57 161.84H158L161.43 128.12Z" fill="#F1851B"/>
<path d="M161.999 128.17L162.569 128.21L159.139 161.84H158.569L161.999 128.17Z" fill="#F1851B"/>
<path d="M162.57 128.21L163.14 128.26L159.72 161.84H159.14L162.57 128.21Z" fill="#F1851B"/>
<path d="M163.14 128.26L163.47 128.29V130.68L160.29 161.84H159.72L163.14 128.26Z" fill="#F1851B"/>
<path d="M163.47 136.31L160.87 161.84H160.29L163.47 130.68V136.31Z" fill="#F1851B"/>
<path d="M163.469 141.95L161.439 161.84H160.869L163.469 136.31V141.95Z" fill="#F1851B"/>
<path d="M163.469 147.59L162.02 161.84H161.439L163.469 141.95V147.59Z" fill="#F1851B"/>
<path d="M163.469 153.22L162.589 161.84H162.02L163.469 147.59V153.22Z" fill="#F1851B"/>
<path d="M163.47 158.86L163.16 161.84H162.59L163.47 153.22V158.86Z" fill="#F1851B"/>
<path d="M163.16 161.84L163.47 158.86V161.84H163.16Z" fill="#F1851B"/>
<path d="M172.83 127.95C161.61 142.43 152.67 142.77 162.85 161.84C169.16 144.73 187.54 147.25 172.83 127.95Z" fill="#F1851B"/>
<path d="M152.83 127.95L152.67 129.53V127.95H152.83Z" fill="#F1851B"/>
<path d="M153.41 127.95L152.67 135.16V129.53L152.83 127.95H153.41Z" fill="#F1851B"/>
<path d="M153.98 127.95L152.67 140.8V135.16L153.41 127.95H153.98Z" fill="#F1851B"/>
<path d="M154.56 127.95L152.67 146.44V140.8L153.98 127.95H154.56Z" fill="#F1851B"/>
<path d="M155.13 127.95L152.67 152.07V146.44L154.56 127.95H155.13Z" fill="#F1851B"/>
<path d="M155.7 127.95L152.67 157.71V152.07L155.13 127.95H155.7Z" fill="#F1851B"/>
<path d="M156.28 127.95L152.83 161.84H152.67V157.71L155.7 127.95H156.28Z" fill="#F1851B"/>
<path d="M156.85 127.95L153.4 161.84H152.83L156.28 127.95H156.85Z" fill="#F1851B"/>
<path d="M157.43 127.95L153.98 161.84H153.4L156.85 127.95H157.43Z" fill="#F1851B"/>
<path d="M158 127.95L154.55 161.84H153.979L157.43 127.95H158Z" fill="#F1851B"/>
<path d="M158.58 127.95L155.12 161.84H154.55L158 127.95H158.58Z" fill="#F1851B"/>
<path d="M159.15 127.95L155.7 161.84H155.12L158.58 127.95H159.15Z" fill="#F1851B"/>
<path d="M159.72 127.95L156.27 161.84H155.7L159.15 127.95H159.72Z" fill="#F1851B"/>
<path d="M160.3 127.95L156.849 161.84H156.27L159.719 127.95H160.3Z" fill="#F1851B"/>
<path d="M160.87 127.95L157.42 161.84H156.85L160.3 127.95H160.87Z" fill="#F1851B"/>
<path d="M161.45 127.95L158 161.84H157.42L160.87 127.95H161.45Z" fill="#F1851B"/>
<path d="M162.02 127.95L158.57 161.84H158L161.45 127.95H162.02Z" fill="#F1851B"/>
<path d="M162.6 127.95L159.14 161.84H158.57L162.02 127.95H162.6Z" fill="#F1851B"/>
<path d="M163.17 127.95L159.72 161.84H159.14L162.6 127.95H163.17Z" fill="#F1851B"/>
<path d="M163.74 127.95L160.29 161.84H159.72L163.17 127.95H163.74Z" fill="#F1851B"/>
<path d="M164.32 127.95L160.87 161.84H160.29L163.74 127.95H164.32Z" fill="#F1851B"/>
<path d="M164.89 127.95L161.44 161.84H160.87L164.32 127.95H164.89Z" fill="#F1851B"/>
<path d="M165.469 127.95L162.02 161.84H161.439L164.89 127.95H165.469Z" fill="#F1851B"/>
<path d="M166.04 127.95L162.589 161.84H162.02L165.469 127.95H166.04Z" fill="#F1851B"/>
<path d="M166.62 127.95L163.16 161.84H162.59L166.04 127.95H166.62Z" fill="#F1851B"/>
<path d="M167.19 127.95L163.74 161.84H163.16L166.62 127.95H167.19Z" fill="#F1851B"/>
<path d="M167.76 127.95L164.31 161.84H163.74L167.19 127.95H167.76Z" fill="#F1851B"/>
<path d="M168.339 127.95L164.89 161.84H164.31L167.76 127.95H168.339Z" fill="#F1851B"/>
<path d="M168.91 127.95L165.46 161.84H164.89L168.34 127.95H168.91Z" fill="#F1851B"/>
<path d="M169.49 127.95L166.04 161.84H165.46L168.91 127.95H169.49Z" fill="#F1851B"/>
<path d="M170.06 127.95L166.61 161.84H166.04L169.49 127.95H170.06Z" fill="#F1851B"/>
<path d="M170.639 127.95L167.179 161.84H166.609L170.059 127.95H170.639Z" fill="#F1851B"/>
<path d="M171.21 127.95L167.76 161.84H167.18L170.64 127.95H171.21Z" fill="#F1851B"/>
<path d="M171.78 127.95L168.33 161.84H167.76L171.21 127.95H171.78Z" fill="#F1851B"/>
<path d="M172.36 127.95L168.91 161.84H168.33L171.78 127.95H172.36Z" fill="#F1851B"/>
<path d="M172.93 127.95L169.48 161.84H168.91L172.36 127.95H172.93Z" fill="#F1851B"/>
<path d="M173.51 127.95L170.06 161.84H169.479L172.93 127.95H173.51Z" fill="#F1851B"/>
<path d="M174.079 127.95L170.63 161.84H170.06L173.51 127.95H174.079Z" fill="#F1851B"/>
<path d="M174.66 127.95L171.2 161.84H170.63L174.08 127.95H174.66Z" fill="#F1851B"/>
<path d="M175.23 127.95L171.78 161.84H171.2L174.66 127.95H175.23Z" fill="#F1851B"/>
<path d="M175.8 127.95L172.35 161.84H171.78L175.23 127.95H175.8Z" fill="#F1851B"/>
<path d="M176.38 127.95L172.93 161.84H172.35L175.8 127.95H176.38Z" fill="#F1851B"/>
<path d="M176.95 127.95L173.5 161.84H172.93L176.38 127.95H176.95Z" fill="#F1851B"/>
<path d="M177.53 127.95L174.07 161.84H173.5L176.95 127.95H177.53Z" fill="#F1851B"/>
<path d="M178.1 127.95L174.65 161.84H174.07L177.53 127.95H178.1Z" fill="#F1851B"/>
<path d="M178.68 127.95L175.22 161.84H174.65L178.1 127.95H178.68Z" fill="#F1851B"/>
<path d="M179.25 127.95L175.8 161.84H175.22L178.68 127.95H179.25Z" fill="#F1851B"/>
<path d="M179.82 127.95L176.37 161.84H175.8L179.25 127.95H179.82Z" fill="#F1851B"/>
<path d="M180.4 127.95L176.95 161.84H176.37L179.82 127.95H180.4Z" fill="#F1851B"/>
<path d="M180.97 127.95L177.52 161.84H176.95L180.4 127.95H180.97Z" fill="#F1851B"/>
<path d="M181.55 127.95L178.089 161.84H177.52L180.969 127.95H181.55Z" fill="#F1851B"/>
<path d="M182.12 127.95L178.67 161.84H178.09L181.55 127.95H182.12Z" fill="#F1851B"/>
<path d="M182.7 127.95L179.24 161.84H178.67L182.12 127.95H182.7Z" fill="#F1851B"/>
<path d="M183.27 127.95L179.82 161.84H179.24L182.7 127.95H183.27Z" fill="#F1851B"/>
<path d="M183.84 127.95L180.39 161.84H179.82L183.27 127.95H183.84Z" fill="#F1851B"/>
<path d="M184.42 127.95L180.97 161.84H180.39L183.84 127.95H184.42Z" fill="#F1851B"/>
<path d="M184.99 127.95L181.54 161.84H180.97L184.42 127.95H184.99Z" fill="#F1851B"/>
<path d="M185.57 127.95L182.11 161.84H181.54L184.99 127.95H185.57Z" fill="#F1851B"/>
<path d="M186.139 127.95L182.689 161.84H182.109L185.569 127.95H186.139Z" fill="#F1851B"/>
<path d="M186.719 127.95L183.26 161.84H182.689L186.14 127.95H186.719Z" fill="#F1851B"/>
<path d="M187.29 127.95L183.84 161.84H183.26L186.72 127.95H187.29Z" fill="#F1851B"/>
<path d="M187.54 131.17L184.41 161.84H183.84L187.29 127.95H187.54V131.17Z" fill="#F1851B"/>
<path d="M187.54 136.81L184.99 161.84H184.41L187.54 131.17V136.81Z" fill="#F1851B"/>
<path d="M187.54 142.45L185.56 161.84H184.99L187.54 136.81V142.45Z" fill="#F1851B"/>
<path d="M187.54 148.08L186.13 161.84H185.56L187.54 142.45V148.08Z" fill="#F1851B"/>
<path d="M186.13 161.84L187.54 148.08V161.84H186.13Z" fill="#F1851B"/>
</svg>
