<svg width="808" height="500" viewBox="0 0 808 500" fill="none" xmlns="http://www.w3.org/2000/svg">
<path d="M215.18 52.8799V10.47C215.18 7.95997 217.21 5.92993 219.72 5.92993H220.77C223.28 5.92993 225.31 7.95997 225.31 10.47V52.8799C225.31 55.3899 223.28 57.42 220.77 57.42H219.72C217.22 57.42 215.18 55.3899 215.18 52.8799Z" fill="white"/>
<g filter="url(#filter0_d)">
<path d="M369.52 0H25.99H0L25.99 21.14V285.4C25.99 293.95 33.0699 300.88 41.7999 300.88H369.53C378.26 300.88 385.34 293.95 385.34 285.4V15.48C385.33 6.93004 378.25 0 369.52 0Z" fill="white"/>
</g>
<path d="M284.13 167.97H253.9C251.44 167.97 249.44 165.97 249.44 163.51V153.73C249.44 151.27 251.44 149.27 253.9 149.27H284.13C286.59 149.27 288.59 151.27 288.59 153.73V163.51C288.59 165.97 286.59 167.97 284.13 167.97Z" fill="white"/>
<path d="M324.54 138.2H199.5C197.04 138.2 195.04 136.2 195.04 133.74V121.43C195.04 118.97 197.04 116.97 199.5 116.97H324.54C327 116.97 329 118.97 329 121.43V133.74C329 136.2 327 138.2 324.54 138.2Z" fill="white"/>
<path d="M324.54 106.97H199.5C197.04 106.97 195.04 104.97 195.04 102.51V90.2C195.04 87.74 197.04 85.74 199.5 85.74H324.54C327 85.74 329 87.74 329 90.2V102.51C329 104.98 327 106.97 324.54 106.97Z" fill="white"/>
<path d="M806.97 333.27L805.42 333.83C804.76 334.07 804.04 333.73 803.8 333.07C803.56 332.41 803.9 331.69 804.56 331.45H804.57L806.11 330.9H806.12C806.78 330.66 807.5 331 807.74 331.66C807.96 332.31 807.63 333.03 806.97 333.27Z" fill="#40B7E2"/>
<path d="M797.6 336.49L796.03 336.99C795.36 337.2 794.64 336.83 794.43 336.16C794.22 335.49 794.59 334.77 795.26 334.56H795.27L796.83 334.07H796.84C797.51 333.86 798.23 334.23 798.44 334.9C798.64 335.56 798.27 336.27 797.6 336.49Z" fill="#40B7E2"/>
<path d="M788.13 339.37L786.54 339.82C785.86 340.01 785.15 339.62 784.95 338.94C784.76 338.26 785.15 337.55 785.83 337.35H785.84L787.41 336.9H787.42C788.1 336.71 788.81 337.1 789 337.78C789.2 338.47 788.81 339.18 788.13 339.37Z" fill="#40B7E2"/>
<path d="M778.58 341.98L776.98 342.39C776.29 342.57 775.58 342.15 775.41 341.46C775.23 340.77 775.65 340.06 776.34 339.89H776.35L777.94 339.49H777.95C778.64 339.31 779.34 339.73 779.52 340.42C779.69 341.1 779.27 341.8 778.58 341.98Z" fill="#40B7E2"/>
<path d="M768.98 344.34L767.38 344.71C766.68 344.87 765.98 344.44 765.82 343.74C765.66 343.04 766.09 342.34 766.79 342.18L768.39 341.81C769.09 341.65 769.79 342.09 769.95 342.79C770.11 343.48 769.68 344.18 768.98 344.34Z" fill="#40B7E2"/>
<path d="M759.33 346.49L757.72 346.83C757.01 346.98 756.32 346.52 756.17 345.82C756.02 345.11 756.48 344.42 757.18 344.27L758.78 343.94C759.49 343.79 760.18 344.25 760.33 344.96C760.49 345.65 760.04 346.34 759.33 346.49Z" fill="#40B7E2"/>
<path d="M749.64 348.44L748.02 348.75C747.3 348.89 746.61 348.42 746.48 347.7C746.34 346.98 746.81 346.29 747.53 346.15H747.54L749.15 345.85C749.87 345.71 750.56 346.18 750.69 346.9C750.82 347.61 750.35 348.31 749.64 348.44Z" fill="#40B7E2"/>
<path d="M739.91 350.21L738.29 350.49C737.57 350.61 736.88 350.13 736.75 349.4C736.63 348.68 737.11 347.99 737.84 347.86H737.85L739.47 347.59C740.19 347.47 740.88 347.95 741.01 348.67C741.14 349.39 740.64 350.09 739.91 350.21Z" fill="#40B7E2"/>
<path d="M730.08 351.83L728.45 352.08C727.72 352.19 727.03 351.69 726.92 350.96C726.81 350.23 727.31 349.54 728.04 349.43H728.05L729.67 349.18C730.4 349.07 731.08 349.57 731.2 350.3C731.31 351.03 730.81 351.72 730.08 351.83Z" fill="#40B7E2"/>
<path d="M720.14 353.29L718.51 353.51C717.77 353.61 717.09 353.1 716.99 352.36C716.89 351.62 717.4 350.94 718.14 350.84H718.15L719.77 350.62C720.51 350.52 721.19 351.03 721.29 351.77C721.39 352.51 720.88 353.19 720.14 353.29Z" fill="#40B7E2"/>
<path d="M710.34 354.58L708.71 354.78C707.97 354.87 707.29 354.34 707.2 353.6C707.11 352.86 707.64 352.18 708.38 352.09H708.39L710.02 351.89C710.76 351.8 711.44 352.33 711.53 353.07C711.62 353.81 711.08 354.49 710.34 354.58Z" fill="#40B7E2"/>
<path d="M700.52 355.71L698.88 355.88C698.13 355.96 697.45 355.42 697.37 354.66C697.29 353.91 697.83 353.23 698.59 353.15H698.6L700.23 352.98C700.98 352.9 701.65 353.44 701.73 354.19C701.82 354.96 701.27 355.63 700.52 355.71Z" fill="#40B7E2"/>
<path d="M690.69 356.7L689.05 356.85C688.29 356.92 687.62 356.36 687.55 355.6C687.48 354.84 688.04 354.17 688.8 354.1H688.81L690.44 353.95C691.2 353.88 691.87 354.44 691.94 355.19C692.01 355.94 691.45 356.63 690.69 356.7Z" fill="#40B7E2"/>
<path d="M680.85 357.55L679.21 357.68C678.45 357.74 677.78 357.17 677.72 356.4C677.66 355.64 678.23 354.97 679 354.91H679.01L680.65 354.79C681.41 354.73 682.08 355.3 682.14 356.06C682.18 356.82 681.61 357.49 680.85 357.55Z" fill="#40B7E2"/>
<path d="M670.99 358.24L669.35 358.34C668.58 358.39 667.92 357.8 667.87 357.03C667.82 356.26 668.41 355.6 669.18 355.55H669.19L670.83 355.45C671.6 355.4 672.26 355.99 672.31 356.75C672.34 357.53 671.76 358.2 670.99 358.24Z" fill="#40B7E2"/>
<path d="M661.13 358.8L659.48 358.88C658.7 358.92 658.05 358.32 658.01 357.54C657.97 356.76 658.57 356.11 659.35 356.07H659.36L661 356C661.77 355.96 662.43 356.56 662.47 357.33C662.5 358.1 661.9 358.76 661.13 358.8Z" fill="#40B7E2"/>
<path d="M651.25 359.2L649.6 359.25C648.82 359.27 648.17 358.66 648.15 357.88C648.13 357.1 648.74 356.45 649.52 356.43L651.16 356.38C651.94 356.35 652.59 356.96 652.62 357.74C652.65 358.52 652.04 359.18 651.25 359.2Z" fill="#40B7E2"/>
<path d="M641.37 359.44L639.72 359.47C638.95 359.48 638.31 358.86 638.3 358.09C638.29 357.32 638.91 356.68 639.68 356.67L641.32 356.64C642.09 356.62 642.73 357.24 642.75 358.01C642.77 358.79 642.15 359.43 641.37 359.44Z" fill="#40B7E2"/>
<path d="M631.49 359.53H629.84C629.07 359.53 628.45 358.91 628.45 358.14C628.45 357.37 629.07 356.75 629.84 356.75H631.48C632.25 356.75 632.88 357.37 632.88 358.14C632.89 358.9 632.27 359.53 631.49 359.53Z" fill="#40B7E2"/>
<path d="M621.61 359.46L619.96 359.43C619.2 359.42 618.59 358.79 618.6 358.02C618.61 357.25 619.24 356.65 620.01 356.66L621.65 356.68C622.41 356.69 623.03 357.32 623.02 358.08C623.01 358.86 622.38 359.47 621.61 359.46Z" fill="#40B7E2"/>
<path d="M611.73 359.23L610.08 359.18C609.32 359.15 608.73 358.52 608.75 357.76C608.78 357 609.41 356.41 610.17 356.43L611.81 356.48C612.57 356.5 613.17 357.13 613.15 357.89C613.13 358.66 612.49 359.26 611.73 359.23Z" fill="#40B7E2"/>
<path d="M601.85 358.84L600.2 358.76C599.45 358.72 598.87 358.08 598.91 357.33C598.95 356.58 599.59 356 600.34 356.04L601.98 356.12C602.73 356.15 603.32 356.79 603.28 357.55C603.25 358.29 602.61 358.87 601.85 358.84Z" fill="#40B7E2"/>
<path d="M591.98 358.26L590.34 358.15C589.59 358.1 589.03 357.45 589.08 356.7C589.13 355.95 589.78 355.39 590.53 355.44L592.17 355.55C592.92 355.6 593.48 356.25 593.43 356.99C593.38 357.75 592.73 358.31 591.98 358.26Z" fill="#40B7E2"/>
<path d="M582.13 357.5L580.49 357.35C579.75 357.28 579.2 356.63 579.27 355.89C579.34 355.15 579.99 354.6 580.73 354.67L582.36 354.81C583.1 354.87 583.65 355.53 583.59 356.27C583.52 357.02 582.87 357.56 582.13 357.5Z" fill="#40B7E2"/>
<path d="M572.28 356.54L570.64 356.36C569.91 356.28 569.38 355.62 569.46 354.89C569.54 354.16 570.2 353.63 570.93 353.71L572.56 353.89C573.29 353.97 573.83 354.63 573.75 355.36C573.68 356.09 573.02 356.62 572.28 356.54Z" fill="#40B7E2"/>
<path d="M562.46 355.38L560.83 355.16C560.1 355.06 559.59 354.4 559.69 353.67C559.79 352.94 560.45 352.43 561.18 352.53L562.8 352.74H562.81C563.54 352.83 564.05 353.5 563.96 354.23C563.86 354.96 563.19 355.47 562.46 355.38Z" fill="#40B7E2"/>
<path d="M552.67 353.99L551.04 353.74C550.32 353.63 549.83 352.95 549.94 352.23C550.05 351.51 550.73 351.02 551.45 351.13L553.07 351.38H553.08C553.8 351.49 554.29 352.17 554.18 352.89C554.07 353.6 553.39 354.1 552.67 353.99Z" fill="#40B7E2"/>
<path d="M542.91 352.35L541.29 352.05C540.58 351.92 540.11 351.24 540.24 350.53C540.37 349.82 541.05 349.35 541.76 349.48L543.37 349.77H543.38C544.09 349.9 544.57 350.58 544.44 351.29C544.31 352.01 543.62 352.48 542.91 352.35Z" fill="#40B7E2"/>
<path d="M533.19 350.46L531.58 350.12C530.88 349.97 530.43 349.28 530.58 348.58C530.73 347.88 531.42 347.43 532.12 347.58L533.72 347.92H533.73C534.43 348.07 534.88 348.76 534.74 349.46C534.59 350.16 533.9 350.61 533.19 350.46Z" fill="#40B7E2"/>
<path d="M523.54 348.28L521.94 347.89C521.25 347.72 520.82 347.02 520.99 346.33C521.16 345.64 521.86 345.21 522.55 345.38L524.14 345.77H524.15C524.84 345.94 525.27 346.64 525.1 347.33C524.93 348.02 524.23 348.45 523.54 348.28Z" fill="#40B7E2"/>
<path d="M513.95 345.79L512.36 345.34C511.68 345.15 511.28 344.44 511.47 343.76C511.66 343.08 512.37 342.68 513.05 342.87H513.06L514.64 343.31H514.65C515.33 343.5 515.73 344.21 515.54 344.89C515.34 345.58 514.64 345.98 513.95 345.79Z" fill="#40B7E2"/>
<path d="M504.46 342.95L502.89 342.44C502.22 342.22 501.85 341.51 502.07 340.84C502.29 340.17 503 339.8 503.67 340.02H503.68L505.24 340.52H505.25C505.92 340.74 506.29 341.45 506.07 342.12C505.85 342.8 505.13 343.16 504.46 342.95Z" fill="#40B7E2"/>
<path d="M495.08 339.73L493.53 339.15C492.88 338.91 492.54 338.18 492.79 337.52C493.03 336.87 493.76 336.53 494.42 336.78H494.43L495.96 337.35H495.97C496.63 337.59 496.96 338.32 496.72 338.98C496.47 339.64 495.74 339.97 495.08 339.73Z" fill="#40B7E2"/>
<path d="M485.85 336.08L484.33 335.42C483.69 335.15 483.4 334.41 483.68 333.77C483.95 333.13 484.69 332.84 485.33 333.12H485.34L486.84 333.76H486.85C487.49 334.03 487.79 334.77 487.51 335.41C487.24 336.05 486.5 336.35 485.85 336.08Z" fill="#40B7E2"/>
<path d="M476.83 331.93L475.35 331.19C474.74 330.89 474.5 330.15 474.8 329.55C475.1 328.95 475.83 328.7 476.44 329L476.45 329.01L477.91 329.73L477.92 329.74C478.53 330.04 478.78 330.78 478.48 331.39C478.19 331.98 477.45 332.23 476.83 331.93Z" fill="#40B7E2"/>
<path d="M468.07 327.25L466.64 326.41C466.07 326.08 465.88 325.34 466.21 324.77C466.54 324.2 467.27 324.01 467.84 324.34L467.85 324.35L469.26 325.17L469.27 325.18C469.85 325.51 470.04 326.25 469.71 326.82C469.39 327.39 468.65 327.58 468.07 327.25Z" fill="#40B7E2"/>
<path d="M459.64 321.96L458.28 321.02C457.75 320.65 457.62 319.92 457.98 319.39C458.35 318.86 459.07 318.73 459.6 319.09L459.61 319.1L460.95 320.02L460.96 320.03C461.5 320.4 461.63 321.13 461.27 321.66C460.91 322.2 460.18 322.33 459.64 321.96Z" fill="#40B7E2"/>
<path d="M451.66 316.02L450.38 314.96C449.89 314.56 449.83 313.84 450.23 313.35C450.63 312.87 451.35 312.8 451.83 313.2L451.84 313.21L453.1 314.24L453.11 314.25C453.6 314.65 453.67 315.37 453.27 315.86C452.88 316.35 452.15 316.42 451.66 316.02Z" fill="#40B7E2"/>
<path d="M444.25 309.34L443.08 308.16C442.65 307.72 442.65 307.02 443.09 306.58C443.53 306.15 444.23 306.15 444.66 306.59L444.67 306.6L445.81 307.75L445.82 307.76C446.26 308.2 446.25 308.91 445.82 309.34C445.4 309.79 444.69 309.79 444.25 309.34Z" fill="#40B7E2"/>
<path d="M437.59 301.91L436.57 300.6C436.2 300.13 436.28 299.44 436.76 299.07C437.23 298.7 437.91 298.78 438.28 299.25L438.29 299.27L439.29 300.54L439.3 300.56C439.67 301.03 439.59 301.72 439.12 302.09C438.65 302.47 437.97 302.39 437.59 301.91Z" fill="#40B7E2"/>
<path d="M431.86 293.73L431.01 292.3C430.71 291.8 430.88 291.15 431.38 290.85C431.88 290.55 432.53 290.72 432.83 291.21L432.84 291.23L433.68 292.62L433.69 292.64C433.99 293.14 433.83 293.8 433.33 294.1C432.82 294.4 432.16 294.24 431.86 293.73Z" fill="#40B7E2"/>
<path d="M427.24 284.87L426.59 283.34C426.37 282.82 426.61 282.21 427.14 281.99C427.66 281.77 428.27 282.01 428.49 282.53L428.5 282.55L429.14 284.04L429.15 284.06C429.38 284.59 429.13 285.2 428.61 285.42C428.08 285.64 427.47 285.4 427.24 284.87Z" fill="#40B7E2"/>
<path d="M423.86 275.46L423.42 273.85C423.27 273.31 423.59 272.76 424.13 272.62C424.66 272.47 425.21 272.79 425.36 273.32L425.37 273.34L425.8 274.9L425.81 274.92C425.96 275.46 425.64 276.01 425.11 276.16C424.57 276.32 424.01 276.01 423.86 275.46Z" fill="#40B7E2"/>
<path d="M421.78 265.7L421.56 264.05C421.49 263.52 421.86 263.02 422.4 262.95C422.93 262.88 423.42 263.25 423.5 263.78V263.8L423.73 265.41V265.43C423.81 265.97 423.43 266.46 422.9 266.54C422.35 266.62 421.85 266.24 421.78 265.7Z" fill="#40B7E2"/>
<path d="M420.94 255.76L420.92 254.1C420.91 253.58 421.33 253.14 421.86 253.14C422.38 253.13 422.81 253.55 422.82 254.07V254.09L422.85 255.71V255.73C422.86 256.26 422.44 256.69 421.92 256.7C421.39 256.71 420.95 256.3 420.94 255.76Z" fill="#40B7E2"/>
<path d="M421.25 245.81L421.4 244.16C421.45 243.65 421.9 243.28 422.4 243.33C422.91 243.38 423.28 243.82 423.23 244.33V244.35L423.09 245.97V245.99C423.05 246.5 422.6 246.88 422.09 246.83C421.58 246.78 421.2 246.33 421.25 245.81Z" fill="#40B7E2"/>
<path d="M422.56 235.96L422.87 234.33C422.96 233.85 423.42 233.54 423.9 233.63C424.37 233.72 424.69 234.18 424.6 234.65V234.66L424.31 236.27V236.28C424.22 236.76 423.76 237.09 423.28 237C422.8 236.91 422.47 236.45 422.56 235.96Z" fill="#40B7E2"/>
<path d="M424.73 226.27L425.16 224.68C425.28 224.24 425.74 223.98 426.18 224.1C426.62 224.22 426.88 224.67 426.77 225.11V225.12L426.36 226.7V226.71C426.24 227.16 425.78 227.43 425.33 227.31C424.88 227.19 424.61 226.73 424.73 226.27Z" fill="#40B7E2"/>
<path d="M427.62 216.79L428.16 215.23C428.3 214.82 428.75 214.61 429.16 214.75C429.57 214.89 429.78 215.33 429.65 215.74V215.75L429.13 217.3V217.31C428.99 217.72 428.54 217.95 428.13 217.81C427.7 217.66 427.48 217.21 427.62 216.79Z" fill="#40B7E2"/>
<path d="M431.1 207.51L431.73 205.99C431.89 205.62 432.31 205.44 432.69 205.59C433.06 205.74 433.24 206.17 433.09 206.54V206.55L432.48 208.07V208.08C432.33 208.46 431.89 208.64 431.51 208.49C431.13 208.33 430.95 207.9 431.1 207.51Z" fill="#40B7E2"/>
<path d="M435.09 198.46L435.8 196.97C435.96 196.63 436.37 196.48 436.71 196.65C437.05 196.81 437.19 197.22 437.04 197.56V197.57L436.35 199.06C436.19 199.41 435.78 199.56 435.43 199.4C435.08 199.24 434.93 198.81 435.09 198.46Z" fill="#40B7E2"/>
<path d="M439.51 189.61L440.28 188.15C440.44 187.84 440.83 187.72 441.14 187.89C441.45 188.05 441.57 188.43 441.41 188.74L440.66 190.2C440.5 190.52 440.11 190.64 439.79 190.48C439.46 190.32 439.34 189.93 439.51 189.61Z" fill="#40B7E2"/>
<path d="M444.28 180.95L445.11 179.53C445.27 179.25 445.63 179.15 445.91 179.32C446.19 179.48 446.28 179.84 446.12 180.12L445.31 181.55C445.15 181.84 444.79 181.94 444.5 181.78C444.22 181.61 444.12 181.25 444.28 180.95Z" fill="#40B7E2"/>
<path d="M449.37 172.49L450.25 171.1C450.41 170.85 450.74 170.77 450.99 170.93C451.24 171.09 451.31 171.42 451.16 171.67L450.3 173.07C450.14 173.33 449.81 173.41 449.55 173.25C449.29 173.09 449.21 172.75 449.37 172.49Z" fill="#40B7E2"/>
<path d="M454.73 164.19L455.65 162.82C455.8 162.6 456.1 162.54 456.33 162.69C456.55 162.84 456.61 163.14 456.47 163.37L455.57 164.74C455.42 164.97 455.11 165.04 454.88 164.89C454.64 164.74 454.58 164.43 454.73 164.19Z" fill="#40B7E2"/>
<path d="M460.33 156.06L461.28 154.72C461.42 154.52 461.7 154.48 461.89 154.62C462.09 154.76 462.13 155.03 461.99 155.23L461.05 156.58C460.91 156.78 460.63 156.83 460.43 156.69C460.23 156.54 460.18 156.27 460.33 156.06Z" fill="#40B7E2"/>
<path d="M463.72 137.72L468.21 147.92L473.19 140.5L463.72 137.72Z" fill="#40B7E2"/>
<path d="M507 111.7L490.09 147.97C489.77 148.66 489.17 149.2 488.45 149.45C487.73 149.7 486.93 149.64 486.25 149.29L450.48 130.94C450.07 130.73 449.83 130.29 449.87 129.83C449.91 129.37 450.23 128.98 450.67 128.85L507 111.7Z" fill="#40B7E2"/>
<path d="M463.73 137.72L507 111.7L469.49 140.7L470.61 143.58L463.73 137.72Z" fill="#39A4C0"/>
<path d="M472.92 142.44L468.21 147.92L469.49 140.7L472.92 142.44Z" fill="#40B7E2"/>
<path d="M231.6 498.99L230.02 494.34L230.01 494.32C229.88 493.95 230.08 493.55 230.45 493.42C230.82 493.29 231.22 493.49 231.35 493.86L232.93 498.55C233.05 498.92 232.86 499.32 232.49 499.44C232.12 499.56 231.72 499.37 231.6 499V498.99Z" fill="#40B7E2"/>
<path d="M226.66 485.08L224.97 480.44C224.83 480.06 225.03 479.64 225.41 479.5C225.79 479.36 226.21 479.56 226.35 479.94V479.95L228.02 484.58C228.16 484.96 227.96 485.37 227.59 485.51C227.21 485.65 226.8 485.46 226.66 485.08Z" fill="#40B7E2"/>
<path d="M221.75 471.1L220.26 466.39C220.13 465.99 220.35 465.57 220.75 465.44C221.15 465.31 221.57 465.53 221.7 465.93V465.94L223.17 470.63V470.64C223.29 471.03 223.07 471.45 222.68 471.58C222.3 471.71 221.88 471.5 221.75 471.1Z" fill="#40B7E2"/>
<path d="M217.59 456.86L216.43 452.05C216.33 451.63 216.59 451.21 217 451.11C217.42 451.01 217.84 451.27 217.94 451.68V451.7L219.07 456.48V456.5C219.17 456.91 218.91 457.33 218.5 457.43C218.11 457.53 217.69 457.27 217.59 456.86Z" fill="#40B7E2"/>
<path d="M214.51 442.33L213.75 437.44C213.68 437 213.98 436.59 214.42 436.53C214.86 436.46 215.27 436.76 215.33 437.2V437.22L216.07 442.07V442.09C216.14 442.52 215.84 442.93 215.41 442.99C214.98 443.06 214.58 442.77 214.51 442.33Z" fill="#40B7E2"/>
<path d="M212.65 427.59L212.31 422.65C212.28 422.2 212.62 421.8 213.07 421.77C213.52 421.74 213.92 422.08 213.95 422.53V422.55L214.27 427.45V427.47C214.3 427.92 213.96 428.31 213.51 428.34C213.07 428.38 212.68 428.04 212.65 427.59Z" fill="#40B7E2"/>
<path d="M212.07 412.75L212.15 407.8C212.16 407.33 212.54 406.96 213.01 406.97C213.48 406.98 213.85 407.36 213.84 407.83V407.85L213.75 412.76V412.78C213.74 413.24 213.36 413.61 212.9 413.6C212.42 413.59 212.06 413.21 212.07 412.75Z" fill="#40B7E2"/>
<path d="M212.7 397.91L213.17 392.98C213.22 392.5 213.64 392.15 214.12 392.2C214.6 392.25 214.95 392.67 214.9 393.15V393.17L214.42 398.05V398.07C214.37 398.54 213.95 398.89 213.48 398.84C213 398.8 212.66 398.38 212.7 397.91Z" fill="#40B7E2"/>
<path d="M214.48 383.16L215.31 378.28C215.39 377.8 215.85 377.47 216.34 377.55C216.82 377.63 217.15 378.09 217.07 378.58V378.6L216.24 383.44V383.46C216.16 383.94 215.7 384.26 215.22 384.18C214.72 384.1 214.4 383.64 214.48 383.16Z" fill="#40B7E2"/>
<path d="M217.29 368.58L218.43 363.8C218.55 363.31 219.04 363.01 219.53 363.12C220.02 363.24 220.32 363.73 220.21 364.22V364.24L219.07 368.98V369C218.95 369.49 218.46 369.78 217.98 369.67C217.47 369.55 217.17 369.07 217.29 368.58Z" fill="#40B7E2"/>
<path d="M221.07 354.25L222.59 349.53C222.75 349.04 223.27 348.77 223.77 348.93C224.26 349.09 224.53 349.61 224.37 350.11L224.36 350.13L222.85 354.8L222.84 354.82C222.68 355.31 222.16 355.57 221.67 355.42C221.18 355.26 220.91 354.74 221.07 354.25Z" fill="#40B7E2"/>
<path d="M225.99 340.23L227.88 335.65C228.08 335.16 228.64 334.93 229.13 335.13C229.62 335.33 229.85 335.89 229.65 336.38L229.64 336.4L227.76 340.93L227.75 340.95C227.55 341.43 226.99 341.66 226.51 341.46C226.02 341.26 225.79 340.71 225.99 340.23Z" fill="#40B7E2"/>
<path d="M232.02 326.64L234.27 322.22C234.52 321.74 235.1 321.55 235.59 321.79C236.07 322.03 236.26 322.62 236.02 323.11L236.01 323.13L233.77 327.5L233.76 327.52C233.52 328 232.93 328.19 232.45 327.94C231.97 327.7 231.78 327.12 232.02 326.64Z" fill="#40B7E2"/>
<path d="M239.1 313.57L241.68 309.34C241.97 308.87 242.58 308.72 243.06 309.01C243.53 309.3 243.68 309.91 243.39 310.39L243.38 310.41L240.81 314.59L240.8 314.61C240.51 315.08 239.9 315.22 239.43 314.94C238.96 314.65 238.81 314.04 239.1 313.57Z" fill="#40B7E2"/>
<path d="M247.16 301.08L250.05 297.06C250.38 296.6 251.02 296.5 251.48 296.83C251.94 297.16 252.04 297.8 251.71 298.26L251.7 298.28L248.82 302.25L248.81 302.27C248.48 302.72 247.85 302.83 247.39 302.5C246.94 302.17 246.84 301.54 247.16 301.08Z" fill="#40B7E2"/>
<path d="M256.14 289.24L259.32 285.44C259.68 285 260.33 284.95 260.77 285.31C261.21 285.67 261.26 286.32 260.9 286.76L260.88 286.78L257.73 290.54L257.71 290.56C257.35 290.99 256.7 291.05 256.26 290.69C255.84 290.32 255.78 289.67 256.14 289.24Z" fill="#40B7E2"/>
<path d="M265.95 278.07L269.39 274.5C269.79 274.09 270.44 274.08 270.85 274.47C271.26 274.87 271.27 275.52 270.88 275.93L270.86 275.95L267.45 279.48L267.43 279.5C267.03 279.91 266.38 279.92 265.97 279.53C265.57 279.14 265.56 278.48 265.95 278.07Z" fill="#40B7E2"/>
<path d="M276.51 267.62L280.18 264.3C280.61 263.92 281.26 263.95 281.65 264.37C282.03 264.8 282 265.45 281.58 265.84L281.56 265.86L277.92 269.15L277.9 269.17C277.48 269.55 276.82 269.52 276.44 269.1C276.05 268.66 276.09 268 276.51 267.62Z" fill="#40B7E2"/>
<path d="M287.74 257.89L291.62 254.81C292.07 254.45 292.73 254.53 293.09 254.98C293.45 255.43 293.37 256.09 292.92 256.45L292.9 256.46L289.05 259.51L289.03 259.52C288.58 259.88 287.92 259.8 287.57 259.35C287.21 258.9 287.29 258.25 287.74 257.89Z" fill="#40B7E2"/>
<path d="M299.57 248.91L303.64 246.08C304.12 245.75 304.77 245.87 305.1 246.34C305.43 246.82 305.31 247.47 304.84 247.8L304.82 247.81L300.79 250.61L300.77 250.62C300.3 250.95 299.64 250.83 299.31 250.36C298.98 249.89 299.1 249.24 299.57 248.91Z" fill="#40B7E2"/>
<path d="M311.94 240.68L316.17 238.11C316.67 237.81 317.31 237.97 317.62 238.46C317.92 238.96 317.76 239.6 317.27 239.91L317.25 239.92L313.05 242.47L313.03 242.48C312.53 242.78 311.89 242.62 311.59 242.13C311.29 241.63 311.44 240.98 311.94 240.68Z" fill="#40B7E2"/>
<path d="M324.79 233.23L329.17 230.92C329.69 230.65 330.33 230.84 330.6 231.36C330.87 231.88 330.68 232.52 330.16 232.79L330.14 232.8L325.8 235.09L325.78 235.1C325.26 235.37 324.62 235.17 324.35 234.66C324.07 234.14 324.27 233.5 324.79 233.23Z" fill="#40B7E2"/>
<path d="M338.05 226.55L342.56 224.5C343.09 224.26 343.72 224.49 343.97 225.03C344.21 225.56 343.98 226.19 343.44 226.44L343.42 226.45L338.95 228.48L338.93 228.49C338.4 228.73 337.77 228.5 337.53 227.96C337.28 227.42 337.52 226.79 338.05 226.55Z" fill="#40B7E2"/>
<path d="M351.69 220.68L356.31 218.9C356.86 218.69 357.48 218.96 357.69 219.51C357.9 220.06 357.63 220.68 357.08 220.89L357.06 220.9L352.48 222.66L352.46 222.67C351.91 222.88 351.29 222.61 351.08 222.06C350.87 221.5 351.15 220.89 351.69 220.68Z" fill="#40B7E2"/>
<path d="M365.66 215.62L370.38 214.12C370.94 213.94 371.55 214.25 371.73 214.82C371.91 215.38 371.6 215.99 371.03 216.17L371.01 216.18L366.33 217.66L366.31 217.67C365.75 217.85 365.14 217.54 364.97 216.97C364.8 216.4 365.1 215.8 365.66 215.62Z" fill="#40B7E2"/>
<path d="M379.9 211.41L384.7 210.2C385.28 210.05 385.86 210.4 386.01 210.98C386.16 211.56 385.81 212.14 385.23 212.29L385.21 212.3L380.45 213.5L380.43 213.51C379.85 213.65 379.27 213.3 379.12 212.73C378.98 212.14 379.33 211.55 379.9 211.41Z" fill="#40B7E2"/>
<path d="M394.38 208.07L399.25 207.16C399.84 207.05 400.4 207.44 400.51 208.03C400.62 208.62 400.23 209.18 399.64 209.29H399.62L394.79 210.19H394.77C394.18 210.3 393.62 209.91 393.51 209.32C393.41 208.75 393.8 208.18 394.38 208.07Z" fill="#40B7E2"/>
<path d="M409.04 205.66L413.96 205.07C414.56 205 415.1 205.42 415.17 206.02C415.24 206.62 414.82 207.16 414.22 207.23H414.2L409.33 207.81H409.31C408.71 207.88 408.17 207.46 408.1 206.86C408.02 206.28 408.45 205.74 409.04 205.66Z" fill="#40B7E2"/>
<path d="M423.84 204.23L428.79 203.98C429.39 203.95 429.91 204.41 429.94 205.02C429.97 205.62 429.51 206.14 428.9 206.17H428.87L423.97 206.41H423.94C423.34 206.44 422.83 205.98 422.8 205.37C422.77 204.78 423.24 204.26 423.84 204.23Z" fill="#40B7E2"/>
<path d="M438.7 203.85L443.66 203.97C444.27 203.98 444.75 204.49 444.73 205.09C444.72 205.7 444.21 206.18 443.61 206.16H443.58L438.68 206.04H438.65C438.05 206.03 437.57 205.52 437.58 204.92C437.6 204.31 438.1 203.83 438.7 203.85Z" fill="#40B7E2"/>
<path d="M453.56 204.58C455.21 204.74 456.85 204.9 458.49 205.09C459.09 205.16 459.53 205.71 459.46 206.31C459.39 206.91 458.84 207.35 458.24 207.28C456.61 207.09 454.99 206.93 453.36 206.77H453.34C452.74 206.71 452.29 206.17 452.35 205.57C452.42 204.97 452.95 204.52 453.56 204.58Z" fill="#40B7E2"/>
<path d="M468.31 206.44L473.19 207.28C473.79 207.38 474.2 207.96 474.09 208.56C473.99 209.16 473.41 209.57 472.81 209.46H472.78L467.95 208.62H467.92C467.32 208.52 466.92 207.94 467.02 207.34C467.14 206.74 467.71 206.34 468.31 206.44Z" fill="#40B7E2"/>
<path d="M482.89 209.32L487.7 210.51C488.3 210.66 488.66 211.26 488.51 211.86C488.36 212.46 487.76 212.82 487.16 212.67L487.13 212.66L482.37 211.48L482.34 211.47C481.74 211.32 481.38 210.72 481.53 210.13C481.68 209.54 482.3 209.17 482.89 209.32Z" fill="#40B7E2"/>
<path d="M497.24 213.22L501.95 214.75C502.54 214.94 502.86 215.57 502.67 216.16C502.48 216.75 501.85 217.07 501.26 216.88L501.23 216.87L496.57 215.35L496.54 215.34C495.95 215.15 495.63 214.52 495.83 213.93C496.03 213.35 496.66 213.03 497.24 213.22Z" fill="#40B7E2"/>
<path d="M511.27 218.16L515.86 220.03C516.43 220.26 516.71 220.92 516.47 221.49C516.24 222.06 515.58 222.34 515.01 222.1L514.98 222.09L510.44 220.24L510.41 220.23C509.84 220 509.56 219.34 509.8 218.77C510.04 218.2 510.69 217.93 511.27 218.16Z" fill="#40B7E2"/>
<path d="M524.89 224.11L529.33 226.31C529.89 226.59 530.12 227.26 529.84 227.82C529.56 228.38 528.89 228.61 528.33 228.33L528.31 228.32L523.92 226.14L523.9 226.13C523.34 225.85 523.12 225.18 523.39 224.62C523.66 224.06 524.34 223.83 524.89 224.11Z" fill="#40B7E2"/>
<path d="M538.06 231.01L542.34 233.51C542.88 233.82 543.06 234.52 542.75 235.06C542.44 235.6 541.74 235.78 541.2 235.47L541.18 235.46L536.95 232.98L536.93 232.97C536.39 232.66 536.21 231.96 536.53 231.42C536.83 230.88 537.53 230.69 538.06 231.01Z" fill="#40B7E2"/>
<path d="M550.73 238.78L554.84 241.55C555.36 241.9 555.5 242.61 555.15 243.13C554.8 243.65 554.09 243.79 553.57 243.44L553.55 243.43L549.48 240.68L549.46 240.67C548.94 240.32 548.8 239.61 549.16 239.1C549.51 238.57 550.21 238.43 550.73 238.78Z" fill="#40B7E2"/>
<path d="M562.88 247.34L566.81 250.35C567.31 250.73 567.41 251.45 567.02 251.95C566.64 252.45 565.92 252.55 565.42 252.16L565.4 252.15L561.5 249.16L561.48 249.15C560.98 248.77 560.89 248.05 561.27 247.55C561.66 247.06 562.38 246.96 562.88 247.34Z" fill="#40B7E2"/>
<path d="M574.5 256.59L578.26 259.81C578.74 260.22 578.8 260.94 578.39 261.43C577.98 261.91 577.26 261.97 576.77 261.56L576.76 261.55L573.03 258.36L573.02 258.35C572.54 257.94 572.48 257.22 572.89 256.74C573.3 256.23 574.02 256.18 574.5 256.59Z" fill="#40B7E2"/>
<path d="M585.63 266.42L589.23 269.81C589.69 270.25 589.72 270.97 589.28 271.44C588.84 271.9 588.12 271.93 587.65 271.49L587.64 271.48L584.06 268.11L584.05 268.1C583.59 267.67 583.57 266.94 584 266.48C584.44 266 585.16 265.98 585.63 266.42Z" fill="#40B7E2"/>
<path d="M596.29 276.73L599.75 280.26C600.2 280.72 600.19 281.45 599.73 281.89C599.27 282.34 598.54 282.33 598.1 281.87L598.09 281.86L594.65 278.35L594.64 278.34C594.19 277.88 594.2 277.15 594.66 276.71C595.12 276.27 595.85 276.28 596.29 276.73Z" fill="#40B7E2"/>
<path d="M606.55 287.44L609.89 291.08C610.32 291.55 610.29 292.29 609.82 292.72C609.35 293.15 608.61 293.12 608.18 292.65L608.17 292.64L604.85 289.01L604.84 289C604.41 288.53 604.44 287.8 604.91 287.36C605.39 286.93 606.12 286.97 606.55 287.44Z" fill="#40B7E2"/>
<path d="M616.48 298.45L619.73 302.17C620.15 302.66 620.1 303.39 619.62 303.81C619.14 304.23 618.4 304.18 617.98 303.7L617.97 303.69L614.74 299.98L614.73 299.97C614.31 299.49 614.36 298.75 614.84 298.33C615.32 297.91 616.06 297.96 616.48 298.45Z" fill="#40B7E2"/>
<path d="M626.14 309.68L629.32 313.46C629.74 313.95 629.67 314.69 629.18 315.11C628.69 315.53 627.95 315.46 627.53 314.97L624.36 311.2C623.95 310.71 624.01 309.97 624.5 309.55C624.99 309.12 625.72 309.18 626.14 309.68Z" fill="#40B7E2"/>
<path d="M635.62 321.05L638.76 324.85C639.17 325.35 639.1 326.09 638.6 326.5C638.1 326.91 637.36 326.84 636.95 326.34L633.82 322.54C633.41 322.04 633.48 321.3 633.98 320.89C634.47 320.48 635.21 320.55 635.62 321.05Z" fill="#40B7E2"/>
<path d="M645.03 332.46L648.17 336.26C648.59 336.76 648.52 337.5 648.01 337.92C647.51 338.34 646.77 338.27 646.35 337.76L643.21 333.95C642.8 333.45 642.87 332.71 643.37 332.29C643.87 331.89 644.61 331.96 645.03 332.46Z" fill="#40B7E2"/>
<path d="M654.47 343.83L657.65 347.59L657.66 347.6C658.08 348.1 658.02 348.85 657.52 349.27C657.02 349.69 656.27 349.63 655.85 349.13L652.66 345.36C652.24 344.86 652.3 344.11 652.8 343.69C653.3 343.27 654.04 343.33 654.47 343.83Z" fill="#40B7E2"/>
<path d="M664.09 355.04L667.36 358.71L667.37 358.72C667.81 359.21 667.76 359.96 667.27 360.4C666.78 360.84 666.03 360.79 665.59 360.3L662.3 356.61C661.86 356.12 661.91 355.37 662.4 354.93C662.89 354.49 663.64 354.54 664.09 355.04Z" fill="#40B7E2"/>
<path d="M674.04 365.91L677.47 369.42L677.49 369.44C677.95 369.91 677.94 370.67 677.47 371.13C677 371.59 676.24 371.58 675.78 371.11L672.32 367.56C671.86 367.09 671.87 366.33 672.34 365.87C672.81 365.41 673.57 365.42 674.03 365.89L674.04 365.91Z" fill="#40B7E2"/>
<path d="M684.53 376.22L688.19 379.48L688.22 379.5C688.71 379.94 688.76 380.7 688.32 381.19C687.88 381.68 687.12 381.73 686.63 381.29L682.92 377.99C682.43 377.55 682.38 376.79 682.82 376.3C683.26 375.81 684.02 375.76 684.51 376.2L684.53 376.22Z" fill="#40B7E2"/>
<path d="M695.79 385.61L699.76 388.45L699.8 388.48C700.34 388.87 700.47 389.62 700.08 390.16C699.69 390.7 698.94 390.83 698.4 390.44L694.35 387.54C693.81 387.15 693.69 386.4 694.07 385.86C694.46 385.32 695.21 385.2 695.75 385.58L695.79 385.61Z" fill="#40B7E2"/>
<path d="M708.06 393.54C709.49 394.31 710.93 395.04 712.4 395.73C713 396.01 713.27 396.73 712.98 397.34C712.7 397.94 711.98 398.21 711.37 397.92C709.86 397.21 708.37 396.46 706.9 395.67C706.31 395.35 706.1 394.62 706.41 394.03C706.74 393.44 707.48 393.22 708.06 393.54Z" fill="#40B7E2"/>
<path d="M721.43 399.22C722.97 399.69 724.53 400.11 726.1 400.47C726.75 400.62 727.16 401.27 727.01 401.92C726.86 402.57 726.21 402.98 725.56 402.83C723.93 402.46 722.31 402.02 720.71 401.53C720.07 401.33 719.71 400.65 719.91 400.02C720.12 399.38 720.79 399.02 721.43 399.22Z" fill="#40B7E2"/>
<path d="M735.67 401.86C737.28 401.97 738.89 402.01 740.5 401.99C741.17 401.98 741.72 402.52 741.73 403.19C741.74 403.86 741.2 404.41 740.53 404.42C738.85 404.44 737.18 404.39 735.51 404.28C734.84 404.24 734.33 403.66 734.38 402.99C734.42 402.32 734.99 401.82 735.67 401.86Z" fill="#40B7E2"/>
<path d="M749.69 400.18C751.16 399.61 752.58 398.91 753.94 398.11C754.52 397.77 755.27 397.96 755.61 398.54C755.95 399.12 755.76 399.87 755.18 400.21C753.71 401.08 752.17 401.83 750.57 402.45C749.94 402.69 749.23 402.38 748.99 401.75C748.75 401.13 749.07 400.43 749.69 400.18Z" fill="#40B7E2"/>
<path d="M761.35 392.17C762.45 391.02 763.48 389.79 764.43 388.52C764.84 387.98 765.61 387.87 766.15 388.27C766.69 388.68 766.8 389.45 766.4 389.99C765.39 391.34 764.29 392.64 763.12 393.87C762.65 394.36 761.88 394.38 761.39 393.91C760.9 393.44 760.88 392.66 761.35 392.17Z" fill="#40B7E2"/>
<path d="M769.27 380.26C769.92 378.8 770.49 377.3 770.98 375.78C771.19 375.13 771.88 374.78 772.53 374.98C773.18 375.19 773.54 375.88 773.33 376.52C772.82 378.13 772.21 379.71 771.53 381.25C771.25 381.87 770.53 382.15 769.9 381.87C769.27 381.61 768.99 380.88 769.27 380.26Z" fill="#40B7E2"/>
<path d="M772.8 366.43C772.9 364.84 772.9 363.23 772.84 361.62C772.82 360.97 773.33 360.42 773.98 360.4C774.63 360.38 775.17 360.88 775.2 361.53C775.27 363.2 775.28 364.88 775.19 366.57C775.15 367.23 774.59 367.74 773.93 367.7C773.27 367.66 772.76 367.1 772.8 366.44V366.43Z" fill="#40B7E2"/>
<path d="M771.95 351.92L771.19 347.09L771.18 347.05C771.08 346.44 771.5 345.86 772.12 345.76C772.73 345.66 773.3 346.08 773.4 346.69L774.21 351.59C774.31 352.21 773.89 352.8 773.27 352.9C772.65 353 772.06 352.58 771.96 351.96V351.95L771.95 351.92Z" fill="#40B7E2"/>
<path d="M769.26 337.49L768.12 332.72L768.11 332.7C767.98 332.16 768.32 331.61 768.86 331.48C769.4 331.35 769.93 331.68 770.07 332.21L771.32 337.01C771.47 337.58 771.13 338.16 770.56 338.31C769.99 338.46 769.41 338.12 769.26 337.55C769.26 337.54 769.26 337.54 769.26 337.53V337.49Z" fill="#40B7E2"/>
<path d="M765.49 323.26L764 318.59L763.99 318.57C763.85 318.12 764.09 317.64 764.55 317.49C765 317.35 765.47 317.59 765.62 318.03L767.23 322.72C767.39 323.2 767.14 323.71 766.66 323.88C766.18 324.04 765.67 323.79 765.5 323.31V323.3L765.49 323.26Z" fill="#40B7E2"/>
<path d="M760.63 309.38C760.02 307.87 759.37 306.37 758.68 304.89C758.53 304.58 758.67 304.2 758.98 304.06C759.29 303.92 759.65 304.05 759.8 304.35C760.55 305.83 761.25 307.33 761.92 308.84C762.08 309.2 761.92 309.62 761.56 309.78C761.2 309.94 760.78 309.78 760.62 309.42C760.64 309.39 760.63 309.38 760.63 309.38Z" fill="#40B7E2"/>
<path d="M753.99 275.09L745.73 287.46L740.9 276.55L753.99 275.09Z" fill="#40B7E2"/>
<path d="M703.11 230.85L716.95 282.46C717.21 283.45 717.87 284.29 718.77 284.78C719.67 285.27 720.72 285.38 721.7 285.08L772.99 269.24C773.58 269.06 774 268.54 774.05 267.93C774.1 267.32 773.78 266.73 773.23 266.46L703.11 230.85Z" fill="#40B7E2"/>
<path d="M753.98 275.09L703.11 230.85L745.71 277.67L743.57 281.2L753.98 275.09Z" fill="#39A4C0"/>
<path d="M740.8 279.16L745.73 287.46L745.71 277.67L740.8 279.16Z" fill="#40B7E2"/>
<defs>
<filter id="filter0_d" x="0" y="0" width="393.34" height="308.88" filterUnits="userSpaceOnUse" color-interpolation-filters="sRGB">
<feFlood flood-opacity="0" result="BackgroundImageFix"/>
<feColorMatrix in="SourceAlpha" type="matrix" values="0 0 0 0 0 0 0 0 0 0 0 0 0 0 0 0 0 0 127 0"/>
<feOffset dx="4" dy="4"/>
<feGaussianBlur stdDeviation="2"/>
<feColorMatrix type="matrix" values="0 0 0 0 0 0 0 0 0 0 0 0 0 0 0 0 0 0 0.25 0"/>
<feBlend mode="normal" in2="BackgroundImageFix" result="effect1_dropShadow"/>
<feBlend mode="normal" in="SourceGraphic" in2="effect1_dropShadow" result="shape"/>
</filter>
</defs>
</svg>
