<svg width="21" height="22" viewBox="0 0 21 22" fill="none" xmlns="http://www.w3.org/2000/svg">
<path d="M5.01953 21.39C4.87953 21.29 4.69957 21.27 4.55957 21.16C4.18957 20.88 3.99951 20.52 3.99951 20.05C3.99951 18.22 3.99951 16.38 3.99951 14.55C3.99951 11.67 3.99951 8.78997 3.99951 5.90997C3.99951 5.04997 4.53954 4.51001 5.39954 4.51001C10.0895 4.51001 14.7895 4.52 19.4795 4.5C20.2795 4.5 20.8895 5.10997 20.8895 5.90997C20.8695 10.6 20.8795 15.3 20.8795 19.99C20.8795 20.73 20.5495 21.16 19.8495 21.36C19.8395 21.36 19.8395 21.38 19.8295 21.39C14.8995 21.39 9.95953 21.39 5.01953 21.39ZM12.4495 5.79999C10.1395 5.79999 7.81952 5.79999 5.50952 5.79999C5.33952 5.79999 5.29956 5.84001 5.29956 6.01001C5.30956 10.64 5.30956 15.26 5.29956 19.89C5.29956 20.06 5.33952 20.1 5.50952 20.1C10.1395 20.09 14.7595 20.09 19.3895 20.1C19.5595 20.1 19.5995 20.06 19.5995 19.89C19.5895 15.26 19.5895 10.64 19.5995 6.01001C19.5995 5.84001 19.5595 5.79999 19.3895 5.79999C17.0795 5.80999 14.7595 5.79999 12.4495 5.79999Z" fill="#616160"/>
<path d="M0.109619 1.62C0.209619 1.48 0.2296 1.29997 0.3396 1.15997C0.6196 0.789973 0.979585 0.599976 1.44958 0.599976C3.27958 0.599976 5.11959 0.599976 6.94958 0.599976C9.82959 0.599976 12.7096 0.599976 15.5896 0.599976C16.4496 0.599976 16.9896 1.14 16.9896 2C16.9896 2.35 16.9896 2.69999 16.9896 3.04999C16.9896 3.15999 16.9596 3.20001 16.8496 3.20001C16.5096 3.19001 16.1696 3.19001 15.8396 3.20001C15.7296 3.20001 15.6896 3.17 15.6896 3.06C15.6996 2.74 15.6796 2.41003 15.6996 2.09003C15.7096 1.94003 15.6596 1.90002 15.5096 1.90002C13.8296 1.91002 12.1596 1.90002 10.4796 1.90002C7.51961 1.90002 4.56962 1.90002 1.60962 1.90002C1.43962 1.90002 1.39966 1.93999 1.39966 2.10999C1.40966 6.73999 1.40966 11.36 1.39966 15.99C1.39966 16.15 1.42961 16.21 1.59961 16.2C1.91961 16.18 2.24958 16.2 2.56958 16.19C2.65958 16.19 2.69958 16.21 2.69958 16.31C2.68958 16.66 2.68958 17.01 2.69958 17.36C2.69958 17.46 2.67959 17.49 2.57959 17.49C2.14959 17.48 1.72968 17.5 1.29968 17.48C0.819683 17.47 0.339687 17.1 0.179688 16.64C0.159688 16.58 0.169609 16.51 0.0996094 16.47C0.109609 11.53 0.109619 6.58 0.109619 1.62Z" fill="#616160"/>
<path d="M12.4597 16.84C10.7597 16.84 9.04969 16.84 7.34969 16.84C7.02969 16.84 6.78974 16.74 6.65974 16.44C6.52974 16.13 6.63969 15.88 6.85969 15.66C8.10969 14.41 9.3697 13.16 10.6197 11.9C10.9697 11.55 11.3198 11.55 11.6798 11.9C12.3298 12.54 12.9697 13.19 13.6097 13.84C13.7197 13.95 13.7697 13.95 13.8697 13.84C14.0897 13.6 14.3198 13.38 14.5598 13.15C14.8498 12.87 15.2197 12.85 15.5097 13.14C16.3797 14 17.2297 14.86 18.0897 15.72C18.2997 15.93 18.3397 16.18 18.2297 16.45C18.1097 16.71 17.8997 16.84 17.5997 16.84C15.8997 16.84 14.1797 16.84 12.4597 16.84Z" fill="#616160"/>
<path d="M14.3994 10.35C14.3994 9.62998 14.9793 9.04999 15.6993 9.04999C16.4293 9.04999 17.0094 9.62999 16.9994 10.36C16.9994 11.08 16.4093 11.65 15.6893 11.65C14.9693 11.65 14.3994 11.07 14.3994 10.35Z" fill="#616160"/>
</svg>
