<svg width="24" height="24" viewBox="0 0 24 24" fill="none" xmlns="http://www.w3.org/2000/svg">
<path d="M23.12 10.51C23.1 10.79 23.18 11.05 23.2 11.32C23.48 14.25 22.73 16.9 20.99 19.26C19.91 20.72 18.56 21.86 16.92 22.63C13.61 24.18 10.28 24.19 6.97 22.6C4.84 21.57 3.21002 19.99 2.06002 17.91C1.29002 16.52 0.849995 15.02 0.719995 13.44C0.609995 12.15 0.720003 10.89 1.04 9.63997C1.22 8.94998 1.66002 8.50996 2.37002 8.40996C3.03002 8.30996 3.56002 8.56996 3.93002 9.12996C4.16002 9.46996 4.24005 9.83995 4.15005 10.24C4.00005 10.9399 3.85 11.6399 3.85 12.3599C3.85 14.6599 4.64005 16.64 6.28005 18.26C7.76005 19.72 9.56004 20.4999 11.64 20.5799C13.87 20.6599 15.82 19.94 17.46 18.43C19.01 16.99 19.8601 15.2 20.0301 13.09C20.1301 11.85 19.94 10.65 19.48 9.49996C19.01 8.30996 18.28 7.29995 17.31 6.42995C17.24 6.83995 17.18 7.22994 17.11 7.60994C17.1 7.69994 17.08 7.77995 17.05 7.86995C16.93 8.28995 16.62 8.45995 16.19 8.35995C15.87 8.28995 15.61 8.09995 15.37 7.89995C13.91 6.69995 12.45 5.49997 10.98 4.28997C10.78 4.11997 10.58 3.93996 10.48 3.68996C10.3 3.23996 10.47 2.81997 10.93 2.56997C11.32 2.34997 11.76 2.22997 12.17 2.06997C13.05 1.72997 13.93 1.39995 14.8 1.07995C15.49 0.819946 16.18 0.579967 16.87 0.319967C17 0.269967 17.1401 0.249959 17.2801 0.249959C17.8301 0.229959 18.18 0.579974 18.15 1.13997C18.12 1.66997 17.99 2.18996 17.91 2.71996C17.89 2.84996 17.91 2.90997 18.02 2.97997C19.83 4.13997 21.2 5.69997 22.14 7.63997C22.31 7.98997 22.47 8.34996 22.58 8.71996C22.59 8.75996 22.59 8.80997 22.65 8.81997C22.82 9.36997 22.97 9.93997 23.12 10.51Z" fill="#9C9FA0"/>
</svg>
