<svg width="398" height="70" viewBox="0 0 398 70" fill="none" xmlns="http://www.w3.org/2000/svg">
<path d="M397.04 29.87C396.59 29.86 396.15 29.87 395.7 29.84C395.48 29.83 395.39 29.9 395.33 30.1C395.27 30.33 395.19 30.56 395.09 30.78C394.83 31.37 394.82 31.37 395.32 31.81C395.97 32.38 395.97 32.38 395.41 33.01C395.12 33.34 394.81 33.67 394.53 34.01C394.39 34.18 394.29 34.21 394.12 34.04C393.83 33.76 393.56 33.37 393.21 33.27C392.87 33.18 392.58 33.66 392.2 33.75C391.75 33.86 391.7 34.13 391.8 34.53C391.88 34.83 392.01 35.21 391.89 35.43C391.76 35.67 391.34 35.58 391.04 35.63C390.62 35.7 390.19 35.76 389.76 35.84C389.57 35.87 389.5 35.83 389.48 35.63C389.45 35.35 389.34 35.07 389.36 34.79C389.38 34.39 389.18 34.28 388.84 34.26C388.68 34.25 388.52 34.22 388.36 34.18C387.67 34 387.67 34 387.27 34.63C386.85 35.31 386.85 35.31 386.16 34.88C385.77 34.64 385.39 34.39 384.99 34.16C384.82 34.06 384.76 33.98 384.88 33.79C385.11 33.44 385.49 33.08 385.48 32.72C385.47 32.4 385.01 32.1 384.81 31.76C384.62 31.45 384.45 31.39 384.11 31.53C383.78 31.66 383.37 31.95 383.11 31.8C382.88 31.67 382.85 31.19 382.74 30.86C382.6 30.44 382.28 29.95 382.39 29.61C382.5 29.28 383.13 29.29 383.53 29.15C383.73 29.08 383.76 28.98 383.76 28.8C383.74 28.42 383.72 28.04 383.81 27.67C383.86 27.47 383.78 27.38 383.59 27.32C383.26 27.21 382.94 27.06 382.62 26.94C382.44 26.87 382.41 26.79 382.48 26.61C382.73 26 382.97 25.39 383.21 24.78C383.28 24.6 383.36 24.57 383.54 24.65C383.83 24.79 384.15 24.87 384.43 25.01C384.68 25.14 384.82 25.07 384.96 24.85C385.13 24.57 385.35 24.33 385.61 24.13C385.83 23.96 385.81 23.81 385.69 23.59C385.5 23.24 385.09 22.85 385.21 22.54C385.31 22.26 385.83 22.13 386.18 21.96C386.55 21.78 386.94 21.34 387.27 21.46C387.56 21.57 387.7 22.1 387.87 22.46C387.97 22.67 388.06 22.72 388.3 22.66C388.62 22.57 388.96 22.5 389.29 22.51C389.62 22.52 389.69 22.35 389.73 22.1C389.78 21.82 389.87 21.55 389.89 21.27C389.91 21.03 390 20.97 390.22 21.02C390.86 21.16 391.51 21.3 392.15 21.42C392.36 21.46 392.34 21.57 392.31 21.71C392.24 22.04 392.17 22.37 392.09 22.69C392.04 22.9 392.08 23.05 392.3 23.13C392.47 23.2 392.63 23.3 392.8 23.39C393.03 23.52 393.21 23.83 393.46 23.79C393.7 23.75 393.9 23.49 394.11 23.33C394.66 22.9 394.66 22.89 395.1 23.45C395.39 23.82 395.68 24.2 395.98 24.56C396.14 24.75 396.19 24.87 395.94 25.03C395.66 25.21 395.41 25.45 395.14 25.65C395.01 25.75 394.98 25.83 395.05 25.99C395.22 26.36 395.36 26.73 395.43 27.13C395.46 27.3 395.55 27.36 395.74 27.36C396.17 27.36 396.6 27.4 397.03 27.43C397.04 28.25 397.04 29.06 397.04 29.87ZM392.76 28.45C392.76 26.74 391.4 25.34 389.72 25.34C387.98 25.34 386.59 26.7 386.58 28.4C386.58 30.17 387.92 31.51 389.68 31.52C391.4 31.51 392.75 30.16 392.76 28.45Z" fill="#40B7E2"/>
<path d="M368.71 15.4601C369.33 15.4601 369.95 15.47 370.57 15.45C370.8 15.44 370.87 15.51 370.86 15.74C370.85 16.46 370.87 17.17 370.85 17.89C370.84 18.12 370.9 18.2301 371.13 18.2801C371.93 18.4401 372.68 18.7301 373.39 19.1001C373.57 19.2001 373.67 19.16 373.79 19.01C374.25 18.44 374.73 17.9 375.19 17.33C375.33 17.15 375.42 17.1401 375.6 17.2901C376.54 18.1001 377.5 18.89 378.45 19.68C378.65 19.84 378.68 19.9501 378.5 20.1501C378.03 20.6701 377.6 21.23 377.14 21.75C376.99 21.92 376.96 22.0301 377.11 22.2201C377.6 22.8501 378 23.54 378.3 24.27C378.39 24.5 378.5 24.5201 378.72 24.4701C379.43 24.3301 380.15 24.2301 380.87 24.0901C381.06 24.0601 381.12 24.0801 381.16 24.2801C381.37 25.5301 381.58 26.77 381.82 28.01C381.87 28.28 381.78 28.34 381.57 28.37C380.89 28.48 380.22 28.6001 379.54 28.7101C379.28 28.7501 379.14 28.84 379.13 29.14C379.12 29.9 378.97 30.64 378.75 31.36C378.68 31.58 378.71 31.7101 378.93 31.8401C379.56 32.1801 380.16 32.5601 380.79 32.9001C381 33.0101 381.01 33.11 380.9 33.3C380.26 34.39 379.63 35.48 379 36.58C378.9 36.76 378.82 36.7801 378.64 36.6701C378.01 36.2901 377.36 35.93 376.72 35.55C376.55 35.45 376.46 35.4501 376.32 35.6001C375.77 36.2001 375.15 36.7201 374.47 37.1601C374.28 37.2801 374.27 37.3901 374.35 37.5901C374.61 38.2501 374.83 38.9301 375.09 39.5901C375.17 39.8001 375.18 39.9 374.92 39.99C373.73 40.4 372.55 40.8401 371.36 41.2801C371.16 41.3601 371.09 41.33 371.02 41.12C370.79 40.43 370.53 39.76 370.29 39.08C370.22 38.89 370.14 38.8 369.92 38.83C369.11 38.94 368.3 38.94 367.5 38.83C367.29 38.8 367.21 38.88 367.15 39.06C366.91 39.74 366.65 40.42 366.42 41.11C366.35 41.31 366.28 41.3701 366.05 41.2901C364.87 40.8401 363.69 40.41 362.5 40C362.27 39.92 362.26 39.83 362.33 39.63C362.59 38.95 362.83 38.2701 363.08 37.5901C363.15 37.4001 363.13 37.2901 362.94 37.1701C362.26 36.7401 361.66 36.23 361.12 35.64C360.98 35.48 360.87 35.46 360.69 35.58C360.07 35.96 359.43 36.31 358.81 36.68C358.63 36.79 358.53 36.8101 358.41 36.5901C357.79 35.4901 357.16 34.39 356.52 33.3C356.39 33.08 356.47 33.0101 356.64 32.9101C357.26 32.5601 357.87 32.1901 358.49 31.8501C358.69 31.7401 358.75 31.6501 358.67 31.4101C358.43 30.6601 358.3 29.89 358.26 29.11C358.25 28.84 358.13 28.7701 357.91 28.7301C357.23 28.6201 356.56 28.5 355.88 28.39C355.61 28.35 355.54 28.2601 355.6 27.9701C355.83 26.8101 356.02 25.6401 356.21 24.4701C356.26 24.1601 356.34 24.0101 356.71 24.1001C357.38 24.2601 358.06 24.3401 358.73 24.4801C358.93 24.5201 359.02 24.48 359.1 24.3C359.41 23.55 359.81 22.8501 360.31 22.2101C360.45 22.0301 360.42 21.92 360.29 21.76C359.82 21.22 359.37 20.66 358.9 20.12C358.75 19.94 358.71 19.86 358.92 19.69C359.88 18.91 360.83 18.1 361.77 17.3C361.97 17.13 362.07 17.1301 362.24 17.3501C362.67 17.9001 363.14 18.4301 363.58 18.9701C363.72 19.1401 363.83 19.19 364.05 19.08C364.74 18.71 365.47 18.4401 366.24 18.2801C366.49 18.2301 366.55 18.1 366.55 17.86C366.53 17.2 366.57 16.54 366.53 15.88C366.51 15.5 366.64 15.43 366.98 15.45C367.55 15.48 368.13 15.4601 368.71 15.4601ZM368.71 22.9601C365.67 22.9601 363.2 25.42 363.2 28.45C363.2 31.48 365.67 33.94 368.7 33.94C371.75 33.94 374.19 31.5 374.2 28.45C374.2 25.41 371.76 22.9701 368.71 22.9601Z" fill="#40B7E2"/>
<path d="M376.17 43.06C377.12 43.12 377.12 43.12 377.44 42.2C377.47 42.12 377.5 42.05 377.53 41.98C377.92 41.14 377.91 41.14 377.23 40.5C376.99 40.28 376.55 40.1 376.57 39.8C376.59 39.54 376.96 39.31 377.17 39.07C377.55 38.65 377.95 38.24 378.3 37.8C378.51 37.54 378.65 37.57 378.86 37.78C379.17 38.08 379.5 38.36 379.82 38.65C379.95 38.78 380.05 38.83 380.23 38.71C380.68 38.39 381.17 38.14 381.69 37.94C381.84 37.88 381.88 37.81 381.85 37.64C381.76 37.15 381.71 36.65 381.64 36.16C381.62 35.99 381.64 35.9 381.86 35.87C382.72 35.77 383.57 35.66 384.42 35.52C384.68 35.48 384.71 35.55 384.73 35.77C384.78 36.24 384.88 36.7 384.93 37.17C384.95 37.38 385.05 37.45 385.23 37.47C385.77 37.51 386.29 37.63 386.8 37.81C386.97 37.87 387.07 37.8 387.16 37.65C387.4 37.24 387.66 36.85 387.9 36.45C388.01 36.27 388.08 36.21 388.29 36.34C389 36.81 389.72 37.26 390.44 37.69C390.67 37.83 390.66 37.93 390.53 38.13C390.27 38.52 390.03 38.93 389.77 39.32C389.67 39.47 389.67 39.57 389.8 39.7C390.19 40.07 390.52 40.51 390.8 40.97C390.9 41.14 391 41.17 391.19 41.1C391.64 40.93 392.12 40.82 392.57 40.65C392.81 40.56 392.85 40.68 392.9 40.84C393.16 41.66 393.42 42.48 393.7 43.29C393.77 43.5 393.71 43.58 393.52 43.63C393.08 43.76 392.66 43.93 392.22 44.04C391.99 44.1 391.91 44.2 391.93 44.43C391.98 44.94 391.94 45.45 391.86 45.96C391.83 46.16 391.89 46.27 392.1 46.34C392.55 46.5 392.99 46.71 393.44 46.88C393.62 46.94 393.63 47.01 393.57 47.17C393.23 47.99 392.9 48.81 392.58 49.63C392.51 49.81 392.43 49.84 392.25 49.76C391.81 49.56 391.35 49.41 390.91 49.21C390.73 49.13 390.62 49.15 390.51 49.32C390.21 49.75 389.86 50.15 389.45 50.49C389.28 50.64 389.3 50.75 389.4 50.93C389.64 51.35 389.85 51.78 390.09 52.21C390.17 52.35 390.18 52.43 390 52.52C389.2 52.93 388.41 53.36 387.62 53.79C387.45 53.88 387.4 53.8 387.33 53.66C387.12 53.24 386.88 52.83 386.67 52.41C386.57 52.21 386.46 52.12 386.23 52.19C385.72 52.34 385.2 52.41 384.67 52.41C384.49 52.41 384.42 52.46 384.39 52.65C384.31 53.14 384.18 53.62 384.09 54.11C384.05 54.3 384 54.34 383.8 54.3C382.95 54.11 382.09 53.93 381.24 53.76C381.02 53.72 381 53.62 381.04 53.43C381.15 52.96 381.24 52.48 381.35 52.01C381.39 51.84 381.35 51.75 381.19 51.67C380.7 51.44 380.24 51.16 379.83 50.81C379.67 50.68 379.55 50.72 379.41 50.83C379.04 51.13 378.66 51.41 378.3 51.71C378.15 51.84 378.07 51.87 377.93 51.68C377.41 50.99 376.88 50.31 376.34 49.64C376.21 49.48 376.21 49.38 376.38 49.26C376.76 48.98 377.12 48.67 377.5 48.4C377.67 48.28 377.73 48.18 377.63 47.98C377.4 47.51 377.24 47.01 377.15 46.49C377.11 46.29 377.02 46.22 376.83 46.22C376.36 46.21 375.89 46.19 375.41 46.19C375.18 46.19 375.11 46.11 375.12 45.88C375.16 45.03 375.19 44.18 375.21 43.33C375.22 43.1 375.29 43.02 375.52 43.05C375.71 43.05 375.94 43.05 376.17 43.06ZM384.47 48.84C386.61 48.84 388.38 47.04 388.37 44.88C388.36 42.75 386.56 40.97 384.4 40.98C382.26 40.99 380.5 42.78 380.5 44.95C380.51 47.09 382.3 48.84 384.47 48.84Z" fill="#40B7E2"/>
<path d="M332.34 69.13H0V0.77002H332.34C337.16 0.77002 341.07 4.68 341.07 9.5V60.4C341.07 65.22 337.17 69.13 332.34 69.13Z" fill="#40B7E2"/>
<path d="M54.88 37.28H50.33L49.41 40.83H45.98L50.65 25.91H54.7L59.37 40.83H55.8L54.88 37.28ZM54.2 34.65L53.86 33.28C53.45 31.79 53.04 30.03 52.65 28.47H52.56C52.19 30.05 51.81 31.79 51.39 33.28L51.02 34.65H54.2Z" fill="white"/>
<path d="M74.75 37.99V40.1L74.45 45.14H71.45V40.84H63.3V45.14H60.3L60 40.1V37.99H60.69C61.35 37.76 62.13 36.46 62.82 32.84C63.32 30.21 63.58 28.77 64.06 25.91H72.92V37.99H74.75V37.99ZM66.67 28.74C66.35 30.53 66.21 31.44 65.85 33.27C65.46 35.26 64.98 36.84 64.29 37.98H69.55V28.73H66.67V28.74Z" fill="white"/>
<path d="M76.8 25.91H80.48L82.88 32.55C83.18 33.42 83.45 34.38 83.75 35.3H83.84C84.14 34.38 84.39 33.42 84.69 32.55L87.05 25.91H90.71V40.83H87.64V35.36C87.64 33.9 87.91 31.72 88.07 30.28H88L86.79 33.83L84.66 39.53H82.8L80.67 33.83L79.48 30.28H79.39C79.55 31.72 79.82 33.9 79.82 35.36V40.83H76.8V25.91Z" fill="white"/>
<path d="M94.35 25.91H97.69V31.17C97.69 32.93 97.41 35.04 97.25 36.62H97.34L98.8 33.35L102.71 25.91H106.28V40.83H102.96V35.54C102.96 33.78 103.23 31.79 103.37 30.14H103.28L101.82 33.39L97.91 40.83H94.34V25.91H94.35Z" fill="white"/>
<path d="M109.94 25.91H113.3V31.66H118.45V25.91H121.84V40.83H118.45V34.6H113.3V40.83H109.94V25.91Z" fill="white"/>
<path d="M125.47 25.91H128.81V31.17C128.81 32.93 128.53 35.04 128.37 36.62H128.46L129.92 33.35L133.83 25.91H137.4V40.83H134.08V35.54C134.08 33.78 134.35 31.79 134.49 30.14H134.4L132.94 33.39L129.03 40.83H125.46V25.91H125.47Z" fill="white"/>
<path d="M140.35 33.46C140.35 28.52 143.62 25.63 147.4 25.63C149.32 25.63 150.88 26.55 151.89 27.58L150.1 29.73C149.35 29.04 148.54 28.54 147.47 28.54C145.43 28.54 143.81 30.35 143.81 33.35C143.81 36.42 145.23 38.2 147.43 38.2C148.64 38.2 149.6 37.58 150.34 36.8L152.13 38.91C150.89 40.35 149.25 41.11 147.3 41.11C143.5 41.1 140.35 38.47 140.35 33.46Z" fill="white"/>
<path d="M157.12 28.74H153.02V25.9H164.6V28.74H160.5V40.82H157.11V28.74H157.12Z" fill="white"/>
<path d="M167.05 25.91H172.18C175.45 25.91 178.11 27.1 178.11 30.72C178.11 34.22 175.43 35.78 172.27 35.78H170.42V40.84H167.06V25.91H167.05ZM172.06 33.09C173.91 33.09 174.81 32.27 174.81 30.71C174.81 29.15 173.8 28.58 171.97 28.58H170.41V33.09H172.06Z" fill="white"/>
<path d="M180.8 25.91H184.14V31.17C184.14 32.93 183.86 35.04 183.7 36.62H183.79L185.25 33.35L189.16 25.91H192.73V40.83H189.41V35.54C189.41 33.78 189.68 31.79 189.82 30.14H189.73L188.27 33.39L184.36 40.83H180.79V25.91H180.8Z" fill="white"/>
<path d="M196.38 25.91H201.51C204.78 25.91 207.44 27.1 207.44 30.72C207.44 34.22 204.76 35.78 201.6 35.78H199.75V40.84H196.39V25.91H196.38ZM201.39 33.09C203.24 33.09 204.14 32.27 204.14 30.71C204.14 29.15 203.13 28.58 201.3 28.58H199.74V33.09H201.39Z" fill="white"/>
<path d="M209.42 33.3C209.42 28.42 212.17 25.63 216.2 25.63C220.23 25.63 222.97 28.45 222.97 33.3C222.97 38.18 220.22 41.1 216.2 41.1C212.18 41.1 209.42 38.17 209.42 33.3ZM219.52 33.3C219.52 30.32 218.24 28.54 216.2 28.54C214.16 28.54 212.88 30.33 212.88 33.3C212.88 36.3 214.16 38.2 216.2 38.2C218.24 38.2 219.52 36.3 219.52 33.3Z" fill="white"/>
<path d="M225.9 25.91H231C234.09 25.91 236.49 26.76 236.49 29.62C236.49 30.95 235.76 32.39 234.54 32.85V32.94C236.05 33.33 237.22 34.45 237.22 36.44C237.22 39.48 234.66 40.83 231.43 40.83H225.89V25.91H225.9ZM230.84 31.88C232.49 31.88 233.2 31.19 233.2 30.12C233.2 28.95 232.45 28.52 230.87 28.52H229.27V31.88H230.84ZM231.16 38.22C232.99 38.22 233.93 37.58 233.93 36.21C233.93 34.91 233.01 34.38 231.16 34.38H229.26V38.22H231.16Z" fill="white"/>
<path d="M246.86 37.28H242.3L241.38 40.83H237.95L242.62 25.91H246.67L251.34 40.83H247.77L246.86 37.28ZM246.17 34.65L245.83 33.28C245.42 31.79 245.01 30.03 244.62 28.47H244.53C244.16 30.05 243.77 31.79 243.36 33.28L242.99 34.65H246.17Z" fill="white"/>
<path d="M253.08 25.91H256.44V31.66H261.59V25.91H264.98V40.83H261.59V34.6H256.44V40.83H253.08V25.91V25.91Z" fill="white"/>
<path d="M268.62 25.91H271.96V31.17C271.96 32.93 271.68 35.04 271.52 36.62H271.61L273.07 33.35L276.98 25.91H280.55V40.83H277.23V35.54C277.23 33.78 277.5 31.79 277.64 30.14H277.55L276.09 33.39L272.18 40.83H268.61V25.91H268.62Z" fill="white"/>
<path d="M284.2 25.91H293.54V28.75H287.57V31.75H292.65V34.57H287.57V38H293.77V40.84H284.2V25.91V25.91Z" fill="white"/>
</svg>
