<svg width="398" height="69" viewBox="0 0 398 69" fill="none" xmlns="http://www.w3.org/2000/svg">
<g opacity="0.6">
<path opacity="0.6" d="M397.18 29.25C396.73 29.24 396.29 29.25 395.84 29.22C395.62 29.21 395.53 29.28 395.47 29.48C395.41 29.71 395.33 29.94 395.23 30.16C394.97 30.75 394.96 30.75 395.46 31.19C396.11 31.76 396.11 31.76 395.55 32.39C395.26 32.72 394.95 33.05 394.67 33.39C394.53 33.56 394.43 33.59 394.26 33.42C393.97 33.14 393.7 32.75 393.35 32.65C393.01 32.56 392.72 33.04 392.34 33.13C391.89 33.24 391.84 33.51 391.94 33.91C392.02 34.21 392.15 34.59 392.03 34.81C391.9 35.05 391.48 34.96 391.18 35.01C390.76 35.08 390.33 35.14 389.9 35.22C389.71 35.25 389.64 35.21 389.62 35.01C389.59 34.73 389.48 34.45 389.5 34.17C389.52 33.77 389.32 33.66 388.98 33.64C388.82 33.63 388.66 33.6 388.5 33.56C387.81 33.38 387.81 33.38 387.41 34.01C386.99 34.69 386.99 34.69 386.3 34.26C385.91 34.02 385.53 33.77 385.13 33.54C384.96 33.44 384.9 33.36 385.02 33.17C385.25 32.82 385.63 32.46 385.62 32.1C385.61 31.78 385.15 31.48 384.95 31.14C384.76 30.83 384.59 30.77 384.25 30.91C383.92 31.04 383.51 31.33 383.25 31.18C383.02 31.05 382.99 30.57 382.88 30.24C382.74 29.82 382.42 29.33 382.53 28.99C382.64 28.66 383.27 28.67 383.67 28.53C383.88 28.46 383.9 28.36 383.9 28.18C383.88 27.8 383.86 27.42 383.95 27.05C384 26.85 383.92 26.76 383.73 26.7C383.4 26.59 383.08 26.44 382.76 26.32C382.58 26.25 382.55 26.17 382.62 25.99C382.87 25.38 383.11 24.77 383.35 24.16C383.42 23.98 383.5 23.95 383.68 24.03C383.97 24.17 384.29 24.25 384.57 24.39C384.82 24.52 384.96 24.45 385.1 24.23C385.27 23.95 385.49 23.71 385.75 23.51C385.97 23.34 385.95 23.19 385.83 22.97C385.64 22.62 385.23 22.23 385.35 21.92C385.45 21.64 385.97 21.51 386.32 21.34C386.69 21.16 387.08 20.72 387.41 20.84C387.7 20.95 387.84 21.48 388.01 21.84C388.11 22.05 388.2 22.1 388.44 22.04C388.76 21.95 389.1 21.88 389.43 21.89C389.76 21.9 389.83 21.73 389.87 21.48C389.92 21.2 390.01 20.93 390.03 20.65C390.05 20.41 390.14 20.35 390.36 20.4C391 20.54 391.65 20.68 392.29 20.8C392.5 20.84 392.48 20.95 392.45 21.09C392.38 21.42 392.31 21.75 392.23 22.07C392.18 22.28 392.22 22.43 392.44 22.51C392.61 22.58 392.77 22.68 392.94 22.77C393.17 22.9 393.35 23.21 393.6 23.17C393.84 23.13 394.04 22.87 394.25 22.71C394.8 22.28 394.8 22.27 395.24 22.83C395.53 23.2 395.82 23.58 396.12 23.94C396.28 24.13 396.33 24.25 396.08 24.41C395.8 24.59 395.55 24.83 395.28 25.03C395.15 25.13 395.12 25.21 395.19 25.37C395.36 25.74 395.5 26.11 395.57 26.51C395.6 26.68 395.69 26.74 395.88 26.74C396.31 26.74 396.74 26.78 397.17 26.81C397.18 27.63 397.18 28.44 397.18 29.25ZM392.9 27.82C392.9 26.11 391.54 24.71 389.86 24.71C388.12 24.71 386.73 26.07 386.72 27.77C386.72 29.54 388.06 30.88 389.82 30.89C391.54 30.89 392.89 29.54 392.9 27.82Z" fill="#40B7E2"/>
<path opacity="0.6" d="M368.85 14.8401C369.47 14.8401 370.09 14.85 370.71 14.83C370.94 14.82 371.01 14.89 371 15.12C370.99 15.84 371.01 16.55 370.99 17.27C370.98 17.5 371.04 17.61 371.27 17.66C372.07 17.82 372.82 18.11 373.53 18.48C373.71 18.58 373.81 18.54 373.93 18.39C374.39 17.82 374.87 17.2801 375.33 16.7101C375.47 16.5301 375.56 16.52 375.74 16.67C376.68 17.48 377.64 18.27 378.59 19.06C378.79 19.22 378.82 19.3301 378.64 19.5301C378.17 20.0501 377.74 20.61 377.28 21.13C377.13 21.3 377.1 21.41 377.25 21.6C377.74 22.23 378.14 22.9201 378.44 23.6501C378.53 23.8801 378.64 23.9 378.86 23.85C379.57 23.71 380.29 23.61 381.01 23.47C381.2 23.44 381.26 23.46 381.3 23.66C381.51 24.91 381.72 26.15 381.96 27.39C382.01 27.66 381.92 27.72 381.71 27.75C381.03 27.86 380.36 27.9801 379.68 28.0901C379.42 28.1301 379.28 28.22 379.27 28.52C379.26 29.28 379.11 30.02 378.89 30.74C378.82 30.96 378.85 31.09 379.07 31.22C379.7 31.56 380.3 31.9401 380.93 32.2801C381.14 32.3901 381.15 32.49 381.04 32.68C380.4 33.77 379.77 34.8601 379.14 35.9601C379.04 36.1401 378.96 36.16 378.78 36.05C378.15 35.67 377.5 35.31 376.86 34.93C376.69 34.83 376.6 34.83 376.46 34.98C375.91 35.58 375.29 36.1 374.61 36.54C374.42 36.66 374.41 36.77 374.49 36.97C374.75 37.63 374.97 38.31 375.23 38.97C375.31 39.18 375.32 39.28 375.06 39.37C373.87 39.78 372.69 40.22 371.5 40.66C371.3 40.74 371.23 40.71 371.16 40.5C370.93 39.81 370.67 39.1401 370.43 38.4601C370.36 38.2701 370.28 38.1801 370.06 38.2101C369.25 38.3201 368.44 38.3201 367.64 38.2101C367.43 38.1801 367.35 38.26 367.29 38.44C367.05 39.12 366.79 39.8 366.56 40.49C366.49 40.69 366.42 40.75 366.19 40.67C365.01 40.22 363.83 39.79 362.64 39.38C362.41 39.3 362.4 39.21 362.47 39.01C362.73 38.33 362.97 37.65 363.22 36.97C363.29 36.78 363.27 36.67 363.08 36.55C362.4 36.12 361.8 35.61 361.26 35.02C361.12 34.86 361.01 34.8401 360.83 34.9601C360.21 35.3401 359.57 35.69 358.95 36.06C358.77 36.17 358.67 36.19 358.55 35.97C357.93 34.87 357.3 33.77 356.66 32.68C356.53 32.46 356.61 32.39 356.78 32.29C357.4 31.94 358.01 31.57 358.63 31.23C358.83 31.12 358.89 31.03 358.81 30.79C358.57 30.04 358.44 29.27 358.4 28.49C358.39 28.22 358.27 28.15 358.05 28.11C357.37 28 356.7 27.88 356.02 27.77C355.75 27.73 355.68 27.64 355.74 27.35C355.97 26.19 356.16 25.02 356.35 23.85C356.4 23.54 356.48 23.39 356.85 23.48C357.52 23.64 358.2 23.72 358.87 23.86C359.07 23.9 359.16 23.86 359.24 23.68C359.55 22.93 359.95 22.2301 360.45 21.5901C360.59 21.4101 360.56 21.3 360.43 21.14C359.96 20.6 359.51 20.04 359.04 19.5C358.89 19.32 358.85 19.24 359.06 19.07C360.02 18.29 360.97 17.48 361.91 16.68C362.11 16.51 362.21 16.51 362.38 16.73C362.81 17.28 363.28 17.81 363.72 18.35C363.86 18.52 363.97 18.5701 364.19 18.4601C364.88 18.0901 365.61 17.82 366.38 17.66C366.63 17.61 366.69 17.48 366.69 17.24C366.67 16.58 366.71 15.92 366.67 15.26C366.65 14.88 366.78 14.81 367.12 14.83C367.69 14.86 368.27 14.8401 368.85 14.8401ZM368.85 22.3401C365.81 22.3401 363.34 24.8 363.34 27.83C363.34 30.86 365.81 33.32 368.84 33.32C371.89 33.32 374.33 30.88 374.34 27.83C374.34 24.79 371.9 22.3501 368.85 22.3401Z" fill="#40B7E2"/>
<path opacity="0.6" d="M376.31 42.4401C377.26 42.5001 377.26 42.5001 377.58 41.5801C377.61 41.5001 377.64 41.43 377.67 41.36C378.06 40.52 378.05 40.5201 377.37 39.8801C377.13 39.6601 376.69 39.4801 376.71 39.1801C376.73 38.9201 377.1 38.6901 377.31 38.4501C377.69 38.0301 378.09 37.6201 378.44 37.1801C378.65 36.9201 378.79 36.95 379 37.16C379.31 37.46 379.64 37.7401 379.96 38.0301C380.09 38.1601 380.19 38.2101 380.37 38.0901C380.82 37.7701 381.31 37.5201 381.83 37.3201C381.98 37.2601 382.02 37.1901 381.99 37.0201C381.9 36.5301 381.85 36.03 381.78 35.54C381.76 35.37 381.78 35.2801 382 35.2501C382.86 35.1501 383.71 35.0401 384.56 34.9001C384.82 34.8601 384.85 34.9301 384.87 35.1501C384.92 35.6201 385.02 36.08 385.07 36.55C385.09 36.76 385.19 36.83 385.37 36.85C385.91 36.89 386.43 37.0101 386.94 37.1901C387.11 37.2501 387.21 37.1801 387.3 37.0301C387.54 36.6201 387.8 36.2301 388.04 35.8301C388.15 35.6501 388.22 35.59 388.43 35.72C389.14 36.19 389.86 36.6401 390.58 37.0701C390.81 37.2101 390.8 37.3101 390.67 37.5101C390.41 37.9001 390.17 38.3101 389.91 38.7001C389.81 38.8501 389.81 38.9501 389.94 39.0801C390.33 39.4501 390.66 39.89 390.94 40.35C391.04 40.52 391.14 40.55 391.33 40.48C391.78 40.31 392.26 40.2001 392.71 40.0301C392.95 39.9401 392.99 40.06 393.04 40.22C393.3 41.04 393.56 41.86 393.84 42.67C393.91 42.88 393.85 42.9601 393.66 43.0101C393.22 43.1401 392.8 43.31 392.36 43.42C392.13 43.48 392.05 43.5801 392.07 43.8101C392.12 44.3201 392.08 44.8301 392 45.3401C391.97 45.5401 392.03 45.65 392.24 45.72C392.69 45.88 393.13 46.0901 393.58 46.2601C393.76 46.3201 393.77 46.39 393.71 46.55C393.37 47.37 393.04 48.1901 392.72 49.0101C392.65 49.1901 392.57 49.2201 392.39 49.1401C391.95 48.9401 391.49 48.7901 391.05 48.5901C390.87 48.5101 390.76 48.5301 390.65 48.7001C390.35 49.1301 390 49.5301 389.59 49.8701C389.42 50.0201 389.44 50.1301 389.54 50.3101C389.78 50.7301 389.99 51.1601 390.23 51.5901C390.31 51.7301 390.32 51.8101 390.14 51.9001C389.34 52.3101 388.55 52.74 387.76 53.17C387.59 53.26 387.54 53.18 387.47 53.04C387.26 52.62 387.02 52.21 386.81 51.79C386.71 51.59 386.6 51.5001 386.37 51.5701C385.86 51.7201 385.34 51.79 384.81 51.79C384.63 51.79 384.56 51.8401 384.53 52.0301C384.45 52.5201 384.32 53 384.23 53.49C384.19 53.68 384.14 53.7201 383.94 53.6801C383.09 53.4901 382.23 53.3101 381.38 53.1401C381.16 53.1001 381.14 53.0001 381.18 52.8101C381.29 52.3401 381.38 51.8601 381.49 51.3901C381.53 51.2201 381.49 51.13 381.33 51.05C380.84 50.82 380.38 50.5401 379.97 50.1901C379.81 50.0601 379.69 50.1001 379.55 50.2101C379.18 50.5101 378.8 50.7901 378.44 51.0901C378.29 51.2201 378.21 51.2501 378.07 51.0601C377.55 50.3701 377.02 49.6901 376.48 49.0201C376.35 48.8601 376.35 48.7601 376.52 48.6401C376.9 48.3601 377.26 48.0501 377.64 47.7801C377.81 47.6601 377.87 47.56 377.77 47.36C377.54 46.89 377.38 46.3901 377.29 45.8701C377.25 45.6701 377.16 45.6 376.97 45.6C376.5 45.59 376.03 45.5701 375.55 45.5701C375.32 45.5701 375.25 45.4901 375.26 45.2601C375.3 44.4101 375.33 43.5601 375.35 42.7101C375.36 42.4801 375.43 42.4001 375.66 42.4301C375.85 42.4201 376.08 42.4301 376.31 42.4401ZM384.61 48.22C386.75 48.22 388.52 46.4201 388.51 44.2601C388.5 42.1301 386.7 40.35 384.54 40.36C382.4 40.37 380.64 42.1601 380.64 44.3301C380.65 46.4701 382.44 48.22 384.61 48.22Z" fill="#40B7E2"/>
</g>
<path opacity="0.6" d="M332.48 68.51H0.139893V0.150024H332.48C337.3 0.150024 341.21 4.06 341.21 8.88V59.78C341.21 64.6 337.3 68.51 332.48 68.51Z" fill="#40B7E2"/>
<path d="M55.0201 36.66H50.4701L49.5501 40.21H46.1201L50.7901 25.29H54.8401L59.5101 40.21H55.9401L55.0201 36.66ZM54.3401 34.03L54.0001 32.66C53.5901 31.17 53.1801 29.41 52.7901 27.85H52.7001C52.3301 29.43 51.9501 31.17 51.5301 32.66L51.1601 34.03H54.3401Z" fill="white"/>
<path d="M74.8901 37.37V39.48L74.5901 44.52H71.5901V40.22H63.4401V44.52H60.4401L60.1401 39.48V37.37H60.8301C61.4901 37.14 62.2701 35.84 62.9601 32.22C63.4601 29.59 63.7201 28.15 64.2001 25.29H73.0601V37.37H74.8901V37.37ZM66.8101 28.12C66.4901 29.91 66.3501 30.82 65.9901 32.65C65.6001 34.64 65.1201 36.22 64.4301 37.36H69.6901V28.11H66.8101V28.12Z" fill="white"/>
<path d="M76.9402 25.29H80.6202L83.0202 31.93C83.3202 32.8 83.5902 33.76 83.8902 34.68H83.9802C84.2802 33.76 84.5302 32.8 84.8302 31.93L87.1902 25.29H90.8502V40.21H87.7802V34.74C87.7802 33.28 88.0502 31.1 88.2102 29.66H88.1202L86.9102 33.21L84.7802 38.91H82.9302L80.8002 33.21L79.6102 29.66H79.5202C79.6802 31.1 79.9502 33.28 79.9502 34.74V40.21H76.9302V25.29H76.9402Z" fill="white"/>
<path d="M94.4902 25.29H97.8302V30.55C97.8302 32.31 97.5502 34.42 97.3902 36H97.4802L98.9402 32.73L102.85 25.29H106.42V40.21H103.1V34.92C103.1 33.16 103.37 31.17 103.51 29.52H103.42L101.96 32.77L98.0502 40.21H94.4802V25.29H94.4902Z" fill="white"/>
<path d="M110.07 25.29H113.43V31.04H118.58V25.29H121.97V40.21H118.58V33.98H113.43V40.21H110.07V25.29Z" fill="white"/>
<path d="M125.61 25.29H128.95V30.55C128.95 32.31 128.67 34.42 128.51 36H128.6L130.06 32.73L133.97 25.29H137.54V40.21H134.22V34.92C134.22 33.16 134.49 31.17 134.63 29.52H134.54L133.08 32.77L129.17 40.21H125.6V25.29H125.61Z" fill="white"/>
<path d="M140.48 32.84C140.48 27.9 143.75 25.01 147.53 25.01C149.45 25.01 151.01 25.93 152.02 26.96L150.23 29.11C149.48 28.42 148.67 27.92 147.6 27.92C145.56 27.92 143.94 29.73 143.94 32.73C143.94 35.8 145.36 37.58 147.56 37.58C148.77 37.58 149.73 36.96 150.47 36.18L152.26 38.29C151.02 39.73 149.38 40.49 147.43 40.49C143.64 40.48 140.48 37.85 140.48 32.84Z" fill="white"/>
<path d="M157.26 28.12H153.16V25.28H164.74V28.12H160.64V40.2H157.25V28.12H157.26Z" fill="white"/>
<path d="M167.19 25.29H172.32C175.59 25.29 178.25 26.48 178.25 30.1C178.25 33.6 175.57 35.16 172.41 35.16H170.56V40.22H167.2V25.29H167.19ZM172.2 32.47C174.05 32.47 174.95 31.65 174.95 30.09C174.95 28.53 173.94 27.96 172.11 27.96H170.55V32.47H172.2Z" fill="white"/>
<path d="M180.94 25.29H184.28V30.55C184.28 32.31 184 34.42 183.84 36H183.93L185.39 32.73L189.3 25.29H192.87V40.21H189.55V34.92C189.55 33.16 189.82 31.17 189.96 29.52H189.87L188.41 32.77L184.5 40.21H180.93V25.29H180.94Z" fill="white"/>
<path d="M196.52 25.29H201.65C204.92 25.29 207.58 26.48 207.58 30.1C207.58 33.6 204.9 35.16 201.74 35.16H199.89V40.22H196.53V25.29H196.52ZM201.53 32.47C203.38 32.47 204.28 31.65 204.28 30.09C204.28 28.53 203.27 27.96 201.44 27.96H199.88V32.47H201.53Z" fill="white"/>
<path d="M209.56 32.68C209.56 27.8 212.31 25.01 216.34 25.01C220.37 25.01 223.11 27.83 223.11 32.68C223.11 37.56 220.36 40.48 216.34 40.48C212.32 40.48 209.56 37.55 209.56 32.68ZM219.66 32.68C219.66 29.7 218.38 27.92 216.34 27.92C214.3 27.92 213.02 29.71 213.02 32.68C213.02 35.68 214.3 37.58 216.34 37.58C218.38 37.58 219.66 35.68 219.66 32.68Z" fill="white"/>
<path d="M226.04 25.29H231.14C234.23 25.29 236.63 26.14 236.63 29C236.63 30.33 235.9 31.77 234.68 32.23V32.32C236.19 32.71 237.36 33.83 237.36 35.82C237.36 38.86 234.8 40.21 231.57 40.21H226.03V25.29H226.04ZM230.98 31.26C232.63 31.26 233.34 30.57 233.34 29.5C233.34 28.33 232.59 27.9 231.01 27.9H229.41V31.26H230.98ZM231.3 37.6C233.13 37.6 234.07 36.96 234.07 35.59C234.07 34.29 233.15 33.76 231.3 33.76H229.4V37.6H231.3Z" fill="white"/>
<path d="M247 36.66H242.44L241.52 40.21H238.09L242.76 25.29H246.81L251.48 40.21H247.91L247 36.66ZM246.31 34.03L245.97 32.66C245.56 31.17 245.15 29.41 244.76 27.85H244.67C244.3 29.43 243.91 31.17 243.5 32.66L243.13 34.03H246.31Z" fill="white"/>
<path d="M253.22 25.29H256.58V31.04H261.73V25.29H265.12V40.21H261.73V33.98H256.58V40.21H253.22V25.29V25.29Z" fill="white"/>
<path d="M268.76 25.29H272.1V30.55C272.1 32.31 271.82 34.42 271.66 36H271.75L273.21 32.73L277.12 25.29H280.69V40.21H277.37V34.92C277.37 33.16 277.64 31.17 277.78 29.52H277.69L276.23 32.77L272.32 40.21H268.75V25.29H268.76Z" fill="white"/>
<path d="M284.34 25.29H293.68V28.13H287.71V31.13H292.79V33.95H287.71V37.38H293.91V40.22H284.34V25.29V25.29Z" fill="white"/>
</svg>
