<svg width="397" height="69" viewBox="0 0 397 69" fill="none" xmlns="http://www.w3.org/2000/svg">
<path d="M396.13 53.49C395.85 54.14 395.36 54.35 394.66 54.35C382.38 54.34 370.09 54.34 357.81 54.34C356.98 54.34 356.47 53.87 356.49 53.12C356.51 52.53 356.98 52.04 357.57 52.02C357.9 52.01 358.24 52 358.58 52.02C358.83 52.04 358.9 51.96 358.9 51.71C358.89 49.75 358.89 47.79 358.89 45.83C358.89 43.64 358.89 41.44 358.89 39.25C358.89 38.37 359.33 37.93 360.22 37.93C361.67 37.93 363.11 37.93 364.56 37.93C365.41 37.93 365.86 38.38 365.86 39.24C365.86 43.37 365.86 47.5 365.85 51.63C365.85 51.95 365.92 52.05 366.24 52.03C366.77 52 367.3 52 367.83 52.03C368.12 52.04 368.19 51.96 368.19 51.67C368.18 49.12 368.21 46.56 368.17 44.01C368.16 43.13 368.66 42.53 369.64 42.56C371.03 42.61 372.43 42.61 373.82 42.56C374.57 42.54 375.18 43.07 375.17 43.93C375.13 46.51 375.16 49.09 375.15 51.67C375.15 51.96 375.21 52.04 375.51 52.03C376.09 52 376.67 52.01 377.25 52.03C377.44 52.03 377.49 51.98 377.49 51.79C377.48 51.18 377.49 50.58 377.49 49.97C377.49 44.86 377.5 39.75 377.48 34.64C377.48 33.79 378.08 33.25 378.83 33.27C380.26 33.31 381.7 33.31 383.13 33.27C383.88 33.25 384.48 33.78 384.48 34.64C384.46 40.29 384.47 45.94 384.46 51.59C384.46 51.94 384.54 52.05 384.9 52.02C385.45 51.99 386.01 52 386.56 52.02C386.75 52.02 386.82 51.97 386.79 51.78C386.78 51.7 386.79 51.63 386.79 51.55C386.79 43.6 386.8 35.65 386.78 27.71C386.78 26.81 387.36 26.28 388.17 26.3C389.57 26.35 390.98 26.35 392.39 26.3C393.19 26.27 393.78 26.81 393.78 27.71C393.76 35.67 393.77 43.63 393.76 51.59C393.76 51.94 393.84 52.07 394.2 52.02C394.36 52 394.54 52.03 394.7 52.01C395.4 51.94 395.89 52.22 396.17 52.86C396.13 53.07 396.13 53.28 396.13 53.49Z" fill="#40B7E2"/>
<path d="M390.78 14.7C391.41 14.9 392.02 15.11 392.54 15.56C393.85 16.7 394.12 18.73 393.12 20.15C392.1 21.6 390.16 22.1 388.64 21.27C388.39 21.13 388.23 21.15 388 21.32C386.84 22.21 385.68 23.08 384.51 23.94C384.33 24.07 384.29 24.18 384.34 24.41C384.63 25.71 384.26 26.84 383.28 27.73C382.26 28.64 381.07 28.88 379.76 28.41C379.53 28.33 379.4 28.35 379.23 28.52C377.83 29.93 376.43 31.34 375.02 32.73C374.86 32.89 374.84 33.02 374.92 33.23C375.42 34.54 375.08 36.02 374.08 36.95C373.04 37.92 371.51 38.21 370.28 37.63C368.92 36.99 368.2 35.9 368.2 34.39C368.2 34.07 368.09 33.94 367.84 33.82C366.91 33.37 365.98 32.9 365.05 32.43C364.87 32.34 364.75 32.34 364.57 32.47C362.71 33.9 360.33 33.37 359.24 31.31C358.64 30.18 358.82 28.64 359.66 27.61C360.55 26.53 362 26.05 363.26 26.43C364.91 26.92 365.87 28.22 365.84 29.97C365.84 30.17 365.9 30.26 366.07 30.34C367.05 30.82 368.02 31.31 368.99 31.8C369.16 31.88 369.27 31.9 369.44 31.77C370.5 30.92 371.67 30.72 372.95 31.21C373.12 31.27 373.2 31.24 373.31 31.13C374.75 29.69 376.19 28.24 377.64 26.81C377.77 26.68 377.77 26.58 377.71 26.41C376.8 23.93 378.68 21.46 381.32 21.68C381.78 21.72 382.23 21.86 382.63 22.1C382.79 22.19 382.9 22.23 383.07 22.09C384.29 21.16 385.52 20.24 386.75 19.33C386.86 19.25 386.92 19.18 386.87 19.02C386.37 17.27 387.49 15.3 389.28 14.83C389.36 14.81 389.49 14.82 389.53 14.69C389.96 14.7 390.37 14.7 390.78 14.7Z" fill="#40B7E2"/>
<path d="M332.66 68.7H0.310059V0.340027H332.65C337.47 0.340027 341.38 4.25001 341.38 9.07001V59.97C341.39 64.8 337.48 68.7 332.66 68.7Z" fill="#40B7E2"/>
<path d="M104.79 33.03C104.79 28.09 108.06 25.2 111.84 25.2C113.76 25.2 115.32 26.12 116.33 27.15L114.54 29.3C113.79 28.61 112.98 28.11 111.91 28.11C109.87 28.11 108.25 29.92 108.25 32.92C108.25 35.99 109.67 37.77 111.87 37.77C113.08 37.77 114.04 37.15 114.78 36.37L116.57 38.48C115.33 39.92 113.69 40.68 111.74 40.68C107.95 40.68 104.79 38.05 104.79 33.03Z" fill="white"/>
<path d="M121.56 28.32H117.46V25.48H129.04V28.32H124.94V40.4H121.55V28.32H121.56Z" fill="white"/>
<path d="M137.58 36.86H133.02L132.1 40.41H128.67L133.34 25.49H137.39L142.06 40.41H138.49L137.58 36.86ZM136.89 34.23L136.55 32.86C136.14 31.37 135.73 29.61 135.34 28.05H135.25C134.88 29.63 134.49 31.37 134.08 32.86L133.71 34.23H136.89Z" fill="white"/>
<path d="M145.04 28.32H140.94V25.48H152.52V28.32H148.42V40.4H145.03V28.32H145.04Z" fill="white"/>
<path d="M154.97 25.48H158.31V30.74C158.31 32.5 158.03 34.61 157.87 36.19H157.96L159.42 32.92L163.33 25.48H166.9V40.4H163.58V35.11C163.58 33.35 163.85 31.36 163.99 29.71H163.9L162.44 32.96L158.53 40.4H154.96V25.48H154.97Z" fill="white"/>
<path d="M169.84 33.03C169.84 28.09 173.11 25.2 176.89 25.2C178.81 25.2 180.37 26.12 181.38 27.15L179.59 29.3C178.84 28.61 178.03 28.11 176.96 28.11C174.92 28.11 173.3 29.92 173.3 32.92C173.3 35.99 174.72 37.77 176.92 37.77C178.13 37.77 179.09 37.15 179.83 36.37L181.62 38.48C180.38 39.92 178.74 40.68 176.79 40.68C173 40.68 169.84 38.05 169.84 33.03Z" fill="white"/>
<path d="M186.62 28.32H182.52V25.48H194.1V28.32H190V40.4H186.61V28.32H186.62Z" fill="white"/>
<path d="M196.55 25.48H199.89V30.74C199.89 32.5 199.61 34.61 199.45 36.19H199.54L201 32.92L204.91 25.48H208.48V40.4H205.16V35.11C205.16 33.35 205.43 31.36 205.57 29.71H205.48L204.02 32.96L200.11 40.4H196.54V25.48H196.55Z" fill="white"/>
<path d="M224.65 40.4H221.1L217.14 34.06H215.49V40.4H212.13V25.48H215.49V31.34H217.14L219.09 27.91C220.23 25.9 221.33 25.21 223.03 25.21C223.44 25.21 223.95 25.25 224.27 25.42L223.72 28.46C223.47 28.37 223.19 28.37 223.06 28.37C222.4 28.37 222.01 28.67 221.39 29.72L219.81 32.47L224.65 40.4Z" fill="white"/>
<path d="M233.48 36.86H228.93L228.01 40.41H224.58L229.25 25.49H233.3L237.97 40.41H234.4L233.48 36.86ZM232.79 34.23L232.45 32.86C232.04 31.37 231.63 29.61 231.24 28.05H231.15C230.78 29.63 230.4 31.37 229.98 32.86L229.61 34.23H232.79Z" fill="white"/>
</svg>
