<svg width="397" height="69" viewBox="0 0 397 69" fill="none" xmlns="http://www.w3.org/2000/svg">
<g opacity="0.6">
<path opacity="0.6" d="M396.13 53.72C395.85 54.37 395.36 54.58 394.66 54.58C382.38 54.57 370.09 54.57 357.81 54.57C356.98 54.57 356.47 54.1 356.49 53.35C356.51 52.76 356.98 52.27 357.57 52.25C357.9 52.24 358.24 52.23 358.58 52.25C358.83 52.27 358.9 52.19 358.9 51.94C358.89 49.98 358.89 48.02 358.89 46.06C358.89 43.87 358.89 41.67 358.89 39.48C358.89 38.6 359.33 38.16 360.22 38.16C361.67 38.16 363.11 38.16 364.56 38.16C365.41 38.16 365.86 38.61 365.86 39.47C365.86 43.6 365.86 47.73 365.85 51.86C365.85 52.18 365.92 52.28 366.24 52.26C366.77 52.23 367.3 52.23 367.83 52.26C368.12 52.27 368.19 52.19 368.19 51.9C368.18 49.35 368.21 46.79 368.17 44.24C368.16 43.36 368.66 42.76 369.64 42.79C371.03 42.84 372.43 42.84 373.82 42.79C374.57 42.77 375.18 43.3 375.17 44.16C375.13 46.74 375.16 49.32 375.15 51.9C375.15 52.19 375.21 52.27 375.51 52.26C376.09 52.23 376.67 52.24 377.25 52.26C377.44 52.26 377.49 52.21 377.49 52.02C377.48 51.41 377.49 50.81 377.49 50.2C377.49 45.09 377.5 39.98 377.48 34.87C377.48 34.02 378.08 33.48 378.83 33.5C380.26 33.54 381.7 33.54 383.13 33.5C383.88 33.48 384.48 34.01 384.48 34.87C384.46 40.52 384.47 46.17 384.46 51.82C384.46 52.17 384.54 52.28 384.9 52.25C385.45 52.22 386.01 52.23 386.56 52.25C386.75 52.25 386.82 52.2 386.79 52.01C386.78 51.93 386.79 51.86 386.79 51.78C386.79 43.83 386.8 35.88 386.78 27.94C386.78 27.04 387.36 26.51 388.17 26.53C389.57 26.58 390.98 26.58 392.39 26.53C393.19 26.5 393.78 27.04 393.78 27.94C393.76 35.9 393.77 43.86 393.76 51.82C393.76 52.17 393.84 52.3 394.2 52.25C394.36 52.23 394.54 52.26 394.7 52.24C395.4 52.17 395.89 52.45 396.17 53.09C396.13 53.31 396.13 53.51 396.13 53.72Z" fill="#40B7E2"/>
<path opacity="0.6" d="M390.78 14.93C391.41 15.13 392.02 15.34 392.54 15.79C393.85 16.93 394.12 18.96 393.12 20.38C392.1 21.83 390.16 22.33 388.64 21.5C388.39 21.36 388.23 21.38 388 21.55C386.84 22.44 385.68 23.31 384.51 24.17C384.33 24.3 384.29 24.41 384.34 24.64C384.63 25.94 384.26 27.07 383.28 27.96C382.26 28.87 381.07 29.11 379.76 28.64C379.53 28.56 379.4 28.58 379.23 28.75C377.83 30.16 376.43 31.57 375.02 32.96C374.86 33.12 374.84 33.25 374.92 33.46C375.42 34.77 375.08 36.25 374.08 37.18C373.04 38.15 371.51 38.44 370.28 37.86C368.92 37.22 368.2 36.13 368.2 34.62C368.2 34.3 368.09 34.17 367.84 34.05C366.91 33.6 365.98 33.13 365.05 32.66C364.87 32.57 364.75 32.57 364.57 32.7C362.71 34.13 360.33 33.6 359.24 31.54C358.64 30.41 358.82 28.87 359.66 27.84C360.55 26.76 362 26.28 363.26 26.66C364.91 27.15 365.87 28.45 365.84 30.2C365.84 30.4 365.9 30.49 366.07 30.57C367.05 31.05 368.02 31.54 368.99 32.03C369.16 32.11 369.27 32.13 369.44 32C370.5 31.15 371.67 30.95 372.95 31.44C373.12 31.5 373.2 31.47 373.31 31.36C374.75 29.92 376.19 28.47 377.64 27.04C377.77 26.91 377.77 26.81 377.71 26.64C376.8 24.16 378.68 21.69 381.32 21.91C381.78 21.95 382.23 22.09 382.63 22.33C382.79 22.42 382.9 22.46 383.07 22.32C384.29 21.39 385.52 20.47 386.75 19.56C386.86 19.48 386.92 19.41 386.87 19.25C386.37 17.5 387.49 15.53 389.28 15.06C389.36 15.04 389.49 15.05 389.53 14.92C389.96 14.93 390.37 14.93 390.78 14.93Z" fill="#40B7E2"/>
</g>
<path opacity="0.6" d="M332.66 68.94H0.310059V0.579956H332.65C337.47 0.579956 341.38 4.48997 341.38 9.30997V60.21C341.39 65.03 337.48 68.94 332.66 68.94Z" fill="#40B7E2"/>
<path d="M104.79 33.27C104.79 28.33 108.06 25.44 111.84 25.44C113.76 25.44 115.32 26.36 116.33 27.39L114.54 29.54C113.79 28.85 112.98 28.35 111.91 28.35C109.87 28.35 108.25 30.16 108.25 33.16C108.25 36.23 109.67 38.01 111.87 38.01C113.08 38.01 114.04 37.39 114.78 36.61L116.57 38.72C115.33 40.16 113.69 40.92 111.74 40.92C107.95 40.91 104.79 38.28 104.79 33.27Z" fill="white"/>
<path d="M121.56 28.55H117.46V25.71H129.04V28.55H124.94V40.63H121.55V28.55H121.56Z" fill="white"/>
<path d="M137.58 37.09H133.02L132.1 40.64H128.67L133.34 25.72H137.39L142.06 40.64H138.49L137.58 37.09ZM136.89 34.46L136.55 33.09C136.14 31.6 135.73 29.84 135.34 28.28H135.25C134.88 29.86 134.49 31.6 134.08 33.09L133.71 34.46H136.89Z" fill="white"/>
<path d="M145.04 28.55H140.94V25.71H152.52V28.55H148.42V40.63H145.03V28.55H145.04Z" fill="white"/>
<path d="M154.97 25.71H158.31V30.97C158.31 32.73 158.03 34.84 157.87 36.42H157.96L159.42 33.15L163.33 25.71H166.9V40.63H163.58V35.34C163.58 33.58 163.85 31.59 163.99 29.94H163.9L162.44 33.19L158.53 40.63H154.96V25.71H154.97Z" fill="white"/>
<path d="M169.84 33.27C169.84 28.33 173.11 25.44 176.89 25.44C178.81 25.44 180.37 26.36 181.38 27.39L179.59 29.54C178.84 28.85 178.03 28.35 176.96 28.35C174.92 28.35 173.3 30.16 173.3 33.16C173.3 36.23 174.72 38.01 176.92 38.01C178.13 38.01 179.09 37.39 179.83 36.61L181.62 38.72C180.38 40.16 178.74 40.92 176.79 40.92C173 40.91 169.84 38.28 169.84 33.27Z" fill="white"/>
<path d="M186.62 28.55H182.52V25.71H194.1V28.55H190V40.63H186.61V28.55H186.62Z" fill="white"/>
<path d="M196.55 25.71H199.89V30.97C199.89 32.73 199.61 34.84 199.45 36.42H199.54L201 33.15L204.91 25.71H208.48V40.63H205.16V35.34C205.16 33.58 205.43 31.59 205.57 29.94H205.48L204.02 33.19L200.11 40.63H196.54V25.71H196.55Z" fill="white"/>
<path d="M224.65 40.64H221.1L217.14 34.3H215.49V40.64H212.13V25.72H215.49V31.58H217.14L219.09 28.15C220.23 26.14 221.33 25.45 223.03 25.45C223.44 25.45 223.95 25.49 224.27 25.66L223.72 28.7C223.47 28.61 223.19 28.61 223.06 28.61C222.4 28.61 222.01 28.91 221.39 29.96L219.81 32.71L224.65 40.64Z" fill="white"/>
<path d="M233.48 37.09H228.93L228.01 40.64H224.58L229.25 25.72H233.3L237.97 40.64H234.4L233.48 37.09ZM232.79 34.46L232.45 33.09C232.04 31.6 231.63 29.84 231.24 28.28H231.15C230.78 29.86 230.4 31.6 229.98 33.09L229.61 34.46H232.79Z" fill="white"/>
</svg>
