<svg width="246" height="118" viewBox="0 0 246 118" fill="none" xmlns="http://www.w3.org/2000/svg">
<path d="M0.899902 107.51C0.899902 103.39 3.3199 100.87 6.5799 100.87C8.13989 100.87 9.3499 101.61 10.0899 102.45L9.2099 103.5C8.5299 102.78 7.6899 102.29 6.5899 102.29C4.1699 102.29 2.56989 104.28 2.56989 107.46C2.56989 110.68 4.10991 112.71 6.52991 112.71C7.75991 112.71 8.67988 112.16 9.49988 111.27L10.3999 112.28C9.3899 113.45 8.13986 114.13 6.47986 114.13C3.27986 114.15 0.899902 111.69 0.899902 107.51Z" fill="#303031"/>
<path d="M12.1399 111.46C12.1399 109.39 13.9199 108.36 17.9599 107.91C17.9599 106.7 17.5699 105.53 16.0099 105.53C14.9199 105.53 13.9199 106.04 13.1799 106.54L12.5599 105.43C13.4399 104.86 14.7699 104.2 16.2899 104.2C18.6099 104.2 19.5899 105.74 19.5899 108.1V113.92H18.2599L18.1199 112.79H18.0599C17.1599 113.53 16.1099 114.16 14.9199 114.16C13.3299 114.15 12.1399 113.15 12.1399 111.46ZM17.9499 111.59V108.96C14.7899 109.35 13.6999 110.13 13.6999 111.34C13.6999 112.41 14.4399 112.86 15.3799 112.86C16.2899 112.86 17.0299 112.41 17.9499 111.59Z" fill="#303031"/>
<path d="M22.6499 104.43H24.2499V108.27H28.8199V104.43H30.4199V113.91H28.8199V109.69H24.2499V113.91H22.6499V104.43Z" fill="#303031"/>
<path d="M33.71 104.43H35.27V108.37C35.27 109.39 35.1899 110.65 35.1099 111.86H35.1899C35.5399 111.27 36.1099 110.42 36.4399 109.83L40.03 104.42H41.53V113.9H39.9699V109.96C39.9699 108.95 40.0499 107.68 40.1299 106.45H40.0499C39.6999 107.04 39.1299 107.91 38.7999 108.48L35.1899 113.91H33.71V104.43Z" fill="#303031"/>
<path d="M46.9197 105.74H43.7397V104.43H51.6998V105.74H48.5198V113.92H46.9197V105.74V105.74Z" fill="#303031"/>
<path d="M52.9099 111.46C52.9099 109.39 54.6899 108.36 58.7299 107.91C58.7299 106.7 58.34 105.53 56.78 105.53C55.69 105.53 54.69 106.04 53.95 106.54L53.33 105.43C54.21 104.86 55.5399 104.2 57.0599 104.2C59.3799 104.2 60.3599 105.74 60.3599 108.1V113.92H59.03L58.89 112.79H58.83C57.93 113.53 56.8799 114.16 55.6899 114.16C54.0999 114.15 52.9099 113.15 52.9099 111.46ZM58.7199 111.59V108.96C55.5599 109.35 54.4699 110.13 54.4699 111.34C54.4699 112.41 55.21 112.86 56.15 112.86C57.06 112.86 57.8099 112.41 58.7199 111.59Z" fill="#303031"/>
<path d="M63.4199 104.43H64.9799V108.37C64.9799 109.39 64.8999 110.65 64.8199 111.86H64.9C65.25 111.27 65.82 110.42 66.15 109.83L69.7399 104.42H71.2399V113.9H69.6799V109.96C69.6799 108.95 69.76 107.68 69.84 106.45H69.7599C69.4099 107.04 68.8399 107.91 68.5099 108.48L64.9 113.91H63.4199V104.43ZM64.3199 99.75H65.65C65.69 100.86 66.1 101.8 67.39 101.8C68.68 101.8 69.0899 100.86 69.1299 99.75H70.46C70.38 101.27 69.58 102.74 67.4 102.74C65.2 102.73 64.3999 101.27 64.3199 99.75Z" fill="#303031"/>
<path d="M73.6599 112.94L74.34 111.91C75.22 112.63 76.1499 112.87 77.1099 112.87C78.3999 112.87 79.4699 112.23 79.4699 111.17C79.4699 110.1 78.5899 109.57 77.0499 109.57H75.7399V108.42H76.8099C78.3299 108.42 79.09 107.85 79.09 106.92C79.09 105.96 78.2699 105.48 77.1199 105.48C76.0299 105.48 75.3099 105.77 74.5399 106.32L73.8599 105.27C74.7799 104.63 75.83 104.22 77.2 104.22C79.05 104.22 80.65 105.04 80.65 106.78C80.65 107.7 80.06 108.5 79.09 108.89V108.97C80.18 109.26 81.0599 109.97 81.0599 111.33C81.0599 113.09 79.2599 114.18 77.2299 114.18C75.9499 114.15 74.7799 113.86 73.6599 112.94Z" fill="#303031"/>
<path d="M82.8298 109.19C82.8298 106.09 84.9198 104.19 87.0798 104.19C89.4998 104.19 90.8698 105.93 90.8698 108.64C90.8698 108.97 90.8498 109.32 90.8098 109.56H84.4098C84.5298 111.57 85.7598 112.86 87.5698 112.86C88.4698 112.86 89.2298 112.57 89.9298 112.12L90.4998 113.17C89.6798 113.7 88.6698 114.15 87.3798 114.15C84.8398 114.15 82.8298 112.3 82.8298 109.19ZM89.4698 108.41C89.4698 106.5 88.6098 105.46 87.1298 105.46C85.7998 105.46 84.5898 106.53 84.3998 108.41H89.4698Z" fill="#303031"/>
<path d="M93.3098 104.43H94.6398L94.7798 105.52H94.8398C95.6998 104.8 96.7498 104.19 97.8598 104.19C100.3 104.19 101.61 106.08 101.61 109.03C101.61 112.25 99.6798 114.14 97.5098 114.14C96.6298 114.14 95.7498 113.73 94.8798 113.05L94.9198 114.71V117.91H93.3198V104.43H93.3098ZM99.9398 109.04C99.9398 106.95 99.2398 105.55 97.4398 105.55C96.6398 105.55 95.8398 106 94.8998 106.84V111.82C95.7598 112.54 96.5998 112.82 97.2198 112.82C98.7898 112.8 99.9398 111.38 99.9398 109.04Z" fill="#303031"/>
<path d="M108.88 99.47H112.23L116 106.65L117.42 109.84H117.51C117.38 108.31 117.11 106.27 117.11 104.57V99.47H120.21V113.92H116.86L113.09 106.72L111.67 103.57H111.58C111.71 105.16 111.98 107.09 111.98 108.8V113.92H108.88V99.47Z" fill="#303031"/>
<path d="M122.81 108.42C122.81 104.85 125.36 102.66 127.99 102.66C131.11 102.66 132.66 104.94 132.66 107.93C132.66 108.51 132.59 109.1 132.53 109.37H125.95C126.24 110.97 127.35 111.7 128.81 111.7C129.63 111.7 130.38 111.46 131.18 110.97L132.27 112.94C131.14 113.72 129.68 114.18 128.37 114.18C125.23 114.18 122.81 112.05 122.81 108.42ZM129.9 107.22C129.9 106 129.37 105.14 128.06 105.14C127.04 105.14 126.15 105.83 125.93 107.22H129.9Z" fill="#303031"/>
<path d="M136.92 108.2L133.75 102.93H137.25L138.22 104.7C138.51 105.32 138.84 105.96 139.15 106.58H139.24C139.46 105.96 139.75 105.32 139.99 104.7L140.74 102.93H144.11L140.92 108.58L144.31 113.92H140.81L139.75 112.1C139.4 111.48 139.06 110.81 138.71 110.19H138.62C138.35 110.81 138.04 111.45 137.78 112.1L136.92 113.92H133.55L136.92 108.2Z" fill="#303031"/>
<path d="M148.73 102.22H144.76V99.47H155.97V102.22H152V113.92H148.72V102.22H148.73Z" fill="#303031"/>
<path d="M155.75 108.42C155.75 104.76 158.32 102.66 161.11 102.66C163.88 102.66 166.45 104.76 166.45 108.42C166.45 112.08 163.88 114.18 161.11 114.18C158.32 114.18 155.75 112.08 155.75 108.42ZM163.12 108.42C163.12 106.51 162.43 105.3 161.1 105.3C159.75 105.3 159.08 106.52 159.08 108.42C159.08 110.33 159.74 111.54 161.1 111.54C162.44 111.54 163.12 110.33 163.12 108.42Z" fill="#303031"/>
<path d="M168.68 109.75V102.93H171.94V109.33C171.94 110.9 172.36 111.41 173.31 111.41C174.13 111.41 174.62 111.06 175.26 110.19V102.92H178.52V113.91H175.86L175.62 112.38H175.55C174.62 113.49 173.6 114.17 172.09 114.17C169.7 114.18 168.68 112.5 168.68 109.75Z" fill="#303031"/>
<path d="M180.84 108.42C180.84 104.76 183.52 102.66 186.56 102.66C187.91 102.66 188.95 103.15 189.77 103.83L188.24 105.93C187.71 105.49 187.26 105.29 186.76 105.29C185.19 105.29 184.19 106.51 184.19 108.41C184.19 110.32 185.23 111.53 186.65 111.53C187.36 111.53 188.05 111.18 188.62 110.73L189.91 112.86C188.82 113.81 187.47 114.17 186.28 114.17C183.21 114.18 180.84 112.08 180.84 108.42Z" fill="#303031"/>
<path d="M191.94 98.38H195.2V102.19L195.05 104.16C195.87 103.43 196.96 102.65 198.44 102.65C200.83 102.65 201.85 104.33 201.85 107.08V113.9H198.59V107.5C198.59 105.91 198.17 105.42 197.24 105.42C196.42 105.42 195.91 105.8 195.2 106.48V113.9H191.94V98.38Z" fill="#303031"/>
<path d="M98.6699 68.38V2.73999H245.56V0.77002H96.6799V68.38C95.5199 68.79 94.6899 69.87 94.6899 71.16C94.6899 72.79 96.0299 74.12 97.6799 74.12C99.3299 74.12 100.67 72.8 100.67 71.16C100.67 69.87 99.8299 68.79 98.6699 68.38Z" fill="#40B7E2"/>
</svg>
